<?xml version="1.0" encoding="utf-8"?>
<!-- Generator: Adobe Illustrator 25.0.1, SVG Export Plug-In . SVG Version: 6.00 Build 0)  -->
<svg version="1.1" id="Layer_1" xmlns="http://www.w3.org/2000/svg" xmlns:xlink="http://www.w3.org/1999/xlink" x="0px" y="0px"
	 viewBox="0 0 840.3 884.5" style="enable-background:new 0 0 840.3 884.5;" xml:space="preserve">
<style type="text/css">
	.st0{fill:#FFFFFF;}
</style>
<path d="M840.3,126.2c0,2,0,3.8,0,5.6c0,227.2,0,454.4,0,681.7c0,39.8-31.2,71-70.9,71c-232.7,0-465.4,0-698.1,0
	c-39.9,0-70.9-31-70.9-70.8c0-227.2,0-454.4,0-681.7c0-1.8,0-3.6,0-5.8C280.4,126.2,560.1,126.2,840.3,126.2z M606.4,498.9
	c35.8,0.2,59.3-6.1,81.2-18.4c54.9-31.1,83.6-90.6,73.9-153c-2.7-17.6-8.6-34.1-17.2-49.7c-1.7-3.1-3.9-4.8-7.2-2.8
	c-3.6,2.1-2.8,5.1-1.1,8.2c15.5,29,21,59.9,14.8,92.2c-10.4,54.3-41.7,92-95,107.6c-54.1,15.9-101.4,0.7-140.7-39.3
	c-6.8-6.9-12-15.5-17.8-23.4c-1.8-2.5-4-4.1-6.6-2.4c-1.4,0.9-2.4,3.3-2.6,5.2c-0.1,1.4,1.2,3,2.1,4.4
	C520,473.4,562.4,497.1,606.4,498.9z M309.7,328.1c0,32.6,0,64.9,0,97.2c4.4,0,8.3,0,13,0c0-22.5,0-44.7,0-66.9
	c2,1.6,3.1,3.2,4.1,4.9c11.9,19.6,23.8,39.2,35.7,58.8c0.9,1.5,2.7,3.1,4.3,3.4c3.2,0.5,6.5,0.2,9.8,0.2c0-33,0-65.3,0-97.5
	c-4.4,0-8.5,0-13.1,0c0,22.6,0,44.9,0,68.6c-12.8-21.1-25.2-40.5-36.5-60.6C322.8,328.5,317.8,326.3,309.7,328.1z M528.9,691
	c0-22.6,0-44.9,0-68.5c1.3,2,1.9,2.7,2.3,3.5c12.5,20.6,25,41.2,37.6,61.7c0.9,1.5,2.7,3,4.3,3.3c3,0.5,6.2,0.2,9.7,0.2
	c0-32.8,0-65.1,0-97.6c-4.4,0-8.4,0-13.2,0c0,22.5,0,44.7,0,68.3c-1.7-2.7-2.6-4-3.5-5.5c-12.1-19.9-24.1-39.8-36.2-59.6
	c-0.9-1.4-2.4-3.1-3.8-3.3c-3.4-0.5-6.8-0.2-10.3-0.2c0,32.9,0,65.1,0,97.6C520.1,691,524,691,528.9,691z M279.8,593.5
	c0,32.9,0,65.2,0,97.5c4.5,0,8.6,0,13.3,0c0-13.5,0-26.7,0-39.8c9.4-1.4,9.4-1.4,14,5.3c7.4,10.6,14.8,21.3,22.3,31.9
	c0.9,1.2,2.3,2.7,3.6,2.8c4.7,0.3,9.4,0.1,15,0.1c-9.9-14-19.1-27-28.9-41c4.2,0,7.3,0.2,10.4,0c8-0.7,12.4-4.9,12.6-12.7
	c0.3-10.5,0.3-21,0-31.4c-0.2-7.5-4.7-12.3-12.2-12.5C313.2,593.3,296.6,593.5,279.8,593.5z M251.3,376.5c0-11.2,0.2-22.3,0-33.5
	c-0.2-11.4-4.2-15.3-15.5-15.3c-12.5,0-25,0-37.4,0c-10.5,0-14.6,3.4-14.8,13.7c-0.3,23.6-0.3,47.3,0,70.9
	c0.1,9.8,4.3,13.2,14.2,13.3c12.5,0.1,25,0,37.4,0c12,0,15.7-3.5,16-15.7C251.4,398.8,251.2,387.6,251.3,376.5z M658.6,649.6
	c0,9,0.1,17.6-0.2,26.2c0,1.1-2.5,3.1-3.8,3.1c-10.6,0.3-21.3,0.1-32,0.2c-2.9,0-4.1-1-4.1-4.1c0.1-21.8,0.1-43.6,0-65.4
	c0-3.1,1.2-4.1,4.1-4c6.8,0.1,13.6,0,20.5,0c5.1,0,10.2,0,15.7,0c0,5,0,9.3,0,13.6c15.8-3.4,13.3,0.6,12.8-15.2
	c-0.2-6.6-4.2-10.4-11-10.5c-14.8-0.2-29.6-0.2-44.4,0c-6.2,0.1-10.3,3.3-10.4,9.3c-0.4,26.1-0.5,52.2-0.1,78.3
	c0.1,7.1,4.2,10,11.2,10.1c14.3,0.2,28.6,0.2,42.9,0c6.9-0.1,11.2-3.3,11.5-10c0.6-14.3,0.2-28.6,0.2-43.1c-10.6,0-21.1,0-31.6,0
	c0,4,0,7.5,0,11.5C646.2,649.6,652.2,649.6,658.6,649.6z M394.9,668.3c0,4.1-0.1,7.9,0,11.7c0.3,7.2,3.9,11.1,11.2,11.2
	c13.8,0.2,27.6,0.2,41.4,0c7.6-0.1,11.1-3.3,11.5-10.9c0.5-10.5,0.4-21,0.4-31.4c-0.1-9.8-3.8-13.4-13.8-13.4c-10.6,0-21.3,0-31.9,0
	c-2.4,0-4.3-0.2-4.3-3.3c0.1-7.8-0.1-15.6,0.1-23.5c0-1,1.6-2.9,2.4-2.9c10.9-0.2,21.8-0.1,33.2-0.1c0,4.9,0,9.1,0,13.8
	c4.8-1.1,9.2-2.1,13.7-3.1c0-3.4,0.1-6.4,0-9.4c-0.4-10.3-3.8-13.6-14.1-13.7c-11.6-0.1-23.3-0.1-34.9,0c-9.8,0-13.3,3.3-13.6,13.1
	c-0.3,9.5-0.3,19,0,28.5c0.2,9.5,3.7,12.7,13.3,12.7c10.6,0.1,21.3,0.1,31.9,0c3.4,0,4.8,1,4.7,4.6c-0.2,7.3-0.3,14.6,0,22
	c0.1,3.8-1.2,5-4.9,4.9c-9.8-0.2-19.6,0-29.5-0.1c-1.1,0-2.2-0.4-3.6-0.6c0-4.4,0-8.5,0-13.1C403.5,666.4,399.3,667.3,394.9,668.3z
	 M196.5,558.3c0-15.1,0-29.8,0-44.3c13.9,0,27.1,0,40.7,0c0,14.9,0,29.5,0,44.2c4.7,0,8.9,0,13.2,0c0-32.6,0-65,0-97.2
	c-4.7,0-8.9,0-13.4,0c0,13.5,0,26.6,0,39.9c-13.7,0-27,0-40.7,0c0-13.6,0-26.6,0-39.9c-4.6,0-8.8,0-13.1,0c0,32.6,0,64.9,0,97.4
	C187.6,558.3,191.6,558.3,196.5,558.3z M112.5,593.6c-0.1,1.3-0.2,2.1-0.2,2.9c0,26,0,51.9,0,77.9c0,2.5,0.3,5,0.8,7.4
	c1.4,6.5,4.3,9.3,11,9.4c14.1,0.2,28.3,0.2,42.4,0c6-0.1,9.4-3,11-9c0.7-2.5,1-5.2,1-7.9c0.1-26.1,0.2-52.3,0.2-78.4
	c0-0.8-0.3-1.5-0.4-2.3c-4.4,0-8.5,0-13.1,0c0,2,0,3.8,0,5.6c0,24.5,0,48.9,0,73.4c0,6.2-0.2,6.4-6.5,6.4c-8.7,0-17.3,0-26,0
	c-6.6,0-6.7,0-6.7-6.6c0-24.3,0-48.6,0-72.9c0-1.9,0-3.9,0-6C121.2,593.6,117.1,593.6,112.5,593.6z M214.2,652.6c2.5,0,4.3,0,6.1,0
	c9.3,0,18.6,0.1,27.9-0.1c9.6-0.2,14-4.7,14.1-14.3c0.1-10,0.1-20,0-29.9c-0.1-10-4.7-14.7-14.7-14.8c-12.8-0.1-25.6,0-38.4,0
	c-2.6,0-5.2,0-7.9,0c0,32.9,0,65.2,0,97.6c4.4,0,8.5,0,12.9,0C214.2,678.3,214.2,665.9,214.2,652.6z M615.6,272
	c1.1,13.5,8.4,26.9,23.4,35.2c16.1,8.9,32.2-0.3,32.6-18.7c0.4-16.7-6.8-29.8-20.6-39.2c-2.9-2-6.5-3.5-10-4.3
	C626.2,241.7,615.5,251.8,615.6,272z M566.9,347.2c-0.1-16.5-10.9-33.5-25.4-39.9c-15.2-6.7-29.7,1.8-30.5,18.5
	c-0.8,17.9,6.6,32.1,22,41.3C550.5,377.5,567,367.6,566.9,347.2z M287.3,501.5c0-9.9,0-19.1,0-28.8c14.8,0,29.2,0,43.6,0
	c0-4.3,0-8,0-11.7c-19.4,0-38.4,0-57.2,0c0,32.7,0,65,0,97.2c19.7,0,38.9,0,58.3,0c0-4,0-7.8,0-12c-15,0-29.8,0-44.5,0
	c0-11.1,0-21.6,0-32.6c9.8,0,19.2,0,28.5,0c0-4.3,0-8,0-12.1C306.2,501.5,296.9,501.5,287.3,501.5z M129.6,473c0,28.7,0,57,0,85.1
	c5,0,9.2,0,13.9,0c0-28.6,0-56.7,0-85.5c9.3,0,18.2,0,27.2,0c0-4.2,0-7.8,0-11.6c-22.9,0-45.5,0-68,0c0,4.1,0,7.9,0,12
	C111.7,473,120.3,473,129.6,473z M106.5,392.9c0,5-0.1,9.6,0,14.3c0.1,2.5,0.3,5,0.6,7.5c1.1,8,4.4,10.9,12.7,11
	c8.3,0.1,16.6,0,25,0c13.2,0,16.5-3.2,16.8-16.4c0-0.5,0-1,0-1.5c0-25,0-49.9,0-74.9c0-1.6-0.2-3.2-0.3-4.8c-4.6,0-8.6,0-13.3,0
	c0,6,0,11.8,0,17.6c0,20.8,0,41.6,0,62.4c0,2.4,0.5,5.4-3.4,5.4c-7.9,0-15.9,0-24.5,0c0-7.8,0-15.2,0-23.2
	C115.1,391.2,111,392,106.5,392.9z M273.8,327.9c0,32.9,0,65.1,0,97.4c4.5,0,8.6,0,12.9,0c0-32.6,0-64.9,0-97.4
	C282.2,327.9,278.1,327.9,273.8,327.9z M374.8,691.1c0-32.5,0-64.8,0-97.2c-4.5,0-8.6,0-12.8,0c0,32.6,0,64.8,0,97.2
	C366.4,691.1,370.5,691.1,374.8,691.1z M492.6,691.1c0-32.7,0-65,0-97.4c-4.4,0-8.5,0-12.7,0c0,32.6,0,64.9,0,97.4
	C484.3,691.1,488.2,691.1,492.6,691.1z"/>
<path d="M839.7,115.8c-279.6,0-559,0-838.4,0c-0.3-0.4-0.7-0.6-0.7-0.9C1,94.4-2,73.6,2.6,53.2c7-30.4,35.1-52.5,66.3-53.1
	c2,0,4-0.1,6-0.1c230.2,0,460.4,0.1,690.7-0.1c24.2,0,44.3,8,59.5,27c8.3,10.3,13.9,22.2,14.5,35.5C840.2,80,839.7,97.7,839.7,115.8
	z M752.9,24.1c-18.7,0-33.5,14.8-33.5,33.6c-0.1,18.8,15.1,34.1,33.7,34.1c18.4,0,33.5-15.3,33.6-33.8C786.7,39,771.8,24,752.9,24.1
	z M665.6,24.1c-18.9,0-33.9,15-33.8,33.9c0.1,18.4,15.3,33.7,33.7,33.8c18.6,0.1,33.8-15.3,33.7-34.1
	C699.1,39,684.2,24.1,665.6,24.1z"/>
<path class="st0" d="M606.4,498.9c-44-1.9-86.4-25.6-116.3-71.4c-0.9-1.4-2.2-3-2.1-4.4c0.2-1.8,1.2-4.3,2.6-5.2
	c2.7-1.7,4.8-0.1,6.6,2.4c5.8,7.9,11,16.4,17.8,23.4c39.2,40,86.6,55.2,140.7,39.3c53.2-15.6,84.5-53.3,95-107.6
	c6.2-32.3,0.7-63.2-14.8-92.2c-1.7-3.1-2.5-6.1,1.1-8.2c3.3-2,5.5-0.2,7.2,2.8c8.6,15.6,14.5,32.1,17.2,49.7
	c9.7,62.4-19,121.9-73.9,153C665.7,492.9,642.2,499.2,606.4,498.9z"/>
<path class="st0" d="M309.7,328.1c8.1-1.8,13.1,0.4,17.4,8c11.3,20.1,23.7,39.6,36.5,60.6c0-23.7,0-46,0-68.6c4.6,0,8.7,0,13.1,0
	c0,32.2,0,64.5,0,97.5c-3.2,0-6.6,0.4-9.8-0.2c-1.6-0.3-3.4-1.9-4.3-3.4c-12-19.5-23.8-39.2-35.7-58.8c-1-1.7-2.1-3.3-4.1-4.9
	c0,22.2,0,44.4,0,66.9c-4.7,0-8.6,0-13,0C309.7,393.1,309.7,360.7,309.7,328.1z"/>
<path class="st0" d="M528.9,691c-4.9,0-8.8,0-13,0c0-32.5,0-64.7,0-97.6c3.4,0,6.9-0.3,10.3,0.2c1.4,0.2,2.9,1.9,3.8,3.3
	c12.1,19.8,24.2,39.8,36.2,59.6c0.9,1.4,1.8,2.8,3.5,5.5c0-23.5,0-45.7,0-68.3c4.7,0,8.8,0,13.2,0c0,32.4,0,64.8,0,97.6
	c-3.4,0-6.6,0.4-9.7-0.2c-1.6-0.3-3.4-1.8-4.3-3.3c-12.6-20.5-25.1-41.1-37.6-61.7c-0.5-0.8-1.1-1.6-2.3-3.5
	C528.9,646.1,528.9,668.4,528.9,691z"/>
<path class="st0" d="M279.8,593.5c16.9,0,33.5-0.2,50.1,0.1c7.5,0.2,12,5,12.2,12.5c0.3,10.5,0.3,21,0,31.4
	c-0.2,7.8-4.5,12-12.6,12.7c-3.1,0.3-6.2,0-10.4,0c9.8,13.9,19.1,27,28.9,41c-5.6,0-10.4,0.2-15-0.1c-1.3-0.1-2.7-1.6-3.6-2.8
	c-7.5-10.6-14.9-21.2-22.3-31.9c-4.7-6.7-4.7-6.7-14-5.3c0,13.1,0,26.3,0,39.8c-4.6,0-8.7,0-13.3,0
	C279.8,658.8,279.8,626.5,279.8,593.5z M293.4,605.8c0,11,0,21.6,0,32.5c10,0,19.6,0,29.3,0c3.8,0,5.9-1.8,5.9-5.7
	c0-7-0.1-13.9,0-20.9c0-3.6-1.7-5.8-5.3-5.9C313.4,605.8,303.5,605.8,293.4,605.8z"/>
<path class="st0" d="M251.2,376.5c0,11.2,0.2,22.3-0.1,33.5c-0.3,12.2-4,15.7-16,15.7c-12.5,0-25,0-37.4,0
	c-9.9,0-14.1-3.4-14.2-13.3c-0.3-23.6-0.3-47.3,0-70.9c0.1-10.3,4.3-13.7,14.8-13.7c12.5,0,25,0,37.4,0c11.3,0,15.3,3.9,15.5,15.3
	C251.4,354.2,251.3,365.3,251.2,376.5z M196.9,376.4c0,10.8,0.1,21.6-0.1,32.4c-0.1,3.5,1.2,4.6,4.6,4.6c10.6-0.2,21.3-0.1,31.9,0
	c3.4,0,4.7-1.1,4.7-4.6c-0.1-21.4-0.1-42.9,0-64.3c0-3.5-1.3-4.6-4.7-4.6c-10.6,0.1-21.3,0.2-31.9,0c-3.5-0.1-4.6,1.2-4.5,4.6
	C197,355.2,196.9,365.8,196.9,376.4z"/>
<path class="st0" d="M658.6,649.6c-6.4,0-12.3,0-18.7,0c0-4,0-7.5,0-11.5c10.5,0,21,0,31.6,0c0,14.5,0.4,28.8-0.2,43.1
	c-0.3,6.7-4.5,9.9-11.5,10c-14.3,0.2-28.6,0.2-42.9,0c-7-0.1-11.1-3.1-11.2-10.1c-0.4-26.1-0.3-52.2,0.1-78.3
	c0.1-6,4.3-9.2,10.4-9.3c14.8-0.2,29.6-0.2,44.4,0c6.7,0.1,10.8,3.9,11,10.5c0.5,15.7,2.9,11.8-12.8,15.2c0-4.3,0-8.5,0-13.6
	c-5.5,0-10.6,0-15.7,0c-6.8,0-13.7,0.1-20.5,0c-2.9-0.1-4.1,0.9-4.1,4c0.1,21.8,0.1,43.6,0,65.4c0,3.1,1.2,4.1,4.1,4.1
	c10.7-0.1,21.3,0.1,32-0.2c1.4,0,3.8-2,3.8-3.1C658.7,667.3,658.6,658.7,658.6,649.6z"/>
<path class="st0" d="M394.9,668.3c4.4-1,8.6-1.9,13.2-2.9c0,4.6,0,8.7,0,13.1c1.4,0.2,2.5,0.6,3.6,0.6c9.8,0,19.6-0.1,29.5,0.1
	c3.6,0.1,5-1.1,4.9-4.9c-0.3-7.3-0.2-14.6,0-22c0.1-3.6-1.3-4.6-4.7-4.6c-10.6,0.1-21.3,0.1-31.9,0c-9.7-0.1-13.1-3.2-13.3-12.7
	c-0.2-9.5-0.2-19,0-28.5c0.3-9.8,3.8-13.1,13.6-13.1c11.6-0.1,23.3-0.1,34.9,0c10.4,0.1,13.7,3.3,14.1,13.7c0.1,3,0,6,0,9.4
	c-4.5,1-8.8,2-13.7,3.1c0-4.7,0-9,0-13.8c-11.4,0-22.3-0.1-33.2,0.1c-0.9,0-2.4,1.9-2.4,2.9c-0.2,7.8-0.1,15.6-0.1,23.5
	c0,3.1,1.9,3.4,4.3,3.3c10.6,0,21.3,0,31.9,0c10,0,13.8,3.6,13.8,13.4c0.1,10.5,0.1,21-0.4,31.4c-0.3,7.6-3.8,10.8-11.5,10.9
	c-13.8,0.2-27.6,0.2-41.4,0c-7.3-0.1-11-4-11.2-11.2C394.8,676.2,394.9,672.4,394.9,668.3z"/>
<path class="st0" d="M196.5,558.3c-5,0-8.9,0-13.3,0c0-32.5,0-64.8,0-97.4c4.2,0,8.5,0,13.1,0c0,13.3,0,26.4,0,39.9
	c13.7,0,27,0,40.7,0c0-13.3,0-26.4,0-39.9c4.6,0,8.8,0,13.4,0c0,32.2,0,64.5,0,97.2c-4.3,0-8.5,0-13.2,0c0-14.7,0-29.2,0-44.2
	c-13.7,0-26.9,0-40.7,0C196.5,528.5,196.5,543.2,196.5,558.3z"/>
<path class="st0" d="M112.5,593.6c4.6,0,8.7,0,13.6,0c0,2.1,0,4,0,6c0,24.3,0,48.6,0,72.9c0,6.6,0,6.6,6.7,6.6c8.7,0,17.3,0,26,0
	c6.3,0,6.5-0.2,6.5-6.4c0-24.5,0-48.9,0-73.4c0-1.8,0-3.6,0-5.6c4.6,0,8.7,0,13.1,0c0.2,0.8,0.4,1.6,0.4,2.3
	c0,26.1-0.1,52.3-0.2,78.4c0,2.6-0.4,5.3-1,7.9c-1.5,6-5,8.9-11,9c-14.1,0.2-28.3,0.2-42.4,0c-6.6-0.1-9.6-2.8-11-9.4
	c-0.5-2.4-0.8-4.9-0.8-7.4c-0.1-26,0-51.9,0-77.9C112.3,595.7,112.4,594.9,112.5,593.6z"/>
<path class="st0" d="M214.2,652.6c0,13.3,0,25.7,0,38.4c-4.4,0-8.5,0-12.9,0c0-32.4,0-64.7,0-97.6c2.7,0,5.3,0,7.9,0
	c12.8,0,25.6-0.1,38.4,0c9.9,0.1,14.6,4.9,14.7,14.8c0.1,10,0.1,20,0,29.9c-0.1,9.5-4.5,14-14.1,14.3c-9.3,0.2-18.6,0.1-27.9,0.1
	C218.5,652.6,216.7,652.6,214.2,652.6z M214.6,605.8c0,11.7,0,22.9,0,34.6c10.1,0,19.9,0.2,29.6-0.2c1.7-0.1,4.5-2.9,4.5-4.6
	c0.4-8.3,0.4-16.6-0.1-24.9c-0.1-1.7-2.6-4.5-4.1-4.6C234.7,605.6,224.8,605.8,214.6,605.8z"/>
<path class="st0" d="M615.6,272c-0.2-20.2,10.6-30.3,25.4-27c3.5,0.8,7,2.3,10,4.3c13.7,9.4,21,22.5,20.6,39.2
	c-0.4,18.4-16.5,27.6-32.6,18.7C624,298.9,616.7,285.5,615.6,272z"/>
<path class="st0" d="M566.9,347.2c0.1,20.4-16.5,30.3-33.9,19.9c-15.4-9.2-22.8-23.4-22-41.3c0.8-16.7,15.3-25.2,30.5-18.5
	C556.1,313.7,566.9,330.7,566.9,347.2z"/>
<path class="st0" d="M287.3,501.5c9.6,0,18.9,0,28.5,0c0,4,0,7.8,0,12.1c-9.3,0-18.7,0-28.5,0c0,11.1,0,21.6,0,32.6
	c14.8,0,29.5,0,44.5,0c0,4.3,0,8,0,12c-19.4,0-38.6,0-58.3,0c0-32.2,0-64.5,0-97.2c18.9,0,37.9,0,57.2,0c0,3.7,0,7.5,0,11.7
	c-14.4,0-28.8,0-43.6,0C287.3,482.4,287.3,491.6,287.3,501.5z"/>
<path class="st0" d="M129.6,473c-9.3,0-17.9,0-26.9,0c0-4.1,0-7.8,0-12c22.4,0,45.1,0,68,0c0,3.8,0,7.4,0,11.6c-8.9,0-17.8,0-27.2,0
	c0,28.8,0,57,0,85.5c-4.7,0-8.9,0-13.9,0C129.6,529.9,129.6,501.6,129.6,473z"/>
<path class="st0" d="M106.5,392.9c4.5-0.9,8.6-1.7,13.6-2.7c0,8,0,15.3,0,23.2c8.6,0,16.6,0,24.5,0c3.9,0,3.4-3,3.4-5.4
	c0-20.8,0-41.6,0-62.4c0-5.8,0-11.5,0-17.6c4.7,0,8.7,0,13.3,0c0.1,1.7,0.3,3.2,0.3,4.8c0,25,0,49.9,0,74.9c0,0.5,0,1,0,1.5
	c-0.3,13.2-3.6,16.4-16.8,16.4c-8.3,0-16.6,0.1-25,0c-8.2-0.1-11.5-3-12.7-11c-0.4-2.5-0.6-5-0.6-7.5
	C106.4,402.5,106.5,397.9,106.5,392.9z"/>
<path class="st0" d="M273.8,327.9c4.3,0,8.4,0,12.9,0c0,32.5,0,64.8,0,97.4c-4.3,0-8.3,0-12.9,0
	C273.8,393.1,273.8,360.8,273.8,327.9z"/>
<path class="st0" d="M374.8,691.1c-4.3,0-8.4,0-12.8,0c0-32.4,0-64.6,0-97.2c4.1,0,8.3,0,12.8,0
	C374.8,626.2,374.8,658.5,374.8,691.1z"/>
<path class="st0" d="M492.6,691.1c-4.5,0-8.4,0-12.7,0c0-32.5,0-64.8,0-97.4c4.2,0,8.3,0,12.7,0
	C492.6,626.1,492.6,658.4,492.6,691.1z"/>
<path class="st0" d="M752.9,24.1c18.9,0,33.8,15,33.8,33.9c-0.1,18.5-15.2,33.7-33.6,33.8c-18.6,0-33.8-15.3-33.7-34.1
	C719.4,38.9,734.2,24.1,752.9,24.1z M776.9,58c0.2-13.4-10.3-24.2-23.7-24.4c-13.1-0.2-24.2,10.8-24.4,23.9
	c-0.1,13.2,10.8,24.3,23.9,24.4C765.9,82.1,776.7,71.4,776.9,58z"/>
<path class="st0" d="M665.6,24.1c18.6,0,33.5,14.9,33.6,33.6c0.1,18.8-15.1,34.1-33.7,34.1c-18.3-0.1-33.6-15.4-33.7-33.8
	C631.7,39.1,646.7,24,665.6,24.1z M641.6,57.9c0.1,13.4,10.8,24.1,24,24.1c13.1,0,24-11.1,24-24.3c0-13.2-11-24.1-24.2-24.1
	C652.1,33.7,641.5,44.5,641.6,57.9z"/>
<path d="M293.4,605.8c10.1,0,20-0.1,29.9,0c3.6,0.1,5.3,2.2,5.3,5.9c-0.1,7,0,13.9,0,20.9c0,3.9-2,5.7-5.9,5.7c-9.6,0-19.2,0-29.3,0
	C293.4,627.5,293.4,616.8,293.4,605.8z"/>
<path d="M196.9,376.4c0-10.6,0.1-21.3-0.1-31.9c-0.1-3.4,1-4.7,4.5-4.6c10.6,0.2,21.3,0.2,31.9,0c3.4,0,4.7,1.1,4.7,4.6
	c-0.1,21.4-0.1,42.9,0,64.3c0,3.5-1.3,4.7-4.7,4.6c-10.6-0.1-21.3-0.1-31.9,0c-3.4,0.1-4.7-1.1-4.6-4.6
	C197.1,398.1,196.9,387.3,196.9,376.4z"/>
<path d="M214.6,605.8c10.2,0,20.1-0.2,30,0.2c1.5,0.1,4,2.9,4.1,4.6c0.4,8.3,0.5,16.6,0.1,24.9c-0.1,1.7-2.9,4.5-4.5,4.6
	c-9.8,0.4-19.6,0.2-29.6,0.2C214.6,628.7,214.6,617.5,214.6,605.8z"/>
<path d="M776.9,58c-0.2,13.4-11,24.1-24.2,23.9c-13.1-0.1-24-11.2-23.9-24.4c0.1-13.2,11.3-24.1,24.4-23.9
	C766.6,33.9,777,44.6,776.9,58z"/>
<path d="M641.6,57.9c-0.1-13.4,10.6-24.2,23.9-24.2c13.2,0,24.2,10.9,24.2,24.1c0,13.2-10.9,24.2-24,24.3
	C652.3,82,641.6,71.3,641.6,57.9z"/>
</svg>
