<?xml version="1.0" encoding="utf-8"?>
<!-- Generator: Adobe Illustrator 25.0.1, SVG Export Plug-In . SVG Version: 6.00 Build 0)  -->
<svg version="1.1" id="Layer_1" xmlns="http://www.w3.org/2000/svg" xmlns:xlink="http://www.w3.org/1999/xlink" x="0px" y="0px"
	 viewBox="0 0 788.7 798.2" style="enable-background:new 0 0 788.7 798.2;" xml:space="preserve">
<style type="text/css">
	.st0{fill:#2D2857;}
	.st1{fill:#FEFEFE;}
</style>
<path class="st0" d="M788.8,404c-0.9,223.4-182.1,396-397.2,394.2C172.1,796.3-0.2,618.3,0,403.4C0.2,186,177.3,9.2,394.6,9.5
	C612.3,9.7,788.8,186.3,788.8,404z M394.6,777.2c206,0,373.1-167.4,372.9-373.9C767.3,200.7,605,33.3,398.3,30.8
	c-204.1-2.4-374.7,160.7-377,369.5C19.1,603.8,181.7,776,394.6,777.2z"/>
<path class="st1" d="M394.6,777.2C181.7,776,19.1,603.8,21.3,400.3c2.3-208.8,172.9-371.9,377-369.5
	c206.7,2.4,369,169.8,369.2,372.4C767.7,609.8,600.6,777.2,394.6,777.2z M720.2,384.8c-0.2-17.5-1.6-35.5-4.8-53.3
	c-5.8-32.1-16.5-62.4-32.3-91c-2.5-4.5-5.9-8-11-8.8c-8.7-1.4-15.7,2.2-20.8,9c-4.6,6.1-4.2,12.6-0.6,19.2
	c26.7,48.7,36.5,100.8,30.8,155.9c-6.8,66.2-33.1,124-79.4,171.5c-71.7,73.5-159,106.8-261.8,95.5c-47.7-5.2-90.7-23.2-128.6-52.9
	c-25.9-20.3-47-44.9-63.7-73.2c-4.3-7.4-9.9-10-17.9-8.6c-14.6,2.5-21.2,16.4-13.8,29c16.9,28.6,37.7,54,63.7,74.6
	c87.5,69.5,185.9,85.6,292,55.7C543,687,600.9,645.7,647,588.2C694.4,529,719.5,461.5,720.2,384.8z M287.4,335.8
	c3.7,0.7,7.1,1.1,8.7,4.9c1,2.4,2.7,4.4,3.8,6.8c1.4,3.1,3.5,4.6,6.8,5.4c12.1,3,24.2,6.4,36.2,9.8c1.7,0.5,4.8-0.1,4.6,2.4
	c-0.2,2.6-0.2,5.9-3.5,7.5c-3.4,1.6-6.5,3.6-9.7,5.5c-1.2,0.7-2.5,1.3-3,3c-2.4,8.1-4.8,15.7,1.4,23.7c5.2,6.7,3.7,11.3-4.1,15
	c-7.1,3.3-11,8-12.1,15.9c-0.6,4.3-0.3,7.6,1.9,11.4c11.5,19.5,22.9,38.9,33.8,58.7c3.4,6.1,7.2,10.4,14.5,10.9
	c2.5,0.2,4.7,2.3,7.5,0.9c7.8-4,15.5-7.8,16.5-18.3c0.4-3.7,0.6-6.6-1.4-9.9c-12.6-21.6-25-43.3-37.6-65c-1.1-1.9-1.3-3.6-1.1-5.9
	c0.4-5.5,5-6.6,8.5-8.3c5.5-2.6,7.8-6.6,9.5-12.3c1.8-6.2,1.2-11.2-2.7-16.2c-1.1-1.4-1.7-3.1-2.7-4.6c-1.7-2.7-0.3-5.3,0.7-7.4
	c1.1-2.2,3.5-0.4,5.2,0.1c9.6,2.5,19.3,4.5,28.6,7.8c8.5,3,15.7,2.5,23-3c4.6-3.5,9.5-1.8,12.5,3.4c12,20.8,24.2,41.6,35.9,62.5
	c2.8,4.9,5.9,8.2,11.7,8.6c3.2,0.2,6.3,2.8,9.4,1.3c7.5-3.8,16.1-6.9,16.4-17.6c0-0.5,0.2-1,0.4-1.4c1.3-2.9,0.6-5.5-1-8.2
	c-12.7-21.7-25.2-43.6-37.9-65.3c-0.9-1.5-1.4-3.2-3.4-3.9c-8.1-2.9-16.2-6.1-23.9,1.1c-3.1,2.9-6.8,3.3-10.8,1.6
	c-3.9-1.7-4.6-5.7-6.3-8.8c-2.2-4.2-5.1-6.4-9.8-7.6c-11.7-2.8-23.2-6.3-34.7-9.6c-1.5-0.5-4.4,0-4.3-2.2c0.1-2.4,0.4-5.2,3.2-6.7
	c3.3-1.8,6.5-3.7,9.7-5.6c1.3-0.8,2.7-1.4,3.3-3.3c2.7-8.6,5.6-17.1-2-24.9c-2.7-2.8-2.3-6-1-9.5c1-2.7,3.4-3.6,5.5-4.5
	c7.3-3.1,11.6-7.9,12.5-16.2c0.4-3.8,0.6-6.9-1.5-10.5c-11.6-19.6-23.1-39.2-34.1-59.1c-3.5-6.3-7.6-10.6-14.8-11.5
	c-2.5-0.3-4.9-2.4-7.5-1.1c-7.6,3.9-15.8,7.3-16.1,17.9c0,0.6-0.3,1.3-0.5,1.9c-1.3,3.1-0.5,5.7,1.2,8.6
	c12.7,21.7,25.2,43.6,37.8,65.4c2.6,4.6,1.4,9.2-3.1,11.9c-2.7,1.6-5.3,3.2-8.1,4.6c-2.4,1.2-3.2,3.1-4.2,5.5
	c-3.8,8.5-3.1,16.2,2.9,23.3c0.4,0.5,0.7,1.1,1,1.7c1.7,2.8,0.3,5.6-0.8,7.9c-1.2,2.4-3.5,0.3-5.2-0.2c-9.8-2.5-19.7-4.6-29.1-8
	c-8.2-2.9-15-2.2-22.1,2.9c-5.6,4.1-9.8,2.5-13.4-3.7c-11.6-20.1-23.4-40.1-34.7-60.4c-3.3-5.9-7.1-9.8-13.8-10.5
	c-2.8-0.3-5.6-2.7-8.5-1.2c-7.5,3.9-15.6,7.1-16,17.9c-0.2,3.9-0.7,7.3,1.5,11c12.1,20.6,24,41.3,35.9,62
	c4.9,8.5,16.7,11.6,25.2,6.7C281.4,338.8,284.2,336.6,287.4,335.8z"/>
<path class="st0" d="M720.2,384.8c-0.8,76.7-25.8,144.3-73.2,203.4c-46.1,57.5-104,98.9-175.1,118.9
	c-106.2,29.9-204.5,13.8-292-55.7c-26-20.6-46.8-46-63.7-74.6c-7.5-12.6-0.8-26.5,13.8-29c8.1-1.4,13.6,1.2,17.9,8.6
	c16.7,28.4,37.8,52.9,63.7,73.2c37.9,29.8,80.9,47.7,128.6,52.9c102.8,11.2,190.2-22,261.8-95.5c46.3-47.5,72.6-105.3,79.4-171.5
	c5.7-55.1-4.2-107.2-30.8-155.9c-3.6-6.6-4-13.1,0.6-19.2c5.2-6.8,12.1-10.4,20.8-9c5.2,0.9,8.5,4.3,11,8.8
	c15.8,28.5,26.5,58.9,32.3,91C718.6,349.2,720,367.2,720.2,384.8z"/>
<path class="st0" d="M287.4,335.8c-3.2,0.8-6,3-9.1,4.8c-8.5,4.9-20.2,1.8-25.2-6.7c-12-20.7-23.8-41.4-35.9-62
	c-2.2-3.7-1.7-7-1.5-11c0.4-10.8,8.5-14,16-17.9c2.9-1.5,5.6,0.9,8.5,1.2c6.7,0.8,10.5,4.6,13.8,10.5c11.2,20.3,23.1,40.3,34.7,60.4
	c3.6,6.2,7.8,7.8,13.4,3.7c7.1-5.1,13.9-5.8,22.1-2.9c9.5,3.4,19.4,5.5,29.1,8c1.6,0.4,4,2.5,5.2,0.2c1.1-2.3,2.5-5.1,0.8-7.9
	c-0.3-0.6-0.6-1.2-1-1.7c-6-7.2-6.7-14.8-2.9-23.3c1.1-2.3,1.8-4.3,4.2-5.5c2.8-1.4,5.4-3,8.1-4.6c4.5-2.7,5.7-7.3,3.1-11.9
	c-12.6-21.8-25.1-43.7-37.8-65.4c-1.7-2.9-2.5-5.5-1.2-8.6c0.3-0.6,0.5-1.2,0.5-1.9c0.3-10.6,8.5-13.9,16.1-17.9
	c2.6-1.3,5,0.7,7.5,1.1c7.2,0.9,11.3,5.2,14.8,11.5c11,19.9,22.5,39.5,34.1,59.1c2.1,3.5,1.8,6.6,1.5,10.5
	c-0.8,8.3-5.2,13.1-12.5,16.2c-2.1,0.9-4.4,1.8-5.5,4.5c-1.3,3.4-1.7,6.7,1,9.5c7.6,7.8,4.7,16.3,2,24.9c-0.6,1.9-1.9,2.5-3.3,3.3
	c-3.2,1.9-6.4,3.8-9.7,5.6c-2.7,1.5-3.1,4.4-3.2,6.7c-0.1,2.2,2.8,1.7,4.3,2.2c11.5,3.4,23.1,6.8,34.7,9.6c4.7,1.1,7.5,3.4,9.8,7.6
	c1.7,3.1,2.4,7.1,6.3,8.8c4,1.7,7.7,1.3,10.8-1.6c7.7-7.2,15.8-4,23.9-1.1c2,0.7,2.6,2.4,3.4,3.9c12.6,21.8,25.2,43.6,37.9,65.3
	c1.6,2.7,2.3,5.2,1,8.2c-0.2,0.4-0.4,0.9-0.4,1.4c-0.2,10.7-8.8,13.8-16.4,17.6c-3,1.5-6.2-1.1-9.4-1.3c-5.8-0.4-9-3.7-11.7-8.6
	c-11.8-21-23.9-41.7-35.9-62.5c-3-5.1-7.9-6.8-12.5-3.4c-7.3,5.5-14.5,6-23,3c-9.3-3.3-19.1-5.3-28.6-7.8c-1.7-0.5-4.2-2.3-5.2-0.1
	c-1,2.1-2.4,4.8-0.7,7.4c0.9,1.5,1.6,3.3,2.7,4.6c3.9,4.9,4.5,10,2.7,16.2c-1.7,5.7-4,9.7-9.5,12.3c-3.5,1.6-8.1,2.7-8.5,8.3
	c-0.2,2.2,0,3.9,1.1,5.9c12.6,21.6,25,43.4,37.6,65c2,3.3,1.8,6.2,1.4,9.9c-1,10.5-8.7,14.3-16.5,18.3c-2.7,1.4-5-0.7-7.5-0.9
	c-7.3-0.5-11.1-4.8-14.5-10.9c-10.9-19.7-22.3-39.2-33.8-58.7c-2.2-3.8-2.5-7.1-1.9-11.4c1.1-7.9,5-12.6,12.1-15.9
	c7.8-3.7,9.3-8.2,4.1-15c-6.2-8-3.8-15.6-1.4-23.7c0.5-1.7,1.7-2.3,3-3c3.2-1.9,6.4-3.9,9.7-5.5c3.4-1.6,3.3-4.8,3.5-7.5
	c0.2-2.5-2.9-1.9-4.6-2.4c-12-3.4-24.1-6.8-36.2-9.8c-3.3-0.8-5.5-2.3-6.8-5.4c-1.1-2.4-2.8-4.4-3.8-6.8
	C294.5,336.8,291.1,336.5,287.4,335.8z"/>
</svg>
