<?xml version="1.0" encoding="utf-8"?>
<!-- Generator: Adobe Illustrator 25.0.1, SVG Export Plug-In . SVG Version: 6.00 Build 0)  -->
<svg version="1.1" id="Layer_1" xmlns="http://www.w3.org/2000/svg" xmlns:xlink="http://www.w3.org/1999/xlink" x="0px" y="0px"
	 viewBox="0 0 1391 786.9" style="enable-background:new 0 0 1391 786.9;" xml:space="preserve">
<style type="text/css">
	.st0{fill:#838383;}
	.st1{fill:#4F4F4F;}
	.st2{fill:#050505;}
	.st3{fill:#FDFCFD;}
	.st4{fill:#D00927;}
	.st5{fill:#020101;}
</style>
<path class="st0" d="M1389.5,5c0.4-0.1,0.8-0.2,1.2-0.3c0,259.1,0,518.3,0.1,777.4c0,3.7-0.8,4.6-4.6,4.6
	c-460.5-0.1-921-0.1-1381.5-0.2c-1.5,0-3.4,1.1-4.5-0.9c0.4-0.1,0.8-0.2,1.2-0.2c1.7,0,3.3,0.1,5,0.1c459.1,0,918.2,0,1377.3,0.1
	c5.3,0,6-1.6,6-6.3c-0.1-256.1-0.1-512.2-0.1-768.3C1389.6,9,1389.6,7,1389.5,5z"/>
<path class="st1" d="M1.4,785.4c-0.4,0.1-0.8,0.2-1.2,0.2c0-260.3,0-520.6,0-780.9C0.6,4.8,1,5,1.4,5.1c0,2.2-0.1,4.3-0.1,6.5
	c0,256,0,511.9,0,767.9C1.3,781.4,1.4,783.4,1.4,785.4z"/>
<path class="st2" d="M1.4,785.4c-0.1-2-0.1-4-0.1-6c0-257.5,0-515.1,0-772.6c0-2.2,0.1-4.3,0.1-6.5C3.2,0.1,5,0,6.8,0
	C465.9,0,925,0,1384.1,0c1.8,0,3.7,0.1,5.5,0.2c0,2,0.1,4,0.1,6c0,257.7,0,515.4,0.1,773.1c0,4.7-0.7,6.3-6,6.3
	c-459.1-0.2-918.2-0.1-1377.3-0.1C4.8,785.5,3.1,785.4,1.4,785.4z M1015.8,781.5c0.8,0.1,1.7,0.1,2.5,0.1c121.1,0,242.2,0,363.3,0.1
	c3.6,0,4.3-1,4.3-4.4c-0.1-51.1-0.2-102.2,0-153.3c0-4.8-1-5.9-5.9-5.9c-119.6,0.2-239.2,0.1-358.8,0.1c-1.8,0-3.7,0.1-5.5,0.2
	c-1.2-0.1-2.3-0.2-3.5-0.2c-104.7,0-209.3,0-314,0c-1,0-2,0.1-3,0.1c-2-0.1-4-0.2-6-0.2c-225.4,0-450.8,0-676.2-0.1
	c-2.2,0-6.7,2.4-6.5-2.2c0.1-4,4.3-1.8,6.5-1.8c337.7-0.1,675.4-0.1,1013.1,0c4.9,0,6.4-0.9,6.4-6.2c-0.2-45.6-0.2-91.2,0-136.8
	c0-5.4-1.6-6.3-6.5-6.3c-337.7,0.1-675.4,0.1-1013.1,0c-2.1,0-6.2,2.3-6.3-1.9c-0.1-4.2,4.1-2.1,6.1-2.1
	c182.1-0.1,364.2-0.1,546.3,0c4.7,0,5.7-1.3,5.7-5.8c-0.2-42.9-0.1-85.9-0.1-128.8c0-1.3,0-2.7,0-4c0-1.6,1-1.9,2.3-1.9
	c1.5,0,2.1,0.6,2.1,2.1c-0.1,1.2,0,2.3,0,3.5c0,43.1,0.1,86.2-0.1,129.3c0,4.1,0.6,5.6,5.3,5.6c268.9-0.1,537.8-0.1,806.7,0
	c4.3,0,5.1-1.2,5.1-5.2c-0.2-43.6-0.2-87.2,0-130.8c0-5.2-1.2-6.4-6.4-6.4c-455.5,0.1-911,0.1-1366.5,0c-2.2,0-6.7,2.4-6.5-2.3
	c0.1-4,4.3-1.8,6.5-1.8c455.5-0.1,911-0.1,1366.5,0c5.3,0,6.4-1.5,6.4-6.5c-0.2-99.2-0.2-198.4,0-297.7c0-4.7-1-5.9-5.8-5.9
	C923.7,4.4,467.4,4.4,11,4.2c-5,0-6.2,1.1-6.2,6.2C5,265.5,5,520.6,4.8,775.6c0,5.2,1.4,6.1,6.2,6.1c226.2-0.1,452.5-0.1,678.7-0.1
	c1.8,0,3.7-0.1,5.5-0.1c1.2,0,2.3,0.1,3.5,0.1c104.3,0,208.7,0,313,0C1013.1,781.6,1014.4,781.5,1015.8,781.5z M1211.3,464.9
	c-56.5,0-112.9,0.1-169.4-0.1c-4.6,0-5.3,1.3-5.3,5.5c0.2,46.1,0.2,92.2,0,138.3c0,4.4,1,5.5,5.4,5.5c112.8-0.1,225.5-0.1,338.3,0
	c4.2,0,5.5-0.8,5.5-5.4c-0.2-46.3-0.2-92.5,0-138.8c0-4.2-1.1-5.1-5.2-5.1C1324.2,465,1267.8,464.9,1211.3,464.9z"/>
<path class="st3" d="M695.3,781.5c-1.8,0.1-3.7,0.1-5.5,0.1c-226.2,0-452.5,0-678.7,0.1c-4.9,0-6.2-0.9-6.2-6
	C5,522.2,5,268.7,4.8,15.2c0-5.1,1.3-6.1,6.2-6.1c456.3,0.1,912.7,0.1,1369,0c4.9,0,5.9,1.2,5.8,5.9c-0.2,98.6-0.2,197.2,0,295.8
	c0,5-1.1,6.5-6.4,6.5c-455.5-0.1-911-0.1-1366.5,0c-2.2,0-6.3-2.2-6.5,1.8c-0.2,4.6,4.3,2.2,6.5,2.2c455.5,0.1,911,0.1,1366.5,0
	c5.2,0,6.4,1.2,6.4,6.4c-0.2,43.3-0.2,86.7,0,130c0,4-0.8,5.2-5.1,5.2c-268.9-0.1-537.8-0.1-806.7,0c-4.7,0-5.3-1.4-5.3-5.6
	c0.1-42.8,0.1-85.7,0.1-128.5c0-1.2,0-2.3,0-3.5c0.1-1.5-0.6-2.1-2.1-2.1c-1.3,0-2.3,0.2-2.3,1.9c0,1.3,0,2.7,0,4
	c0,42.7-0.1,85.3,0.1,128c0,4.5-1,5.7-5.7,5.7c-182.1-0.1-364.2-0.1-546.3,0c-2.1,0-6.3-2.1-6.1,2.1c0.1,4.1,4.2,1.8,6.3,1.8
	c337.7,0.1,675.4,0.1,1013.1,0c5,0,6.6,0.9,6.5,6.2c-0.3,45.3-0.2,90.6,0,136c0,5.2-1.5,6.1-6.4,6.1C688.4,615,350.7,615,13,615.1
	c-2.2,0-6.3-2.2-6.5,1.8c-0.2,4.6,4.3,2.2,6.5,2.2c225.4,0.1,450.8,0.1,676.2,0.1c2,0,4,0.1,6,0.2
	C695.3,673.4,695.3,727.5,695.3,781.5z M530.9,558.2c53.9,0.1,107.8,0.1,161.8,0.2c3.1,0,3.5-1.4,3.5-3.9
	c-0.1-8.1-0.3-16.3,0.1-24.4c0.2-4.5-1.2-5.5-5.6-5.5c-49.6,0.2-99.2,0.1-148.8,0.1c-3.7,0-7.3,0.1-11,0.2c-1.3-0.1-2.7-0.2-4-0.2
	c-106.8,0-213.7-0.1-320.5-0.1c-1.5,0-3,0.2-4.5,0.2c-53.9-0.1-107.8-0.1-161.7-0.2c-3,0-3.1,1.4-3.1,3.7c0.1,8.5,0.2,16.9-0.1,25.4
	c-0.1,3.7,0.9,4.7,4.6,4.7c39.1-0.1,78.2-0.1,117.3-0.1c14.3,0,28.6-0.1,42.9-0.2c1.5,0.1,3,0.2,4.5,0.2c106.8,0,213.7,0,320.5-0.1
	C528.3,558.4,529.6,558.3,530.9,558.2z M348.6,738.7c96.8,0,193.6,0,290.3,0.1c4.5,0,5.4-1.1,5.4-5.4c-0.2-27.5-0.2-55.1,0-82.7
	c0-4.1-0.6-5.6-5.3-5.6c-193.4,0.1-386.8,0.1-580.2,0c-4.7,0-5.7,1.3-5.6,5.7c0.2,27.4,0.2,54.8,0,82.2c0,4.4,0.9,5.7,5.6,5.7
	C155.4,738.7,252,738.7,348.6,738.7z M832.8,193c-1.9-1.6-2-3.6-2.5-5.2C819.2,150.9,808,113.9,797.1,77c-0.9-2.9-2-4-5.1-3.9
	c-8.7,0.2-17.3,0.2-26,0c-3.6-0.1-4.4,1.1-4.4,4.5c0.1,21.7,0.1,43.5,0.1,65.2c0,42.3,0.1,84.6-0.1,126.9c0,5.3,1.5,6.4,6.3,6
	c5.8-0.4,11.7-0.4,17.5,0c4.5,0.3,5.5-1.1,5.5-5.4c-0.2-40.7-0.1-81.3-0.1-122c0-1.6,0-3.2,0-4.8c1.4,1.1,1.8,2.2,2.1,3.2
	c12.5,41.5,25,83.1,37.3,124.7c1,3.2,2.2,4.5,5.8,4.3c7-0.3,14-0.3,21,0c3.8,0.2,5-0.8,5-4.8c-0.2-22.9-0.1-45.8-0.1-68.7
	c0-41.3-0.1-82.6,0.1-124c0-4.2-1.2-5.4-5.3-5.2c-6.1,0.3-12.3,0.4-18.5,0c-4.4-0.3-5.5,1-5.5,5.4
	C832.9,116.5,832.8,154.5,832.8,193z M965.9,192.3c-0.3,0-0.6,0-0.9,0c-0.3-1.1-0.7-2.1-1-3.2c-11.3-37.4-22.6-74.8-33.8-112.2
	c-0.9-3-2.1-3.9-5.1-3.9c-8.3,0.2-16.7,0.3-25,0c-4.4-0.2-5.5,1-5.4,5.4c0.2,58.4,0.1,116.8,0.1,175.3c0,6.3,0.1,12.6,0,18.9
	c-0.1,2.4,0.7,3.1,3.1,3.1c7-0.1,14-0.4,21,0.1c4.4,0.3,5.1-1.3,5.1-5.3c-0.2-41-0.1-82-0.1-123c0-1.7,0-3.4,0-5.1
	c1.2,1.1,1.6,2.3,2,3.5c12.6,41.8,25.3,83.7,37.7,125.6c1,3.4,2.4,4.4,5.8,4.3c7.2-0.3,14.3-0.3,21.5,0c3.7,0.2,4.3-1.1,4.3-4.5
	c-0.2-19.3-0.1-38.5-0.1-57.8c0-44.8-0.1-89.6,0.1-134.4c0-5.3-1.5-6.4-6.3-6c-5.5,0.4-11,0.4-16.5,0c-5.1-0.4-6.6,1-6.5,6.3
	C966,117,965.9,154.7,965.9,192.3z M348.2,169.7c15.7-5.6,21.5-17,23.1-31.3c0.9-8,0.8-15.9,0-23.8c-2.4-24.7-18.2-40.2-43-41.1
	c-14.1-0.5-28.3,0-42.5-0.4c-4.7-0.1-6.1,0.9-6.1,5.8c0.2,57.2,0.1,114.5,0.1,171.7c0,7.3,0.1,14.6,0,21.9c0,2.3,0.5,3.2,3,3.2
	c15.8-0.2,31.7,0.4,47.5-0.3c24.7-1.1,40.3-14.1,44.6-36.5c2.1-10.8,1.7-21.8,0.7-32.7C373.9,189.1,367,175.6,348.2,169.7z
	 M544.1,233c0-11.5,0-22.9,0-34.4c0-8.6,0-8.3,8.5-8.8c4.8-0.3,6.4,1.4,7.6,5.8c7,25.5,14.5,51,21.6,76.5c0.8,2.9,2,3.6,4.8,3.5
	c7.8-0.2,15.7-0.3,23.5,0c4.2,0.2,5.4-0.4,3.9-4.9c-8.7-27.6-17-55.4-25.5-83.1c-0.8-2.5-1.5-4.3,1.4-6.2
	c9.4-6.1,14.6-15.2,17.1-25.9c3-12.4,2.4-25.1,1.6-37.7c-1.7-25.3-14.4-39.9-38.4-43.7c-18-2.8-36.2-0.6-54.4-1.1
	c-2.9-0.1-2.6,1.9-2.6,3.7c0,6.8,0,13.6,0,20.4c0,57.8,0,115.5-0.1,173.3c0,3.4,0.1,5.5,4.6,5.2c7.5-0.4,15-0.3,22.5,0
	c3.2,0.1,3.8-1,3.8-3.9C544,258.9,544.1,245.9,544.1,233z M1241.9,275.6c0.2-2-0.4-3.5-0.9-5.1c-8.5-27.9-16.9-55.7-25.5-83.6
	c-0.8-2.7-0.5-4.1,1.8-5.7c10-6.6,15.2-16.4,17.4-27.9c2.2-11.5,1.6-23.2,1.1-34.7c-1.2-27.7-18-44.4-45.9-45.4
	c-13-0.4-26-0.2-39-0.2c-10.2,0-10.2,0-10.2,10.4c0,62.4,0,124.8-0.1,187.1c0,4.2,1.1,5.3,5.2,5.1c6.8-0.4,13.7-0.5,20.5,0
	c4.7,0.3,5.3-1.5,5.3-5.6c-0.2-23.4-0.1-46.8-0.1-70.2c0-10.1,0-10,10-10.1c3.3,0,4.7,0.9,5.3,4.1c0.7,3.7,2,7.3,3,11
	c6.4,22.4,12.8,44.9,19.2,67.3c0.5,1.6,0.6,3.4,3.3,3.4C1222.2,275.5,1232.1,275.6,1241.9,275.6z M730.2,157.3
	c0-26.6-0.1-53.1,0.1-79.7c0-3.8-1.1-4.8-4.7-4.6c-7,0.3-14,0.3-21,0c-4.3-0.2-5.2,1.2-5.2,5.3c0.1,49.5,0.1,98.9,0.1,148.4
	c0,3-0.1,6-0.5,8.9c-1,6.5-4.2,11.4-11.1,13.2c-13.1,3.4-22.1-3-23-16.5c-0.1-1.8-0.1-3.6-0.1-5.5c0-25.9,0-51.8,0-77.7
	c0-23.9-0.1-47.8,0.1-71.7c0-3.5-0.9-4.6-4.5-4.5c-7.2,0.3-14.3,0.2-21.5,0c-3.1-0.1-3.9,0.8-3.9,3.9c0.1,52,0,103.9,0.2,155.9
	c0,9.2,2.2,18,6.9,26.1c14.6,25.1,55.9,23.5,72.2,10.2c12-9.8,15.9-22.9,15.9-37.5C730.2,206.8,730.2,182.1,730.2,157.3z
	 M50.5,170.1c0,22.5-0.1,40.9,0,59.4c0,9.7,1.3,19.2,6.3,27.8c10.2,17.7,26.8,22.2,45.7,21.1c23.6-1.4,38.5-14.5,42.4-36.8
	c1.9-11,0.8-22.2,1-33.3c0.1-2.8-1.8-2.7-3.6-2.8c-7.3-0.4-14.6-0.6-21.9-1.2c-3.3-0.3-4.2,0.5-4.3,3.9c-0.1,9.4,1,18.9-0.9,28.3
	c-1.9,9.3-7.4,13.8-16.7,13.7c-9.3-0.1-14.7-4.6-16.5-14c-0.5-2.4-0.7-4.9-0.7-7.4c0-36.3,0-72.7,0-109c0-2.3,0.3-4.6,0.7-6.9
	c1.8-9.5,7.5-14.2,16.9-14.2c8.9,0,14.4,4.9,16.4,14.2c1.5,7.2,0.8,14.6,0.8,21.8c0,3.1,0.9,4,3.9,3.7c7.5-0.5,15-0.9,22.4-1.1
	c2.5-0.1,3.6-0.7,3.5-3.4c-0.2-6,0.2-12-0.1-17.9c-0.9-15.9-5.6-30-20.2-38.9c-9.8-5.9-20.5-7.1-31.7-6.7
	c-24.1,0.9-40.8,16.3-42.7,40.2C49.5,131.7,51,153,50.5,170.1z M1255.3,231c0,1.3,0,2.7,0,4c0.8,21.6,11.1,36.1,29.6,41.2
	c11.6,3.2,23.4,3.3,35.1,0.3c14.4-3.8,24.7-12.6,28.4-27.2c3.9-15.5,3.8-31.3-0.9-46.7c-4.4-14.4-14.4-25.2-25.1-35.3
	c-8.7-8.2-18.4-15.3-26.2-24.4c-7.9-9.2-11.7-19.5-9.4-31.7c1.6-8.7,6.9-12.9,15.7-12.7c8.5,0.2,13.5,4.7,14.8,13.2
	c0.4,2.6,0.6,5.3,0.4,7.9c-0.2,3,0.6,4.1,3.8,3.7c7.6-0.9,15.2-1.5,22.9-2.2c1.3-0.1,2.4-0.3,2.8-2.1c3.8-16-7.4-38-23.2-44.6
	c-12.9-5.4-26.2-5.6-39.6-2c-14.4,3.9-23.9,13.4-27,27.8c-5.1,23.4-1.5,45.1,14.9,63.7c8.2,9.3,17.5,17.2,26.8,25.3
	c13.3,11.5,23.1,24.6,20.9,43.7c-1.3,11.2-6.5,17-17.2,17c-11.3,0-17.2-5.6-17.7-17c-0.2-4.1-0.3-8.3,0-12.4
	c0.3-3.6-1.2-4.1-4.3-3.7c-4.8,0.6-9.6,0.9-14.4,1.5C1255.3,219.7,1255.3,219.8,1255.3,231z M1028,174.3c0,32.2,0,64.4,0,96.6
	c0,2.9-0.1,4.8,4,4.8c26.3-0.2,52.6-0.2,79,0c3.3,0,3.9-1.1,3.8-4c-0.2-6.6-0.3-13.3,0-19.9c0.2-3.9-1.2-4.7-4.8-4.6
	c-15.7,0.2-31.3,0-47,0.1c-3.2,0-4.3-0.7-4.2-4.1c0.2-17.4,0.2-34.9,0-52.3c0-3.6,1.4-4,4.3-3.9c12.3,0.1,24.7-0.1,37,0.1
	c3.2,0.1,3.9-0.9,3.8-3.9c-0.2-6.8-0.3-13.6,0-20.4c0.1-3.3-1-4.1-4.2-4.1c-12.2,0.2-24.3-0.1-36.5,0.2c-3.4,0.1-4.5-0.8-4.5-4.4
	c0.2-16.3,0.2-32.5,0-48.8c0-3.4,0.8-4.5,4.4-4.4c15.8,0.2,31.7,0,47.5,0.2c3.4,0,4.2-1,4.1-4.2c-0.2-6.3-0.3-12.6,0-18.9
	c0.2-4-0.8-5.4-5.1-5.3c-25.5,0.2-51,0.2-76.5,0c-4.1,0-5.3,1-5.2,5.2C1028.1,110.3,1028,142.3,1028,174.3z M400.9,174.1
	c0,1,0,2,0,3c0,31.4,0,62.7,0,94.1c0,2.1-0.9,4.6,3.1,4.5c26.7-0.1,53.3-0.1,80,0c2.7,0,3.3-0.9,3.3-3.4c-0.1-6.8-0.3-13.6,0-20.4
	c0.2-3.7-0.9-4.8-4.7-4.7c-15.5,0.2-31,0-46.5,0.2c-3.3,0-4.7-0.6-4.6-4.3c0.2-17.3,0.2-34.5,0-51.8c0-3.8,1.4-4.3,4.7-4.2
	c12.3,0.2,24.7,0,37,0.1c2.8,0,3.8-0.8,3.7-3.6c-0.2-6.8-0.3-13.6,0-20.4c0.2-3.7-1.3-4.4-4.6-4.3c-12,0.2-24-0.1-36,0.2
	c-3.7,0.1-4.8-1-4.8-4.7c0.2-15.9,0.3-31.9,0-47.8c-0.1-4.4,1.4-5.1,5.4-5.1c15.5,0.2,31,0,46.5,0.2c3,0,4.1-0.6,4-3.8
	c-0.3-6.6-0.3-13.3,0-19.9c0.2-3.7-0.8-4.7-4.6-4.7c-25.7,0.2-51.3,0.2-77,0c-4,0-4.9,1.1-4.9,4.9C401,110,400.9,142,400.9,174.1z
	 M151.2,73.1c0.6,1.9,1,3.3,1.5,4.6c13,33.7,25.9,67.4,38.9,101c1.3,3.3,1.9,6.6,1.9,10.1c-0.1,27.4,0,54.8-0.1,82.1
	c0,3.7,0.8,4.9,4.7,4.7c7.3-0.3,14.7-0.3,22,0c3.6,0.1,4.3-1.1,4.3-4.4c-0.1-27.5-0.1-55.1-0.1-82.6c0-2.9,0.5-5.5,1.5-8.2
	c8-20.9,15.8-41.8,23.7-62.7c5.5-14.7,11.1-29.3,16.9-44.6c-10.4,0-20.2,0.1-29.9,0c-2.4,0-2.6,1.8-3.1,3.2
	c-3.1,8.9-6.1,17.8-9.2,26.8c-4.7,13.7-9.5,27.5-14.2,41.3c-1.9-1.2-1.9-3.1-2.4-4.6c-7.6-21-15.2-42-22.7-63
	c-0.7-1.8-0.9-3.8-3.8-3.7C171.2,73.2,161.4,73.1,151.2,73.1z M1116.7,432.8c-0.3-3.8-0.9-6.2-5.6-5.7c-4.3,0.4-8.7-0.1-13,0.2
	c-2.9,0.2-3.6-0.9-3.5-3.6c0.2-7.3-0.1-14.6,0.1-21.9c0.1-3.6-1.6-3.5-4.2-3.6c-2.8-0.1-3.7,0.6-3.7,3.5c0.2,9.3,0.2,18.6,0,27.9
	c-0.1,3.4,0.7,4.5,4.3,4.4c9.6-0.2,19.2-0.1,28.8,0.1c3.8,0.1,6-1.4,7.1-4.7c1-3,3-4,6.1-3.6c1.8,0.2,3.7,0,5.5,0
	c5.8,0,12-1.5,14.3,6.7c0.9,3,5.3,1.7,7.6,1c1.7-0.5-0.3-2.8-1-4.1c-4.6-9.1-9.6-18.1-14.1-27.3c-1.3-2.7-2.8-3.9-6-3.9
	c-3.3,0.1-5.3,0.6-7,3.9C1127.4,412.4,1122,422.6,1116.7,432.8z M659.5,416.1c0,5,0,9.9,0,14.9c0,1.6,0.1,3,2.3,2.9
	c8.5-0.4,16.9,0.7,25.4-0.7c5.1-0.8,7.5-3.9,7.8-8.8c0.2-4.8,0.2-9.6,0.1-14.4c-0.1-8.2-3.1-11.4-11.4-11.7c-7-0.2-14,0.1-20.9-0.1
	c-2.8-0.1-3.3,1.1-3.2,3.5C659.6,406.5,659.5,411.3,659.5,416.1z M862.9,416.3c0-3,0.2-6-0.1-8.9c-0.4-4.5-2.6-7.8-7.5-8.5
	c-7.6-1-15.2-1.2-22.8,0.1c-3.8,0.7-6.1,3-6.7,7c-0.9,6.4-0.8,12.9-0.1,19.3c0.5,4.5,3.2,7,7.6,7.9c4,0.9,8,0.5,11.9,0.6
	C861.2,433.9,863,432.1,862.9,416.3z M989.4,410.2c2,0.3,2.4,1.5,3,2.3c5.3,6.4,10.6,12.7,15.7,19.3c2.3,2.9,5.1,2.1,7.7,1.8
	c3-0.4,1.5-3.2,1.5-4.9c0.2-8.6,0-17.2,0.1-25.9c0-2.8,0.2-4.8-3.9-4.9c-4.6,0-3.6,2.6-3.6,5.1c0,6.4,0,12.7,0,20.1
	c-1.3-1.5-1.8-2-2.3-2.6c-5.4-6.7-11.1-13.2-16.2-20.2c-2.4-3.2-5.4-2.4-8.1-2c-3,0.3-1.4,3.2-1.4,4.9c-0.2,8.9,0,17.9-0.2,26.8
	c-0.1,3.1,0.8,3.9,3.9,3.9c3.2,0,3.9-1.1,3.8-4C989.3,423.4,989.4,416.9,989.4,410.2z M1179.4,433.9c0,0,0-0.1,0-0.1
	c3.7,0,7.3,0,11,0c1.2,0,2.3-0.3,3.4-0.6c5.3-1.2,7.7-4.1,7.9-9.3c0.2-6.4-2.8-10.1-9.2-10.7c-4.6-0.4-9.3-0.2-14-0.5
	c-2.3-0.1-4.8-0.5-4.8-3.8c0-3.2,2.2-3.7,4.7-3.9c1.8-0.1,3.7-0.1,5.5-0.1c4.2,0,8.3-0.1,12.5,0c2.6,0.1,2.7-1.4,2.5-3.2
	c-0.1-1.4,0.9-3.6-2-3.5c-7.2,0.1-14.3-0.2-21.4,0.4c-7,0.7-9.8,4.4-9.4,11c0.4,6,3.6,9,10.6,9.5c3.8,0.2,7.7,0,11.5,0.2
	c2.6,0.1,5.7,0.1,5.8,3.9c0.1,3.8-2.9,3.9-5.6,4c-6.2,0.1-12.3,0.2-18.5,0c-2.5,0-3.9,0.3-3.9,3.4c0,3.2,1.5,3.4,4,3.3
	C1173,433.8,1176.2,433.9,1179.4,433.9z M759.2,433.9c3.8-0.2,8.3,0.4,12.8-0.6c6.3-1.4,8.9-4.6,8.6-10.8c-0.3-5.8-3.2-8.8-9.5-9.4
	c-4.3-0.4-8.6-0.1-13-0.4c-2.6-0.2-5.7-0.4-5.5-4.2c0.2-3.5,3-3.5,5.5-3.6c5.7-0.1,11.3-0.2,17,0c2.7,0.1,3-1.3,2.8-3.4
	c-0.1-1.6,0.5-3.4-2.3-3.3c-7.1,0.2-14.3-0.2-21.4,0.5c-7,0.7-9.6,4.3-9.2,11.1c0.3,5.8,3.5,8.9,10.1,9.3c3.8,0.3,7.7,0,11.5,0.2
	c2.7,0.1,6.2-0.2,6.3,3.8c0.1,4.1-3.2,4-6.1,4c-6.2,0.1-12.3,0.2-18.5,0c-2.6-0.1-3.5,0.6-3.4,3.3c0.1,2.4,0.4,3.7,3.2,3.5
	C751.6,433.7,755.1,433.9,759.2,433.9z M1324.9,433.9c0,0,0-0.1,0-0.1c3.7,0,7.3,0,11,0c1,0,2-0.3,2.9-0.5c6.3-1.2,9-4.6,8.6-10.7
	c-0.3-5.8-3.2-8.9-9.5-9.4c-4.3-0.4-8.7-0.1-13-0.4c-2.6-0.2-5.6-0.3-5.5-4.2c0.1-3.7,2.9-3.5,5.4-3.6c5.7-0.1,11.3-0.2,17,0
	c2.7,0.1,3-1.1,2.9-3.3c-0.1-1.9,0.3-3.6-2.7-3.4c-6.8,0.3-13.7-0.2-20.5,0.4c-7.3,0.6-10.2,4.3-9.9,11.1c0.3,6,3.6,9,10.6,9.4
	c4.1,0.3,8.3,0,12.5,0.3c2.3,0.1,4.9,0.6,4.9,3.8c0,3.4-2.5,4-5.1,4c-6.3,0.1-12.7,0.1-19,0.1c-2.4,0-4,0-4,3.3c0,2.9,1,3.7,3.8,3.5
	C1318.6,433.7,1321.7,433.9,1324.9,433.9z M1222.5,433.9c4-0.2,8.6,0.4,13.3-0.6c6.3-1.3,8.8-4.4,8.6-10.7c-0.3-5.8-3.2-8.9-9.4-9.4
	c-4.3-0.4-8.6-0.1-13-0.4c-2.4-0.2-5.4-0.1-5.5-3.7c-0.1-3.7,2.7-4.1,5.5-4.1c5.7-0.1,11.3-0.2,17,0c2.6,0.1,3.1-1.2,2.9-3.3
	c-0.1-1.5,0.5-3.5-2.2-3.4c-7.3,0.3-14.7-0.7-21.9,0.5c-6.8,1.1-9.2,4.3-8.9,10.9c0.3,5.8,3.5,9,10,9.4c4.3,0.3,8.7,0.1,13,0.3
	c2.6,0.1,5.2,0.8,4.9,4.2c-0.2,3-2.5,3.5-5,3.6c-6.5,0-13,0.2-19.5,0c-2.5,0-3.5,0.4-3.5,3.2c0,2.9,0.9,3.7,3.7,3.5
	C1215.5,433.7,1218.7,433.9,1222.5,433.9z M873.6,415.8c0,4.6,0.2,9.3-0.1,13.9c-0.2,3.1,0.6,4.2,4,4.3c4.7,0.1,3.6-2.9,3.4-5.2
	c-0.4-3.8,0.8-5.3,4.8-5c3.8,0.4,7.7,0.3,11.5-0.2c8.1-0.9,10.7-4.4,10.4-13.3c-0.2-8.4-3.1-11.7-11.2-12c-6-0.3-12,0.1-18-0.2
	c-3.7-0.2-5.4,0.6-5,4.7C873.9,407.2,873.6,411.5,873.6,415.8z M929.7,434.5c4.3-1.5,8.5,1.5,9.8-2.6c2-6.3,6.3-6.5,11.5-6.1
	c2.8,0.2,5.7,0.2,8.5,0c2.4-0.2,4.3,0.4,5,2.9c1.5,5.7,5.5,6,10.9,4.7c-5.9-11.4-11.6-22.7-17.6-33.8c-1.2-2.3-8.8-1.9-10.1,0.4
	C941.8,410.9,936.1,422,929.7,434.5z M1065.7,398.2c0,0.1,0,0.2,0,0.2c-3.8,0-7.7-0.3-11.5,0.1c-6.3,0.7-9.1,3.8-9.3,10.2
	c-0.2,5-0.2,10,0,14.9c0.2,6,2.7,8.7,8.6,9.7c7.4,1.2,15,0.2,22.4,0.5c2.6,0.1,2.4-1.6,2.4-3.3c0.1-2,0-3.5-2.8-3.4
	c-5.8,0.2-11.6,0-17.5,0c-3.3,0-5.5-1.3-5.6-4.8c-0.1-4-0.1-8-0.1-11.9c0-4,2.1-5.6,5.9-5.6c5.2,0.1,10.3,0,15.5,0
	c2.3,0,4.6,0.6,4.6-3.2c0.1-3.7-1.9-3.5-4.4-3.4C1071.3,398.3,1068.5,398.2,1065.7,398.2z M1291.9,433.9c3.8,0,6.9-0.2,10.1,0.1
	c3,0.2,3.1-1.4,3.1-3.6c0-2.3-0.5-3.3-3-3.2c-5.6,0.2-11.3,0-17,0.1c-4,0.1-5.9-1.7-5.8-5.6c0-3.6,0.1-7.3,0-10.9
	c-0.1-3.9,1.7-5.8,5.7-5.8c5.8,0.1,11.6-0.1,17.5,0c3,0.1,2.6-1.7,2.7-3.5c0-1.7,0.2-3.3-2.4-3.2c-7,0.2-14-0.2-20.9,0.2
	c-7,0.4-9.8,3.7-9.9,10.5c-0.1,5-0.2,9.9,0,14.9c0.2,5.7,2.7,8.3,8.3,9.5C1284.2,434.2,1288.4,433.7,1291.9,433.9z M264.4,427.2
	c0.8-0.4,1.2-0.7,1.6-0.9c6.3-1.9,8-5,7.1-13c-0.6-5-3.3-7.2-9.4-7.4c-5.6-0.2-11.3,0-16.9-0.1c-2.6-0.1-3.5,0.7-3.4,3.3
	c0.2,7.9,0.2,15.9,0,23.8c-0.1,2.7,0.9,3.2,3.4,3.3c4.9,0.3,2.8-3.2,3.3-5.4c0.3-1.3-0.9-3.3,0.9-3.9c1.8-0.6,3.9-0.6,5.4,1.3
	c1,1.3,2.6,2.2,3.4,3.6c3,4.6,7.2,5,12.6,3.9C269.6,432.7,267.1,430,264.4,427.2z M79.5,384.3c2.3,0,4.7,0.1,7,0
	c6.3-0.4,8.8-2.5,9.2-8.7c0.3-4.4,0.3-8.9-0.1-13.4c-0.5-5.5-2.8-7.8-8.2-8c-5.1-0.3-10.3-0.3-15.4,0c-5.7,0.3-8,2.6-8.5,8.3
	c-0.2,2-0.1,4-0.1,6C63.3,383.3,64.3,384.4,79.5,384.3z M128.2,363.1c1.3,1.5,1.9,2.2,2.5,3c4.3,5.3,8.7,10.5,12.7,15.9
	c2.1,2.8,4.8,2.9,7.5,2.3c2.7-0.6,1.2-3.3,1.3-5c0.2-7.3,0-14.6,0.1-21.9c0.1-2.5-0.6-3.4-3.3-3.4c-2.8,0-3.3,1.1-3.2,3.5
	c0.1,5.5,0,11.1,0,16.7c-2-0.2-2.3-1.5-3-2.3c-4.3-5.2-8.7-10.4-12.8-15.9c-1.9-2.6-4.4-2.1-6.7-1.8c-2.8,0.3-1.6,2.9-1.6,4.4
	c-0.1,7.1-0.1,14.2,0,21.4c0,2.2-0.8,4.5,3.2,4.6c4.3,0.1,3.3-2.5,3.3-4.8C128.2,374.5,128.2,369.3,128.2,363.1z M132,436.1
	c0,0,0,0.1,0,0.1c3.3,0,6.7-0.1,10,0c2.3,0.1,2.3-1.1,2.3-2.8c0-1.7-0.2-2.9-2.4-2.7c-2,0.1-4,0.1-6,0c-4.2-0.1-8.3,0-12.5-0.3
	c-2.8-0.2-3.3-2.4-3.2-4.7c0.1-2.9,2.4-1.6,3.8-1.7c4.8-0.2,9.7-0.1,14.5,0c2.3,0.1,3.7-0.2,3.7-3.2c0-2.9-1.5-2.7-3.5-2.7
	c-5,0-10,0.1-15,0c-1.1,0-2.9,0.9-3.4-0.9c-0.4-1.8-0.3-3.7,1.5-4.9c1.3-0.9,2.8-0.9,4.3-0.9c5.2,0,10.3-0.1,15.5,0
	c1.8,0,2.9-0.4,2.6-2.5c-0.2-1.4,0.5-3.1-2-3.1c-7.2,0.1-14.3,0-21.5,0.4c-3.9,0.2-6.5,2.7-6.7,6.7c-0.3,5-0.4,10-0.2,14.9
	c0.3,5.6,2.8,7.9,8.6,8.2C125.6,436.2,128.8,436.1,132,436.1z M409.4,436c12.9,0.1,12.8,0.1,12.7-11.3c0-3.3-1.2-3.8-4.1-3.7
	c-4.3,0.1-2.7,3.2-2.6,5c0.2,3.6-0.7,4.8-4.6,4.7c-15-0.2-12.8,0.2-12.9-13c-0.1-5.7,0.9-6.5,6.7-6.5c5,0,10-0.1,15,0
	c2.1,0,2.4-1,2.4-2.7c0-1.7-0.2-2.8-2.4-2.8c-6.8,0.2-13.7,0.1-20.5,0.3c-4.5,0.1-7.1,2.6-7.6,7c-0.6,5.1-0.6,10.3-0.1,15.4
	c0.5,4.9,3.5,7.4,8.4,7.5C403.1,436.1,406.2,436,409.4,436z M358.3,414.7c5.8,7.1,10.8,12.8,15.3,18.9c2.1,2.9,4.8,2.9,7.4,2.4
	c2.9-0.6,1.3-3.3,1.3-5c0.2-7.3,0-14.6,0.1-21.9c0.1-2.6-0.6-3.4-3.3-3.4c-2.7,0-3.4,0.9-3.3,3.4c0.2,5.5,0.1,11.1,0.1,16.7
	c-1.7-0.2-2.2-1.2-2.7-1.9c-4.4-5.4-8.9-10.8-13.1-16.3c-1.9-2.5-4.5-2-6.8-1.7c-2.7,0.4-1.4,3-1.4,4.5c-0.1,7.5,0,14.9-0.1,22.4
	c-0.1,2.5,0.6,3.5,3.3,3.4c2.6,0,3.4-0.8,3.3-3.4C358.2,427.3,358.3,421.7,358.3,414.7z M308.6,436.2c0,0.1,0,0.1,0,0.2
	c4-0.2,8,0,11.9-0.7c4.5-0.7,6.8-3.6,6.8-8.4c0-4.6-1.8-7.5-6.5-8.6c-4-0.9-7.9-0.5-11.9-0.6c-2.5-0.1-5.5,0.2-5.6-3.3
	c-0.1-3.6,3-3.4,5.5-3.5c4.7-0.1,9.3-0.1,14,0c2.1,0,2.5-1,2.4-2.7c-0.1-1.3,0.1-2.8-1.9-2.7c-6.8,0.2-13.7-0.7-20.4,0.5
	c-4.5,0.8-6.1,4.2-6.1,8.4c0,4.3,1.6,7.3,6.1,8.4c4.1,1,8.3,0.6,12.4,0.7c2.5,0.1,5.5-0.1,5.4,3.5c-0.1,3.2-3,3.2-5.2,3.3
	c-5.3,0.2-10.6,0.1-16,0c-2.1,0-2.9,0.6-2.9,2.8c0,2.3,1,2.8,3,2.7C302.6,436.1,305.6,436.2,308.6,436.2z M74.1,420.8
	c0,3.6-0.1,7.3,0,10.9c0,2.1-1,4.5,3.1,4.6c3.9,0,3.3-2.1,3.3-4.4c0.1-8,0.1-8,8.1-8c0.2,0,0.3,0,0.5,0c8.8,0,8.9,0,9,8.9
	c0,2.3,0.2,3.5,3.1,3.5c3.1,0,3.5-1.2,3.5-3.8c-0.1-7.6-0.1-15.3,0-22.9c0-2.6-0.4-3.8-3.5-3.9c-3.5-0.1-3.1,1.9-3.1,4
	c-0.1,8.3-0.1,8.3-8.6,8.3c-0.2,0-0.3,0-0.5,0c-8.4,0-8.5,0-8.5-8.5c0-2.5-0.3-3.9-3.4-3.9c-3,0-3.1,1.4-3.1,3.6
	C74.2,413.1,74.1,417,74.1,420.8z M700.4,398.7c2.7,3.1,4.9,6,7.4,8.6c6.4,6.6,12,13.3,9.7,23.4c-0.5,2.3,0.6,3,3,3.2
	c3.9,0.3,5.1-1,4.5-4.7c-1.3-7.8,1.4-14,7.3-19.3c3.6-3.2,6.4-7.4,9.8-11.3c-6.3-1.5-11-0.6-14.2,5.1c-1.7,3-4.2,5.5-6.6,8.6
	c-2.2-2.7-4.6-5.1-6.2-7.9C712,398.8,707.4,397,700.4,398.7z M802.2,398.2c-4.6,0-9.3,0-13.9,0c-2.3,0-4.1-0.3-4.1,3.1
	c0,3.5,1.8,3.6,4.3,3.5c2.2-0.1,4.3,0.1,6.5-0.1c2.6-0.2,3.4,0.7,3.4,3.3c-0.2,7.4,0.1,14.9-0.1,22.3c-0.1,3.7,1.9,3.3,4.3,3.5
	c2.9,0.2,3.7-0.9,3.5-3.6c-0.2-4.6-0.2-9.3,0-13.9c0.1-3.8-1.6-8.6,0.8-11c1.8-1.8,6.6-0.5,10-0.6c0.2,0,0.3,0,0.5,0
	c2.9,0.4,2.6-1.6,2.7-3.4c0.1-2.1-0.2-3.3-2.9-3.2C812.2,398.4,807.2,398.2,802.2,398.2z M207,421c0,3.6,0,7.3,0,10.9
	c0,2.2-0.7,4.5,3.2,4.4c3.9,0,3.4-2.2,3.2-4.4c-0.3-3.2,0.6-4.4,4.1-4.2c3.8,0.2,7.7,0.1,11.4-0.5c5.9-0.9,7.6-3.8,7.3-11.9
	c-0.2-6.1-2.5-9-8-9.3c-6.1-0.3-12.3-0.1-18.4-0.3c-2.2-0.1-2.9,0.6-2.8,2.8C207.1,412.7,207,416.8,207,421z M167,418.4
	c0,3-0.1,6,0,9c0.2,5.6,2.6,8.4,8.1,8.7c4.8,0.3,9.7,0.3,14.5,0c4.5-0.3,7.5-2.9,7.6-7.6c0.2-6.6,0-13.3,0.3-19.9
	c0.1-2.9-1.7-2.5-3.5-2.6c-2-0.1-3,0.4-2.9,2.7c0.2,3.6,0,7.3,0,10.9c0,11.6-0.5,12-12.1,11.3c-3.9-0.2-5.8-1.8-5.7-5.8
	c0.1-5.3-0.1-10.6,0.1-15.9c0.1-2.7-0.9-3.3-3.4-3.3c-2.5,0-3.1,0.9-3,3.2C167.1,412.1,167,415.2,167,418.4z M53.5,405.8
	c-4.3,0-8.6,0.1-12.9,0c-2.4-0.1-2.6,1.1-2.7,3c0,2,0.7,2.7,2.6,2.5c1-0.1,2,0,3,0c7.5,0.1,6.4-1.1,6.4,6.7c0.1,5.1,0.2,10.3,0,15.4
	c-0.1,2.6,1.1,2.9,3.3,2.9c2.2,0,3.4-0.2,3.2-2.9c-0.2-4.3-0.1-8.6-0.1-12.9c0-8.8,0-8.9,8.9-9.1c2.2-0.1,3.3-0.3,3.3-2.9
	c0-2.9-1.7-2.6-3.5-2.6C61.1,405.8,57.3,405.8,53.5,405.8z M1260.9,416.4c0-5-0.2-9.9,0.1-14.9c0.2-3.1-1.2-3.5-3.8-3.4
	c-2.4,0.1-4,0-4,3.3c0.2,9.8,0.2,19.5,0,29.3c-0.1,3.4,1.8,3.1,4.1,3.2c2.3,0.1,3.8-0.1,3.6-3.1
	C1260.7,426,1260.9,421.2,1260.9,416.4z M923.9,416c0-5-0.2-9.9,0.1-14.9c0.2-3.1-1.6-3-3.7-2.9c-2.1,0.1-4.3-0.6-4.2,3
	c0.2,9.9,0.2,19.8,0,29.7c-0.1,3.6,2.2,2.9,4.2,3c2.3,0.1,3.8-0.1,3.7-3.1C923.7,425.9,923.9,420.9,923.9,416z M48.3,366
	c-0.8,5.3,3.4,14.1-8.5,13.1c-1.2-0.1-0.8,1.9-0.8,3c-0.1,1-0.1,1.8,1.3,2.3c6.9,2.4,14.3-2.2,14.7-9.5c0.3-5.8,0-11.6,0.1-17.4
	c0.1-2.5-0.5-3.5-3.2-3.5c-2.9,0-3.7,1-3.5,3.7C48.5,360.3,48.3,363,48.3,366z M335.1,420.6c0,4.3,0.2,8.6-0.1,12.9
	c-0.2,2.8,1.3,2.7,3.3,2.8c2.1,0,3.4-0.1,3.3-2.8c-0.2-8.3-0.2-16.5,0-24.8c0.1-2.8-1.4-2.7-3.4-2.8c-2.2-0.1-3.4,0.3-3.2,2.9
	C335.3,412.6,335.1,416.6,335.1,420.6z M288.1,421.1c0-4.1-0.2-8.3,0.1-12.4c0.1-2.6-1-3-3.2-2.9c-2,0.1-3.5,0-3.4,2.8
	c0.2,8.3,0.2,16.5,0,24.8c-0.1,2.7,1.2,2.9,3.3,2.8c2,0,3.5,0.1,3.3-2.8C288,429.4,288.1,425.2,288.1,421.1z M681.9,365.5
	c1.5,0,3,0,4.5,0c0.9,0,2.2,0.3,2.4-1.1c0.2-1.7-1.1-1.7-2.3-1.8c-2.3,0-4.6,0-7,0c-1.4,0-2.8-0.3-2.7-2.1c0.1-1.9,1.7-1.2,2.6-1.2
	c2-0.1,4,0,6,0c1.2,0,2.5,0.1,2.3-1.7c-0.1-1.4-1.3-1.3-2.2-1.3c-2.2,0-4.3,0-6.5,0c-0.9,0-2.1,0.2-2.3-1.2
	c-0.2-1.5,0.9-2.1,2.1-2.2c2.5-0.2,5-0.1,7.4-0.2c1.1,0,2.6,0.3,2.5-1.5c-0.1-1.4-1.3-1.3-2.3-1.3c-3.1,0.1-6.3,0.2-9.4,0.3
	c-1.9,0.1-3,1.1-3.7,2.8C670.5,360.7,673.7,365.5,681.9,365.5z M111.4,369.3c0-4.1-0.2-8.3,0.1-12.4c0.1-2.7-1.1-2.9-3.3-2.9
	c-2.3,0-3.2,0.5-3.2,3c0.2,8.1,0.1,16.2,0,24.3c0,2.3,0.5,3.2,3,3.2c2.5,0,3.6-0.5,3.4-3.3C111.2,377.2,111.4,373.3,111.4,369.3z
	 M789,360.8c-3-3.7-5.3-6.5-7.6-9.3c-0.9-1.1-2-1.9-3.4-1.6c-2,0.4-1.2,2.1-1.2,3.3c-0.1,3.5,0,7,0,10.4c0,1.2,0.4,1.8,1.7,1.9
	c1.5,0.1,1.6-0.8,1.6-1.9c0-2.6,0-5.2,0-8.8c1.8,2.1,3,3.4,4.1,4.7c1.3,1.5,2.6,3,3.8,4.6c0.9,1.2,2.1,1.5,3.5,1.2
	c1-0.2,1.1-1.1,1.1-2c0-3.8,0-7.6,0-11.4c0-1.4-0.6-2.2-2-2.1c-1.4,0.1-1.4,1.1-1.4,2.2C789,354.5,789,357,789,360.8z M805.9,365.5
	c1.5,0,3-0.1,4.5,0c2.6,0.2,2.7-1.4,2.4-3.1c-0.3-1.6,1.3-4-1.5-4.5c-2.3-0.4-1.7,1.7-2,3.1c-0.6,2.8-2.9,1.4-4.5,1.5
	c-1.7,0.2-3.7,0.5-4.4-2c-1.5-5.3,0.2-7.8,5.7-7.8c1.5,0,3,0,4.5,0c1,0,2.1,0.1,2.2-1.3c0-1.4-1.1-1.5-2.1-1.5
	c-3.3,0.1-6.6,0.2-9.9,0.3c-1.9,0.1-3,1.3-3.5,3C794.5,361.2,797.5,365.5,805.9,365.5z M743.9,355.8c-1.2-1.4,1.6-5.6-1.5-5.6
	c-3.8,0-0.9,4.3-1.8,6.4c-0.1,0.1,0,0.3,0,0.5c0.3,3.4-0.3,5.6-4.7,5.6c-4.3,0-4.5-2.2-4.3-5.3c0.1-1.8,0-3.6,0-5.5
	c0-1.1-0.4-2-1.6-2.1c-1.5-0.1-2,0.7-2,2.1c0.1,3.1,0,6.3,0.2,9.4c0.1,1.8,1,3.1,2.8,3.7C739.2,368,743.9,364.8,743.9,355.8z
	 M762.9,365c-2.6-3-2.5-3,0-6c1.5-1.9,1.3-4.1,0.7-6.2c-0.6-2-2.3-2.5-4.3-2.8c-10.2-1.5-10.6-1.2-10.6,8.9c0,1.5,0,3,0,4.5
	c0,1,0,2,1.4,2.1c1.2,0.1,1.8-0.4,1.8-1.7c0.1-5.2,2.3-3.2,4.3-1.2C758.1,364.4,759.7,366.4,762.9,365z M710.3,364.9
	c-2.2-4.4-4.3-8.8-6.7-13c-1.6-2.9-4.1-2.8-5.9,0.3c-2,3.6-3.8,7.3-5.6,11c-0.3,0.6-1.7,1.7-0.1,2.3c0.8,0.3,1.9,0.3,2.8-0.4
	c5.2-4.1,7-4,11.9,0C707.7,365.7,708.8,365.6,710.3,364.9z M656,357.8c0,1.5-0.1,3,0,4.5c0.1,1.2-1.1,3.3,1.6,3.2
	c2.2-0.1,1.6-1.9,1.4-3c-0.3-2.7,0.9-3.5,3.4-3.2c1.5,0.2,3,0,4.5,0c1.1,0,2-0.1,2-1.5c0-1.5-0.9-1.5-2-1.5c-2,0-4,0-6,0
	c-1.1,0-1.9-0.4-1.9-1.7c0-1.2,0.7-1.8,1.8-1.8c1,0,2,0.2,3-0.1c2-0.5,5.8,1.3,5.8-1.4c0-2.7-3.7-1.3-5.8-1.3
	C656,349.7,656,349.8,656,357.8z M717.5,349.8c-1.8,0-3.7,0-5.5,0c-1,0-2.1,0-2.1,1.4c0,1.5,1.1,1.5,2.1,1.3c4-0.7,4.3,1.6,4,4.7
	c-0.2,2,0,4,0,6c0,1.3,0,2.3,1.8,2.2c1.4-0.1,1.5-1,1.5-2.1c0-2.7,0-5.3,0-8c0-1.2,0-2.2,1.5-2.7c1.6-0.6,5,1.3,4.5-1.7
	c-0.4-2.3-3.8-0.7-5.8-1.1C718.9,349.7,718.2,349.8,717.5,349.8z M771.9,357.8C771.9,357.8,771.9,357.8,771.9,357.8
	c0-2.1,0-4.3,0-6.4c0-1.2-0.8-1.7-2-1.7c-1.2,0-1.9,0.6-1.9,1.8c0,4.1,0,8.3,0,12.4c0,1.2,0.5,1.8,1.7,1.9c1.3,0,2.3-0.3,2.2-1.9
	C771.9,361.7,771.9,359.8,771.9,357.8z"/>
<path class="st4" d="M695.3,781.5c0-54,0-108.1,0-162.1c1-0.1,2-0.1,3-0.1c104.7,0,209.3,0,314,0c1.2,0,2.3,0.1,3.5,0.2
	c0,54,0,108.1,0,162.1c-1.3,0-2.7,0.1-4,0.1c-104.3,0-208.7,0-313,0C697.6,781.6,696.4,781.5,695.3,781.5z"/>
<path class="st3" d="M1015.8,781.5c0-54,0-108.1,0-162.1c1.8-0.1,3.7-0.2,5.5-0.2c119.6,0,239.2,0,358.8-0.1c4.9,0,5.9,1.1,5.9,5.9
	c-0.2,50.8-0.2,101.6,0,152.4c0,3.4-0.7,4.4-4.3,4.4c-121.1-0.1-242.2-0.1-363.3-0.1C1017.4,781.6,1016.6,781.5,1015.8,781.5z
	 M1309.5,661.4c-14.3-9.6-29-10.2-44.1-1.9c-0.9,0.5-2.6,2.8-3.2-0.2c-0.8-3.9-3.3-2.9-5.7-2.4c-7.3,1.5-10.2-0.6-10.9-8
	c-0.4-3.9-3.5-6.9-7.3-6.7c-4.1,0.2-6.5,2.7-6.8,6.6c-0.3,4,1.8,6.6,5.9,7.4c5.1,1.1,8.3,6.2,6.9,11.1c-0.4,1.4-0.7,2.9-0.9,4.4
	c-0.2,1.4-0.1,2.8,1.5,3.3c1.5,0.5,2.7,0,3-1.7c0.4-2,1.1-1.4,2.3-0.6c6.2,4.4,7,11.6,7.7,17.9c0.6,4.8,0.6,9.3,3.3,13.6
	c2.2,3.5,2.2,7-1.6,10c-7.6,6.1-15.3,12-24.7,17.7c8.2,0.4,14.9-1.3,21.3-3.8c7.4-2.8,7.3-2.8,12.5,3.4c2.9,3.4,5.6,7.4,10.5,7.8
	c10.2,0.9,20.1,0.9,26.1-9.7c0.1-0.2,0.5-0.3,1.1-0.6c1.9,3.7,4.1,7.3,8.4,10.1c0-4.1,0-7.5,0-11.2c7.4,2.5,14.4,4.5,22.4,4.1
	c-4.4-3-8.1-5.8-12.1-8.1c-4.6-2.7-6.6-5.3-4.5-11.3c3.3-9.4,0.3-19.1-2.2-28.3c-1.6-6,0.1-9.4,5-12.4c1,1.4,1.3,4.2,4,3
	c2.2-1,1.3-3.2,1.1-4.9c-0.1-1-0.5-1.9-0.8-2.9c-1.4-4.4,2-10,6.6-10.9c4.2-0.8,6.4-3.4,6.3-7.6c-0.1-3.7-3.8-6.9-7.5-6.5
	c-4.2,0.5-6.7,2.9-6.5,7.3c0.1,1.9-0.2,3.3-1.5,4.9c-2.7,3.2-5.3,4.2-9.4,2.6c-2.5-1-6.6-2.5-5.3,3.4
	C1310.1,660.8,1309.8,661.1,1309.5,661.4z M1145.4,746.6c30.4,0.1,55.2-24.4,55.3-54.4c0-29.9-24.4-54.5-54.4-54.7
	c-30.2-0.2-55.3,24.5-55.3,54.4C1091.1,721.9,1115.6,746.5,1145.4,746.6z"/>
<path class="st3" d="M1211.3,466.9c56.5,0,112.9,0,169.4-0.1c4.1,0,5.2,0.8,5.2,5c-0.2,46-0.2,92,0,137.9c0,4.6-1.3,5.3-5.5,5.3
	c-112.8-0.1-225.5-0.1-338.3,0c-4.4,0-5.5-1.1-5.4-5.4c0.2-45.8,0.2-91.6,0-137.4c0-4.2,0.7-5.5,5.3-5.5
	C1098.4,467,1154.8,466.9,1211.3,466.9z M1243.9,541C1243.9,541,1243.9,541,1243.9,541c0-6.8,0.2-13.6-0.1-20.4
	c-0.4-9.2-6.3-14.9-15.6-15.4c-9.5-0.6-16.8,4.6-17.5,13.8c-1.2,14.4-1.2,28.8,0,43.2c0.8,9.5,8.2,14.7,17.9,14
	c9.3-0.7,15.1-6.7,15.4-16.2C1244,553.6,1243.9,547.3,1243.9,541z M1286.8,540.5C1286.8,540.5,1286.8,540.5,1286.8,540.5
	c0-6.3,0.1-12.6-0.1-18.9c-0.3-10.2-6.6-16.3-16.7-16.4c-9.7-0.1-16.6,5.8-16.9,15.7c-0.4,13.1-0.4,26.2,0,39.3
	c0.3,10.2,7.3,16.2,17.2,16c10-0.3,16.2-6.5,16.5-16.7C1286.9,553.1,1286.8,546.8,1286.8,540.5z M1081.8,540.3
	c0,6.6-0.1,13.3,0,19.9c0.3,9.3,6.2,15.3,15.6,16c9.3,0.7,16.7-4.5,17.5-13.7c1.2-14.3,1.2-28.8,0-43.2c-0.8-9.6-7.9-14.6-17.8-13.9
	c-9.6,0.7-15.2,6.5-15.4,16.1C1081.7,527.7,1081.8,534,1081.8,540.3z M1295.8,540.6c0,6.3-0.1,12.6,0,18.9
	c0.2,10.3,6.4,16.4,16.5,16.7c9.9,0.2,16.9-6,17.2-16c0.3-12.9,0.3-25.9,0-38.8c-0.2-10.1-7.1-16.3-17-16.1
	c-10.1,0.1-16.4,6.3-16.7,16.5C1295.7,528,1295.8,534.3,1295.8,540.6z M1201,540.9c0-6.3,0.1-12.6,0-18.9
	c-0.2-10.3-6.2-16.5-16.3-16.8c-10.1-0.3-16.8,5.5-17.1,15.8c-0.4,13.2-0.4,26.5,0.1,39.7c0.3,9.9,7.3,15.6,17.1,15.3
	c9.8-0.3,16-6.5,16.2-16.4C1201.1,553.5,1201,547.2,1201,540.9z M1124.7,540.6C1124.7,540.6,1124.7,540.6,1124.7,540.6
	c0,6.6-0.2,13.3,0.1,19.9c0.5,9.7,6.7,15.5,16.3,15.7c9.7,0.2,16.4-5.4,16.9-15c0.7-13.7,0.8-27.5,0-41.2c-0.6-9.5-7.4-15-17.2-14.7
	c-9.4,0.3-15.6,6.1-16,15.5C1124.5,527.3,1124.7,534,1124.7,540.6z"/>
<path class="st5" d="M348.6,738.7c-96.6,0-193.2,0-289.8,0.1c-4.7,0-5.6-1.4-5.6-5.7c0.2-27.4,0.2-54.8,0-82.2c0-4.4,1-5.7,5.6-5.7
	c193.4,0.1,386.8,0.1,580.2,0c4.7,0,5.3,1.4,5.3,5.6c-0.2,27.6-0.2,55.1,0,82.7c0,4.3-0.9,5.4-5.4,5.4
	C542.2,738.7,445.4,738.7,348.6,738.7z M388.1,697.4c1-0.4,1.6-0.6,2.2-0.8c5.9-2.2,7.6-5.6,6.6-13.1c-0.7-5-3.4-7.2-9.5-7.4
	c-5.6-0.2-11.3,0-17-0.1c-2.7-0.1-3.4,0.9-3.4,3.5c0.1,7.6,0.1,15.2,0,22.9c0,2.5-0.1,4.4,3.5,4.4c3.8,0,3.2-2.3,3.4-4.6
	c0.1-1.7-1.1-4,1-4.9c2.4-1,4.4,0.2,6,2.2c0.9,1.2,2.3,2,3.1,3.2c2.8,4.3,6.8,4.5,12.1,3.4c-1.6-1.7-2.7-3-3.9-4.3
	C391,700.4,389.7,699,388.1,697.4z M270.4,676C270.4,676,270.4,676.1,270.4,676c-3.2,0.1-6.3-0.1-9.5,0.1c-5.8,0.3-8.5,3-8.7,8.7
	c-0.1,4.1-0.1,8.3,0,12.4c0.2,5.6,2.3,8.3,8,8.8c5.9,0.6,12,0.4,17.9,0.4c2,0,4.5,0.7,4.6-2.8c0.1-3.7-2.5-2.8-4.5-2.8
	c-5.2-0.1-10.3,0-15.5-0.1c-2.8-0.1-4.1-1.9-4-4.6c0-3.1,2.4-2.2,4-2.2c4.7-0.1,9.3-0.1,14,0c2,0,3.5,0,3.5-2.8c0-2.6-1.3-3-3.4-3
	c-4.5,0.1-9,0.1-13.5,0c-1.7-0.1-4.4,1.2-4.5-2.2c-0.1-3.3,1.9-4.3,4.8-4.3c5,0,10,0,15,0c2,0,4.1,0.3,4.2-2.8
	c0.1-3.2-1.9-2.9-3.9-2.9C276,676,273.2,676,270.4,676z M499.6,695.5c-1.9,0.1-2.3-1-2.9-1.7c-4.3-5.3-8.7-10.5-12.8-15.9
	c-1.9-2.5-4.5-2.1-6.8-1.7c-2.7,0.4-1.5,2.9-1.6,4.5c-0.1,7.5,0,14.9-0.1,22.4c0,2.6,0.9,3.5,3.5,3.6c2.9,0.1,3.3-1.3,3.2-3.7
	c-0.1-5.5,0-11,0-17.8c2,2.4,3.1,3.6,4.1,4.9c4,4.9,8.1,9.7,11.9,14.7c1.8,2.4,4.1,2,6.3,1.7c2.8-0.4,1.6-2.9,1.7-4.5
	c0.1-7.1,0.1-14.3,0-21.4c0-2.1,0.9-4.6-3.1-4.7c-4.2-0.1-3.4,2.6-3.4,5C499.5,685.7,499.6,690.6,499.6,695.5z M432.5,706.6
	c3.6-0.2,7.8,0.4,11.9-0.6c4.5-1.1,6.7-3.9,6.7-8.5c0.1-4.7-2.1-7.4-6.7-8.5c-4-1-7.9-0.5-11.9-0.7c-2.2-0.1-5.1,0.4-5.3-3
	c-0.2-3.8,2.9-3.5,5.3-3.5c4.3-0.1,8.6-0.1,13,0c2.1,0,3.5-0.5,3.5-3c0-2.4-1.2-2.7-3.1-2.7c-5.5,0.1-11-0.1-16.5,0.2
	c-6,0.3-9.1,3.7-8.9,9.1c0.1,5.2,3.2,8.2,9,8.6c3.5,0.2,7,0,10.5,0.2c2.2,0.1,4.5,0.4,4.5,3.4c0,3-2.3,3.3-4.6,3.4
	c-5.2,0.1-10.3,0-15.5,0c-2,0-4.1-0.4-4,2.8c0.1,3.1,2.1,2.8,4.1,2.8C426.9,706.6,429.4,706.6,432.5,706.6z M533.8,706.8
	c0-0.1,0-0.1,0-0.2c3.2,0,6.3-0.1,9.5,0c2.8,0.1,3-1.8,2.6-3.6c-0.9-3.9,2.7-9-2.1-11.5c-3.3-1.7-5.1,0.7-4.5,4.4
	c0.6,3.6-0.5,5.2-4.7,5.1c-13.8-0.3-12.7,1-12.6-12.7c0-6.2,0.5-6.6,6.9-6.7c4.7,0,9.3,0,14,0c1.9,0,3.2-0.2,3.2-2.6
	c0.1-2.5-1-3.1-3.3-3.1c-6.3,0.1-12.6-0.1-18.9,0.2c-5.5,0.2-8.2,2.9-8.5,8.4c-0.2,4.5-0.2,8.9,0,13.4c0.2,4.7,2.7,7.8,7.6,8.2
	C526.5,706.5,530.1,706.6,533.8,706.8z M243.1,691.4c0-4.1-0.1-8.3,0-12.4c0.1-2.1-0.6-2.8-2.8-3c-4.4-0.4-3.9,2.3-3.9,5
	c-0.1,8.1,1.1,7.3-7,7.3c-3.3,0-7.3,1.4-9.6-0.7c-2-1.9-0.6-5.7-0.7-8.6c0-2.1-0.8-3-2.9-2.9c-1.8,0.1-3.8-0.4-3.8,2.5
	c0,8.5,0,16.9,0,25.4c0,2.7,1.8,2.6,3.7,2.7c2.1,0.1,3.1-0.7,3-2.9c-0.1-1.7,0.2-3.3-0.1-5c-0.6-4.1,1.2-5.4,5-4.8
	c0.8,0.1,1.7,0,2.5,0c9.2,0,9.3,0,9.9,9.3c0.2,2.7,1.3,3.3,3.7,3.4c2.5,0,3.1-1.1,3-3.3C243.1,699.3,243.1,695.3,243.1,691.4z
	 M342.7,676c-3,0-6,0-9,0c-1.4,0-2.7,0.1-2.7,2c0,8.8,0,17.6,0,26.4c0,2.2,1.6,2.2,3.1,2.2c1.5,0,3.4,0,3-2.2
	c-1.4-7.1,3.1-6.8,7.8-6.5c2.3,0.2,4.7,0.2,7-0.1c3.4-0.5,6.7-1.6,7.5-5.5c2.5-11.8-1.1-16.7-11.2-16.2
	C346.3,676.1,344.5,676,342.7,676z M321.1,688.5C321.2,688.5,321.2,688.5,321.1,688.5c0-3.1-0.1-6.3,0.1-9.4
	c0.1-2.4-0.9-3.2-3.2-3.1c-2.1,0-3.5,0.3-3.4,2.9c0.1,3.6,0,7.3,0,10.9c0,11.6,0,11.5-11.6,11.2c-4.3-0.1-6-2-5.9-6.1
	c0.1-5.5-0.1-10.9,0-16.4c0.1-2.5-1.5-2.5-3.3-2.5c-1.7,0-3.5-0.1-3.4,2.4c0.2,6.9-0.5,13.9,0.4,20.8c0.5,4,2.8,6.2,6.8,6.8
	c5.5,0.8,10.9,0.9,16.4,0c4.7-0.7,6.9-3.5,7.1-8.1C321.2,694.8,321.1,691.6,321.1,688.5z M154.9,690.6c-0.5,1.7-0.8,3.4-3.4,3.5
	c-3.4,0.1-2.9,2.9-1.2,3.8c2.8,1.4,1.1,2.8,1,4.4c0,1.4-2.5,3.2,0.2,4.2c2.7,0.9,3.2-1.5,3.8-3.4c0.2-0.6,0.5-1.2,0.6-1.9
	c0.4-2.2,1.7-3.3,3.8-2.8c3,0.8,0.4,2.6,0.6,4c0.1,1.4-2.4,3.2,0.3,4.1c2.4,0.9,3-1.2,3.6-3c0.8-2.4,0.7-5.1,4.6-5.4
	c2.4-0.2,2.2-2.8,0.5-3.8c-1.5-0.8-1.7-1.1-1.4-2.8c0.6-3.3,4.2-1.2,5.4-3.4c1.7-3.2-4.1-2.6-2.6-5.8c0.8-1.8,3.1-4.9,0.5-5.9
	c-4-1.4-3,3.1-4.2,5.1c-0.1,0.1-0.1,0.3-0.2,0.5c-0.5,2.3-1.9,3.7-4.3,2.8c-2.6-1-0.1-2.7-0.2-4.2c-0.1-1.5,2.5-3.6-0.3-4.5
	c-2.9-0.9-2.9,1.9-3.6,3.7c-0.9,2.3-0.8,5.1-4.6,5.4c-2.3,0.2-1.9,2.5-0.3,3.9C153.9,689.6,154.9,689.5,154.9,690.6z M191.6,676
	c-4.3,0-8.6,0.1-13,0c-2.1,0-2.5,1-2.5,2.7c0,1.7,0.2,3,2.3,2.9c1.5,0,3,0.2,4.5,0c4-0.6,5.7,0.8,5.4,5.1c-0.4,5.6,0,11.2-0.1,16.9
	c-0.1,2.5,1.1,3.1,3.3,3c2.2,0,3.5-0.6,3.4-3.1c-0.1-4,0-7.9,0-11.9c0-9.1,0-9.1,8.8-10c0.2,0,0.3,0,0.5,0c2.3,0,2.7-1.4,2.7-3.3
	c0-2.1-1.2-2.4-2.9-2.4C199.9,676,195.7,676,191.6,676z M411.9,691.7c0-4.1-0.1-8.3,0-12.4c0.1-2.7-1-3.4-3.5-3.4
	c-2.2,0.1-3.3,0.5-3.3,3c0.1,8.2,0.1,16.5,0,24.8c0,2.7,1.4,2.8,3.5,2.9c2.2,0,3.4-0.5,3.3-3C411.8,699.6,411.9,695.7,411.9,691.7z
	 M465.2,691.1c0-4-0.1-7.9,0-11.9c0.1-2.2-0.6-3.3-3.1-3.3c-2.3,0-3.3,0.6-3.3,3.1c0.1,8.1,0.1,16.2,0,24.3c0,2.2,0.6,3.3,3.1,3.3
	c2.8,0.1,3.3-1.2,3.3-3.6C465.1,699,465.2,695.1,465.2,691.1z"/>
<path class="st4" d="M832.8,193c0-38.6,0.1-76.6-0.1-114.6c0-4.4,1-5.7,5.5-5.4c6.1,0.4,12.3,0.4,18.5,0c4.1-0.2,5.3,1,5.3,5.2
	c-0.2,41.3-0.1,82.6-0.1,124c0,22.9-0.1,45.8,0.1,68.7c0,4-1.2,5-5,4.8c-7-0.3-14-0.3-21,0c-3.5,0.2-4.8-1.1-5.8-4.3
	c-12.4-41.6-24.9-83.1-37.3-124.7c-0.3-1.1-0.7-2.1-2.1-3.2c0,1.6,0,3.2,0,4.8c0,40.7-0.1,81.3,0.1,122c0,4.4-1,5.8-5.5,5.4
	c-5.8-0.4-11.7-0.4-17.5,0c-4.8,0.4-6.4-0.8-6.3-6c0.3-42.3,0.1-84.6,0.1-126.9c0-21.7,0.1-43.5-0.1-65.2c0-3.4,0.8-4.6,4.4-4.5
	c8.7,0.3,17.3,0.2,26,0c3.1-0.1,4.2,1,5.1,3.9c11,37,22.1,73.9,33.3,110.8C830.8,189.4,830.9,191.4,832.8,193z"/>
<path class="st4" d="M965.9,192.3c0-37.7,0.1-75.3-0.1-113c0-5.3,1.5-6.7,6.5-6.3c5.5,0.4,11,0.4,16.5,0c4.8-0.4,6.4,0.8,6.3,6
	c-0.3,44.8-0.1,89.6-0.1,134.4c0,19.3-0.1,38.5,0.1,57.8c0,3.3-0.6,4.6-4.3,4.5c-7.1-0.3-14.3-0.3-21.5,0c-3.4,0.1-4.8-0.8-5.8-4.3
	c-12.4-41.9-25.1-83.7-37.7-125.6c-0.4-1.2-0.8-2.4-2-3.5c0,1.7,0,3.4,0,5.1c0,41-0.1,82,0.1,123c0,4-0.7,5.5-5.1,5.3
	c-7-0.4-14-0.2-21-0.1c-2.4,0-3.2-0.7-3.1-3.1c0.1-6.3,0-12.6,0-18.9c0-58.4,0.1-116.8-0.1-175.3c0-4.4,1.1-5.6,5.4-5.4
	c8.3,0.4,16.7,0.2,25,0c3-0.1,4.2,0.9,5.1,3.9c11.1,37.4,22.5,74.8,33.8,112.2c0.3,1.1,0.7,2.1,1,3.2
	C965.3,192.3,965.6,192.3,965.9,192.3z"/>
<path class="st4" d="M348.2,169.7c18.8,5.9,25.7,19.4,27.4,36.5c1,10.9,1.4,21.9-0.7,32.7c-4.3,22.3-19.9,35.4-44.6,36.5
	c-15.8,0.7-31.6,0.2-47.5,0.3c-2.5,0-3.1-0.9-3-3.2c0.1-7.3,0-14.6,0-21.9c0-57.2,0.1-114.5-0.1-171.7c0-5,1.4-6,6.1-5.8
	c14.1,0.4,28.3-0.2,42.5,0.4c24.8,1,40.6,16.4,43,41.1c0.8,8,0.9,15.9,0,23.8C369.7,152.8,363.9,164.1,348.2,169.7z M310.4,215.8
	c0,5.1-0.2,10.3,0,15.4c0.2,5.2-2.5,12.5,1.1,15.1c4.1,3,11.2,1.1,17,0.5c8.4-0.9,13.8-5.4,15.6-13.7c2.2-10.6,2-21.5,0.2-32.1
	c-1.7-10.1-7.9-15.1-18.2-15.8c-4-0.3-8,0.1-12-0.2c-3.3-0.3-3.8,1.2-3.8,4C310.5,197.9,310.4,206.9,310.4,215.8z M310.4,129
	c0,5.6,0,11.3,0,16.9c0,12,0,12,12.3,10.7c11-1.1,15.7-5.4,17.6-16.2c1.3-6.9,1.2-13.9,0.3-20.8c-1.6-13.5-7.3-18.2-21.3-18.2
	c-1.8,0-3.7,0.2-5.5,0c-3-0.3-3.6,1.1-3.6,3.7C310.5,113.1,310.4,121,310.4,129z"/>
<path class="st4" d="M544.1,233c0,12.9-0.1,25.9,0.1,38.8c0,3-0.6,4-3.8,3.9c-7.5-0.3-15-0.4-22.5,0c-4.5,0.3-4.6-1.8-4.6-5.2
	c0.1-57.8,0.1-115.5,0.1-173.3c0-6.8,0-13.6,0-20.4c0-1.8-0.4-3.8,2.6-3.7c18.1,0.5,36.4-1.7,54.4,1.1c24,3.8,36.7,18.3,38.4,43.7
	c0.8,12.5,1.4,25.2-1.6,37.7c-2.6,10.7-7.7,19.8-17.1,25.9c-3,1.9-2.2,3.8-1.4,6.2c8.5,27.7,16.8,55.4,25.5,83.1
	c1.4,4.5,0.3,5.1-3.9,4.9c-7.8-0.3-15.7-0.2-23.5,0c-2.8,0.1-4-0.7-4.8-3.5c-7.1-25.5-14.6-50.9-21.6-76.5c-1.2-4.4-2.8-6.1-7.6-5.8
	c-8.4,0.5-8.5,0.1-8.5,8.8C544.1,210.1,544.1,221.5,544.1,233z M544.1,131.2c0,8.9,0.1,17.9,0,26.8c0,2.4,0.4,3.7,3.2,3.6
	c4.5-0.3,9,0,13.4-0.4c8.9-0.8,14.5-5.4,16.2-14.2c2-10,1.9-20.1,0.2-30.1c-1.8-9.9-7.8-14.8-17.9-15.5c-3.8-0.2-7.7,0.1-11.5-0.2
	c-3.3-0.3-3.8,1.2-3.8,4C544.2,114,544.1,122.6,544.1,131.2z"/>
<path class="st4" d="M1241.9,275.6c-9.9,0-19.7-0.1-29.5,0.1c-2.7,0.1-2.8-1.7-3.3-3.4c-6.4-22.4-12.8-44.9-19.2-67.3
	c-1-3.7-2.3-7.3-3-11c-0.6-3.2-2-4.2-5.3-4.1c-10,0.2-10,0-10,10.1c0,23.4-0.1,46.8,0.1,70.2c0,4.1-0.6,5.9-5.3,5.6
	c-6.8-0.5-13.7-0.4-20.5,0c-4.1,0.2-5.2-0.9-5.2-5.1c0.2-62.4,0.1-124.8,0.1-187.1c0-10.4,0-10.4,10.2-10.4c13,0,26-0.2,39,0.2
	c27.9,0.9,44.7,17.6,45.9,45.4c0.5,11.6,1.2,23.2-1.1,34.7c-2.2,11.5-7.4,21.2-17.4,27.9c-2.4,1.6-2.7,3-1.8,5.7
	c8.6,27.8,17,55.7,25.5,83.6C1241.5,272.1,1242.2,273.7,1241.9,275.6z M1171.6,131.3c0,9,0.1,17.9,0,26.9c0,2.5,0.6,3.6,3.3,3.5
	c4.1-0.2,8.3,0.1,12.5-0.3c10.2-0.8,16.1-6.4,17.5-16.5c1.2-8.7,1.2-17.5,0-26.3c-1.4-10.6-7.9-16.6-18.6-17.1
	c-3.5-0.2-7,0.1-10.5-0.1c-3.2-0.2-4.3,0.7-4.3,4.1C1171.7,114,1171.5,122.7,1171.6,131.3z"/>
<path class="st4" d="M730.2,157.3c0,24.7,0.1,49.5,0,74.2c-0.1,14.7-4,27.8-15.9,37.5c-16.3,13.3-57.5,15-72.2-10.2
	c-4.7-8.1-6.9-16.9-6.9-26.1c-0.1-52,0-103.9-0.2-155.9c0-3.1,0.8-4,3.9-3.9c7.2,0.2,14.3,0.2,21.5,0c3.5-0.1,4.5,1,4.5,4.5
	c-0.1,23.9-0.1,47.8-0.1,71.7c0,25.9,0,51.8,0,77.7c0,1.8,0,3.7,0.1,5.5c0.9,13.4,9.9,19.8,23,16.5c6.9-1.8,10.1-6.6,11.1-13.2
	c0.5-2.9,0.5-6,0.5-8.9c0-49.5,0.1-98.9-0.1-148.4c0-4.1,0.9-5.5,5.2-5.3c7,0.4,14,0.3,21,0c3.7-0.2,4.8,0.8,4.7,4.6
	C730.1,104.2,730.2,130.8,730.2,157.3z"/>
<path class="st4" d="M50.5,170.1c0.5-17.1-1-38.4,0.7-59.6c1.9-23.8,18.6-39.2,42.7-40.2c11.2-0.4,22,0.8,31.7,6.7
	c14.6,8.9,19.3,23,20.2,38.9c0.3,6,0,11.9,0.1,17.9c0.1,2.7-1,3.3-3.5,3.4c-7.5,0.2-15,0.5-22.4,1.1c-3.1,0.2-3.9-0.6-3.9-3.7
	c0-7.3,0.8-14.6-0.8-21.8c-2-9.4-7.5-14.2-16.4-14.2c-9.4,0-15.1,4.7-16.9,14.2c-0.4,2.3-0.7,4.6-0.7,6.9c0,36.3,0,72.7,0,109
	c0,2.5,0.3,5,0.7,7.4c1.8,9.4,7.2,13.9,16.5,14c9.3,0.1,14.8-4.4,16.7-13.7c1.9-9.4,0.8-18.9,0.9-28.3c0-3.4,1-4.1,4.3-3.9
	c7.3,0.6,14.6,0.8,21.9,1.2c1.8,0.1,3.7,0,3.6,2.8c-0.3,11.1,0.9,22.3-1,33.3c-3.9,22.3-18.7,35.4-42.4,36.8
	c-18.8,1.1-35.5-3.4-45.7-21.1c-5-8.6-6.3-18.1-6.3-27.8C50.4,211,50.5,192.6,50.5,170.1z"/>
<path class="st4" d="M1255.3,231c0-11.2,0-11.3,11-12.6c4.8-0.6,9.6-0.9,14.4-1.5c3.1-0.4,4.6,0.2,4.3,3.7c-0.3,4.1-0.2,8.3,0,12.4
	c0.5,11.4,6.4,17,17.7,17c10.8,0,16-5.9,17.2-17c2.2-19.2-7.6-32.2-20.9-43.7c-9.3-8-18.6-16-26.8-25.3
	c-16.4-18.6-20-40.4-14.9-63.7c3.1-14.4,12.6-23.9,27-27.8c13.4-3.6,26.7-3.4,39.6,2c15.7,6.6,27,28.7,23.2,44.6
	c-0.4,1.8-1.5,1.9-2.8,2.1c-7.6,0.7-15.3,1.3-22.9,2.2c-3.2,0.4-4-0.7-3.8-3.7c0.2-2.6-0.1-5.3-0.4-7.9c-1.2-8.5-6.3-13-14.8-13.2
	c-8.8-0.2-14.1,4-15.7,12.7c-2.3,12.1,1.5,22.5,9.4,31.7c7.9,9.1,17.6,16.2,26.2,24.4c10.7,10.1,20.7,20.9,25.1,35.3
	c4.7,15.4,4.9,31.2,0.9,46.7c-3.7,14.6-13.9,23.4-28.4,27.2c-11.6,3-23.4,2.9-35.1-0.3c-18.5-5.1-28.8-19.6-29.6-41.2
	C1255.2,233.7,1255.3,232.3,1255.3,231z"/>
<path class="st1" d="M202,525c1.5-0.1,3-0.2,4.5-0.2c106.8,0,213.7,0,320.5,0.1c1.3,0,2.7,0.1,4,0.2c0,11.1,0,22.1,0,33.2
	c-1.3,0.1-2.7,0.2-4,0.2c-106.8,0-213.7,0.1-320.5,0.1c-1.5,0-3-0.2-4.5-0.2C202,547.1,202,536.1,202,525z"/>
<path class="st4" d="M1028,174.3c0-32,0.1-64.1-0.1-96.1c0-4.2,1.1-5.2,5.2-5.2c25.5,0.2,51,0.2,76.5,0c4.3,0,5.3,1.3,5.1,5.3
	c-0.3,6.3-0.3,12.6,0,18.9c0.1,3.2-0.8,4.2-4.1,4.2c-15.8-0.2-31.7,0-47.5-0.2c-3.6,0-4.4,1-4.4,4.4c0.2,16.3,0.2,32.5,0,48.8
	c0,3.6,1.1,4.4,4.5,4.4c12.2-0.2,24.3,0,36.5-0.2c3.2,0,4.3,0.8,4.2,4.1c-0.3,6.8-0.2,13.6,0,20.4c0.1,3-0.7,4-3.8,3.9
	c-12.3-0.2-24.7,0-37-0.1c-3,0-4.4,0.4-4.3,3.9c0.2,17.4,0.2,34.9,0,52.3c0,3.4,1.1,4.1,4.2,4.1c15.7-0.1,31.3,0,47-0.1
	c3.6,0,5,0.7,4.8,4.6c-0.3,6.6-0.2,13.3,0,19.9c0.1,2.9-0.5,4-3.8,4c-26.3-0.1-52.6-0.2-79,0c-4.1,0-4-1.9-4-4.8
	C1028.1,238.8,1028,206.5,1028,174.3z"/>
<path class="st4" d="M400.9,174.1c0-32,0.1-64.1-0.1-96.1c0-3.9,0.9-5,4.9-4.9c25.7,0.2,51.3,0.2,77,0c3.8,0,4.8,1.1,4.6,4.7
	c-0.3,6.6-0.3,13.3,0,19.9c0.1,3.2-1,3.8-4,3.8c-15.5-0.1-31,0.1-46.5-0.2c-4-0.1-5.4,0.7-5.4,5.1c0.3,15.9,0.2,31.9,0,47.8
	c0,3.7,1,4.8,4.8,4.7c12-0.2,24,0,36-0.2c3.3,0,4.7,0.7,4.6,4.3c-0.3,6.8-0.2,13.6,0,20.4c0.1,2.8-0.8,3.7-3.7,3.6
	c-12.3-0.1-24.7,0-37-0.1c-3.2,0-4.7,0.5-4.7,4.2c0.2,17.3,0.2,34.5,0,51.8c0,3.7,1.4,4.3,4.6,4.3c15.5-0.1,31,0.1,46.5-0.2
	c3.8-0.1,4.8,1,4.7,4.7c-0.3,6.8-0.2,13.6,0,20.4c0.1,2.5-0.5,3.4-3.3,3.4c-26.7-0.1-53.3-0.1-80,0c-4,0-3.1-2.4-3.1-4.5
	c0-31.4,0-62.7,0-94.1C400.9,176.1,400.9,175.1,400.9,174.1z"/>
<path class="st4" d="M151.2,73.1c10.2,0,20,0.1,29.8-0.1c2.8,0,3.1,1.9,3.8,3.7c7.6,21,15.1,42,22.7,63c0.5,1.5,0.6,3.3,2.4,4.6
	c4.8-13.9,9.5-27.6,14.2-41.3c3.1-8.9,6.1-17.8,9.2-26.8c0.5-1.5,0.7-3.2,3.1-3.2c9.8,0.1,19.6,0,29.9,0
	c-5.8,15.3-11.4,30-16.9,44.6c-7.9,20.9-15.7,41.8-23.7,62.7c-1,2.7-1.5,5.3-1.5,8.2c0,27.5,0,55.1,0.1,82.6c0,3.4-0.7,4.6-4.3,4.4
	c-7.3-0.3-14.7-0.3-22,0c-3.8,0.2-4.7-1-4.7-4.7c0.2-27.4,0.1-54.8,0.1-82.1c0-3.5-0.6-6.8-1.9-10.1c-13.1-33.6-26-67.3-38.9-101
	C152.1,76.4,151.8,75,151.2,73.1z"/>
<path class="st0" d="M530.9,558.2c0-11.1,0-22.1,0-33.2c3.7-0.1,7.3-0.2,11-0.2c49.6,0,99.2,0,148.8-0.1c4.4,0,5.8,1,5.6,5.5
	c-0.4,8.1-0.2,16.2-0.1,24.4c0,2.5-0.4,3.9-3.5,3.9C638.8,558.3,584.9,558.3,530.9,558.2z"/>
<path class="st4" d="M202,525c0,11.1,0,22.1,0,33.2c-14.3,0.1-28.6,0.1-42.9,0.2c-39.1,0-78.2-0.1-117.3,0.1c-3.8,0-4.8-1-4.6-4.7
	c0.3-8.4,0.1-16.9,0.1-25.4c0-2.2,0.1-3.7,3.1-3.7C94.2,524.9,148.1,524.9,202,525z"/>
<path class="st2" d="M1116.7,432.8c5.3-10.2,10.8-20.4,15.8-30.8c1.6-3.3,3.7-3.9,7-3.9c3.2-0.1,4.6,1.1,6,3.9
	c4.5,9.2,9.5,18.2,14.1,27.3c0.7,1.3,2.7,3.6,1,4.1c-2.3,0.7-6.7,2.1-7.6-1c-2.4-8.2-8.5-6.7-14.3-6.7c-1.8,0-3.7,0.2-5.5,0
	c-3.1-0.4-5,0.7-6.1,3.6c-1.1,3.3-3.3,4.9-7.1,4.7c-9.6-0.3-19.2-0.4-28.8-0.1c-3.6,0.1-4.4-1-4.3-4.4c0.2-9.3,0.2-18.6,0-27.9
	c-0.1-2.9,0.9-3.6,3.7-3.5c2.6,0.1,4.4,0,4.2,3.6c-0.3,7.3,0,14.6-0.1,21.9c-0.1,2.7,0.6,3.8,3.5,3.6c4.3-0.2,8.7,0.3,13-0.2
	C1115.7,426.6,1116.4,429,1116.7,432.8z M1146,420c-2.4-4.7-4.5-9-7.1-14.2c-2.6,5.2-4.7,9.5-7,14.2c4.2,0,7.6,0,11.1,0
	C1143.8,420,1144.6,420,1146,420z"/>
<path class="st2" d="M659.5,416.1c0-4.8,0.1-9.6,0-14.4c-0.1-2.4,0.4-3.6,3.2-3.5c7,0.2,14-0.1,20.9,0.1c8.3,0.3,11.4,3.5,11.4,11.7
	c0,4.8,0.1,9.6-0.1,14.4c-0.2,4.9-2.7,8-7.8,8.8c-8.4,1.3-16.9,0.3-25.4,0.7c-2.2,0.1-2.3-1.3-2.3-2.9
	C659.5,426,659.5,421.1,659.5,416.1z M667.1,416.1c0,1.2,0,2.3,0,3.5c0,7.6,0,7.6,7.8,7.6c12.8,0,12.8,0,12.8-12.7
	c0-9-0.6-9.6-9.4-9.7C667.1,404.8,667.1,404.8,667.1,416.1z"/>
<path class="st2" d="M862.9,416.3c0.2,15.8-1.6,17.6-17.7,17.5c-4,0-8,0.3-11.9-0.6c-4.4-1-7.2-3.4-7.6-7.9
	c-0.6-6.4-0.7-12.9,0.1-19.3c0.5-4,2.9-6.3,6.7-7c7.6-1.4,15.2-1.2,22.8-0.1c4.9,0.7,7.1,3.9,7.5,8.5
	C863.1,410.3,862.9,413.3,862.9,416.3z M844.3,427.2c11.1,0,11.1,0,11.1-10.8c0-11.5,0-11.5-11.5-11.5c-11,0-11,0-11,10.9
	C833,427.2,833,427.2,844.3,427.2z"/>
<path class="st2" d="M989.4,410.2c0,6.7-0.1,13.2,0.1,19.7c0.1,2.9-0.6,4-3.8,4c-3.1,0-4-0.8-3.9-3.9c0.2-8.9,0-17.9,0.2-26.8
	c0-1.6-1.6-4.5,1.4-4.9c2.7-0.3,5.7-1.2,8.1,2c5.1,6.9,10.8,13.5,16.2,20.2c0.5,0.6,1,1.2,2.3,2.6c0-7.4,0-13.7,0-20.1
	c0-2.5-1-5.1,3.6-5.1c4.2,0,4,2,3.9,4.9c-0.1,8.6,0.1,17.2-0.1,25.9c0,1.7,1.4,4.6-1.5,4.9c-2.6,0.3-5.4,1.1-7.7-1.8
	c-5-6.6-10.4-12.9-15.7-19.3C991.8,411.7,991.4,410.5,989.4,410.2z"/>
<path class="st2" d="M1179.4,433.9c-3.2,0-6.3-0.1-9.5,0c-2.5,0.1-4-0.1-4-3.3c0-3.1,1.4-3.4,3.9-3.4c6.2,0.1,12.3,0,18.5,0
	c2.7,0,5.7-0.2,5.6-4c-0.1-3.8-3.2-3.7-5.8-3.9c-3.8-0.2-7.7,0-11.5-0.2c-7-0.4-10.2-3.4-10.6-9.5c-0.4-6.5,2.4-10.3,9.4-11
	c7.1-0.7,14.3-0.3,21.4-0.4c2.9-0.1,1.9,2.1,2,3.5c0.2,1.8,0.1,3.3-2.5,3.2c-4.2-0.2-8.3-0.1-12.5,0c-1.8,0-3.7,0-5.5,0.1
	c-2.5,0.1-4.7,0.7-4.7,3.9c0,3.3,2.5,3.7,4.8,3.8c4.6,0.3,9.3,0.1,14,0.5c6.4,0.6,9.4,4.3,9.2,10.7c-0.2,5.3-2.6,8.2-7.9,9.3
	c-1.1,0.2-2.3,0.5-3.4,0.6c-3.7,0.1-7.3,0-11,0C1179.4,433.8,1179.4,433.8,1179.4,433.9z"/>
<path class="st2" d="M759.2,433.9c-4.1,0-7.7-0.2-11.1,0.1c-2.9,0.2-3.1-1.1-3.2-3.5c-0.1-2.7,0.9-3.3,3.4-3.3
	c6.1,0.2,12.3,0.1,18.5,0c2.8,0,6.2,0.1,6.1-4c-0.1-4.1-3.6-3.7-6.3-3.8c-3.8-0.2-7.7,0-11.5-0.2c-6.6-0.4-9.8-3.6-10.1-9.3
	c-0.3-6.8,2.2-10.4,9.2-11.1c7.1-0.7,14.3-0.3,21.4-0.5c2.7-0.1,2.2,1.8,2.3,3.3c0.2,2.1-0.2,3.4-2.8,3.4c-5.6-0.2-11.3,0-17,0
	c-2.5,0-5.3,0.1-5.5,3.6c-0.2,3.8,2.9,4,5.5,4.2c4.3,0.3,8.7,0,13,0.4c6.3,0.6,9.2,3.6,9.5,9.4c0.3,6.2-2.3,9.4-8.6,10.8
	C767.6,434.2,763.1,433.6,759.2,433.9z"/>
<path class="st2" d="M1324.9,433.9c-3.2,0-6.3-0.2-9.5,0c-2.7,0.2-3.7-0.5-3.8-3.5c-0.1-3.3,1.6-3.3,4-3.3c6.3,0.1,12.7,0,19-0.1
	c2.7,0,5.1-0.6,5.1-4c0-3.2-2.6-3.6-4.9-3.8c-4.1-0.2-8.3,0-12.5-0.3c-7-0.4-10.3-3.5-10.6-9.4c-0.3-6.8,2.6-10.5,9.9-11.1
	c6.8-0.6,13.6-0.1,20.5-0.4c2.9-0.1,2.6,1.6,2.7,3.4c0.1,2.1-0.3,3.4-2.9,3.3c-5.7-0.2-11.3-0.1-17,0c-2.5,0-5.3-0.1-5.4,3.6
	c-0.1,3.9,2.9,4,5.5,4.2c4.3,0.3,8.7,0,13,0.4c6.3,0.6,9.2,3.6,9.5,9.4c0.3,6.1-2.4,9.5-8.6,10.7c-1,0.2-2,0.5-2.9,0.5
	c-3.7,0.1-7.3,0-11,0C1324.9,433.8,1324.9,433.8,1324.9,433.9z"/>
<path class="st2" d="M1222.5,433.9c-3.8,0-7-0.2-10.1,0.1c-2.8,0.2-3.7-0.7-3.7-3.5c0-2.8,1.1-3.3,3.5-3.2c6.5,0.1,13,0,19.5,0
	c2.5,0,4.8-0.5,5-3.6c0.2-3.4-2.4-4.1-4.9-4.2c-4.3-0.2-8.7,0-13-0.3c-6.5-0.5-9.8-3.6-10-9.4c-0.3-6.6,2.1-9.8,8.9-10.9
	c7.3-1.2,14.6-0.2,21.9-0.5c2.8-0.1,2.1,1.8,2.2,3.4c0.2,2.1-0.3,3.4-2.9,3.3c-5.7-0.2-11.3-0.1-17,0c-2.8,0-5.6,0.4-5.5,4.1
	c0.1,3.6,3.1,3.5,5.5,3.7c4.3,0.3,8.7,0,13,0.4c6.3,0.5,9.2,3.6,9.4,9.4c0.3,6.3-2.3,9.4-8.6,10.7
	C1231.1,434.2,1226.5,433.6,1222.5,433.9z"/>
<path class="st2" d="M873.6,415.8c0-4.3,0.3-8.7-0.1-12.9c-0.4-4.1,1.3-4.9,5-4.7c6,0.3,12-0.1,18,0.2c8.1,0.4,11,3.6,11.2,12
	c0.3,8.9-2.3,12.4-10.4,13.3c-3.8,0.4-7.7,0.5-11.5,0.2c-4.1-0.4-5.2,1.2-4.8,5c0.2,2.3,1.3,5.4-3.4,5.2c-3.4-0.1-4.2-1.1-4-4.3
	C873.8,425.1,873.6,420.5,873.6,415.8z M889.5,417.1c1,0,2,0,3,0c6.8,0,7.4-0.5,7.5-6.1c0-5.6-0.6-6.1-7.5-6.2c-2.8,0-5.6,0-8.5,0
	c-1.3,0-2.5-0.3-3,1.7c-1.9,7.8,0.1,10.6,8,10.6C889.2,417.1,889.4,417.1,889.5,417.1z"/>
<path class="st2" d="M929.7,434.5c6.5-12.5,12.2-23.6,18-34.6c1.2-2.3,8.9-2.6,10.1-0.4c6,11.2,11.7,22.4,17.6,33.8
	c-5.4,1.3-9.4,1-10.9-4.7c-0.7-2.5-2.5-3.1-5-2.9c-2.8,0.2-5.7,0.2-8.5,0c-5.2-0.4-9.6-0.2-11.5,6.1
	C938.2,436,933.9,433,929.7,434.5z M959.8,419.9c-2.5-5-4.7-9.1-7.1-14c-2.5,5.1-4.7,9.4-7,14C950.6,419.9,954.7,419.9,959.8,419.9z
	"/>
<path class="st2" d="M1065.7,398.2c2.8,0,5.7,0.1,8.5,0c2.5-0.1,4.4-0.3,4.4,3.4c-0.1,3.9-2.3,3.2-4.6,3.2c-5.2,0-10.3,0.1-15.5,0
	c-3.9-0.1-6,1.6-5.9,5.6c0,4,0,8,0.1,11.9c0.1,3.6,2.2,4.9,5.6,4.8c5.8,0,11.7,0.1,17.5,0c2.8-0.1,2.9,1.4,2.8,3.4
	c-0.1,1.7,0.2,3.4-2.4,3.3c-7.5-0.3-15,0.7-22.4-0.5c-5.9-1-8.4-3.7-8.6-9.7c-0.2-5-0.2-10,0-14.9c0.2-6.4,3-9.5,9.3-10.2
	c3.8-0.4,7.6-0.1,11.5-0.1C1065.7,398.4,1065.7,398.3,1065.7,398.2z"/>
<path class="st2" d="M1291.9,433.9c-3.5-0.2-7.7,0.4-11.8-0.5c-5.6-1.2-8.1-3.8-8.3-9.5c-0.2-5-0.2-9.9,0-14.9
	c0.2-6.9,3-10.1,9.9-10.5c7-0.4,14-0.1,20.9-0.2c2.6-0.1,2.5,1.5,2.4,3.2c0,1.8,0.3,3.6-2.7,3.5c-5.8-0.2-11.6,0-17.5,0
	c-4,0-5.8,1.9-5.7,5.8c0.1,3.6,0,7.3,0,10.9c0,3.9,1.9,5.7,5.8,5.6c5.7-0.1,11.3,0.1,17-0.1c2.5-0.1,3.1,0.9,3,3.2
	c0,2.2-0.1,3.8-3.1,3.6C1298.9,433.7,1295.7,433.9,1291.9,433.9z"/>
<path class="st2" d="M264.4,427.2c2.7,2.9,5.2,5.6,8,8.6c-5.4,1.1-9.6,0.7-12.6-3.9c-0.9-1.4-2.4-2.3-3.4-3.6
	c-1.5-1.9-3.6-1.9-5.4-1.3c-1.8,0.6-0.6,2.6-0.9,3.9c-0.5,2.2,1.6,5.6-3.3,5.4c-2.5-0.1-3.5-0.7-3.4-3.3c0.2-7.9,0.2-15.9,0-23.8
	c-0.1-2.7,0.8-3.4,3.4-3.3c5.6,0.2,11.3-0.1,16.9,0.1c6.1,0.2,8.8,2.4,9.4,7.4c0.9,8-0.8,11.2-7.1,13
	C265.6,426.4,265.3,426.7,264.4,427.2z M257.6,421.1c1.3,0,2.7,0,4,0c4.4-0.2,6.1-2.5,5.1-6.8c-0.5-2.2-2-3.1-3.9-3
	c-4.2,0.3-8.9-1.7-12.3,1.1c-1.3,1.1-0.8,5.2-0.1,7.6c0.6,2.1,3.1,0.7,4.8,1C255.9,421.3,256.7,421.1,257.6,421.1z"/>
<path class="st2" d="M79.5,384.3c-15.1,0.1-16.2-1-16.2-15.9c0-2-0.1-4,0.1-6c0.5-5.7,2.8-8,8.5-8.3c5.1-0.3,10.3-0.3,15.4,0
	c5.4,0.3,7.7,2.5,8.2,8c0.4,4.4,0.4,8.9,0.1,13.4c-0.5,6.2-2.9,8.3-9.2,8.7C84.1,384.4,81.8,384.3,79.5,384.3z M89.2,369.1
	c0-9.6-0.1-9.6-8.1-9.6c-11.2,0-11.2,0-11.2,9.5c0,9.9,0,9.9,9.4,9.9C89.2,378.9,89.2,378.9,89.2,369.1z"/>
<path class="st5" d="M128.2,363.1c0,6.3,0,11.5,0,16.7c0,2.3,1,4.9-3.3,4.8c-3.9-0.1-3.2-2.4-3.2-4.6c0-7.1-0.1-14.2,0-21.4
	c0-1.6-1.2-4.1,1.6-4.4c2.3-0.3,4.8-0.8,6.7,1.8c4.1,5.4,8.5,10.6,12.8,15.9c0.7,0.8,1,2.1,3,2.3c0-5.6,0.1-11.1,0-16.7
	c-0.1-2.4,0.4-3.5,3.2-3.5c2.7,0,3.3,0.9,3.3,3.4c-0.2,7.3,0.1,14.6-0.1,21.9c0,1.7,1.5,4.4-1.3,5c-2.7,0.6-5.4,0.5-7.5-2.3
	c-4-5.5-8.5-10.6-12.7-15.9C130.1,365.3,129.5,364.6,128.2,363.1z"/>
<path class="st2" d="M132,436.1c-3.2,0-6.3,0.2-9.5,0c-5.8-0.4-8.3-2.6-8.6-8.2c-0.3-5-0.1-10,0.2-14.9c0.2-4,2.8-6.5,6.7-6.7
	c7.1-0.4,14.3-0.2,21.5-0.4c2.5,0,1.9,1.7,2,3.1c0.2,2.1-0.8,2.5-2.6,2.5c-5.2-0.1-10.3,0-15.5,0c-1.5,0-3,0-4.3,0.9
	c-1.8,1.2-1.9,3.2-1.5,4.9c0.4,1.9,2.2,0.9,3.4,0.9c5,0.1,10,0.1,15,0c1.9,0,3.5-0.1,3.5,2.7c0,2.9-1.3,3.2-3.7,3.2
	c-4.8-0.1-9.7-0.1-14.5,0c-1.3,0-3.6-1.3-3.8,1.7c-0.1,2.3,0.5,4.5,3.2,4.7c4.1,0.3,8.3,0.3,12.5,0.3c2,0,4,0.1,6,0
	c2.2-0.2,2.4,1,2.4,2.7c0,1.7-0.1,2.9-2.3,2.8c-3.3-0.2-6.7,0-10,0C132,436.1,132,436.1,132,436.1z"/>
<path class="st2" d="M409.4,436c-3.2,0-6.3,0.1-9.5,0c-4.9-0.2-7.8-2.7-8.4-7.5c-0.5-5.1-0.6-10.3,0.1-15.4c0.6-4.4,3.2-6.9,7.6-7
	c6.8-0.2,13.7-0.1,20.5-0.3c2.2,0,2.3,1.1,2.4,2.8c0,1.8-0.3,2.8-2.4,2.7c-5-0.1-10-0.1-15,0c-5.9,0-6.8,0.8-6.7,6.5
	c0.1,13.1-2.1,12.8,12.9,13c3.9,0,4.8-1.1,4.6-4.7c-0.1-1.8-1.7-4.9,2.6-5c2.8-0.1,4,0.4,4.1,3.7C422.2,436.2,422.3,436.2,409.4,436
	z"/>
<path class="st2" d="M358.3,414.7c0,7-0.1,12.6,0.1,18.2c0.1,2.6-0.7,3.4-3.3,3.4c-2.7,0-3.3-0.9-3.3-3.4c0.1-7.5,0-14.9,0.1-22.4
	c0-1.5-1.3-4.1,1.4-4.5c2.3-0.4,4.9-0.9,6.8,1.7c4.2,5.5,8.7,10.9,13.1,16.3c0.6,0.7,1,1.7,2.7,1.9c0-5.6,0.1-11.1-0.1-16.7
	c-0.1-2.5,0.6-3.4,3.3-3.4c2.7,0,3.4,0.9,3.3,3.4c-0.2,7.3,0.1,14.6-0.1,21.9c0,1.7,1.5,4.4-1.3,5c-2.7,0.6-5.3,0.6-7.4-2.4
	C369.1,427.5,364,421.8,358.3,414.7z"/>
<path class="st2" d="M308.6,436.2c-3,0-6-0.1-9,0c-2,0.1-3.1-0.4-3-2.7c0-2.2,0.8-2.9,2.9-2.8c5.3,0.1,10.6,0.1,16,0
	c2.3-0.1,5.2-0.1,5.2-3.3c0.1-3.5-2.9-3.4-5.4-3.5c-4.1-0.1-8.3,0.3-12.4-0.7c-4.5-1.1-6.1-4.1-6.1-8.4c0-4.2,1.6-7.6,6.1-8.4
	c6.7-1.2,13.6-0.4,20.4-0.5c2-0.1,1.8,1.4,1.9,2.7c0.1,1.8-0.3,2.8-2.4,2.7c-4.7-0.1-9.3-0.1-14,0c-2.4,0.1-5.6-0.1-5.5,3.5
	c0.1,3.5,3.1,3.2,5.6,3.3c4,0.1,8-0.3,11.9,0.6c4.7,1.1,6.4,4,6.5,8.6c0,4.8-2.3,7.7-6.8,8.4c-3.9,0.6-7.9,0.5-11.9,0.7
	C308.6,436.3,308.6,436.2,308.6,436.2z"/>
<path class="st5" d="M74.1,420.8c0-3.8,0.1-7.6,0-11.4c-0.1-2.2,0.1-3.6,3.1-3.6c3.1,0,3.4,1.3,3.4,3.9c0,8.5,0.1,8.5,8.5,8.5
	c0.2,0,0.3,0,0.5,0c8.5,0,8.5,0,8.6-8.3c0-2.2-0.5-4.1,3.1-4c3,0.1,3.5,1.2,3.5,3.9c-0.1,7.6-0.1,15.3,0,22.9c0,2.6-0.4,3.8-3.5,3.8
	c-2.9,0-3.1-1.2-3.1-3.5c-0.1-8.9-0.2-8.9-9-8.9c-0.2,0-0.3,0-0.5,0c-8,0-8,0-8.1,8c0,2.3,0.6,4.4-3.3,4.4c-4.1,0-3-2.5-3.1-4.6
	C74.1,428.1,74.1,424.4,74.1,420.8z"/>
<path class="st2" d="M700.4,398.7c7-1.7,11.6,0,14.8,5.8c1.6,2.8,4,5.2,6.2,7.9c2.4-3.1,4.9-5.6,6.6-8.6c3.2-5.7,7.9-6.6,14.2-5.1
	c-3.4,3.9-6.2,8.1-9.8,11.3c-5.9,5.3-8.6,11.4-7.3,19.3c0.6,3.7-0.7,5-4.5,4.7c-2.4-0.2-3.5-0.9-3-3.2c2.3-10.1-3.4-16.9-9.7-23.4
	C705.3,404.8,703.1,401.9,700.4,398.7z"/>
<path class="st2" d="M802.2,398.2c5,0,10,0.2,14.9-0.1c2.7-0.1,3,1.1,2.9,3.2c-0.1,1.9,0.2,3.8-2.7,3.4c-0.2,0-0.3,0-0.5,0
	c-3.5,0.1-8.3-1.2-10,0.6c-2.4,2.4-0.7,7.2-0.8,11c-0.1,4.6-0.2,9.3,0,13.9c0.1,2.7-0.6,3.8-3.5,3.6c-2.5-0.2-4.5,0.2-4.3-3.5
	c0.3-7.4,0-14.9,0.1-22.3c0.1-2.6-0.7-3.6-3.4-3.3c-2.1,0.2-4.3,0-6.5,0.1c-2.6,0.1-4.4,0-4.3-3.5c0-3.4,1.8-3.2,4.1-3.1
	C792.9,398.3,797.5,398.2,802.2,398.2z"/>
<path class="st2" d="M207,421c0-4.1,0.1-8.3,0-12.4c-0.1-2.2,0.7-2.9,2.8-2.8c6.1,0.2,12.3-0.1,18.4,0.3c5.6,0.3,7.8,3.2,8,9.3
	c0.3,8.1-1.4,11-7.3,11.9c-3.8,0.5-7.6,0.7-11.4,0.5c-3.4-0.2-4.4,1.1-4.1,4.2c0.2,2.2,0.7,4.4-3.2,4.4c-3.9,0-3.2-2.2-3.2-4.4
	C207,428.3,207,424.6,207,421z M220.3,422c1.5,0,3-0.1,4.5,0c3.3,0.2,5-1.3,4.9-4.7c-0.1-2.2,0.6-5.2-2.5-5.7
	c-4.4-0.7-8.8-1-13.2,0.3c-0.3,0.1-0.3,0.9-0.4,1.3C212,420.3,213.3,422.1,220.3,422z"/>
<path class="st5" d="M167,418.4c0-3.2,0.1-6.3,0-9.5c-0.1-2.3,0.5-3.2,3-3.2c2.5,0,3.5,0.6,3.4,3.3c-0.2,5.3,0.1,10.6-0.1,15.9
	c-0.1,4,1.8,5.6,5.7,5.8c11.6,0.7,12.1,0.3,12.1-11.3c0-3.6,0.1-7.3,0-10.9c-0.1-2.3,0.9-2.8,2.9-2.7c1.8,0.1,3.6-0.3,3.5,2.6
	c-0.2,6.6-0.1,13.3-0.3,19.9c-0.1,4.8-3.1,7.3-7.6,7.6c-4.8,0.3-9.7,0.3-14.5,0c-5.5-0.3-7.9-3-8.1-8.7
	C166.9,424.3,167,421.3,167,418.4z"/>
<path class="st5" d="M53.5,405.8c3.8,0,7.6,0,11.5,0c1.9,0,3.5-0.3,3.5,2.6c0,2.6-1.1,2.8-3.3,2.9c-8.9,0.3-8.9,0.3-8.9,9.1
	c0,4.3-0.2,8.6,0.1,12.9c0.1,2.7-1.1,2.9-3.2,2.9c-2.2,0-3.4-0.3-3.3-2.9c0.2-5.1,0.1-10.3,0-15.4c-0.1-7.8,1-6.5-6.4-6.7
	c-1,0-2-0.1-3,0c-1.9,0.2-2.6-0.5-2.6-2.5c0-1.9,0.3-3.1,2.7-3C44.8,405.9,49.2,405.8,53.5,405.8z"/>
<path class="st2" d="M1260.9,416.4c0,4.8-0.2,9.6,0.1,14.4c0.1,3-1.3,3.1-3.6,3.1c-2.3-0.1-4.2,0.2-4.1-3.2c0.2-9.8,0.2-19.5,0-29.3
	c-0.1-3.3,1.6-3.2,4-3.3c2.6-0.1,3.9,0.3,3.8,3.4C1260.7,406.5,1260.9,411.5,1260.9,416.4z"/>
<path class="st2" d="M923.9,416c0,5-0.2,9.9,0.1,14.9c0.1,3-1.4,3.2-3.7,3.1c-2.1-0.1-4.3,0.6-4.2-3c0.2-9.9,0.2-19.8,0-29.7
	c-0.1-3.6,2.1-2.9,4.2-3c2.1-0.1,3.9-0.2,3.7,2.9C923.7,406.1,923.9,411,923.9,416z"/>
<path class="st2" d="M48.3,366c0-3.1,0.2-5.8,0-8.4c-0.2-2.7,0.6-3.8,3.5-3.7c2.8,0,3.3,1.1,3.2,3.5c-0.2,5.8,0.1,11.6-0.1,17.4
	c-0.3,7.3-7.7,11.9-14.7,9.5c-1.3-0.5-1.3-1.3-1.3-2.3c0.1-1.1-0.4-3.1,0.8-3C51.6,380.1,47.5,371.4,48.3,366z"/>
<path class="st2" d="M335.1,420.6c0-4,0.2-7.9-0.1-11.9c-0.1-2.6,1-3,3.2-2.9c2,0.1,3.5,0,3.4,2.8c-0.2,8.3-0.2,16.5,0,24.8
	c0.1,2.7-1.2,2.9-3.3,2.8c-2,0-3.5,0.1-3.3-2.8C335.3,429.2,335.1,424.9,335.1,420.6z"/>
<path class="st2" d="M288.1,421.1c0,4.1-0.2,8.3,0.1,12.4c0.2,2.8-1.3,2.7-3.3,2.8c-2.1,0-3.4-0.1-3.3-2.8c0.2-8.3,0.2-16.5,0-24.8
	c-0.1-2.8,1.4-2.7,3.4-2.8c2.2-0.1,3.4,0.3,3.2,2.9C288,412.8,288.1,416.9,288.1,421.1z"/>
<path class="st2" d="M681.9,365.5c-8.2,0-11.4-4.7-8.5-12.5c0.6-1.7,1.8-2.8,3.7-2.8c3.1-0.1,6.3-0.2,9.4-0.3c1,0,2.2-0.1,2.3,1.3
	c0.1,1.8-1.4,1.4-2.5,1.5c-2.5,0.1-5,0-7.4,0.2c-1.2,0.1-2.3,0.7-2.1,2.2c0.1,1.4,1.3,1.2,2.3,1.2c2.2,0,4.3,0,6.5,0
	c0.9,0,2.1-0.2,2.2,1.3c0.1,1.8-1.1,1.7-2.3,1.7c-2,0-4-0.1-6,0c-1,0.1-2.6-0.7-2.6,1.2c-0.1,1.8,1.3,2.1,2.7,2.1c2.3,0,4.6,0,7,0
	c1.2,0,2.5,0.1,2.3,1.8c-0.2,1.4-1.4,1.1-2.4,1.1C684.9,365.5,683.4,365.5,681.9,365.5z"/>
<path class="st5" d="M111.4,369.3c0,4-0.2,8,0.1,11.9c0.2,2.8-0.9,3.2-3.4,3.3c-2.5,0-3-0.8-3-3.2c0.1-8.1,0.1-16.2,0-24.3
	c0-2.5,0.9-3,3.2-3c2.1,0,3.4,0.2,3.3,2.9C111.2,361,111.4,365.1,111.4,369.3z"/>
<path class="st2" d="M789,360.8c0-3.8,0-6.3,0-8.8c0-1,0-2.1,1.4-2.2c1.5-0.1,2.1,0.7,2,2.1c0,3.8,0,7.6,0,11.4c0,0.9,0,1.7-1.1,2
	c-1.4,0.3-2.6,0-3.5-1.2c-1.2-1.6-2.5-3.1-3.8-4.6c-1.1-1.3-2.3-2.6-4.1-4.7c0,3.6,0,6.2,0,8.8c0,1.1-0.1,1.9-1.6,1.9
	c-1.3-0.1-1.7-0.7-1.7-1.9c0-3.5-0.1-7,0-10.4c0-1.2-0.8-2.8,1.2-3.3c1.4-0.3,2.5,0.4,3.4,1.6C783.7,354.3,786,357.1,789,360.8z"/>
<path class="st2" d="M805.9,365.5c-8.4,0-11.4-4.3-8.7-12.4c0.6-1.7,1.6-2.9,3.5-3c3.3-0.1,6.6-0.2,9.9-0.3c1,0,2.1,0.1,2.1,1.5
	c0,1.4-1.2,1.3-2.2,1.3c-1.5,0-3,0-4.5,0c-5.5,0-7.3,2.6-5.7,7.8c0.7,2.5,2.7,2.2,4.4,2c1.5-0.2,3.9,1.3,4.5-1.5
	c0.3-1.4-0.3-3.4,2-3.1c2.8,0.4,1.3,2.9,1.5,4.5c0.3,1.7,0.2,3.4-2.4,3.1C808.9,365.4,807.4,365.5,805.9,365.5z"/>
<path class="st2" d="M743.9,355.8c0,9-4.7,12.2-12.8,9.4c-1.8-0.6-2.7-1.9-2.8-3.7c-0.2-3.1-0.1-6.3-0.2-9.4c0-1.4,0.4-2.3,2-2.1
	c1.2,0.1,1.6,0.9,1.6,2.1c0,1.8,0.1,3.7,0,5.5c-0.2,3.1,0,5.3,4.3,5.3c4.4,0,5-2.2,4.7-5.6c0-0.2-0.1-0.4,0-0.5
	c0.9-2.2-2-6.4,1.8-6.4C745.5,350.2,742.8,354.4,743.9,355.8z"/>
<path class="st2" d="M762.9,365c-3.3,1.4-4.8-0.6-6.6-2.4c-2-2.1-4.2-4-4.3,1.2c0,1.3-0.6,1.7-1.8,1.7c-1.4-0.1-1.4-1.1-1.4-2.1
	c0-1.5,0-3,0-4.5c0-10.1,0.4-10.4,10.6-8.9c1.9,0.3,3.7,0.7,4.3,2.8c0.6,2.1,0.8,4.3-0.7,6.2C760.4,362,760.4,362,762.9,365z
	 M756.2,352.7c-2.2,0-4.3-0.6-4.2,2.7c0,3,1.9,2.5,3.6,2.4c2-0.1,4.8,0.9,4.9-2.4C760.7,352.1,757.8,353,756.2,352.7z"/>
<path class="st2" d="M710.3,364.9c-1.5,0.8-2.6,0.9-3.6,0c-5-4-6.8-4-11.9,0c-0.9,0.7-2,0.8-2.8,0.4c-1.6-0.6-0.2-1.7,0.1-2.3
	c1.8-3.7,3.6-7.4,5.6-11c1.7-3.1,4.2-3.2,5.9-0.3C706,356.1,708.1,360.5,710.3,364.9z M703.4,359.3c-0.8-2.3-1.3-4-3-5.4
	c-0.8,1.9-2.2,3.4-2.2,5.4C700,359.3,701.4,359.3,703.4,359.3z"/>
<path class="st2" d="M656,357.8c0-8,0-8.1,8-7.9c2,0,5.8-1.4,5.8,1.3c0,2.7-3.7,0.9-5.8,1.4c-0.9,0.2-2,0-3,0.1
	c-1.2,0-1.8,0.6-1.8,1.8c0,1.3,0.7,1.7,1.9,1.7c2,0,4,0,6,0c1,0,2,0,2,1.5c0,1.4-1,1.5-2,1.5c-1.5,0-3,0.1-4.5,0
	c-2.5-0.3-3.7,0.5-3.4,3.2c0.1,1.1,0.8,2.9-1.4,3c-2.7,0.1-1.5-2-1.6-3.2C655.9,360.8,656,359.3,656,357.8z"/>
<path class="st2" d="M717.5,349.8c0.7,0,1.4-0.1,2,0c2,0.4,5.4-1.2,5.8,1.1c0.5,3-2.9,1.2-4.5,1.7c-1.5,0.5-1.5,1.6-1.5,2.7
	c0,2.7,0,5.3,0,8c0,1.1-0.1,2-1.5,2.1c-1.7,0.1-1.8-0.9-1.8-2.2c0.1-2-0.1-4,0-6c0.2-3,0-5.3-4-4.7c-0.9,0.2-2.1,0.1-2.1-1.3
	c0-1.4,1.1-1.4,2.1-1.4C713.9,349.8,715.7,349.8,717.5,349.8z"/>
<path class="st1" d="M771.9,357.8c0,2,0,4,0,5.9c0,1.6-0.9,1.9-2.2,1.9c-1.2,0-1.7-0.7-1.7-1.9c0-4.1,0-8.3,0-12.4
	c0-1.2,0.7-1.8,1.9-1.8c1.2,0,1.9,0.5,2,1.7C771.9,353.5,771.9,355.6,771.9,357.8C771.9,357.8,771.9,357.8,771.9,357.8z"/>
<path class="st2" d="M1145.4,746.6c-29.9-0.1-54.4-24.8-54.4-54.8c0-29.9,25-54.6,55.3-54.4c30,0.2,54.4,24.8,54.4,54.7
	C1200.6,722.2,1175.8,746.7,1145.4,746.6z M1158.8,689.7c2.3,0,4.7-0.2,7,0.1c3.7,0.5,4.2-1.4,3.7-4.3c-0.7-4.4-1.2-8.8-1.8-13.3
	c-0.4-2.8-1.5-4.5-4.8-3.9c-1.3,0.2-2.7,0-4,0c-10.7,0-10.7,0-10.7,10.9C1148.2,689.7,1148.2,689.7,1158.8,689.7z M1143.5,705.3
	c0-11,0-11-10.1-11c-12.1,0-12.1,0-10.3,12.2c1.4,9.3,1.4,9.3,10.2,9.3C1143.5,715.7,1143.5,715.7,1143.5,705.3z M1159,694.3
	c-10.9,0-10.9,0-10.9,10.8c0,0.7,0,1.3,0,2c0,8.7,0,8.7,8.9,8.7c10.5,0,10.5,0,11.7-10.5C1170,694.3,1170,694.3,1159,694.3z
	 M1132.7,689.7c10.8,0,10.8,0,10.8-10.8c0-0.5,0-1,0-1.5c0-9.1,0-9.1-9-9.1c-10.4,0-10.4,0-11.6,10.5
	C1121.7,689.7,1121.7,689.7,1132.7,689.7z M1106.6,689.7c10.3,0,10.3,0,11.4-9.8c0.1-1,0.4-2,0.5-2.9c1.5-8.6,1.5-8.6-7.4-8.6
	c-10.5,0-10.5,0-13.3,10.1c0,0.2-0.1,0.3-0.1,0.5c-2.9,10.8-2.9,10.8,8.3,10.8C1106.2,689.7,1106.4,689.7,1106.6,689.7z
	 M1180.9,715.7c10.2,0,10.2,0,12.9-10c0.7-2.7,1.2-5.5,1.7-8.3c0.5-2.4-0.3-3.3-2.8-3.2c-5.2,0.2-10.3,0.1-15.5,0
	c-2.1,0-3,0.7-3.1,2.8c-0.2,3.3-0.3,6.6-0.9,9.9C1171.9,715.7,1171.8,715.7,1180.9,715.7z M1106.6,694.3c-2.3,0-4.7,0.2-7,0
	c-3.3-0.4-4,0.9-3.4,4c1,5,2,10,4.3,14.7c0.5,1,0.8,2.6,1.9,2.7c5.6,0.1,11.4,0.8,16.7-0.5c1.5-0.4-0.8-6.5-1.1-10
	c0-0.2,0-0.3-0.1-0.5C1116.8,694.3,1116.8,694.3,1106.6,694.3z M1184.9,689.7c12.2,0,12.2,0,8.8-11.9c-2.8-9.5-2.8-9.5-12.7-9.5
	c-2,0-4,0.1-6,0c-2.6-0.2-3.6,0.5-2.8,3.3c0.7,2.7,1.2,5.5,1.5,8.3C1174.8,689.7,1174.8,689.7,1184.9,689.7z M1143.5,652.9
	c0-2.2-0.2-4.3,0-6.4c0.4-4.4-1.7-3.9-4.3-2.1c-6.2,4.2-9.4,10.5-12.2,17.1c-0.6,1.4-0.2,2.2,1.5,2.2c1.3,0,2.7,0,4,0
	C1143.5,663.6,1143.5,663.6,1143.5,652.9z M1148.2,653.3c0,2.5,0,5,0,7.4c0,1.7,0.3,2.9,2.4,2.9c4.1-0.1,8.3,0,12.4,0
	c1.5,0,2.2-0.5,1.6-2c-2.9-6.9-6.1-13.6-12.9-17.6c-2.3-1.3-3.7-1.3-3.5,2C1148.3,648.3,1148.2,650.8,1148.2,653.3z M1148.2,731.2
	c0,2-0.1,4,0,5.9c0.1,1.2-0.8,2.9,0.6,3.6c1.5,0.8,2.9-0.5,4-1.3c5.9-4.2,9.1-10.3,11.7-16.8c0.6-1.5,0.1-2.2-1.5-2.1
	c-1.3,0-2.6,0-4,0C1148.2,720.6,1148.2,720.6,1148.2,731.2z M1126.5,720.6c2.8,7.6,6,14.2,12.3,18.8c1.2,0.9,2.5,2.1,4,1.4
	c1.5-0.7,0.7-2.4,0.7-3.6c0.1-4.5,0-9,0.1-13.4c0-1.8-0.1-3.3-2.6-3.2C1136.4,720.7,1131.7,720.6,1126.5,720.6z M1104.9,663.6
	c5.6,0,10.1-0.1,14.5,0c1.7,0,2.3-0.8,2.8-2.2c2-5.8,4.7-11.2,9.4-16.9C1120.1,648,1112.1,654.1,1104.9,663.6z M1160.2,644.5
	c4.5,5.8,7.3,11,9.2,16.7c0.6,1.6,1.1,2.6,3,2.5c4.4-0.1,8.8,0,14.4,0C1179.8,654.3,1171.8,648.2,1160.2,644.5z M1186.7,720.6
	c-5.6,0-10.2,0.1-14.8,0c-1.9,0-2.1,1.3-2.5,2.5c-2,5.6-4.7,10.8-9.1,16.4C1171.8,736.2,1179.6,729.8,1186.7,720.6z M1105,720.6
	c6.9,9.1,14.6,15.1,26,18.8c-4.2-6.3-7.4-11.6-9.1-17.6c-0.5-1.5-1.8-1.2-2.9-1.2C1114.7,720.6,1110.4,720.6,1105,720.6z"/>
<path class="st4" d="M1310.4,660.5c-1.3-5.9,2.8-4.4,5.3-3.4c4.1,1.6,6.7,0.6,9.4-2.6c1.3-1.6,1.6-3,1.5-4.9
	c-0.1-4.4,2.4-6.8,6.5-7.3c3.7-0.5,7.4,2.8,7.5,6.5c0.1,4.2-2.1,6.8-6.3,7.6c-4.6,0.9-8,6.5-6.6,10.9c0.3,0.9,0.8,1.9,0.8,2.9
	c0.2,1.7,1.1,3.9-1.1,4.9c-2.7,1.2-3-1.5-4-3c-4.9,3-6.6,6.4-5,12.4c2.4,9.2,5.4,18.9,2.2,28.3c-2.1,6-0.1,8.6,4.5,11.3
	c4,2.3,7.7,5.1,12.1,8.1c-8,0.3-15-1.6-22.4-4.1c0,3.7,0,7.1,0,11.2c-4.4-2.8-6.5-6.4-8.4-10.1c-0.6,0.3-1,0.4-1.1,0.6
	c-5.9,10.6-15.9,10.7-26.1,9.7c-4.9-0.5-7.6-4.4-10.5-7.8c-5.2-6.2-5.1-6.2-12.5-3.4c-6.5,2.5-13.1,4.1-21.3,3.8
	c9.3-5.7,17.1-11.6,24.7-17.7c3.8-3,3.7-6.5,1.6-10c-2.6-4.3-2.7-8.8-3.3-13.6c-0.7-6.3-1.5-13.5-7.7-17.9c-1.2-0.8-1.9-1.4-2.3,0.6
	c-0.3,1.6-1.6,2.1-3,1.7c-1.6-0.5-1.7-1.9-1.5-3.3c0.2-1.5,0.5-2.9,0.9-4.4c1.4-4.9-1.8-10.1-6.9-11.1c-4-0.8-6.2-3.4-5.9-7.4
	c0.3-3.9,2.7-6.4,6.8-6.6c3.8-0.2,7,2.8,7.3,6.7c0.7,7.4,3.6,9.5,10.9,8c2.4-0.5,5-1.5,5.7,2.4c0.6,3,2.3,0.7,3.2,0.2
	c15.1-8.4,29.8-7.8,44.1,1.9c0.7,1,1.2,2.4,2.8,1.8c0.5-0.2,0.7-0.9,1.1-1.4C1312.4,661.3,1311.4,660.9,1310.4,660.5z M1265,667.3
	c13.9-4.8,27.9-5,42.6,0.3c-6.8-10.8-32.8-11.6-41.9-2.2c-0.4,0.5-0.7,1.1-1.1,1.6c-0.4,0.1-1,0.3-0.6,0.8
	C1264.5,668.2,1264.9,667.8,1265,667.3z M1286.2,682.5c-6.8,0-13.6,0-20.5,0c-5.5,0-5.5,0-3.1,4.8c0.6,1.1,1.3,1.9,0.8,3.6
	c-2.2,7.2,0.7,12.7,7.9,15.1c2.2,0.7,2.8,1.7,2.9,3.8c0.5,10.9,0.6,10.9,11.4,10.9c0.8,0,1.7,0,2.5,0c9.8,0,9.9,0,9.8-9.7
	c0-2.9,0.5-4.3,3.7-5.1c5.2-1.3,9.6-8.6,8-13.3c-0.9-2.5-0.7-4.3,0.6-6.4c1.8-2.8,0.8-3.7-2.3-3.7
	C1300.6,682.6,1293.4,682.5,1286.2,682.5z M1260.1,677.2c1.1,1.2,2.5,0.6,3.7,0.6c14.6,0,29.3,0.1,43.9,0c1.3,0,3.5,0.9,3.9-0.9
	c0.4-1.6-1.7-2.3-2.9-3c-15.1-7.8-30.2-7.7-45.3-0.1C1262.1,674.6,1260.3,675.2,1260.1,677.2z M1304.2,709.3
	c-2.2,2.5-1.4,4.7-1.5,6.6c-0.1,6.2-1.2,7.7-7.3,9.2c-1.6,0.4-2.5,0.8-2.3,2.5c0.1,1.6-0.5,2.4-2.3,2.4c-1.7,0-2.5-0.5-2.4-2.3
	c0.1-2-0.9-2.5-2.8-2.5c-2,0-2.1,1.3-2,2.6c0.2,1.9-0.9,2.1-2.5,2.2c-1.5,0-2.6-0.3-2.4-2.2c0.2-1.9-0.6-2.6-2.5-2.7
	c-5-0.3-6.8-3.4-6.8-8c0-1.7,0-3.3,0-5c-0.1-1.1-0.5-2.1-1.8-1.8c-1.1,0.2-0.6,1.3-0.7,2c-1.2,8.3,2.8,14.3,8.4,19.6
	c3.3,3.1,16.1,4.3,19.6,1.5C1302.4,727.4,1307,720.2,1304.2,709.3z M1310.4,724.7c6.9-9.9,8-20.6,5.1-31.3
	C1311.3,702.9,1307.7,713.2,1310.4,724.7z M1316.9,673.2c1.5-3.1,6.3-3.4,4.3-7.6c-0.6-1.3-2-3.6-4.2-2.2
	C1313.1,666.1,1314.8,669.3,1316.9,673.2z M1255.1,673.1c2-3.5,4.2-6.7-0.1-9.5c-2.3-1.5-3.6,0.8-4.2,2
	C1248.8,670,1254.2,670.2,1255.1,673.1z M1262.3,716.6c-4.2,3.3-7.4,5.9-10.7,8.5c0.3,0.4,0.6,0.8,0.9,1.2
	C1255.4,722.9,1262.5,725.1,1262.3,716.6z M1238.3,651.7c1.2-0.2,2.3-0.6,2.4-2c0.2-1.7-0.8-2.5-2.4-2.5c-1.4,0-2.2,0.9-2.2,2.2
	C1236.1,650.6,1237,651.5,1238.3,651.7z M1332.6,647.1c-0.6-0.1-1.1,1-1.2,2.2c-0.1,1.4,0.8,2.2,2.1,2.3c1.5,0.1,2.5-0.8,2.3-2.4
	C1335.8,647.8,1334.9,647.2,1332.6,647.1z M1262.4,662.4c-0.7-1.8-1.5-1.3-2.2-1.2c-0.5,0.1-1.4-0.1-1.2,0.9
	c0.2,0.8,0.8,1.5,1.7,1.3C1261.4,663.2,1262,662.6,1262.4,662.4z M1308.5,667.6c-0.1-0.1-0.2-0.3-0.3-0.3c-0.1,0-0.2,0.2-0.3,0.2
	c0.1,0.1,0.2,0.3,0.3,0.3C1308.3,667.9,1308.4,667.7,1308.5,667.6z"/>
<path class="st2" d="M1243.9,541c0,6.3,0.1,12.6,0,18.9c-0.2,9.5-6,15.5-15.4,16.2c-9.6,0.7-17.1-4.5-17.9-14
	c-1.2-14.3-1.2-28.8,0-43.2c0.7-9.2,8-14.3,17.5-13.8c9.3,0.5,15.3,6.2,15.6,15.4C1244.1,527.4,1243.8,534.2,1243.9,541
	C1243.9,541,1243.9,541,1243.9,541z M1233.5,540.6c0-5.8,0.1-11.6,0-17.4c-0.1-5.6-2.3-8.3-6.4-8.3c-4.2,0-6.3,2.6-6.3,8.3
	c0,11.8,0,23.5,0,35.3c0,5.5,2.2,8.2,6.5,8.1c3.9-0.1,6.1-2.7,6.2-8C1233.6,552.5,1233.5,546.6,1233.5,540.6z"/>
<path class="st2" d="M1286.8,540.5c0,6.3,0.1,12.6,0,18.9c-0.3,10.3-6.5,16.5-16.5,16.7c-9.9,0.3-16.9-5.8-17.2-16
	c-0.4-13.1-0.4-26.2,0-39.3c0.3-9.9,7.2-15.8,16.9-15.7c10.1,0.1,16.4,6.2,16.7,16.4C1286.9,527.9,1286.8,534.2,1286.8,540.5
	C1286.8,540.5,1286.8,540.5,1286.8,540.5z M1263.6,540.5c0,6.3-0.1,12.6,0,18.9c0.1,3.9,1.6,6.9,6,7c4.7,0.2,6.5-2.9,6.6-7
	c0.1-12.4,0.1-24.8,0-37.2c0-4-1.6-7.2-6.3-7.3c-4.1-0.1-6.2,2.4-6.3,7.8C1263.5,528.6,1263.6,534.6,1263.6,540.5z"/>
<path class="st2" d="M1081.8,540.3c0-6.3-0.1-12.6,0-18.9c0.2-9.6,5.8-15.3,15.4-16.1c9.8-0.7,17,4.3,17.8,13.9
	c1.2,14.3,1.2,28.8,0,43.2c-0.8,9.2-8.2,14.4-17.5,13.7c-9.5-0.7-15.4-6.6-15.6-16C1081.7,553.6,1081.8,546.9,1081.8,540.3z
	 M1104.9,540.6c0-6.1,0-12.2,0-18.4c0-4.2-1.6-7.2-6.2-7.3c-4.7-0.1-6.4,3.1-6.5,7.1c-0.1,12.4-0.2,24.8,0,37.2c0,4,1.9,7.2,6.6,7.1
	c4.7-0.1,6.1-3.3,6.1-7.4C1104.9,552.9,1104.9,546.8,1104.9,540.6z"/>
<path class="st2" d="M1295.8,540.6c0-6.3-0.1-12.6,0-18.9c0.3-10.2,6.6-16.3,16.7-16.5c10-0.1,16.8,6,17,16.1
	c0.3,12.9,0.3,25.9,0,38.8c-0.2,10-7.3,16.3-17.2,16c-10.1-0.3-16.3-6.4-16.5-16.7C1295.7,553.2,1295.8,546.9,1295.8,540.6z
	 M1319,541C1319,541,1319,541,1319,541c0-6.5,0.1-12.9,0-19.4c-0.1-4-1.9-6.7-6.3-6.7c-4.1,0-6.1,2.6-6.2,6.3
	c-0.1,12.9-0.1,25.8,0,38.7c0,4,2.2,6.7,6.5,6.4c4-0.2,5.9-2.7,5.9-6.6C1319,553.6,1319,547.3,1319,541z"/>
<path class="st5" d="M1201,540.9c0,6.3,0.1,12.6,0,18.9c-0.2,9.9-6.4,16.1-16.2,16.4c-9.9,0.3-16.8-5.5-17.1-15.3
	c-0.5-13.2-0.5-26.5-0.1-39.7c0.3-10.3,7.1-16.1,17.1-15.8c10.1,0.3,16.1,6.4,16.3,16.8C1201.1,528.3,1201,534.6,1201,540.9z
	 M1177.8,540.5c0,6.1,0,12.3,0,18.4c0,4,1.3,7.3,6,7.6c4,0.3,6.7-2.4,6.8-7.4c0.2-12.3,0.1-24.5,0-36.8c0-4-1.6-7.2-6.3-7.4
	c-4-0.1-6.4,2.7-6.5,7.7C1177.8,528.5,1177.8,534.5,1177.8,540.5z"/>
<path class="st5" d="M1124.7,540.6c0-6.6-0.2-13.3,0.1-19.9c0.4-9.4,6.6-15.2,16-15.5c9.8-0.3,16.7,5.2,17.2,14.7
	c0.8,13.7,0.8,27.5,0,41.2c-0.5,9.6-7.3,15.2-16.9,15c-9.6-0.2-15.9-6-16.3-15.7C1124.5,553.9,1124.7,547.2,1124.7,540.6
	C1124.7,540.6,1124.7,540.6,1124.7,540.6z M1147.8,540.2c0-5.8,0.1-11.6,0-17.4c-0.1-5.2-2.3-7.9-6.3-8c-4-0.1-6.5,2.6-6.6,7.7
	c-0.1,12.1-0.1,24.2,0,36.3c0.1,5,2.6,7.7,6.6,7.7c4-0.1,6.2-2.7,6.3-7.9C1147.9,552.5,1147.8,546.3,1147.8,540.2z"/>
<path class="st4" d="M388.1,697.4c1.6,1.6,2.9,3,4.3,4.5c1.2,1.3,2.4,2.6,3.9,4.3c-5.3,1.1-9.3,0.9-12.1-3.4
	c-0.8-1.2-2.1-2.1-3.1-3.2c-1.6-2-3.6-3.2-6-2.2c-2.1,0.9-0.9,3.2-1,4.9c-0.2,2.3,0.4,4.6-3.4,4.6c-3.6,0-3.5-1.9-3.5-4.4
	c0.1-7.6,0.1-15.2,0-22.9c0-2.5,0.7-3.5,3.4-3.5c5.6,0.2,11.3,0,17,0.1c6.1,0.2,8.8,2.4,9.5,7.4c1,7.5-0.7,10.9-6.6,13.1
	C389.7,696.8,389.1,697,388.1,697.4z M380.9,691.2c1.4,0,2.4,0,3.4,0c3.4,0.1,6.2,0,6.2-4.8c0-4.8-2.9-4.8-6.3-4.8
	c-1.7,0-3.3,0.2-5,0c-4.1-0.6-5.3,0.9-5.4,5.1C373.6,693.6,378.4,690.5,380.9,691.2z"/>
<path class="st4" d="M270.4,676c2.8,0,5.7,0,8.5,0c2,0,4.1-0.3,3.9,2.9c-0.1,3.1-2.2,2.8-4.2,2.8c-5,0-10,0-15,0
	c-2.9,0-4.9,1-4.8,4.3c0.2,3.3,2.8,2.1,4.5,2.2c4.5,0.2,9,0.1,13.5,0c2.1,0,3.4,0.4,3.4,3c0,2.7-1.5,2.8-3.5,2.8
	c-4.7-0.1-9.3-0.1-14,0c-1.6,0-4-0.9-4,2.2c0,2.8,1.2,4.6,4,4.6c5.2,0.1,10.3,0,15.5,0.1c2,0,4.6-0.8,4.5,2.8
	c-0.1,3.5-2.6,2.8-4.6,2.8c-6,0-12,0.1-17.9-0.4c-5.7-0.5-7.9-3.3-8-8.8c-0.1-4.1-0.1-8.3,0-12.4c0.2-5.7,2.9-8.4,8.7-8.7
	C264,675.9,267.2,676.1,270.4,676C270.4,676.1,270.4,676,270.4,676z"/>
<path class="st4" d="M499.6,695.5c0-4.9,0-9.8,0-14.6c0-2.3-0.8-5,3.4-5c4,0.1,3.1,2.5,3.1,4.7c0,7.1,0.1,14.3,0,21.4
	c0,1.6,1.1,4.1-1.7,4.5c-2.2,0.3-4.5,0.7-6.3-1.7c-3.8-5-7.9-9.8-11.9-14.7c-1-1.3-2.1-2.5-4.1-4.9c0,6.8-0.1,12.3,0,17.8
	c0,2.4-0.4,3.7-3.2,3.7c-2.6-0.1-3.5-1-3.5-3.6c0.1-7.5,0-14.9,0.1-22.4c0-1.6-1.1-4.1,1.6-4.5c2.3-0.4,4.9-0.8,6.8,1.7
	c4.1,5.4,8.5,10.6,12.8,15.9C497.3,694.5,497.6,695.6,499.6,695.5z"/>
<path class="st4" d="M432.5,706.6c-3,0-5.5,0-8,0c-2,0-4,0.3-4.1-2.8c-0.1-3.2,2-2.8,4-2.8c5.2,0,10.3,0.1,15.5,0
	c2.2,0,4.5-0.4,4.6-3.4c0-3-2.3-3.3-4.5-3.4c-3.5-0.1-7,0.1-10.5-0.2c-5.8-0.4-8.9-3.4-9-8.6c-0.1-5.5,2.9-8.8,8.9-9.1
	c5.5-0.3,11-0.1,16.5-0.2c1.9,0,3.1,0.3,3.1,2.7c0,2.5-1.3,3.1-3.5,3c-4.3-0.1-8.7-0.1-13,0c-2.4,0.1-5.5-0.2-5.3,3.5
	c0.2,3.4,3.1,2.9,5.3,3c4,0.2,8-0.2,11.9,0.7c4.6,1.1,6.7,3.8,6.7,8.5c0,4.6-2.2,7.4-6.7,8.5C440.2,707,436.1,706.4,432.5,706.6z"/>
<path class="st4" d="M533.8,706.8c-3.6-0.2-7.3-0.3-10.9-0.6c-5-0.4-7.4-3.5-7.6-8.2c-0.2-4.5-0.2-9,0-13.4c0.3-5.5,3-8.2,8.5-8.4
	c6.3-0.3,12.6-0.1,18.9-0.2c2.3,0,3.3,0.6,3.3,3.1c-0.1,2.4-1.4,2.7-3.2,2.6c-4.7,0-9.3,0-14,0c-6.4,0.1-6.9,0.5-6.9,6.7
	c0,13.6-1.2,12.4,12.6,12.7c4.2,0.1,5.3-1.5,4.7-5.1c-0.6-3.7,1.3-6.1,4.5-4.4c4.8,2.5,1.2,7.6,2.1,11.5c0.4,1.8,0.2,3.7-2.6,3.6
	c-3.2-0.1-6.3,0-9.5,0C533.8,706.6,533.8,706.7,533.8,706.8z"/>
<path class="st4" d="M243.1,691.4c0,4-0.1,8,0,11.9c0.1,2.2-0.5,3.4-3,3.3c-2.4,0-3.5-0.7-3.7-3.4c-0.6-9.3-0.7-9.3-9.9-9.3
	c-0.8,0-1.7,0.1-2.5,0c-3.8-0.6-5.6,0.7-5,4.8c0.2,1.6-0.1,3.3,0.1,5c0.2,2.2-0.9,2.9-3,2.9c-1.9-0.1-3.8,0-3.7-2.7
	c0-8.5,0-16.9,0-25.4c0-2.9,2-2.4,3.8-2.5c2.1-0.2,2.9,0.7,2.9,2.9c0,2.9-1.4,6.8,0.7,8.6c2.4,2.2,6.4,0.7,9.6,0.7
	c8.1,0.1,7,0.8,7-7.3c0-2.7-0.5-5.5,3.9-5c2.2,0.2,2.9,0.9,2.8,3C243.1,683.1,243.1,687.2,243.1,691.4z"/>
<path class="st4" d="M342.7,676c1.8,0,3.7,0.1,5.5,0c10.1-0.4,13.7,4.4,11.2,16.2c-0.8,3.9-4,5.1-7.5,5.5c-2.3,0.3-4.7,0.3-7,0.1
	c-4.8-0.3-9.2-0.6-7.8,6.5c0.4,2.2-1.5,2.2-3,2.2c-1.5,0-3.1,0-3.1-2.2c0-8.8,0-17.6,0-26.4c0-1.9,1.3-2,2.7-2
	C336.7,676,339.7,676,342.7,676z M344,692.1c1.1,0,1.9,0,2.7,0c3.8,0.3,6.8-0.1,6.7-5.3c0-5.3-3.2-5.3-6.9-5.2c-1.2,0-2.3,0.2-3.5,0
	c-4.7-0.8-6,1-6.1,5.8C336.8,694.1,341.2,691.7,344,692.1z"/>
<path class="st4" d="M321.1,688.5c0,3.1,0.1,6.3,0,9.4c-0.1,4.6-2.4,7.4-7.1,8.1c-5.5,0.8-10.9,0.8-16.4,0c-3.9-0.6-6.2-2.8-6.8-6.8
	c-0.9-6.9-0.2-13.9-0.4-20.8c-0.1-2.5,1.7-2.4,3.4-2.4c1.8,0,3.3-0.1,3.3,2.5c-0.1,5.5,0.1,10.9,0,16.4c-0.1,4.1,1.6,6,5.9,6.1
	c11.6,0.3,11.6,0.4,11.6-11.2c0-3.6,0.1-7.3,0-10.9c-0.1-2.6,1.3-2.9,3.4-2.9c2.3-0.1,3.3,0.7,3.2,3.1
	C321.1,682.2,321.2,685.4,321.1,688.5C321.2,688.5,321.2,688.5,321.1,688.5z"/>
<path class="st4" d="M154.9,690.6c0.1-1.1-1-1-1.6-1.5c-1.6-1.4-2-3.7,0.3-3.9c3.9-0.3,3.7-3,4.6-5.4c0.7-1.7,0.7-4.6,3.6-3.7
	c2.8,0.9,0.2,2.9,0.3,4.5c0.1,1.4-2.4,3.2,0.2,4.2c2.3,0.9,3.7-0.5,4.3-2.8c0-0.2,0.1-0.3,0.2-0.5c1.1-2,0.2-6.6,4.2-5.1
	c2.6,0.9,0.3,4.1-0.5,5.9c-1.5,3.2,4.3,2.6,2.6,5.8c-1.2,2.2-4.8,0.1-5.4,3.4c-0.3,1.7,0,2,1.4,2.8c1.7,1,1.9,3.6-0.5,3.8
	c-3.9,0.3-3.8,3-4.6,5.4c-0.6,1.8-1.2,3.9-3.6,3c-2.7-0.9-0.1-2.7-0.3-4.1c-0.1-1.3,2.4-3.2-0.6-4c-2.2-0.6-3.4,0.6-3.8,2.8
	c-0.1,0.6-0.4,1.3-0.6,1.9c-0.6,1.9-1,4.4-3.8,3.4c-2.6-0.9-0.2-2.8-0.2-4.2c0-1.6,1.8-3-1-4.4c-1.7-0.9-2.2-3.7,1.2-3.8
	C154.1,694,154.4,692.3,154.9,690.6z M161.9,689.2c-2.6-0.4-3,1.6-3.4,3.3c-0.3,1.6,1,1.2,1.9,1.4c2.6,0.4,3-1.5,3.4-3.3
	C164.1,689.1,162.8,689.3,161.9,689.2z"/>
<path class="st4" d="M191.6,676c4.2,0,8.3,0,12.5,0c1.7,0,2.9,0.3,2.9,2.4c0,1.9-0.4,3.3-2.7,3.3c-0.2,0-0.3,0-0.5,0
	c-8.8,0.9-8.8,0.9-8.8,10c0,4-0.1,7.9,0,11.9c0.1,2.5-1.3,3-3.4,3.1c-2.2,0-3.4-0.5-3.3-3c0.1-5.6-0.3-11.3,0.1-16.9
	c0.3-4.3-1.3-5.6-5.4-5.1c-1.5,0.2-3,0-4.5,0c-2.1,0.1-2.3-1.3-2.3-2.9c0-1.8,0.4-2.8,2.5-2.7C183,676.1,187.3,676,191.6,676z"/>
<path class="st4" d="M411.9,691.7c0,4-0.1,7.9,0,11.9c0.1,2.5-1.1,3.1-3.3,3c-2,0-3.5-0.2-3.5-2.9c0.1-8.3,0.1-16.5,0-24.8
	c0-2.5,1.1-3,3.3-3c2.5-0.1,3.6,0.7,3.5,3.4C411.8,683.4,411.9,687.6,411.9,691.7z"/>
<path class="st4" d="M465.2,691.1c0,4-0.1,7.9,0,11.9c0.1,2.4-0.5,3.7-3.3,3.6c-2.5,0-3.1-1.1-3.1-3.3c0.1-8.1,0.1-16.2,0-24.3
	c0-2.5,1-3,3.3-3.1c2.5,0,3.1,1,3.1,3.3C465.1,683.2,465.2,687.1,465.2,691.1z"/>
<path class="st3" d="M310.4,215.8c0-8.9,0.1-17.9-0.1-26.8c-0.1-2.9,0.5-4.3,3.8-4c4,0.3,8-0.1,12,0.2c10.3,0.8,16.5,5.8,18.2,15.8
	c1.8,10.6,2,21.5-0.2,32.1c-1.7,8.3-7.1,12.8-15.6,13.7c-5.8,0.6-12.9,2.5-17-0.5c-3.5-2.6-0.9-9.9-1.1-15.1
	C310.3,226.1,310.4,220.9,310.4,215.8z"/>
<path class="st3" d="M310.4,129c0-8,0.1-15.9-0.1-23.9c0-2.7,0.6-4.1,3.6-3.7c1.8,0.2,3.7,0,5.5,0c13.9,0,19.6,4.7,21.3,18.2
	c0.8,6.9,0.9,13.9-0.3,20.8c-1.9,10.8-6.6,15-17.6,16.2c-12.3,1.3-12.3,1.3-12.3-10.7C310.4,140.3,310.4,134.6,310.4,129z"/>
<path class="st3" d="M544.1,131.2c0-8.6,0.1-17.2-0.1-25.8c-0.1-2.8,0.4-4.3,3.8-4c3.8,0.3,7.7-0.1,11.5,0.2
	c10.1,0.6,16.1,5.5,17.9,15.5c1.8,10,1.8,20.1-0.2,30.1c-1.7,8.7-7.3,13.4-16.2,14.2c-4.5,0.4-9,0.1-13.4,0.4
	c-2.8,0.2-3.3-1.2-3.2-3.6C544.2,149.1,544.1,140.2,544.1,131.2z"/>
<path class="st3" d="M1171.5,131.3c0-8.6,0.2-17.2-0.1-25.9c-0.1-3.4,1.1-4.3,4.3-4.1c3.5,0.3,7-0.1,10.5,0.1
	c10.7,0.5,17.2,6.5,18.6,17.1c1.1,8.8,1.2,17.5,0,26.3c-1.4,10.1-7.3,15.7-17.5,16.5c-4.1,0.3-8.3,0-12.5,0.3
	c-2.7,0.2-3.4-1-3.3-3.5C1171.6,149.2,1171.6,140.2,1171.5,131.3z"/>
<path class="st3" d="M1146,420c-1.4,0-2.2,0-3,0c-3.5,0-6.9,0-11.1,0c2.3-4.7,4.5-9,7-14.2C1141.5,411,1143.6,415.3,1146,420z"/>
<path class="st3" d="M667.1,416.1c0-11.3,0-11.3,11.2-11.3c8.8,0,9.4,0.6,9.4,9.7c0,12.7,0,12.7-12.8,12.7c-7.8,0-7.8,0-7.8-7.6
	C667.1,418.4,667.1,417.3,667.1,416.1z"/>
<path class="st3" d="M844.3,427.2c-11.4,0-11.4,0-11.4-11.5c0-10.9,0-10.9,11-10.9c11.5,0,11.5,0,11.5,11.5
	C855.4,427.2,855.4,427.2,844.3,427.2z"/>
<path class="st3" d="M889.5,417.1c-0.2,0-0.3,0-0.5,0c-7.8,0-9.9-2.8-8-10.6c0.5-2,1.7-1.7,3-1.7c2.8,0,5.6,0,8.5,0
	c6.9,0.1,7.5,0.6,7.5,6.2c0,5.6-0.6,6.1-7.5,6.1C891.5,417.1,890.5,417.1,889.5,417.1z"/>
<path class="st3" d="M959.8,419.9c-5.1,0-9.2,0-14.1,0c2.3-4.6,4.4-8.9,7-14C955.1,410.7,957.3,414.9,959.8,419.9z"/>
<path class="st3" d="M257.6,421.1c-0.8,0-1.7,0.1-2.5,0c-1.6-0.3-4.2,1.1-4.8-1c-0.6-2.5-1.2-6.6,0.1-7.6c3.4-2.7,8.1-0.8,12.3-1.1
	c1.9-0.1,3.4,0.7,3.9,3c1,4.3-0.7,6.6-5.1,6.8C260.2,421.2,258.9,421.1,257.6,421.1z"/>
<path class="st3" d="M89.2,369.1c0,9.8,0,9.8-9.9,9.8c-9.4,0-9.4,0-9.4-9.9c0-9.5,0-9.5,11.2-9.5C89.1,359.5,89.2,359.6,89.2,369.1z
	"/>
<path class="st3" d="M220.3,422.1c-7,0-8.3-1.7-6.8-8.8c0.1-0.5,0.2-1.3,0.4-1.3c4.4-1.3,8.8-0.9,13.2-0.3c3.1,0.5,2.4,3.5,2.5,5.7
	c0.1,3.4-1.6,4.8-4.9,4.7C223.3,422,221.8,422,220.3,422.1z"/>
<path class="st3" d="M756.2,352.7c1.6,0.3,4.5-0.6,4.4,2.7c-0.2,3.2-3,2.3-4.9,2.4c-1.7,0.1-3.6,0.6-3.6-2.4
	C751.9,352,754,352.7,756.2,352.7z"/>
<path class="st3" d="M703.4,359.3c-2,0-3.4,0-5.2,0c0-2.1,1.3-3.5,2.2-5.4C702.1,355.2,702.6,357,703.4,359.3z"/>
<path class="st3" d="M1158.8,689.7c-10.6,0-10.6,0-10.6-10.5c0-10.9,0-10.9,10.7-10.9c1.3,0,2.7,0.2,4,0c3.3-0.6,4.4,1.1,4.8,3.9
	c0.6,4.4,1.1,8.9,1.8,13.3c0.5,3,0,4.8-3.7,4.3C1163.5,689.5,1161.1,689.7,1158.8,689.7z"/>
<path class="st3" d="M1143.5,705.3c0,10.4,0,10.4-10.2,10.4c-8.8,0-8.8,0-10.2-9.3c-1.8-12.2-1.8-12.2,10.3-12.2
	C1143.5,694.3,1143.5,694.3,1143.5,705.3z"/>
<path class="st3" d="M1159,694.3c11,0,11,0,9.7,11c-1.2,10.5-1.2,10.5-11.7,10.5c-8.9,0-8.9,0-8.9-8.7c0-0.7,0-1.3,0-2
	C1148.2,694.3,1148.2,694.3,1159,694.3z"/>
<path class="st3" d="M1132.7,689.7c-11,0-11,0-9.8-10.9c1.2-10.5,1.2-10.5,11.6-10.5c9,0,9,0,9,9.1c0,0.5,0,1,0,1.5
	C1143.5,689.7,1143.5,689.7,1132.7,689.7z"/>
<path class="st3" d="M1106.6,689.7c-0.2,0-0.3,0-0.5,0c-11.2,0-11.2,0-8.3-10.8c0-0.2,0.1-0.3,0.1-0.5c2.8-10.1,2.8-10.1,13.3-10.1
	c8.9,0,8.9,0,7.4,8.6c-0.2,1-0.4,1.9-0.5,2.9C1116.9,689.7,1116.9,689.7,1106.6,689.7z"/>
<path class="st3" d="M1180.9,715.7c-9.1,0-9,0-7.7-8.7c0.5-3.3,0.7-6.6,0.9-9.9c0.1-2.1,1-2.9,3.1-2.8c5.2,0.1,10.3,0.1,15.5,0
	c2.5-0.1,3.3,0.8,2.8,3.2c-0.6,2.8-1,5.5-1.7,8.3C1191.1,715.7,1191.1,715.7,1180.9,715.7z"/>
<path class="st3" d="M1106.6,694.3c10.3,0,10.3,0,11.4,10.2c0,0.2,0,0.3,0.1,0.5c0.3,3.5,2.6,9.6,1.1,10c-5.3,1.3-11.1,0.7-16.7,0.5
	c-1.1,0-1.4-1.6-1.9-2.7c-2.3-4.6-3.3-9.6-4.3-14.7c-0.6-3,0.1-4.3,3.4-4C1101.9,694.5,1104.2,694.3,1106.6,694.3z"/>
<path class="st3" d="M1184.9,689.7c-10.2,0-10.1,0-11.2-9.9c-0.3-2.8-0.8-5.6-1.5-8.3c-0.8-2.8,0.2-3.5,2.8-3.3c2,0.2,4,0,6,0
	c9.9,0,9.9,0,12.7,9.5C1197.2,689.7,1197.2,689.7,1184.9,689.7z"/>
<path class="st3" d="M1143.5,652.9c0,10.7,0,10.7-10.9,10.7c-1.3,0-2.7,0-4,0c-1.6,0-2-0.7-1.5-2.2c2.7-6.7,6-12.9,12.2-17.1
	c2.6-1.7,4.6-2.3,4.3,2.1C1143.4,648.6,1143.5,650.8,1143.5,652.9z"/>
<path class="st3" d="M1148.2,653.3c0-2.5,0.1-5,0-7.4c-0.2-3.2,1.2-3.3,3.5-2c6.8,4,10,10.7,12.9,17.6c0.7,1.6-0.1,2.1-1.6,2
	c-4.1,0-8.3-0.1-12.4,0c-2.1,0-2.4-1.2-2.4-2.9C1148.2,658.3,1148.2,655.8,1148.2,653.3z"/>
<path class="st3" d="M1148.2,731.2c0-10.6,0-10.6,10.9-10.6c1.3,0,2.6,0,4,0c1.6,0,2.1,0.6,1.5,2.1c-2.6,6.5-5.8,12.6-11.7,16.8
	c-1.1,0.8-2.5,2.1-4,1.3c-1.4-0.7-0.5-2.4-0.6-3.6C1148.1,735.2,1148.2,733.2,1148.2,731.2z"/>
<path class="st3" d="M1126.5,720.6c5.3,0,9.9,0.1,14.5,0c2.5-0.1,2.6,1.4,2.6,3.2c-0.1,4.5,0,9-0.1,13.4c0,1.2,0.8,2.9-0.7,3.6
	c-1.5,0.7-2.8-0.5-4-1.4C1132.4,734.8,1129.3,728.2,1126.5,720.6z"/>
<path class="st3" d="M1104.9,663.6c7.2-9.5,15.2-15.6,26.6-19.1c-4.6,5.7-7.4,11.1-9.4,16.9c-0.5,1.4-1.1,2.2-2.8,2.2
	C1115,663.5,1110.5,663.6,1104.9,663.6z"/>
<path class="st3" d="M1160.2,644.5c11.6,3.7,19.6,9.8,26.6,19.1c-5.5,0-9.9-0.1-14.4,0c-1.9,0-2.5-0.9-3-2.5
	C1167.5,655.5,1164.7,650.3,1160.2,644.5z"/>
<path class="st3" d="M1186.7,720.6c-7.2,9.2-14.9,15.6-26.4,18.8c4.4-5.6,7.1-10.8,9.1-16.4c0.4-1.2,0.7-2.5,2.5-2.5
	C1176.5,720.7,1181.1,720.6,1186.7,720.6z"/>
<path class="st3" d="M1105,720.6c5.4,0,9.7,0,14,0c1.1,0,2.4-0.3,2.9,1.2c1.8,5.9,4.9,11.3,9.1,17.6
	C1119.6,735.7,1111.9,729.7,1105,720.6z"/>
<path class="st3" d="M1286.2,682.5c7.2,0,14.3,0.1,21.5,0c3.1,0,4.1,0.9,2.3,3.7c-1.3,2.1-1.4,3.8-0.6,6.4c1.6,4.7-2.7,12-8,13.3
	c-3.2,0.8-3.8,2.2-3.7,5.1c0.1,9.7,0,9.7-9.8,9.7c-0.8,0-1.7,0-2.5,0c-10.8,0-10.8,0-11.4-10.9c-0.1-2.1-0.7-3.1-2.9-3.8
	c-7.2-2.4-10.1-7.9-7.9-15.1c0.5-1.6-0.2-2.5-0.8-3.6c-2.4-4.8-2.4-4.8,3.1-4.8C1272.6,682.5,1279.4,682.5,1286.2,682.5z
	 M1283.7,694.5c0.1-4.7-2.6-7.2-7.5-7.3c-6.2-0.1-9.3,1.8-9.2,5.8c0,5.1,3.6,8.6,9,8.6C1280.6,701.7,1283.7,698.9,1283.7,694.5z
	 M1288.5,693.9c-0.2,4.8,2.4,7.5,7.1,7.7c5.5,0.2,9.1-2.9,9.3-8.1c0.2-4.5-2.1-6.2-8.5-6.4C1291.2,687.1,1288.7,689.3,1288.5,693.9z
	 M1293.1,712.1c-0.1-5.1-3.6-10.5-6.7-10.4c-5.2,0.2-5.8,4.6-7.2,8.2c-0.1,0.3-0.2,0.6-0.2,1c-0.2,3.4,0.7,5.7,4.8,4.4
	c1.6-0.5,3.2-0.4,4.8,0.1C1292,716.5,1293.1,714.6,1293.1,712.1z"/>
<path class="st3" d="M1260.1,677.2c0.2-2,2-2.6,3.3-3.3c15.1-7.7,30.3-7.7,45.3,0.1c1.2,0.6,3.3,1.3,2.9,3c-0.5,1.8-2.6,0.9-3.9,0.9
	c-14.6,0.1-29.3,0.1-43.9,0C1262.6,677.8,1261.2,678.4,1260.1,677.2z"/>
<path class="st3" d="M1304.2,709.3c2.8,10.9-1.8,18.1-9.2,24.1c-3.5,2.9-16.3,1.7-19.6-1.5c-5.7-5.3-9.7-11.3-8.4-19.6
	c0.1-0.7-0.4-1.8,0.7-2c1.3-0.2,1.7,0.8,1.8,1.8c0.1,1.7,0,3.3,0,5c0,4.6,1.8,7.8,6.8,8c1.9,0.1,2.7,0.8,2.5,2.7
	c-0.2,1.9,0.9,2.2,2.4,2.2c1.5,0,2.6-0.3,2.5-2.2c-0.1-1.4,0-2.6,2-2.6c1.8,0,2.9,0.6,2.8,2.5c-0.1,1.7,0.7,2.3,2.4,2.3
	c1.8,0,2.4-0.7,2.3-2.4c-0.1-1.7,0.8-2.1,2.3-2.5c6.1-1.4,7.2-3,7.3-9.2C1302.8,714,1302,711.7,1304.2,709.3z"/>
<path class="st3" d="M1264.7,667c0.4-0.5,0.6-1.1,1.1-1.6c9.1-9.4,35-8.6,41.9,2.2c-14.7-5.3-28.7-5.1-42.6-0.3
	C1264.9,667.2,1264.8,667.1,1264.7,667z"/>
<path class="st3" d="M1310.4,724.7c-2.7-11.4,0.9-21.7,5.1-31.3C1318.4,704.1,1317.2,714.8,1310.4,724.7z"/>
<path class="st3" d="M1316.9,673.2c-2.1-4-3.8-7.2,0.1-9.7c2.2-1.4,3.6,0.9,4.2,2.2C1323.2,669.9,1318.4,670.2,1316.9,673.2z"/>
<path class="st3" d="M1255.1,673.1c-1-3-6.4-3.1-4.2-7.5c0.6-1.2,1.8-3.6,4.2-2C1259.3,666.5,1257.1,669.6,1255.1,673.1z"/>
<path class="st3" d="M1262.3,716.6c0.2,8.5-7,6.3-9.7,9.7c-0.3-0.4-0.6-0.8-0.9-1.2C1254.9,722.5,1258.2,719.9,1262.3,716.6z"/>
<path class="st3" d="M1238.3,651.7c-1.4-0.2-2.2-1-2.2-2.3c0-1.3,0.8-2.2,2.2-2.2c1.6,0,2.5,0.8,2.4,2.5
	C1240.6,651.1,1239.5,651.5,1238.3,651.7z"/>
<path class="st3" d="M1332.6,647.1c2.3,0.1,3.1,0.7,3.2,2.1c0.1,1.6-0.8,2.5-2.3,2.4c-1.3-0.1-2.2-0.9-2.1-2.3
	C1331.5,648.1,1332,647.1,1332.6,647.1z"/>
<path class="st3" d="M1310.4,660.5c1,0.4,2,0.8,3,1.3c-0.4,0.5-0.6,1.3-1.1,1.4c-1.6,0.6-2.1-0.8-2.8-1.8
	C1309.8,661.1,1310.1,660.8,1310.4,660.5z"/>
<path class="st3" d="M1262.4,662.4c-0.4,0.2-1,0.8-1.8,1c-0.9,0.2-1.5-0.5-1.7-1.3c-0.3-1,0.7-0.9,1.2-0.9
	C1260.9,661.1,1261.7,660.6,1262.4,662.4z"/>
<path class="st3" d="M1308.5,667.6c-0.1,0.1-0.2,0.3-0.3,0.2c-0.1,0-0.2-0.2-0.3-0.3c0.1-0.1,0.2-0.3,0.3-0.2
	C1308.3,667.3,1308.4,667.5,1308.5,667.6z"/>
<path class="st3" d="M1265,667.3c-0.2,0.5-0.6,0.9-0.9,0.4c-0.4-0.5,0.2-0.7,0.6-0.8C1264.8,667.1,1264.9,667.2,1265,667.3z"/>
<path class="st3" d="M1233.5,540.6c0,6,0.1,11.9,0,17.9c-0.1,5.3-2.3,7.9-6.2,8c-4.3,0.1-6.5-2.6-6.5-8.1c0-11.8,0-23.5,0-35.3
	c0-5.7,2.1-8.3,6.3-8.3c4.1,0,6.3,2.7,6.4,8.3C1233.6,529,1233.5,534.8,1233.5,540.6z"/>
<path class="st3" d="M1263.6,540.5c0-6-0.1-11.9,0-17.9c0.1-5.3,2.3-7.9,6.3-7.8c4.7,0.1,6.3,3.3,6.3,7.3c0.1,12.4,0.1,24.8,0,37.2
	c0,4.1-1.9,7.1-6.6,7c-4.4-0.2-5.9-3.2-6-7C1263.5,553.1,1263.6,546.8,1263.6,540.5z"/>
<path class="st3" d="M1104.9,540.6c0,6.1,0,12.2,0,18.4c0,4.1-1.4,7.3-6.1,7.4c-4.7,0.1-6.5-3.1-6.6-7.1c-0.1-12.4-0.1-24.8,0-37.2
	c0-4.1,1.8-7.3,6.5-7.1c4.6,0.1,6.2,3.2,6.2,7.3C1104.9,528.4,1104.9,534.5,1104.9,540.6z"/>
<path class="st3" d="M1319,541c0,6.3,0,12.6,0,18.9c0,3.9-1.9,6.4-5.9,6.6c-4.4,0.2-6.5-2.4-6.5-6.4c-0.1-12.9-0.1-25.8,0-38.7
	c0-3.8,2.1-6.3,6.2-6.3c4.4,0,6.2,2.7,6.3,6.7C1319.1,528.1,1319,534.5,1319,541C1319,541,1319,541,1319,541z"/>
<path class="st3" d="M1177.8,540.5c0-6-0.1-11.9,0-17.9c0.1-5,2.5-7.8,6.5-7.7c4.7,0.2,6.3,3.4,6.3,7.4c0.1,12.3,0.1,24.5,0,36.8
	c-0.1,5-2.7,7.7-6.8,7.4c-4.7-0.3-6-3.6-6-7.6C1177.8,552.7,1177.8,546.6,1177.8,540.5z"/>
<path class="st3" d="M1147.8,540.2c0,6.1,0.1,12.3,0,18.4c-0.1,5.2-2.3,7.8-6.3,7.9c-4,0.1-6.5-2.6-6.6-7.7
	c-0.1-12.1-0.1-24.2,0-36.3c0.1-5.1,2.6-7.8,6.6-7.7c4,0.1,6.2,2.8,6.3,8C1147.9,528.6,1147.8,534.4,1147.8,540.2z"/>
<path class="st5" d="M380.9,691.2c-2.5-0.8-7.3,2.3-7.1-4.5c0.1-4.2,1.3-5.7,5.4-5.1c1.6,0.2,3.3,0.1,5,0c3.3,0,6.3,0,6.3,4.8
	c0,4.8-2.8,4.9-6.2,4.8C383.3,691.2,382.3,691.2,380.9,691.2z"/>
<path class="st5" d="M344,692.1c-2.8-0.5-7.2,1.9-7-4.6c0.1-4.8,1.4-6.6,6.1-5.8c1.1,0.2,2.3,0.1,3.5,0c3.7-0.1,6.9-0.1,6.9,5.2
	c0,5.2-2.9,5.5-6.7,5.3C345.9,692.1,345.1,692.1,344,692.1z"/>
<path class="st2" d="M161.9,689.2c0.9,0.1,2.2-0.1,1.9,1.4c-0.4,1.7-0.8,3.7-3.4,3.3c-0.9-0.1-2.3,0.2-1.9-1.4
	C158.9,690.8,159.3,688.8,161.9,689.2z"/>
<path class="st4" d="M1283.7,694.5c-0.1,4.4-3.1,7.3-7.8,7.2c-5.4-0.1-9-3.5-9-8.6c0-4,3-5.9,9.2-5.8
	C1281.1,687.2,1283.8,689.8,1283.7,694.5z M1275.3,692c-1.2,0.3-3.3-0.6-3.3,1.7c0,2.2,1.5,3,3.6,3.1c1.9,0.1,3.2-0.6,3.2-2.7
	C1278.9,691.5,1276.9,692.1,1275.3,692z"/>
<path class="st4" d="M1288.5,693.9c0.2-4.7,2.7-6.9,7.9-6.8c6.4,0.1,8.7,1.8,8.5,6.4c-0.2,5.2-3.8,8.3-9.3,8.1
	C1290.9,701.5,1288.4,698.7,1288.5,693.9z M1296.9,692.1c-2.2-0.3-3.8,0.2-3.6,2.4c0.1,1.8,1.4,2.5,3.1,2.4c1.8-0.1,3.4-0.6,3.6-2.6
	C1300.3,691.4,1297.9,692.4,1296.9,692.1z"/>
<path class="st4" d="M1293.1,712.1c0,2.4-1.1,4.3-4.5,3.2c-1.6-0.5-3.2-0.7-4.8-0.1c-4.1,1.4-5-1-4.8-4.4c0-0.3,0.1-0.7,0.2-1
	c1.4-3.6,2-8,7.2-8.2C1289.5,701.7,1293,707,1293.1,712.1z"/>
<path class="st3" d="M1275.3,692c1.7,0,3.6-0.5,3.6,2.1c0,2.1-1.3,2.8-3.2,2.7c-2.1-0.1-3.6-0.9-3.6-3.1
	C1272,691.4,1274.1,692.4,1275.3,692z"/>
<path class="st3" d="M1296.9,692.1c1.1,0.3,3.4-0.7,3.1,2.2c-0.2,2.1-1.8,2.5-3.6,2.6c-1.7,0.1-3-0.6-3.1-2.4
	C1293.1,692.2,1294.6,691.8,1296.9,692.1z"/>
</svg>
