<?xml version="1.0" encoding="utf-8"?>
<!-- Generator: Adobe Illustrator 25.0.1, SVG Export Plug-In . SVG Version: 6.00 Build 0)  -->
<svg version="1.1" id="Layer_1" xmlns="http://www.w3.org/2000/svg" xmlns:xlink="http://www.w3.org/1999/xlink" x="0px" y="0px"
	 viewBox="0 0 1920 625" style="enable-background:new 0 0 1920 625;" xml:space="preserve">
<style type="text/css">
	.st0{fill:#CECECE;}
	.st1{fill:#1A1A1A;}
	.st2{fill:#050505;}
	.st3{fill:#FDFDFD;}
	.st4{fill:#FCFCFC;}
	.st5{fill:#020202;}
	.st6{fill:#D12028;}
</style>
<path class="st0" d="M0.1,2.5c0.4-0.6-1-2.1,1-2c1.1,0.1,2.3,0,3.4,0c637,0,1274,0,1911.1,0.1c1.3,0,4.5-2.4,4.4,1.8
	c-0.3,0.1-0.7,0.1-1,0.2c-1.8-0.1-3.6-0.3-5.3-0.3c-635.7,0-1271.5,0-1907.2,0c-1.8,0-3.6,0.1-5.3,0.2C0.8,2.5,0.4,2.5,0.1,2.5z"/>
<path class="st0" d="M1920,623.8c-0.2,0.3,0.5,1-0.5,1c-1.3,0-2.6,0-3.9,0c-637,0-1274,0-1911.1-0.1c-1.4,0-3.3,1.1-4.4-0.9
	c0.3-0.1,0.7-0.1,1-0.2c1.8,0.1,3.6,0.2,5.4,0.2c635.7,0,1271.4,0,1907.1,0c1.8,0,3.6-0.1,5.3-0.2
	C1919.3,623.6,1919.6,623.7,1920,623.8z"/>
<path class="st1" d="M1920,623.8c-0.3-0.1-0.7-0.2-1-0.2c0-207,0-413.9,0-620.9c0.3-0.1,0.7-0.1,1-0.2
	C1920,209.6,1920,416.7,1920,623.8z"/>
<path class="st1" d="M1.1,623.6c-0.3,0.1-0.7,0.1-1,0.2c0-207.1,0-414.2,0-621.3c0.3,0,0.7,0.1,1,0.1C1.1,209.6,1.1,416.6,1.1,623.6
	z"/>
<path class="st2" d="M1.1,623.6c0-207,0-414,0-621c1.8-0.1,3.6-0.2,5.3-0.2c635.7,0,1271.5,0,1907.2,0c1.8,0,3.6,0.2,5.3,0.3
	c0,207,0,413.9,0,620.9c-1.8,0.1-3.6,0.2-5.3,0.2c-635.7,0-1271.4,0-1907.1,0C4.7,623.7,2.9,623.6,1.1,623.6z M748.7,241.9
	c245.8,0,491.5,0,737.3,0.1c4.3,0,5.7-0.8,5.7-5.5c-0.2-74.2-0.2-148.3,0-222.5c0-4.3-0.9-5.6-5.5-5.6c-491.3,0.1-982.7,0.1-1474,0
	c-4.2,0-5.4,0.8-5.4,5.2c0.2,74,0.2,148,0,222c0,4.9,0.9,6.4,6.2,6.4C258.2,241.9,503.5,241.9,748.7,241.9z M748.6,617.2
	c245.9,0,491.8,0,737.7,0.1c4.1,0,5.4-0.7,5.4-5.2c-0.2-65.9-0.2-131.8,0-197.7c0-4.8-1.3-5.7-5.9-5.7
	c-491.2,0.1-982.3,0.1-1473.5,0c-4.4,0-5.5,1-5.5,5.5c0.2,65.7,0.2,131.5,0,197.2c0,5,1.3,5.9,6.1,5.9
	C258.1,617.2,503.3,617.2,748.6,617.2z M749.5,248.4c-245.6,0-491.2,0-736.8-0.1c-5,0-6,1.3-5.9,6.1c0.2,47.7,0.2,95.4,0,143.1
	c0,4,1,5,5,5c491.5-0.1,983-0.1,1474.5,0c4.4,0,5.3-1.2,5.3-5.4c-0.2-47.6-0.2-95.1,0-142.7c0-5.2-1.5-6.2-6.4-6.2
	C1240,248.4,994.7,248.4,749.5,248.4z M1705.7,402.4c67.2,0,134.4,0,201.6,0.1c4.5,0,5.9-0.7,5.9-5.6c-0.2-127.7-0.2-255.4,0-383.2
	c0-4.1-0.7-5.4-5.2-5.4c-134.8,0.1-269.5,0.1-404.3,0c-4.9,0-5.7,1.5-5.7,5.9c0.1,127.6,0.1,255.1,0,382.7c0,4.4,1,5.5,5.5,5.5
	C1570.9,402.4,1638.3,402.4,1705.7,402.4z M1705.5,617.2c67.5,0,135.1,0,202.6,0.1c3.9,0,5.1-0.7,5.1-4.9
	c-0.2-66.2-0.1-132.4,0-198.7c0-4-0.9-5-5-5c-135.1,0.1-270.2,0.1-405.3,0c-4.3,0-4.9,1.3-4.9,5.1c0.1,66.1,0.1,132.1,0,198.2
	c0,4.3,1,5.3,5.3,5.3C1570.7,617.2,1638.1,617.2,1705.5,617.2z"/>
<path class="st3" d="M748.7,241.9c-245.3,0-490.5,0-735.8,0.1c-5.2,0-6.2-1.5-6.2-6.4c0.2-74,0.2-148,0-222c0-4.4,1.2-5.2,5.4-5.2
	c491.3,0.1,982.7,0.1,1474,0c4.6,0,5.5,1.3,5.5,5.6c-0.1,74.2-0.1,148.3,0,222.5c0,4.6-1.4,5.5-5.7,5.5
	C1240.2,241.9,994.5,241.9,748.7,241.9z M408,138.9c10.3,0,19.7,0.2,29-0.1c8.7-0.3,12.9-4,13.6-12.6c0.6-7.4,0.4-14.9,0.3-22.4
	c-0.1-7.1,0.6-14.3-0.5-21.4c-0.8-5.6-4.1-9.1-9.6-10.2c-2.5-0.5-5.1-0.7-7.7-0.7c-25.9-0.1-51.7,0.1-77.6-0.1
	c-4.1,0-4.7,1.3-4.7,4.9c0.1,35.7,0.1,71.4,0.1,107c0,8.3,0,8.2,8.5,8.3c3.1,0,4.1-0.6,4.1-3.9c-0.2-12.6-0.1-25.3-0.1-38
	c0-10.8,0-10.2,10.8-10.9c11.5-0.8,20.1,1.3,27.7,11.6c10.5,14.3,24.8,25.5,35.8,39.5c0.8,1.1,1.9,1.7,3.3,1.6c4.5-0.1,9,0,14.6,0
	C440.4,173.1,422.8,157.9,408,138.9z M147.3,139.6c1.8-1,3.4-0.5,4.9-0.5c8-0.1,16,0.1,23.9-0.2c8.3-0.3,13.1-4.6,13.3-12.5
	c0.3-14.1,0.3-28.2,0-42.3c-0.1-6.8-4-10.7-10.7-12c-2.4-0.5-4.9-0.5-7.3-0.5c-25.7,0-51.4,0.1-77.1-0.1c-3.6,0-4.5,0.8-4.5,4.5
	c0.2,36,0.1,72.1,0.1,108.1c0,7.7,0,7.4,7.5,7.7c4.1,0.2,5.1-1.2,5-5.1c-0.3-14.6,0-29.2-0.2-43.8c0-3,0.8-3.9,3.8-3.8
	c5.4,0.2,10.8,0.7,16.1-0.1c7.4-1.1,11.6,2.9,15.2,8c1.1,1.6,2.3,3,3.6,4.4c11.7,13,24.6,24.9,35.6,38.5c0.9,1.1,1.7,1.8,3.2,1.8
	c4.5-0.1,9,0,14.7,0C179.1,173,161.5,157.9,147.3,139.6z M205.8,191.6c3.8,0,7.3-0.1,10.9,0c1.8,0,2.6-0.8,3.2-2.3
	c3.7-9.5,8.9-18.3,13.2-27.5c1.1-2.3,2.3-3.3,5.1-3.3c20,0.2,40,0.1,60,0c2.6,0,4.1,0.7,5.2,3.1c4.1,9.1,8.5,18.1,12.7,27.2
	c0.7,1.6,1.3,2.8,3.4,2.7c3.8-0.1,7.7,0,11.9,0c-0.9-2.4-1.4-4.2-2.2-6c-6.3-13.8-13-27.4-19.2-41.3c-9.6-21.7-20.2-43-29.8-64.7
	c-2.8-6.4-6.1-9.3-13.2-8.3c-3,0.4-4.8,0.9-6.2,3.9c-5.2,11.1-10.6,22.1-15.9,33.2c-10.6,22.7-21.8,45.1-32.6,67.7
	C209.9,181,206.9,185.6,205.8,191.6z M752.2,71.5c-3.3,0-5.6,0.3-7.8-0.1c-4.9-0.7-8,1.4-10.9,5.2c-12,15-24.5,29.7-36.5,44.8
	c-2.6,3.3-3.6,2.6-5.8-0.2c-12-15.5-24.1-30.9-36.3-46.2c-1.1-1.4-1.8-3.5-4.3-3.4c-4.5,0.1-9,0-14.3,0c1.4,1.7,2.3,2.8,3.1,3.9
	c15.3,18.8,30.6,37.7,46,56.5c1.7,2.1,2.5,4.2,2.5,7c-0.1,14.9-0.1,29.8-0.1,44.7c0,8,0,7.9,8.3,8.1c3.4,0.1,4.4-0.7,4.3-4.2
	c-0.2-16.2-0.1-32.4-0.1-48.6c0-2.1,0.1-4,1.6-5.8c8.4-10.2,17-20.3,25.1-30.9C734.7,91.9,743.2,82.3,752.2,71.5z M571.8,71.5
	c-15.9,0-31.9,0-47.8,0c-6.6,0-6.3,0-6.6,6.7c-0.1,3.5,0.7,4.7,4.5,4.6c12.4-0.3,24.7-0.1,37.1-0.1c6.7,0,6.7,0,6.7,6.6
	c0,32.6,0.1,65.2-0.1,97.9c0,3.7,1,5.1,4.6,4.4c0.3-0.1,0.6,0,1,0c7,0,7,0,7-6.7c0-32.1,0.1-64.3-0.1-96.4c0-4.5,0.7-6.1,5.7-5.9
	c11.9,0.4,23.8,0.1,35.6,0.1c7.3,0,7.1,0,7.3-7.1c0.1-3.7-1.4-4.1-4.5-4.1C605.4,71.5,588.6,71.5,571.8,71.5z M482.2,131
	c0,19,0.1,37.9-0.1,56.9c0,2.9,0.6,4.3,3.7,3.8c1.1-0.2,2.3-0.2,3.4,0c4.1,0.7,5.4-0.6,5.4-5.1c-0.2-35.6-0.1-71.3-0.1-107
	c0-8.2,0-7.9-8-8.2c-4-0.2-4.4,1.4-4.3,4.7C482.3,94.3,482.2,112.7,482.2,131z"/>
<path class="st3" d="M748.6,617.2c-245.3,0-490.5,0-735.8,0.1c-4.7,0-6.1-0.9-6.1-5.9c0.2-65.7,0.2-131.5,0-197.2
	c0-4.5,1.1-5.5,5.5-5.5c491.2,0.1,982.3,0.1,1473.5,0c4.6,0,5.9,0.9,5.9,5.7c-0.2,65.9-0.2,131.8,0,197.7c0,4.4-1.2,5.2-5.4,5.2
	C1240.4,617.2,994.5,617.2,748.6,617.2z M128.2,556.3c0,3.7,0.2,7.5-0.1,11.2c-0.3,3.6,0.6,5.2,4.7,4.9c5-0.4,10-0.1,15.1-0.1
	c6.2,0,6.7-0.4,6.5-6.7c-0.1-3.4,0.5-6.7-1.2-10.3c-0.8-1.8,0.7-6,0.8-9.1c0.1-3.5-1.2-5.5-5.1-5.4c-5.8,0.2-11.7,0.2-17.5,0
	c-2.7-0.1-3.3,1-3.2,3.4C128.4,548.2,128.2,552.2,128.2,556.3z M772.2,549.8c0,6.1-0.1,12.2,0.1,18.3c0.1,1.6-1.4,4.6,1.5,4.7
	c3.2,0.1,1.6-2.9,1.7-4.5c0.2-7.4,0.2-14.9,0-22.4c0-1.5,1.3-3.8-1.3-4.5c-2.3-0.6-2.9,1.5-3.8,3c-3.4,5.6-6.9,11.2-10.6,17.2
	c-3.8-6.3-7.3-11.9-10.7-17.5c-0.9-1.5-1.7-3.5-4-2.7c-2.1,0.7-1.1,2.8-1.1,4.3c-0.1,7.8-0.1,15.6,0,23.3c0,1.3-1.1,3.7,1.5,3.8
	c2.8,0.1,1.7-2.3,1.7-3.6c0.1-6.7,0.1-13.4,0.1-21.3c4.9,7.2,8.8,13.4,12.4,20.7C763.3,561.7,766.9,555.5,772.2,549.8z M969.1,573
	c16.2-0.4,13.3,2.8,13.6-14c0-0.2,0-0.3,0-0.5c0.1-2.7-1.1-3.8-3.8-3.7c-4.2,0.1-8.5,0-12.7,0c-7.4,0-7.3,0-6.8-7.5
	c0.1-2.1,0.8-2.9,2.8-2.8c4.1,0.1,8.1,0,12.2,0c2.1,0,4.9-0.8,4.4,3.1c-0.1,0.8,0.3,1.3,1.1,1.3c0.8,0,1.6-0.1,2.1-0.9
	c1.6-2.5-0.2-6.4-3.2-6.5c-6.3-0.2-12.7-0.1-19,0c-2.3,0-3.7,0.9-3.7,3.4c0.3,15.4-2.3,12.8,11.6,13.1c1,0,2,0,2.9,0
	c9.5,0,9.4,0,8.9,9.4c-0.1,2.2-0.8,2.8-2.8,2.7c-5-0.1-10.1-0.1-15.1,0c-1.5,0-2.5-0.2-2.5-2c0-1.1,0.7-2.9-1.7-2.5
	c-1.7,0.4-1.6,1.7-1.7,3.1c-0.2,3,0.8,4.6,4.1,4.5C962.9,572.9,966,573,969.1,573z M1423.5,536.4c-2.9,0-5.8,0-8.8,0
	c-2.9,0-4.8,1.3-4.5,4.4c0.7,7.1-0.5,14.1-0.6,21.2c-0.1,4.3,1.6,6.3,6,6.1c5-0.1,10.1,0,15.1,0c5.9,0,6.2-0.9,6.8-6.8
	c0.5-5-1.4-9.6-0.8-14.7c1.1-10,0.6-10.2-9.7-10.2C1425.8,536.4,1424.6,536.4,1423.5,536.4z M386.4,558.8c1.9-1.2,3.7-0.5,5.4-0.7
	c2.4-0.2,5-0.8,4.6-3.8c-0.5-4.4,2.3-9.4-2.1-13.2c-0.4-0.4-1.2-0.3-1.9-0.3c-6.5,0-13,0-19.5-0.1c-1.9,0-2.6,0.6-2.6,2.5
	c0.1,8.8,0,17.5,0,26.3c0,1.3-0.2,2.7,1.8,2.6c2.1-0.1,1.6-1.7,1.6-2.8c0.1-2.1-0.1-4.2,0.1-6.3c0.2-1.6-1.1-4.1,1.1-4.6
	c2.4-0.6,5.2-1.2,7.3,1.1c1.3,1.4,2.4,3.1,3.6,4.4c3.1,3.2,4.9,8.6,11.7,8.2C393.4,567.5,389.5,563.6,386.4,558.8z M949,572.5
	c-3.8-4.4-8.4-8-10.8-13.8c2.3,0,4.2,0,6.2,0c1.8,0,3.6-0.7,3.7-2.5c0.3-4,0.3-8.1,0-12.1c-0.2-2-2.1-2.7-4.1-2.7
	c-6.3,0-12.7,0-19-0.1c-1.7,0-2.8,0.3-2.8,2.4c0.1,9.1,0,18.1,0,27.2c0,1,0.1,2,1.5,2.1c1.5,0.1,2-0.8,2-2.1c0-2.6-0.1-5.2,0.1-7.8
	c0.1-1.4-1-3.7,1.1-4.2c2.1-0.5,4.5-1,6.5,0.6c1,0.8,2,1.7,2.6,2.8c1.9,3.5,5.1,5.7,7.5,8.8C944.7,572.9,946.3,573.5,949,572.5z
	 M706,557.2c0,3.7,0.1,7.5,0,11.2c-0.2,3.3,0.9,4.8,4.4,4.7c6.7-0.2,13.3-0.1,20,0c3,0,4.4-0.9,4.4-4.2c-0.2-7.8-0.1-15.5,0-23.3
	c0-2.9-1-4.2-3.9-4.2c-7,0.1-14,0-21,0c-2.9,0-4,1.3-3.9,4.2C706.1,549.5,706,553.4,706,557.2z M687.9,559.3
	c10.2-1.5,10.2-1.5,10.1-11.9c0-0.5,0-1,0-1.5c0.1-3.1-1.5-4.5-4.5-4.5c-6.3,0-12.7,0-19,0c-1.4,0-2.5,0.1-2.5,2
	c0,9.2,0,18.5,0,27.7c0,1,0.1,1.9,1.5,1.9c1.2,0,1.7-0.6,1.8-1.8c0-2.6-0.1-5.2,0.1-7.8c0.1-1.5-0.8-3.8,1-4.4
	c2.2-0.7,4.8-1.1,7,0.6c1,0.8,2.1,1.7,2.6,2.8c1.7,3.7,5,5.9,7.5,8.8c1.3,1.5,2.8,2.6,5,0.9C694.9,568,690.7,564.5,687.9,559.3z
	 M591.9,566.7c-0.3,0.1-0.6,0.2-1,0.2c-0.8-1.2-1.6-2.4-2.5-3.5c-5.8-7-11.5-14-17.3-21c-0.8-1-1.9-1.3-3.1-1
	c-1.2,0.2-1.4,1.2-1.4,2.2c0,9.1,0,18.2,0,27.2c0,1.3,0.4,2.2,1.9,2.1c1.7-0.1,1.6-1.2,1.6-2.4c0-4.9-0.1-9.7,0-14.6
	c0.1-2.7-0.7-5.6,0.6-8.4c7.3,7.4,12.9,15.8,19.3,23.4c0.9,1.1,1.9,2.4,3.6,1.9c2.1-0.5,1.2-2.4,1.3-3.7c0.1-8.3,0.1-16.5,0-24.8
	c0-1.4,0.5-3.3-1.9-3c-2,0.2-1.3,1.9-1.3,3.1C591.9,551.9,591.9,559.3,591.9,566.7z M821.5,546.6c1.3,1.4,2,2.1,2.6,2.8
	c5.7,7,11.3,14.1,17,21.1c1.1,1.4,2.1,3.1,4.3,2.4c2.2-0.7,1.2-2.7,1.2-4.2c0.1-6.8,0.2-13.6,0-20.4c-0.1-2.3,1.7-6.6-1.4-6.6
	c-3.7,0-1.7,4.3-1.8,6.7c-0.3,6-0.1,12-0.1,19.2c-1.7-1.8-2.5-2.4-3-3.2c-4.9-7.8-11.7-14.2-17.4-21.4c-1-1.3-2.3-2-3.8-1.4
	c-1.3,0.5-0.9,1.9-0.9,3c0,8.4,0,16.8,0,25.3c0,1.2-0.8,3.3,1.7,3.2c2.4-0.1,1.5-2.1,1.5-3.3C821.5,562.4,821.5,555.1,821.5,546.6z
	 M305.4,546.6c2.8,1.6,4,3.8,5.5,5.6c4.9,6,9.8,12,14.6,18.1c1,1.2,1.9,2.1,3.6,1.9c1-0.1,1.3-0.6,1.3-1.6c0-9.4,0-18.8,0-28.2
	c0-1.3-0.7-1.6-1.8-1.6c-1.5,0-1.4,1-1.4,2c0,1.3,0,2.6,0,3.9c0,6.5,0,13,0,20.3c-1.1-1.1-1.6-1.3-1.8-1.7
	c-5.2-8.3-12.3-15-18.3-22.6c-1.1-1.4-2.3-2.4-4.1-1.7c-1.9,0.7-0.9,2.6-0.9,3.8c-0.1,7.8-0.1,15.6,0,23.4c0,1.4-1.3,4.1,1.8,4
	c2.6-0.1,1.5-2.5,1.5-3.8C305.4,561.2,305.4,554.2,305.4,546.6z M209.7,558.6c10.4-1.3,10.4-1.3,10.2-11.6c0-0.6,0-1.3,0-1.9
	c0-2.8-1.4-4.2-4.2-4.2c-6.3,0-12.7,0-19,0c-1.3,0-2.7-0.2-2.7,1.8c0,9.2,0,18.5,0,27.7c0,1.1,0.3,1.8,1.6,1.9
	c1.7,0.1,1.7-1.1,1.7-2.2c0-2.4-0.1-4.9,0-7.3c0.1-1.5-1.1-3.8,0.9-4.3c2.2-0.5,4.9-1.1,7,0.7c1.2,1.1,2.6,2.1,3.3,3.5
	c1.6,3.1,4.4,5.1,6.5,7.8c1.4,1.8,3.1,2.5,5.5,1.1c-2-2.1-4-4-5.7-6C213.1,563.5,211.6,561.2,209.7,558.6z M1315.1,568.1
	c3.2,0,6.5,0,9.7,0c1.7,0,3.6-0.1,3.9-2.1c0.3-2,0.1-4.1-0.1-6.2c0-0.4-1.4-0.7-2.1-0.8c-0.3,0-0.9,1-0.8,1.5
	c0.8,4.8-2.2,4.7-5.6,4.5c-2.3-0.1-4.6,0.1-6.8-0.1c-1.3-0.1-3.2,0.8-3.9-0.8c-0.8-1.8,1.3-2.4,2.3-3.2c3.3-2.8,6.5-5.9,10.3-8.1
	c5.2-3.1,5.9-7.4,5.5-12.7c-0.2-2.4-1-3.6-3.4-3.6c-5.5,0-11,0-16.6,0c-1.6,0-3.2,0.4-3.4,2.1c-0.3,2.3-0.8,4.8,0.3,7.1
	c0.2,0.4,1.2,0.6,1.8,0.5c1-0.1,1.2-1,1-1.9c-1-5.2,2.4-4.8,5.8-4.7c2.9,0.1,5.8,0,8.8,0c0.9,0,2.3-0.4,2.3,1
	c-0.1,2.7,1.3,5.7-1.8,8c-5.3,4-10.4,8.3-15.6,12.4c-1.4,1.1-2.5,2.3-3.3,4c-0.9,2.2-0.7,3.3,2,3.3
	C1308.6,568,1311.9,568.1,1315.1,568.1z M417.5,572.2c14.1,0,14,0,13.6-13.9c-0.1-3.3-1.3-4.2-4.4-4.1c-5.2,0.1-10.4-0.1-15.6,0.1
	c-5,0.2-3.2-3.4-3.3-5.7c-0.1-2.1-1.2-5.1,3.1-4.8c4.4,0.3,8.8,0.1,13.2,0c2,0,3.6,0.1,3.3,2.8c-0.1,0.8,0.2,1.8,1.2,1.6
	c0.7-0.1,1.6-0.5,2-1.1c1.5-2.5-0.5-6.2-3.5-6.3c-3.7-0.1-7.5-0.1-11.2,0c-13.3,0.2-11.2-1.9-11.4,11.7c0,0.3,0,0.6,0,1
	c-0.2,2.7,1.3,3.8,3.8,3.8c3.7,0,7.5,0,11.2,0c8.7,0,8.6,0,8.4,8.8c-0.1,2.2-0.3,3.2-2.9,3.1c-5-0.2-10.1-0.1-15.1,0
	c-1.8,0-2.7-0.3-2.5-2.4c0.1-0.7,0.6-2.2-1-2.1c-1.1,0.1-2.1,0.5-2.2,2.1c-0.2,3.3,0.2,5.8,4.6,5.4
	C411.6,572,414.5,572.2,417.5,572.2z M859,557.8c0-4,0.1-7.3,0-10.5c-0.1-2.1,0.7-2.8,2.8-2.8c4.2,0.1,8.5,0.2,12.7,0
	c3.4-0.2,5.9,0.2,5.1,4.5c-0.2,0.8,0,1.8,1,1.9c0.7,0.1,1.6,0,2.1-0.8c2.1-3.5-0.5-8.6-4.7-8.6c-6-0.1-12,0-18.1,0
	c-3,0-4.5,1-4.5,4.2c0.1,7.6,0.1,15.2,0,22.9c0,3.3,1.3,4.7,4.7,4.6c5.4-0.1,10.7,0,16.1,0c6.5,0,7.2-0.8,6.6-7.4
	c-0.1-1.4,0.2-3.3-2-3.2c-2,0.1-1.3,2-1.2,3c0.4,3.7-1,5.1-4.6,4.5c-1-0.2-2,0-2.9,0c-4.2-0.2-9.6,1.8-12.2-0.8
	C857.2,566.6,859.4,561.2,859,557.8z M63.4,556.2c0,3.9,0.1,7.8,0,11.7c-0.1,3.1,1,4.4,4.2,4.3c5.4-0.2,10.7,0,16.1-0.1
	c6.8,0,7.1-0.4,6.8-7.1c-0.1-1.5,0-3.2-2-3.3c-2.6,0-1.3,2.3-1.2,3.2c0.3,3.4-0.7,4.5-4.2,4.3c-4.5-0.3-9.1-0.2-13.7,0
	c-2.4,0.1-3-0.8-3-3c0.1-6.5,0.1-13,0-19.5c0-2.3,0.5-3.2,3-3.1c4.4,0.2,8.8,0.2,13.2,0c3.3-0.2,5.4,0.3,4.6,4.3
	c-0.1,0.7-0.4,1.8,0.7,2c0.7,0.1,2-0.2,2.2-0.6c0.8-2.2,0.5-4.4,0.1-6.7c-0.4-1.9-2-1.9-3.5-1.9c-6.5,0-13,0-19.5,0
	c-2.6,0-3.9,1-3.8,3.7C63.5,548.5,63.4,552.4,63.4,556.2z M267.7,545.6c1.6,1.7,2.4,2.6,3.2,3.6c5.7,7,11.4,14,17,21.1
	c1.1,1.4,2.3,2.3,4.1,1.8c1.7-0.6,0.9-2.2,0.9-3.3c0.1-8.1,0.1-16.2,0-24.3c0-1.2,1-3.3-1.3-3.5c-2.8-0.2-1.8,2.1-1.8,3.5
	c-0.1,7.2,0,14.4,0,21.4c-1.4,0.4-1.7-0.2-2-0.7c-5.3-8.2-12.4-15-18.4-22.6c-1-1.3-2.1-2.1-3.7-1.6c-1.9,0.5-1,2.1-1,3.3
	c-0.1,8.3-0.1,16.5,0,24.8c0,1.2-1,3.3,1.6,3.1c2.4-0.2,1.3-2.2,1.4-3.4C267.8,561.4,267.7,554.1,267.7,545.6z M604.3,557
	c0,4.4,0,8.8,0,13.1c0,1.4-0.3,3,2,3c6.7-0.1,13.3,0,20,0c1,0,2-0.1,2.1-1.4c0.1-1.7-1.1-1.7-2.3-1.7c-3.3,0-6.5,0-9.8,0
	c-9.5,0-9.4,0-8.9-9.7c0.1-2.1,0.7-2.8,2.8-2.7c2.8,0.1,5.5,0.1,8.3,0c1,0,2.4,0.4,2.5-1.4c0.1-1.8-1.2-1.6-2.3-1.6
	c-2.6,0-5.2-0.3-7.8,0.1c-4.2,0.6-3.6-2.2-3.3-4.5c0.3-2.2-1.9-5.9,3.2-5.7c4.9,0.2,9.8,0.1,14.6,0c1.1,0,2.5,0.3,2.6-1.3
	c0.1-2.1-1.4-1.7-2.7-1.7c-6,0-12,0.1-18-0.1c-2.8-0.1-3.2,1.1-3.1,3.5C604.4,548.8,604.3,552.9,604.3,557z M891.3,556.8
	c0,4.4,0,8.7,0,13.1c0,1.7-0.2,3.2,2.4,3.2c6.5-0.1,13,0,19.5,0c1,0,2,0,2.1-1.3c0.2-1.7-1-1.7-2.2-1.7c-3.1,0-6.2,0-9.3,0
	c-9.9,0-9.8,0-9.3-9.8c0.1-2.2,0.8-2.8,2.8-2.6c1.3,0.1,2.6,0.2,3.9,0c2.3-0.5,6.5,1.6,6.5-1.4c0-3.4-4.1-1.4-6.4-1.5
	c-7.1-0.3-6.9-0.1-6.9-6.9c0-3,1.2-3.4,3.7-3.3c4.7,0.2,9.4,0.1,14.1,0c1.2,0,2.8,0.5,2.8-1.7c-0.1-1.7-1.4-1.4-2.5-1.4
	c-6.2,0-12.3,0.1-18.5,0c-2.1,0-2.9,0.7-2.8,2.8C891.4,548.4,891.3,552.6,891.3,556.8z M662.9,556.9c0-4,0-8.1,0-12.1
	c0-1.3,0.5-3.3-1.8-3.2c-2.3,0.1-1.7,2-1.7,3.3c0,7.1-0.1,14.2,0,21.4c0.1,2.8-0.5,4.1-3.7,3.9c-4.5-0.3-9.1-0.2-13.6,0
	c-2.7,0.1-3.6-0.6-3.5-3.4c0.2-7.4,0.1-14.9,0.1-22.3c0-1.2,0.4-2.8-1.6-2.8c-1.9,0-1.8,1.4-1.8,2.7c0,8.3,0,16.5,0,24.8
	c0,2.7,1.2,4.2,4.1,4.1c6.5-0.1,13-0.1,19.5,0c2.9,0,4.2-1.2,4.1-4.1C662.9,564.9,662.9,560.9,662.9,556.9z M780.5,572.5
	c3,1.5,3.8-0.5,4.9-2.4c1.1-1.9,1.2-5.1,3.7-5.3c5.2-0.4,10.5-0.6,15.5,0.1c2.3,0.3,2.6,4.1,3.9,6.3c0.2,0.3,0.3,0.6,0.5,0.9
	c0.7,1.2,2,1.3,3,0.8c1.2-0.6,0.3-1.6-0.1-2.4c-4-8.8-8-17.6-12-26.4c-0.6-1.3-1-2.7-3-2.6c-1.9,0-2.4,1.4-3,2.7
	C789.5,553.5,785,563,780.5,572.5z M255.5,556.3c0-3.9,0.1-7.8-0.1-11.7c-0.1-1.4,1.1-3.6-1.6-3.8c-2.8-0.1-1.7,2.2-1.7,3.6
	c-0.1,7.1-0.2,14.2,0,21.4c0.1,2.8-0.8,3.6-3.5,3.5c-4.5-0.2-9.1-0.2-13.6,0c-2.9,0.2-3.9-0.5-3.8-3.7c0.3-7.3,0.1-14.6,0.1-21.8
	c0-1.2,0.6-2.8-1.5-2.9c-2.4-0.1-1.9,1.6-1.9,3c0,7.9,0,15.9,0,23.8c0,3.1,0.9,4.8,4.5,4.7c6.3-0.2,12.7-0.2,19,0
	c3.2,0.1,4.3-1.3,4.3-4.3C255.5,564,255.5,560.2,255.5,556.3z M135.8,480.9c0,6.8,0,12.1,0,17.4c0,1.1-0.7,2.9,1.3,3
	c2.5,0.1,1.5-2,1.6-3.2c0.1-6.7,0.1-13.3,0-20c0-1.2,1.1-3.1-1-3.7c-2.1-0.5-2.9,1.3-3.5,2.7c-2.4,5.3-5.5,10.1-8.9,15.4
	c-3.5-5.4-6.8-10.6-9.4-16.1c-0.6-1.2-1.3-2.3-3-2c-2,0.3-1.4,1.9-1.4,3.1c0,6.8-0.1,13.6,0,20.4c0,1.3-0.8,3.4,1.6,3.3
	c2.3-0.1,1.1-2.3,1.2-3.5c0.1-5.2,0.1-10.4,0.1-17.1c4.1,6.4,7.4,11.5,10.8,16.9C128.8,492,131.9,487.1,135.8,480.9z M776.1,501.5
	c14.2-0.4,11.8,2.6,12.2-10.9c0.1-3.1-1.5-3.9-4.1-3.9c-3.6,0-7.2-0.3-10.7,0.1c-3.9,0.4-5.3-0.6-5.2-4.9c0.1-3.9,0.7-5.6,5-5.1
	c3,0.4,6.2,0.1,9.3,0.1c1.3,0,2.6-0.1,2.6,1.9c0,1-1,3.1,1.3,2.8c2.1-0.2,1.3-2.2,1.5-3.5c0.2-2.8-1.2-3.8-3.8-3.6
	c-2.6,0.1-5.2,0-7.8,0c-11.6,0-11.6,0-10.8,11.7c0.2,2.5,1,3.4,3.5,3.4c4.5-0.1,9.1,0.1,13.7-0.1c4.2-0.1,2.5,3,2.5,4.8
	c0,1.8,1.7,4.9-2.5,4.8c-4.1-0.1-8.1,0-12.2,0c-1.4,0-2.6-0.1-2.6-2c0-1.1-0.2-2-1.6-1.6c-1,0.3-1,1.1-1.1,1.9
	c-0.2,2.7,0.5,4.4,3.7,4.2C771.3,501.3,773.7,501.4,776.1,501.5z M728.6,487.9c0-1.3,0-2.6,0-3.9c0-9.6,0-9.7-9.4-9.6
	c-4.8,0.1-11.1-2.1-14.2,0.9c-3.3,3.2-1,9.5-1.1,14.5c-0.2,11.6-0.1,11.6,11.3,11.6C728.6,501.5,728.6,501.5,728.6,487.9z
	 M339.6,556.2c0,4.4,0.1,8.8,0,13.1c0,1.9,0.2,3,2.6,2.9c6.3-0.1,12.7,0,19-0.1c1,0,2.4,0.4,2.5-1.4c0.1-1.8-1.3-1.5-2.4-1.5
	c-5,0-10.1-0.2-15.1,0.1c-2.9,0.1-3.4-0.9-3.4-3.5c0-9-0.1-8.9,7.7-9.1c1.9,0,5.6,1.4,5.6-1.4c0-2.8-3.7-1.3-5.7-1.4
	c-7.9-0.2-7.8-0.1-7.6-7.2c0.1-2.3,0.6-3.1,3-3c5,0.2,10.1,0.1,15.1,0c1.1,0,2.4,0.3,2.5-1.5c0.1-1.8-1.4-1.5-2.4-1.5
	c-6.2,0-12.4,0.1-18.5-0.1c-2.6-0.1-2.9,1.2-2.8,3.2C339.7,548.1,339.6,552.1,339.6,556.2z M566.3,487.6c0,3.4,0.1,6.8,0,10.2
	c-0.1,2.7,1,3.8,3.7,3.7c4.9-0.1,9.8,0,14.6,0c4.5,0,6-2,4.9-6.4c-0.2-0.8-0.4-1.6-1.4-1.7c-1.6-0.2-1.5,1-1.3,1.9
	c0.6,3.7-1.7,3.8-4.4,3.7c-1.3-0.1-2.6,0-3.9,0c-9.5,0-9.6,0-9.4-9.3c0.1-4.1-1.9-9.6,0.9-12c2.4-2,7.7-0.5,11.8-0.8
	c3.3-0.2,5.8,0.1,5,4.5c-0.1,0.8-0.4,2.1,1.1,2.2c1.2,0,1.4-1,1.6-2c1.1-5.3-0.3-7-5.8-7c-1.5,0-2.9,0-4.4,0
	C566.3,474.4,566.3,474.4,566.3,487.6z M749.9,490.9c1.4-1.1,2.8-0.6,4-0.6c2.3,0,4.8-0.4,4.7-3c-0.2-4.2,2-8.8-1.6-12.5
	c-0.4-0.5-1.6-0.4-2.4-0.4c-5.2,0-10.4,0.1-15.6-0.1c-2.2-0.1-2.7,0.8-2.7,2.8c0.1,6-0.2,12,0.2,18c0.1,2-1.8,5.8,1.5,5.9
	c2.8,0,0.7-3.7,1.4-5.7c0.6-1.7-1.3-4.3,1.2-5c2.4-0.6,5-0.7,7,1.9c2.1,2.7,4.7,5,7,7.5c1.3,1.4,2.6,2.2,4.5,0.9
	C755.9,497.3,752.9,494.2,749.9,490.9z M609.8,490.5c9.2-0.5,9.2-0.5,9.2-9c0-1,0-1.9,0-2.9c0.1-2.8-1.2-4.2-4.1-4.1
	c-5,0.1-10.1,0.2-15.1,0c-2.8-0.1-3.2,1-3.2,3.4c0.1,5.8-0.2,11.7,0.2,17.5c0.1,2-1.8,5.8,1.5,5.9c2.8,0,0.6-3.8,1.3-5.7
	c0.6-1.6-1.3-4.3,1.3-4.9c2.4-0.6,5-0.6,6.9,2c2,2.7,4.7,4.9,7,7.5c1.3,1.5,2.6,2.1,4.5,0.9C616.2,497.4,613.3,494.3,609.8,490.5z
	 M1346.3,559.4c4.5,0.4,11.6-2.5,9.7,7.2c-0.2,0.8,0.7,1.4,1.6,1.4c0.9,0,1.5-0.4,1.6-1.4c0-1.1,0.2-2.3,0-3.4
	c-0.3-2.7,0.2-4.4,3.6-3.9c1.1,0.2,2.9,0.5,2.9-1.5c0-2-1.7-1.8-2.8-1.6c-3.3,0.5-3.8-1.1-3.7-3.9c0.2-4,0.1-8.1,0-12.2
	c0-1.3,0.8-3.1-1.3-3.7c-1.4-0.4-2.4,0.6-3.4,1.5c-5.7,5.8-11.4,11.6-17.1,17.4c-0.8,0.8-1.7,1.7-1.3,3c0.6,1.8,2.2,1,3.3,1
	C1341.8,559.5,1343.9,559.4,1346.3,559.4z M636.2,501.4c2.8,0,5.5,0,8.3,0c0.9,0,2.1,0.2,2.1-1.3c0-1.5-1.2-1.2-2.1-1.3
	c-3.6,0-7.2-0.3-10.7,0.1c-4,0.4-5.1-0.9-5.2-5c0-4.2,1.2-5.5,5.2-4.9c1.4,0.2,2.9,0,4.4,0c1.1,0,2.1-0.2,2-1.5
	c-0.1-1.4-1.3-1.2-2.2-1.2c-2.1,0-4.2-0.2-6.3,0c-3.7,0.4-3.1-2.2-2.7-4c0.4-2-2.2-5.7,2.7-5.6c4.1,0.1,8.1,0,12.2,0
	c1,0,2.7,0.5,2.6-1.2c-0.1-1.6-1.7-1.2-2.7-1.2c-4.9,0-9.8,0.1-14.6-0.1c-2.7-0.1-3.3,0.8-3.2,3.3c0.2,4.5,0.1,9.1,0.1,13.6
	C625.8,501.5,625.8,501.5,636.2,501.4z M163.1,555.6c0,5.3,0.1,9.6,0,14c0,1.7,0.2,2.7,2.3,2.6c6.5-0.1,13,0,19.5-0.1
	c0.9,0,2,0.2,2.2-1.2c0.2-1.8-1.1-1.7-2.2-1.7c-3.4,0-6.8,0-10.2,0c-8.6,0-8.5,0-8.5-8.7c0-2.9,0.6-4.2,3.7-3.9
	c2.4,0.3,4.9,0.1,7.3,0c1,0,2.5,0.6,2.6-1.3c0.1-2.1-1.6-1.6-2.8-1.6c-2.3-0.1-4.6-0.3-6.8,0c-5,0.8-3.8-2.7-4-5.4
	c-0.3-3.2,0.1-5.2,4.2-4.8c4.7,0.4,9.4,0.1,14.1,0.1c1.2,0,2.4-0.1,2.2-1.7c-0.1-1.4-1.3-1.2-2.2-1.2c-1.9,0-3.9,0-5.8,0
	c-5,0.1-11.8-1.8-14.6,0.8C160.9,544.5,163.5,551.3,163.1,555.6z M1384,567.6c2,0.8,3.4,0.4,4.2-1.4c3.7-9,8.5-17.4,12.9-26
	c1.2-2.4,0.7-3.9-2.5-3.9c-6,0.2-12.1,0.4-18-0.1c-5-0.4-6.9,1.1-6,6.1c0.3,1.5-0.6,3.6,2,3.6c2.5,0,1.2-2.1,1.4-3.3
	c0.2-1.5-0.3-3.3,2.3-3.2c5.7,0.1,11.3,0,17.5,0C1393.3,549.2,1387.7,557.7,1384,567.6z M107,500.9c-3.6-8.2-7.3-16.4-10.9-24.7
	c-0.5-1.2-1.1-1.8-2.5-1.9c-1.6,0-2.3,1-2.7,2.3c-2.6,7.5-6.9,14.2-10,21.4c-0.4,1-2,2.3-0.2,3.2c1.5,0.7,2.4-0.8,2.7-2
	c1.1-4.6,4.3-5.4,8.4-4.9c1.1,0.1,2.3,0.1,3.4,0c3.7-0.5,6.6,0.3,7.7,4.5C103.4,500.6,104.4,502.3,107,500.9z M677.1,500.1
	c-0.2-0.5-0.4-1-0.6-1.4c-3.3-7.3-7.2-14.4-9.9-22c-0.4-1.2-1-2.3-2.7-2.3c-2,0-2.2,1.6-2.8,2.8c-3.3,7-6.6,14-9.8,21
	c-0.4,0.9-2.2,2.2-0.2,3.1c1.6,0.7,2-1.1,2.7-2.1c1.1-1.6,1.1-5,3.5-4.6c5.8,0.8,13.8-4.2,16.6,5.6c0.1,0.5,0.9,1,1.4,1.1
	C676.2,501.5,677.5,501.8,677.1,500.1z M94.4,541.3c2.6,3.1,4.6,6.1,7.1,8.5c4.9,4.7,6.9,10.1,6.1,16.9c-0.2,1.7-1.8,5.4,1.5,5.3
	c3-0.1,1.6-3.7,1.4-5.5c-0.7-6.5,1.1-11.9,6-16.5c2.7-2.5,4.8-5.7,7.5-9.1c-5.8-0.4-7,4.2-9.3,6.8c-5.8,6.5-5.6,6.6-10.9,0
	c-1.3-1.6-2.8-3.2-3.9-4.9C98.6,540.9,97.1,540.3,94.4,541.3z M1282.3,550.7c0-2.6,0-5.2,0-7.8c0-7.3,0-7.3-7.3-5.2
	c-0.9,0.3-2.6-0.2-2.5,1.6c0.2,1.8,1.8,1.2,2.7,1c3.7-0.8,3.9,1.3,3.8,4.1c-0.1,4.9-0.1,9.7,0,14.6c0,3.3,0.6,6.8-4.7,5.8
	c-1.1-0.2-1.9,0.3-1.9,1.6c0,1.3,0.7,1.6,1.9,1.6c4.2,0,8.5,0,12.7,0c1.1,0,1.9-0.5,1.8-1.7c-0.1-1.3-1-1.7-2-1.5
	c-4.7,0.9-4.8-1.9-4.6-5.3C1282.4,556.6,1282.3,553.6,1282.3,550.7z M685.4,489.1c0,3.4,0,6.8,0,10.2c0,1-0.1,2.1,1.3,2.1
	c1.3,0,1.4-1,1.4-2c0-4,0-8.1,0-12.1c0-3.2-0.9-7.1,0.5-9.5c1.3-2.2,5.4-0.5,8.2-0.8c0.9-0.1,2.2,0.1,2-1.3c-0.1-0.9-1-1.1-1.9-1.1
	c-6.8,0-13.6,0-20.4,0c-1.1,0-2,0.1-1.9,1.5c0.1,1.2,1.1,0.8,1.9,0.9c2.9,0.5,6.8-1.6,8.4,1.2c1.3,2.4,0.3,6,0.4,9.1
	C685.4,487.8,685.4,488.5,685.4,489.1z M62.6,487.4c0,4-0.1,7.2,0,10.5c0.1,1.2-1,3.3,1.3,3.5c2.5,0.2,1.3-2,1.6-3.2
	c0.1-0.3,0-0.6,0-1c0-7.8,0-7.8,7.7-7.9c0.2,0,0.3,0,0.5,0c1.2-0.3,3.5,0.9,3.5-1.4c0-2.2-2.2-1.1-3.4-1.3c-1.1-0.2-2.3-0.2-3.4,0
	c-4.2,0.8-5-1.1-5-5c0-3.7,0.9-5.3,4.8-4.7c2.1,0.3,4.2,0.2,6.3,0c2.2-0.2,6.5,0.9,6.3-1c-0.3-3.1-4.2-1.2-6.5-1.3
	c-4.3-0.2-10.2-1.5-12.7,0.7C60.6,477.7,63,483.7,62.6,487.4z M173.5,474.9c4.8,8,13.5,14.1,10.9,25.1c-0.2,0.9,0.5,1.5,1.5,1.4
	c1.7-0.2,1.6-1.5,1.4-2.6c-1.2-7,1.3-12.5,6.3-17.4c1.8-1.8,2.9-4.3,4.5-6.8c-3.7-0.6-4.7,2-6,3.9c-6.4,9.1-6.3,9.1-12.5-0.1
	C178.4,476.5,177.4,473.4,173.5,474.9z M160,487.7c0-3.9,0-7.1,0-10.4c0-1.2,0.4-2.9-1.6-2.8c-1.8,0.1-1.1,1.7-1.2,2.6
	c-0.1,2.9-0.1,5.8,0,8.7c0.2,5.1-2.2,12.1,1,14.8c3.1,2.6,9.9,0.7,15,0.8c0.3,0,0.7,0,1,0c1-0.2,2.6,0.5,2.7-1.2
	c0.1-2.2-1.8-1.1-2.9-1.4c-0.6-0.1-1.3,0-1.9,0c-3.8-0.2-8.8,1.6-11.2-0.7C158.4,495.9,160.3,490.8,160,487.7z M146.6,487.6
	c0,3.9,0,7.8,0,11.7c0,0.9-0.2,2,1.3,2.1c1.3,0,1.6-0.8,1.6-1.9c0-7.6,0-15.2,0-22.8c0-1-0.1-2-1.4-2.1c-1.9-0.1-1.4,1.4-1.4,2.4
	C146.5,480.5,146.6,484.1,146.6,487.6z"/>
<path class="st4" d="M749.5,248.4c245.3,0,490.5,0,735.8-0.1c4.9,0,6.4,1,6.4,6.2c-0.2,47.6-0.2,95.1,0,142.7c0,4.2-0.8,5.4-5.3,5.4
	c-491.5-0.1-983-0.1-1474.5,0c-4.1,0-5.1-1-5-5c0.1-47.7,0.2-95.4,0-143.1c0-4.7,0.9-6.1,5.9-6.1
	C258.3,248.4,503.9,248.4,749.5,248.4z M81.3,322.9c0,9.2,0.1,18.5,0,27.7c0,2.4,0.5,3.4,3.2,3.4c15.1-0.1,30.2,0,45.4-0.1
	c6.8-0.1,9-2.4,9-9.2c0.1-14.4,0-28.9,0-43.3c0-7.1-2.1-9.3-9.3-9.4c-14.8-0.1-29.6,0.1-44.4-0.1c-3.4,0-4,1.2-3.9,4.2
	C81.4,305,81.3,314,81.3,322.9z M262.1,307.2c6.4-1,6.3-1,6.1-8.6c-0.1-4.8-2.5-6.6-7-6.6c-12.9,0.1-25.7,0-38.6,0
	c-4.4,0-6.6,2.1-6.6,6.5c0,6.7-0.1,13.3,0.1,20c0.1,6.1,1.5,7.4,7.6,7.4c11.7,0,23.4,0.1,35.1-0.1c3.3-0.1,4.1,0.9,4,4.1
	c-0.3,4.9-0.2,9.7,0,14.6c0.2,3-0.8,3.9-3.8,3.8c-9.4-0.2-18.9-0.1-28.3-0.1c-8.6,0-8.6,0-9.1-8.6c0-0.2-0.3-0.4-0.5-0.6
	c-6.5,1.4-6.4,1.5-5.8,9.5c0.4,4.9,3.4,5.7,7.4,5.6c13-0.1,26,0,39,0c5.9,0,7.2-1.3,7.3-7.1c0.1-6.5,0.1-13,0-19.5
	c0-6.3-1.2-7.4-7.4-7.4c-11.7,0-23.4-0.1-35.1,0.1c-3.3,0.1-4.1-1-4-4.1c0.2-4.9,0.2-9.7,0-14.6c-0.1-2.8,0.8-3.6,3.6-3.5
	c8.3,0.2,16.6,0,24.9,0.1c3.4,0,7.4-0.9,10,0.6C263.4,299.9,261.1,304.2,262.1,307.2z M583.1,302.1c6.1,5.5,9.8,12,14.6,17.6
	c8.9,10.5,18,20.9,26.6,31.6c2.3,2.8,5,3.3,7.7,2.5c2.4-0.8,1.1-3.7,1.1-5.6c0.1-17.4,0-34.7,0.1-52.1c0-2.4,0.2-4.3-3.4-4.2
	c-3.6,0.1-2.9,2.2-2.9,4.2c0,14.6,0,29.2,0,43.8c0,1.1,0.8,2.6-1,3.6c-8.1-10.3-17.2-19.7-24.9-30.3c-5.1-6.9-11.1-13.1-16.6-19.7
	c-1.8-2.2-4.2-1.6-6.3-1.3c-2.6,0.4-1.5,2.9-1.5,4.4c-0.1,17.8,0,35.7-0.1,53.5c0,2.8,0.4,4,3.6,4c3.5,0,3-2,3-4
	C583.1,334.4,583.1,318.6,583.1,302.1z M402.5,322.9c0-7.9,0-15.9,0-23.8c0-5.6-1.3-7-6.8-7c-14.6-0.1-29.3-0.1-43.9,0
	c-5.3,0-6.6,1.5-6.7,6.7c-0.1,16.2,0,32.4,0,48.6c0,4.4,2,6.6,6.4,6.6c15,0,29.9,0,44.9,0c4.2,0,6.2-2,6.2-6.3
	C402.4,339.4,402.5,331.1,402.5,322.9z M420.9,322.8c0,9.4,0.1,18.8,0,28.2c0,2.3,0.5,3.1,3,3c2.2-0.1,3.7-0.1,3.6-3
	c-0.2-6.1,0.1-12.3-0.1-18.5c-0.1-3.1,0.7-4.1,4-4.1c10.6,0.2,21.1,0.2,31.7,0c6.5-0.1,8.7-2.3,8.8-8.9c0.1-6,0-12,0-18
	c0-7.5-2.1-9.6-9.5-9.7c-12.5-0.1-25,0.1-37.5-0.1c-3.4-0.1-4,1.2-3.9,4.2C421,305,420.9,313.9,420.9,322.8z M501.2,353.5
	c5.5,1.7,8.1-0.6,9.7-5c1-2.9,2.7-5.5,3.9-8.3c0.9-2.3,2.4-3,4.8-2.9c6.3,0.2,12.8,0.8,19-0.1c9.9-1.5,15.6,2.2,18,11.5
	c1.4,5.3,4.8,6.2,9.7,5c-9-19.5-18.1-38.9-27.1-58.4c-1.1-2.4-2.4-3.3-5.1-3.3c-2.8,0-4,1.1-5.1,3.4c-3.5,7.7-7,15.3-10.7,22.8
	C512.8,329.9,507,341.6,501.2,353.5z M301.8,325.8c0,7.6-0.1,15.3,0.1,22.9c0.1,2-2.1,5.4,2.9,5.5c4.8,0.1,3.2-3.1,3.2-5.2
	c0.1-15.6,0.2-31.1,0-46.7c0-3.4,1-4.5,4.4-4.4c6,0.3,12,0,18.1,0.1c2,0,3-0.4,2.9-2.6c-0.1-2-0.1-3.3-2.8-3.3
	c-17.1,0.1-34.2,0.1-51.2,0c-2.2,0-2.7,0.8-2.8,2.8c0,2.3,0.5,3.2,3,3.1c5.5-0.2,11.1,0.3,16.6-0.1c4.5-0.3,6.2,0.7,5.9,5.6
	C301.4,310.8,301.8,318.3,301.8,325.8z M148.2,292.3c0.4,0.8,0.6,1.4,1,1.8c7.2,9.1,14.4,18.3,21.8,27.2c2.3,2.8,3.6,5.4,3.4,9.1
	c-0.3,6.6,0,13.3-0.1,19.9c-0.1,2.7,0.7,3.6,3.5,3.7c2.9,0,3.1-1.2,3.1-3.5c-0.1-7.3,0-14.6,0-21.9c0-1.8,0.1-3.3,1.4-4.9
	c6.2-7.6,12.3-15.4,18.4-23.1c2.2-2.7,4.4-5.5,6.7-8.3c-4.8-1.4-7.9-0.1-10.4,3.5c-1.9,2.8-4.3,5.3-6.4,7.9
	c-4.3,5.3-8.6,10.6-13.1,16.2c-5.4-8.5-11.8-15.6-17.4-23.2C156.9,292.8,153.7,290.9,148.2,292.3z M491.1,323.4
	c0-9.4-0.1-18.8,0.1-28.2c0-2.6-0.9-3.3-3.4-3.3c-2.6,0-3.3,0.8-3.3,3.3c0.1,18.5,0.1,37,0,55.4c0,2.3,0.2,3.6,3.1,3.5
	c2.7,0,3.7-0.7,3.6-3.5C491,341.5,491.1,332.4,491.1,323.4z"/>
<path class="st3" d="M1705.7,402.4c-67.4,0-134.8,0-202.1,0.1c-4.5,0-5.5-1.1-5.5-5.5c0.1-127.6,0.1-255.1,0-382.7
	c0-4.5,0.8-5.9,5.7-5.9c134.8,0.2,269.5,0.2,404.3,0c4.5,0,5.2,1.3,5.2,5.4c-0.1,127.7-0.1,255.4,0,383.2c0,4.9-1.4,5.6-5.9,5.6
	C1840.1,402.4,1772.9,402.4,1705.7,402.4z M1750.5,279.6c5.5-1.7,9.8-4.9,14-8.9c13.8-12.9,23.7-28.2,30.5-45.6
	c2.3-5.9,2.4-5.8-3.7-5.6c-0.2,0-0.5-0.3-0.7-0.5c2.9-12.7,5.7-25.3,8.7-37.9c3.6-15,2.8-29.6-3.7-43.7
	c-5.2-11.3-10.5-22.5-16.1-33.7c-5.4-10.7-12.3-20.2-23.2-26.1c-8-4.4-16.8-5.7-25.6-7.5c-14.4-3-28.8-5-43.6-3.2
	c-15,1.9-26.9,10.8-39.9,17.4c-1.2,0.6-1.5,1.6-1.4,2.8c0,4.5,0,9.1,0,13.9c3.7-3.1,4.5-1.1,5.1,2.5c0.6,4.3,1.8,8.5,2.7,12.8
	c0.7,3.1,2.4,6,1.5,9.8c-4-4.5-6.8-9.5-9.9-14.9c-1.3,2.6-2.3,4.4-3.6,7.1c-0.4-1-0.6-1.5-0.8-1.9c-1.6-3.7-3.1-7.5-4.8-11.1
	c-5-10.5-2.2-10.4-11.6-3.6c-1.2,0.8-2.4,1.8-3.4,2.8c-14.8,15.6-19.6,34.4-17.8,55.4c1.4,16.5,5,32.7,8.2,48.9
	c0.8,3.9,1.9,7,6.3,7.9c2.4,0.5,4.1,1.8,3.5,4.7c-0.9,4.1,1.2,6,4.9,7.3c4,1.5,6.5,3.9,6.3,9.1c-0.5,12.3-0.3,24.7-0.3,37
	c0,2.1-0.1,3.9-2,5.5c-3.1,2.7-2.7,7.3,0.2,9.9c2.5,2.2,7,2,9.3-0.4c2.8-2.9,2.8-7-0.8-9.8c-2-1.5-2.3-3.1-2.3-5.3
	c0.1-12.3-0.5-24.7,0.2-37c0.4-7-1.1-11.4-8.5-12.7c-0.6-0.1-1.2-0.5-1.8-0.8c-1.3-0.6-1.5-1.9-1.1-2.9c0.7-1.7,1.9-0.5,2.8-0.1
	c4.5,1.9,8.8,4.1,13.4,5.8c2.4,0.9,3,2.3,3,4.7c-0.2,18.5-0.3,37-0.3,55.5c0,2.7,0,5.1-2.5,7.3c-3,2.6-2.3,7.1,0.6,9.5
	c2.7,2.2,7.1,2,9.3-0.5c2.6-2.9,2.8-7.3-0.4-9.5c-2.5-1.8-2.6-3.7-2.6-6.1c0.1-15.4,0.1-30.8,0.1-46.3c0-3.1,0-6.3,0-10.1
	c2.4,1,3.9,2,5.6,2.4c6,1.3,7.2,4.9,7.2,10.8c0.3,28.5,1.1,57.1,1.8,85.6c0,1.6-0.8,3.6,1.9,4.3c4.5,1.2,8.9,2.8,12.5,4
	c0-15.8,0.1-31.4,0-47c-0.1-10.1-0.5-20.1-0.8-30.2c-0.1-3.1,3.4-5.9,7.3-5.6c3.2,0.3,1.4,3.1,1.5,4.5c1.3,20.1,2.4,40.2,3.7,60.2
	c0.2,3.4,0.1,5.7-4.7,4.2c1.2,2.8,2.5,4.8,2.9,6.9c1.2,5.7,5.7,5.3,9.8,5.6c1,0.1,2.1-0.7,3.2-0.9c4-0.8,9-0.3,11.6-2.6
	c2.9-2.6,2.1-7.9,2.4-12.1c0.5-7.5,1.7-14.9,1.2-22.5c-7.8,2.5-12.3,6.7-9.8,15.4c0.7,2.6,0.8,5.5,0.7,8.2c0,1.4,2.2,4.3-1.8,4
	c-2.4-0.1-4.6,0.2-4.6-3.7c0.3-22.1,0.2-44.1,0.3-66.2c0-1.2-1.6-4.1,2-3.5c2.4,0.4,4.7,0.7,4,4.4c-0.8,4.4-1,9-1.4,13.5
	c-0.1,1.5-0.6,3.2,1.4,4.2c3.3,1.7,6.5,3.5,10.3,5.5c0-8.8,0-16.8,0-24.9c0-1.2-0.6-2.6,0.6-3.6c3.1-2.7,10.7-1.9,13.7,1.5
	c-5.6,4.2-5.7,4.2-6.1,11.4c-1.2,23.1,1.5,46.4-4.4,69.7c4.5-0.6,8.5-1.6,12.5-1.5c5,0.1,6.2-2.2,6.4-6.7
	c0.8-14.8,0.1-29.5,0.3-44.3c0-2.6,0.8-4.6,2.5-6.9c4.9-6.5,9.2-13.5,11.2-21.7c-6.2,0.6-6.2,0.6-5.3-5.1c0.3-2.1,0.6-4.2,0.8-6.3
	c0.6-5.1,1.2-10.1,1.7-15.2c2.4,5.9,3.9,11.7,4.6,18.2c2.1-1.5,3.6-2.6,5-3.6c0.8,0.6,0.5,1.3,0.5,1.9c-0.7,12.6-5.9,23.7-11.1,34.9
	c-0.4,0.1-0.8,0.3-0.5,0.8C1749.5,279.9,1750.1,279.7,1750.5,279.6z"/>
<path class="st3" d="M1705.5,617.2c-67.4,0-134.8,0-202.1,0.1c-4.3,0-5.3-1-5.3-5.3c0.2-66.1,0.1-132.1,0-198.2
	c0-3.8,0.6-5.1,4.9-5.1c135.1,0.1,270.2,0.1,405.3,0c4.1,0,5,1,5,5c-0.1,66.2-0.1,132.4,0,198.7c0,4.2-1.2,4.9-5.1,4.9
	C1840.6,617.2,1773,617.2,1705.5,617.2z M1692.6,534.4c-0.3-0.2-0.6-0.4-1-0.7c1.2-1.4,0.8-3.1,0.8-4.7c0-9.1,0-18.1,0-27.2
	c0-7.8,0-15.5,0-23.3c0-2.9-1.2-4.6-4.2-4.7c-3-0.1-4.3,1.8-4.5,4.6c-0.1,1,0.1,1.9,0.1,2.9c-0.3,0.3-0.6,0.7-0.9,1
	c-3.4-0.7-6.3,0-6.3,4.1c-0.1,4.3,3.1,4.4,6.4,4.2c0.3,0.3,0.6,0.7,0.8,1c0,13.8-0.1,27.6-0.1,41.5c-0.3,0.3-0.5,0.6-0.8,0.9
	c-3.3-0.2-6.4-0.1-6.4,4.4c0.1,4.1,3.1,4.2,6.2,4.2c3.5-0.1,7.1-0.1,10.6,0c3.7,0.1,6.8-0.6,6.2-5.1
	C1699.1,533.1,1695.8,533.5,1692.6,534.4z M1812.5,483.5c0.2,0.2,0.5,0.5,0.7,0.7c-0.5,2.7,0.1,6-4.7,5.4c-1.5-0.2-3,1.8-2.8,3.9
	c0.2,2-0.4,3-2.6,3c-3.9,0-4.7,2.5-4.7,5.9c0.1,11.5,0.1,23,0,34.5c0,3.2,0.8,5.6,4.4,5.5c3.5,0,4.7-2.2,4.6-5.4
	c-0.1-5.7,0-11.3,0-17s0.4-11.4-0.1-17c-0.4-4.4,1.8-4.9,5.1-5.4c3.8-0.5-0.1-6.6,4.6-6.7c2.6,0,4.9-1.2,4.7-3.7
	c-0.3-4.3,2.1-9.2-2.1-12.8c-0.6-0.5-1.8-0.5-2.8-0.5c-9.3,0-18.5,0-27.8,0c-3.5,0-5.1,1.7-5.1,5c0,3.4,1.8,4.9,5.2,4.9
	C1796.9,483.6,1804.7,483.5,1812.5,483.5z M1621.4,512.5c4.6,0,9.1,0.4,13.7,0c4.6-0.4,6.3,0.9,6,5.8c-0.4,6.3-0.1,12.7-0.1,19
	c0,3.1,1.2,5.1,4.4,5.2c3.3,0.1,4.5-1.8,4.5-5c-0.1-7.1-0.1-14.3,0-21.4c0-2.9-1.2-4.7-4.2-4.9c-1.8-0.1-3.1-0.3-3.1-2.6
	c0-2.3,0.8-3.2,3.1-3.3c3-0.1,4.2-2,4.2-4.9c0-4.5,0-9.1,0-13.6c0-2.7-1.3-4.4-3.9-4.6c-2.5-0.1-3.4-1-3.3-3.5
	c0.1-3.4-1.8-4.9-5.2-4.9c-6.8,0-13.7,0-20.5,0c-3.3,0-4.8,1.7-4.8,4.8c0,19.8,0,39.6,0,59.4c0,3,1.5,4.6,4.4,4.5
	c2.7-0.1,4.2-1.6,4.2-4.3c0-8.3-0.1-16.5-0.2-24.8C1620.7,513.1,1621.1,512.8,1621.4,512.5z M1726.6,508.7c0,7.1,0,14.3,0,21.4
	c0,3,1,5.2,4.3,5.1c2.4,0,3,1,3.1,3.2c0.1,3,2,4.1,4.9,4.1c4.4-0.1,8.8-0.2,13.2,0c6.3,0.3,4.5-9.3,11.1-8.7c1,0.1,1.5-1.9,1.5-3.3
	c0-14.6,0-29.2,0-43.7c0-2.7-1.3-4.5-3.9-4.7c-2.7-0.2-3.7-1.1-3.7-3.8c0.1-3.5-2.1-4.7-5.4-4.6c-3.7,0.1-7.6,0.6-11.2-0.1
	c-8.2-1.6-5.1,10.6-12.5,9.8c-1-0.1-1.4,1.9-1.3,3.3c0.1,0.8,0,1.6,0,2.4C1726.6,495.7,1726.6,502.2,1726.6,508.7z M1879,493.9
	c0-1.5-0.1-2.9,0-4.4c0.3-4.1,0-7.6-5.5-7.6c-2.1,0-1.7-2-1.7-3.4c-0.1-3.1-1.6-4.8-4.9-4.7c-4.5,0-9.1,0-13.6,0
	c-3.2,0-4.8,1.6-4.7,4.7c0.1,2.4-0.7,3.5-3.3,3.6c-3.2,0.2-4.3,2.3-4.2,5.3c0.1,4,0.1,8.1,0,12.1c-0.1,3.4,1,5.6,4.8,5.7
	c1.7,0,2.7,0.8,2.7,2.7c0,2-0.6,3-2.8,3c-3.5,0-4.8,2.1-4.7,5.4c0.1,4.5,0,9.1,0,13.6c0,3,1.2,5.1,4.4,5.2c2.3,0.1,3.1,1.1,3.2,3.3
	c0.1,3,2.2,4,5,4c4.4,0,8.8-0.2,13.2,0c6.3,0.3,4.5-9.4,11.1-8.8c0.9,0.1,1.3-1.7,1.2-2.9c0-0.3,0-0.6,0-1c0-4.5-0.1-9.1,0-13.6
	c0.1-3.1-1.2-5.1-4.3-5.2c-2-0.1-2.9-0.7-2.9-2.8c0-2,0.8-2.9,2.8-3c3.3,0,4.5-2,4.4-5.1C1879,498.1,1879,496,1879,493.9z
	 M1554.7,508.4c0,7.1,0.4,14.3-0.1,21.4c-0.5,6.6,9.1,4.8,8.5,11.2c-0.1,1,1.8,1.6,3.3,1.5c4.9-0.1,9.8,0,14.6,0c2,0,3.9-0.9,4-2.8
	c0.1-3.3,1-4.6,4.5-4.7c1.9,0,3.4-1.8,3.2-4.2c-0.2-2.4-1.4-3.9-3.8-4.3c-2.2-0.4-4.6,0.8-4.5,2.6c0.3,5.7-3.5,4.7-6.8,4.7
	c-3.3,0-6.5-0.1-9.8,0c-3.1,0.2-4.3-0.8-4.3-4.1c0.2-14.1,0.1-28.2,0-42.3c0-2.9,0.7-4.1,3.8-3.9c4.2,0.2,8.5,0.1,12.7,0
	c2.4,0,4.1,0.2,4.1,3.3c0,2.7,1.9,4.1,4.5,3.9c2.3-0.2,3.9-1.6,4.1-4c0.2-2.7-1.4-4.5-4-4.6c-2.8-0.2-3.6-1.3-3.5-4
	c0.1-2.9-1.6-4.4-4.6-4.4c-4.7,0-9.4,0.1-14.1,0c-1.9,0-3.6,0.9-3.8,2.3c-0.6,3.6-1.5,6.4-6,6.8c-1.8,0.2-1.9,2.6-1.9,4.5
	C1554.8,494.4,1554.7,501.4,1554.7,508.4z"/>
<path class="st2" d="M408,138.9c14.8,19,32.4,34.2,47.7,52.7c-5.6,0-10.1,0-14.6,0c-1.5,0-2.5-0.6-3.3-1.6
	c-11-14-25.3-25.3-35.8-39.5c-7.6-10.3-16.2-12.4-27.7-11.6c-10.8,0.7-10.8,0.2-10.8,10.9c0,12.7-0.1,25.3,0.1,38
	c0.1,3.3-1,4-4.1,3.9c-8.5-0.1-8.5,0-8.5-8.3c0-35.7,0-71.4-0.1-107c0-3.6,0.6-5,4.7-4.9c25.9,0.2,51.7,0.1,77.6,0.1
	c2.6,0,5.2,0.2,7.7,0.7c5.5,1.2,8.7,4.6,9.6,10.2c1.1,7.1,0.4,14.2,0.5,21.4c0.1,7.5,0.3,14.9-0.3,22.4c-0.7,8.7-4.9,12.4-13.6,12.6
	C427.6,139.1,418.2,138.9,408,138.9z M398.8,127.9c10.6,0,21.1,0.1,31.7,0c6.9-0.1,8-1.3,8-7.9c0-9.7,0-19.4,0-29.2
	c0-6.8-1.4-8.2-8.4-8.2c-21,0-41.9,0-62.9-0.1c-2.8,0-4,0.5-3.9,3.7c0.2,12.6,0.2,25.3,0,37.9c0,2.9,0.7,3.9,3.8,3.8
	C377.7,127.8,388.2,127.9,398.8,127.9z"/>
<path class="st5" d="M147.3,139.6c14.2,18.3,31.7,33.4,47.2,52c-5.7,0-10.2,0-14.7,0c-1.5,0-2.4-0.7-3.2-1.8
	c-11-13.6-23.9-25.5-35.6-38.5c-1.3-1.4-2.5-2.9-3.6-4.4c-3.6-5.1-7.8-9.2-15.2-8c-5.2,0.8-10.7,0.3-16.1,0.1
	c-3-0.1-3.9,0.8-3.8,3.8c0.1,14.6-0.1,29.2,0.2,43.8c0.1,4-0.9,5.3-5,5.1c-7.5-0.3-7.5-0.1-7.5-7.7c0-36,0.1-72.1-0.1-108.1
	c0-3.6,0.9-4.5,4.5-4.5c25.7,0.2,51.4,0.1,77.1,0.1c2.4,0,4.9,0,7.3,0.5c6.6,1.3,10.5,5.2,10.7,12c0.3,14.1,0.3,28.2,0,42.3
	c-0.2,7.9-4.9,12.2-13.3,12.5c-8,0.3-15.9,0.1-23.9,0.2C150.7,139,149.1,138.5,147.3,139.6z M137.8,127.9c10.7,0,21.5,0.1,32.2,0
	c5.9-0.1,7.3-1.3,7.4-7.2c0.2-10.2,0.2-20.4-0.1-30.7c-0.2-6.1-1.7-7.4-7.7-7.4c-21.2-0.1-42.3,0-63.5-0.1c-2.9,0-4,0.6-3.9,3.7
	c0.2,12.7,0.2,25.3,0,38c0,3.1,0.9,3.8,3.9,3.8C116.7,127.8,127.3,127.9,137.8,127.9z"/>
<path class="st5" d="M205.8,191.6c1.1-5.9,4.2-10.6,6.5-15.5c10.8-22.6,22-45,32.6-67.7c5.2-11.1,10.7-22.1,15.9-33.2
	c1.4-3,3.2-3.5,6.2-3.9c7.1-1,10.4,1.9,13.2,8.3c9.6,21.7,20.2,43,29.8,64.7c6.2,13.9,12.9,27.5,19.2,41.3c0.8,1.7,1.3,3.6,2.2,6
	c-4.3,0-8.1-0.1-11.9,0c-2.1,0.1-2.7-1.1-3.4-2.7c-4.2-9.1-8.6-18.1-12.7-27.2c-1.1-2.4-2.6-3.2-5.2-3.1c-20,0.1-40,0.1-60,0
	c-2.8,0-4,1-5.1,3.3c-4.3,9.2-9.5,18-13.2,27.5c-0.6,1.5-1.5,2.3-3.2,2.3C213.1,191.5,209.6,191.6,205.8,191.6z M268.8,83.2
	c-0.8,1.4-1.3,2-1.6,2.7c-9,19.5-18,39-27.1,58.4c-1.7,3.6-0.1,4,3,4c15-0.1,29.9,0,44.9,0c3.1,0,6.3,0,10.2,0
	C288.3,126.3,278.7,105.1,268.8,83.2z"/>
<path class="st2" d="M752.2,71.5c-9,10.9-17.5,20.5-25.2,30.7c-8,10.6-16.6,20.6-25.1,30.9c-1.5,1.9-1.6,3.7-1.6,5.8
	c0,16.2-0.1,32.4,0.1,48.6c0,3.5-1,4.3-4.3,4.2c-8.3-0.2-8.3,0-8.3-8.1c0-14.9-0.1-29.8,0.1-44.7c0-2.8-0.8-4.9-2.5-7
	c-15.4-18.8-30.7-37.7-46-56.5c-0.9-1.1-1.7-2.2-3.1-3.9c5.4,0,9.9,0.1,14.3,0c2.5-0.1,3.2,2,4.3,3.4c12.2,15.3,24.3,30.7,36.3,46.2
	c2.2,2.8,3.2,3.5,5.8,0.2c12-15,24.5-29.7,36.5-44.8c3-3.7,6-5.9,10.9-5.2C746.6,71.7,748.8,71.5,752.2,71.5z"/>
<path class="st2" d="M571.8,71.5c16.8,0,33.5,0.1,50.3-0.1c3.2,0,4.6,0.4,4.5,4.1c-0.2,7.1,0,7.1-7.3,7.1c-11.9,0-23.8,0.3-35.6-0.1
	c-4.9-0.2-5.7,1.4-5.7,5.9c0.2,32.1,0.1,64.3,0.1,96.4c0,6.8,0,6.8-7,6.7c-0.3,0-0.7,0-1,0c-3.6,0.7-4.6-0.7-4.6-4.4
	c0.2-32.6,0.1-65.2,0.1-97.9c0-6.6,0-6.6-6.7-6.6c-12.4,0-24.7-0.2-37.1,0.1c-3.8,0.1-4.6-1.1-4.5-4.6c0.3-6.7,0.1-6.7,6.6-6.7
	C540,71.5,555.9,71.5,571.8,71.5z"/>
<path class="st5" d="M482.2,131c0-18.3,0.1-36.6-0.1-54.9c0-3.3,0.3-4.9,4.3-4.7c8,0.3,8,0.1,8,8.2c0,35.7-0.1,71.3,0.1,107
	c0,4.5-1.3,5.7-5.4,5.1c-1.1-0.2-2.3-0.2-3.4,0c-3.1,0.5-3.7-0.8-3.7-3.8C482.3,168.9,482.2,149.9,482.2,131z"/>
<path class="st1" d="M128.2,556.3c0-4,0.1-8.1,0-12.1c-0.1-2.4,0.4-3.5,3.2-3.4c5.8,0.2,11.7,0.2,17.5,0c3.9-0.1,5.2,1.9,5.1,5.4
	c-0.1,3.1-1.6,7.3-0.8,9.1c1.7,3.6,1.1,6.9,1.2,10.3c0.2,6.3-0.3,6.7-6.5,6.7c-5,0-10.1-0.3-15.1,0.1c-4.1,0.3-4.9-1.3-4.7-4.9
	C128.5,563.7,128.2,560,128.2,556.3z M141,569.2c10,0,10.1,0,10-5.4c-0.1-7.5,0.9-6.6-6.8-6.6c-2.3,0-4.6,0.3-6.8-0.1
	c-4.8-0.7-6.1,1.1-5.7,5.7c0.4,6.3,0.1,6.4,6.4,6.4C139.1,569.2,140.1,569.2,141,569.2z M141.3,543.8c-9.5,0-9.1,0-9.6,4.6
	c-0.5,4.7,1.1,6.3,5.8,5.7c2.5-0.4,5.2-0.3,7.7,0c4.1,0.5,5.7-0.8,5.5-5.2c-0.1-3.8-0.8-5.8-5.1-5.1
	C144.2,544,142.8,543.8,141.3,543.8z"/>
<path class="st1" d="M772.2,549.8c-5.2,5.7-8.8,11.9-12.6,18.8c-3.7-7.3-7.6-13.5-12.4-20.7c0,8,0.1,14.7-0.1,21.3
	c0,1.3,1.1,3.7-1.7,3.6c-2.6-0.1-1.5-2.5-1.5-3.8c-0.1-7.8-0.1-15.6,0-23.3c0-1.5-1-3.5,1.1-4.3c2.2-0.8,3.1,1.2,4,2.7
	c3.4,5.6,6.9,11.3,10.7,17.5c3.7-6,7.1-11.6,10.6-17.2c0.9-1.5,1.6-3.6,3.8-3c2.6,0.6,1.3,3,1.3,4.5c0.1,7.5,0.2,14.9,0,22.4
	c0,1.5,1.5,4.6-1.7,4.5c-2.9-0.1-1.4-3.1-1.5-4.7C772,562,772.2,555.9,772.2,549.8z"/>
<path class="st1" d="M969.1,573c-3.1,0-6.2-0.1-9.3,0c-3.3,0.2-4.3-1.5-4.1-4.5c0.1-1.3-0.1-2.7,1.7-3.1c2.4-0.5,1.7,1.4,1.7,2.5
	c0,1.8,1,2,2.5,2c5-0.1,10.1-0.1,15.1,0c2.1,0,2.7-0.6,2.8-2.7c0.6-9.4,0.7-9.4-8.9-9.4c-1,0-2,0-2.9,0
	c-13.8-0.3-11.3,2.4-11.6-13.1c0-2.6,1.4-3.4,3.7-3.4c6.3,0,12.7-0.1,19,0c3,0.1,4.7,4,3.2,6.5c-0.5,0.8-1.3,1-2.1,0.9
	c-0.7,0-1.2-0.6-1.1-1.3c0.5-3.8-2.3-3.1-4.4-3.1c-4.1,0-8.1,0.1-12.2,0c-2.1,0-2.7,0.8-2.8,2.8c-0.5,7.5-0.6,7.5,6.8,7.5
	c4.2,0,8.5,0.1,12.7,0c2.7-0.1,4,1,3.8,3.7c0,0.2,0,0.3,0,0.5C982.4,575.8,985.3,572.7,969.1,573z"/>
<path class="st1" d="M1423.5,536.4c1.1,0,2.3,0,3.4,0c10.3,0,10.8,0.2,9.7,10.2c-0.6,5,1.3,9.7,0.8,14.7c-0.6,5.9-0.9,6.7-6.8,6.8
	c-5,0-10.1-0.1-15.1,0c-4.4,0.1-6.1-1.8-6-6.1c0.1-7.1,1.4-14.1,0.6-21.2c-0.3-3.1,1.6-4.4,4.5-4.4
	C1417.7,536.3,1420.6,536.4,1423.5,536.4z M1423.1,565c1.1,0,2.3,0,3.4,0c8.1-0.2,7.1,1.5,7.5-7.6c0.2-4.2-1.4-4.9-5-4.6
	c-3.2,0.3-6.5,0-9.7,0.1c-6.8,0.1-5.8-1.1-6.3,6.2c-0.4,5.1,1.5,6.7,6.3,6C1420.5,564.8,1421.8,565,1423.1,565z M1423.6,549.8
	c2.3,0,4.5-0.1,6.8,0c4.2,0.3,3.2-2.8,3.1-4.9c-0.1-2.2,1.5-5.6-3.1-5.5c-4.7,0.1-9.4,0-14,0c-1.4,0-2.5,0.2-2.9,1.8
	c-1.7,5.8,0.3,8.6,6.3,8.6C1421,549.8,1422.3,549.8,1423.6,549.8z"/>
<path class="st1" d="M386.4,558.8c3.1,4.8,7,8.7,11.2,13.3c-6.8,0.4-8.6-5-11.7-8.2c-1.2-1.3-2.4-3-3.6-4.4
	c-2.1-2.3-4.9-1.7-7.3-1.1c-2.2,0.5-0.9,3-1.1,4.6c-0.2,2.1,0,4.2-0.1,6.3c0,1.2,0.5,2.8-1.6,2.8c-2.1,0.1-1.8-1.4-1.8-2.6
	c0-8.8,0-17.5,0-26.3c0-1.9,0.7-2.5,2.6-2.5c6.5,0.1,13,0,19.5,0.1c0.6,0,1.5,0,1.9,0.3c4.3,3.8,1.5,8.8,2.1,13.2
	c0.4,3-2.1,3.5-4.6,3.8C390.1,558.3,388.3,557.7,386.4,558.8z M383,555c1.1,0,2.3,0,3.4,0c7.6-0.1,6.7,1.2,6.9-7.1
	c0.1-3.1-0.8-4.4-4.1-4.2c-3.2,0.2-6.5,0.4-9.7,0c-4.7-0.6-5.8,1.1-5.8,5.7c0,4.8,1.3,6.4,5.9,5.6C380.7,554.9,381.9,555,383,555z"
	/>
<path class="st1" d="M949,572.5c-2.6,1-4.2,0.4-5.6-1.4c-2.3-3-5.6-5.3-7.5-8.8c-0.6-1.1-1.6-2.1-2.6-2.8c-2-1.5-4.5-1.1-6.5-0.6
	c-2.1,0.5-1,2.7-1.1,4.2c-0.2,2.6-0.1,5.2-0.1,7.8c0,1.3-0.5,2.2-2,2.1c-1.3-0.1-1.5-1.1-1.5-2.1c0-9.1,0-18.1,0-27.2
	c0-2,1.1-2.4,2.8-2.4c6.3,0,12.7,0,19,0.1c1.9,0,3.9,0.7,4.1,2.7c0.3,4,0.3,8.1,0,12.1c-0.1,1.8-1.9,2.5-3.7,2.5c-1.9,0-3.8,0-6.2,0
	C940.6,564.5,945.2,568.1,949,572.5z M934.9,555.7c9.9,0,9.9,0,9.9-4.9c0-7,0.7-6.2-6.2-6.3c-2.8,0-5.6,0.3-8.3-0.1
	c-4-0.5-4.9,1.2-4.7,4.8c0.3,6.4,0.1,6.4,6.4,6.4C932.9,555.7,933.9,555.7,934.9,555.7z"/>
<path class="st1" d="M706,557.2c0-3.9,0.1-7.8,0-11.7c-0.1-2.9,1-4.2,3.9-4.2c7,0,14,0.1,21,0c2.9,0,3.9,1.3,3.9,4.2
	c-0.1,7.8-0.2,15.6,0,23.3c0.1,3.3-1.4,4.2-4.4,4.2c-6.7-0.1-13.3-0.1-20,0c-3.5,0.1-4.6-1.4-4.4-4.7C706.1,564.7,706,561,706,557.2
	z M731.1,557.6c0.1,0,0.2,0,0.4,0c0-3.4-0.1-6.8,0-10.2c0.1-2-0.5-2.9-2.7-2.9c-5.5,0.1-11.1,0.1-16.6,0c-2.3,0-3.2,0.7-3.1,3.1
	c0.2,4.2,0,8.4,0,12.7c0,9.8,0,9.8,9.8,9.8c4,0,9.7,1.3,11.7-0.7C732.7,567.2,731.1,561.6,731.1,557.6z"/>
<path class="st1" d="M687.9,559.3c2.8,5.2,7,8.8,10.5,12.9c-2.3,1.7-3.8,0.6-5-0.9c-2.5-2.9-5.8-5.1-7.5-8.8c-0.5-1.1-1.6-2-2.6-2.8
	c-2.2-1.7-4.8-1.2-7-0.6c-1.8,0.5-0.9,2.8-1,4.4c-0.1,2.6,0,5.2-0.1,7.8c0,1.2-0.5,1.8-1.8,1.8c-1.4,0-1.5-0.9-1.5-1.9
	c0-9.2,0-18.5,0-27.7c0-1.9,1.1-2,2.5-2c6.3,0,12.7,0,19,0c2.9,0,4.6,1.4,4.5,4.5c0,0.5,0,1,0,1.5
	C698.1,557.8,698.1,557.8,687.9,559.3z M684.7,555.7c2.4,0,4.8,0,7.3,0c1.1,0,2.1,0.1,2.6-1.5c1.9-6.5-0.3-9.7-7-9.7
	c-2.4,0-4.9,0.2-7.3-0.1c-4.1-0.5-5,1.1-5.1,5c-0.1,4.9,1,7.2,6.2,6.2C682.4,555.5,683.6,555.7,684.7,555.7z"/>
<path class="st1" d="M591.9,566.7c0-7.4,0-14.8,0-22.2c0-1.1-0.7-2.9,1.3-3.1c2.4-0.2,1.9,1.7,1.9,3c0,8.3,0.1,16.5,0,24.8
	c0,1.3,0.9,3.1-1.3,3.7c-1.7,0.4-2.7-0.8-3.6-1.9c-6.4-7.7-12-16-19.3-23.4c-1.3,2.8-0.5,5.7-0.6,8.4c-0.2,4.9,0,9.7,0,14.6
	c0,1.2,0,2.3-1.6,2.4c-1.6,0.1-1.9-0.8-1.9-2.1c0-9.1,0-18.2,0-27.2c0-1,0.1-2,1.4-2.2c1.2-0.2,2.3,0.1,3.1,1c5.8,7,11.6,14,17.3,21
	c0.9,1.1,1.7,2.3,2.5,3.5C591.2,566.9,591.6,566.8,591.9,566.7z"/>
<path class="st1" d="M821.5,546.6c0,8.4,0,15.7,0,23c0,1.2,0.9,3.2-1.5,3.3c-2.5,0.1-1.7-1.9-1.7-3.2c-0.1-8.4,0-16.8,0-25.3
	c0-1.1-0.5-2.5,0.9-3c1.5-0.5,2.8,0.2,3.8,1.4c5.7,7.2,12.4,13.6,17.4,21.4c0.5,0.8,1.3,1.4,3,3.2c0-7.2-0.2-13.2,0.1-19.2
	c0.1-2.3-1.9-6.7,1.8-6.7c3.1,0,1.3,4.3,1.4,6.6c0.3,6.8,0.2,13.6,0,20.4c0,1.4,1.1,3.4-1.2,4.2c-2.2,0.7-3.2-1.1-4.3-2.4
	c-5.7-7-11.4-14.1-17-21.1C823.5,548.7,822.8,548.1,821.5,546.6z"/>
<path class="st1" d="M305.4,546.6c0,7.6,0.1,14.6-0.1,21.7c0,1.3,1.1,3.7-1.5,3.8c-3.1,0.1-1.8-2.5-1.8-4c-0.1-7.8-0.1-15.6,0-23.4
	c0-1.3-1-3.1,0.9-3.8c1.8-0.7,3,0.3,4.1,1.7c6,7.6,13.1,14.3,18.3,22.6c0.2,0.4,0.7,0.7,1.8,1.7c0-7.3,0-13.8,0-20.3
	c0-1.3,0-2.6,0-3.9c0-1-0.1-2,1.4-2c1.2,0,1.8,0.4,1.8,1.6c0,9.4,0,18.8,0,28.2c0,1-0.3,1.4-1.3,1.6c-1.7,0.2-2.7-0.7-3.6-1.9
	c-4.8-6.1-9.7-12.1-14.6-18.1C309.3,550.4,308.1,548.2,305.4,546.6z"/>
<path class="st1" d="M209.7,558.6c1.9,2.6,3.4,4.9,5.1,6.9c1.8,2.1,3.8,4,5.7,6c-2.4,1.3-4.1,0.7-5.5-1.1c-2.1-2.7-4.9-4.7-6.5-7.8
	c-0.7-1.4-2.1-2.4-3.3-3.5c-2.1-1.8-4.8-1.3-7-0.7c-1.9,0.5-0.8,2.8-0.9,4.3c-0.2,2.4-0.1,4.9,0,7.3c0,1.2,0.1,2.3-1.7,2.2
	c-1.3,0-1.6-0.8-1.6-1.9c0-9.2,0-18.5,0-27.7c0-2,1.4-1.8,2.7-1.8c6.3,0,12.7,0,19,0c2.8,0,4.2,1.4,4.2,4.2c0,0.6,0,1.3,0,1.9
	C220.1,557.3,220.1,557.3,209.7,558.6z M207,543.8c-10.2,0-10.1,0-9.8,8.3c0.1,2.4,0.9,3,3.1,2.9c4.4-0.1,8.8,0,13.1-0.1
	c1.4,0,2.8,0.2,3.2-2c1.4-7.4,0.1-9.2-7.2-9.2C208.6,543.8,207.8,543.8,207,543.8z"/>
<path class="st1" d="M1315.1,568.1c-3.2,0-6.5-0.1-9.7,0c-2.7,0.1-3-1-2-3.3c0.7-1.7,1.8-2.9,3.3-4c5.2-4.1,10.3-8.4,15.6-12.4
	c3.1-2.3,1.8-5.2,1.8-8c0-1.4-1.4-1-2.3-1c-2.9,0-5.8,0.1-8.8,0c-3.4-0.1-6.8-0.5-5.8,4.7c0.2,0.8,0,1.7-1,1.9
	c-0.6,0.1-1.6-0.1-1.8-0.5c-1.2-2.3-0.7-4.7-0.3-7.1c0.2-1.7,1.8-2.1,3.4-2.1c5.5,0,11,0,16.6,0c2.4,0,3.2,1.2,3.4,3.6
	c0.4,5.3-0.4,9.7-5.5,12.7c-3.7,2.2-6.9,5.3-10.3,8.1c-1,0.9-3.1,1.4-2.3,3.2c0.7,1.7,2.6,0.7,3.9,0.8c2.3,0.1,4.6-0.1,6.8,0.1
	c3.3,0.2,6.3,0.3,5.6-4.5c-0.1-0.5,0.6-1.5,0.8-1.5c0.7,0,2.1,0.4,2.1,0.8c0.2,2.1,0.4,4.2,0.1,6.2c-0.3,2-2.3,2-3.9,2.1
	C1321.6,568.1,1318.4,568.1,1315.1,568.1z"/>
<path class="st1" d="M417.5,572.2c-2.9,0-5.9-0.2-8.8,0.1c-4.4,0.4-4.8-2.1-4.6-5.4c0.1-1.5,1.1-2,2.2-2.1c1.6-0.1,1.1,1.4,1,2.1
	c-0.2,2,0.8,2.4,2.5,2.4c5-0.1,10.1-0.2,15.1,0c2.5,0.1,2.8-1,2.9-3.1c0.2-8.8,0.3-8.8-8.4-8.8c-3.7,0-7.5,0-11.2,0
	c-2.5,0-4-1.1-3.8-3.8c0-0.3,0-0.6,0-1c0.2-13.7-1.8-11.6,11.4-11.7c3.7-0.1,7.5-0.1,11.2,0c3,0.1,5,3.8,3.5,6.3
	c-0.3,0.6-1.3,1-2,1.1c-1,0.1-1.3-0.8-1.2-1.6c0.3-2.6-1.2-2.8-3.3-2.8c-4.4,0.1-8.8,0.3-13.2,0c-4.3-0.3-3.2,2.7-3.1,4.8
	c0.1,2.3-1.7,5.9,3.3,5.7c5.2-0.2,10.4,0.1,15.6-0.1c3-0.1,4.3,0.9,4.4,4.1C431.5,572.2,431.6,572.2,417.5,572.2z"/>
<path class="st1" d="M859,557.8c0.4,3.4-1.8,8.8,0.8,11.4c2.6,2.6,8,0.6,12.2,0.8c1,0.1,2-0.1,2.9,0c3.7,0.6,5.1-0.9,4.6-4.5
	c-0.1-1-0.9-2.9,1.2-3c2.2-0.1,1.9,1.8,2,3.2c0.6,6.6-0.1,7.4-6.6,7.4c-5.4,0-10.7-0.1-16.1,0c-3.3,0.1-4.7-1.3-4.7-4.6
	c0.1-7.6,0.1-15.2,0-22.9c-0.1-3.3,1.5-4.3,4.5-4.2c6,0.1,12,0,18.1,0c4.1,0.1,6.8,5.1,4.7,8.6c-0.5,0.8-1.4,0.9-2.1,0.8
	c-1-0.1-1.1-1.1-1-1.9c0.8-4.4-1.7-4.7-5.1-4.5c-4.2,0.2-8.5,0.1-12.7,0c-2.1-0.1-2.9,0.6-2.8,2.8C859.1,550.5,859,553.7,859,557.8z
	"/>
<path class="st2" d="M63.4,556.2c0-3.9,0.1-7.8,0-11.7c-0.1-2.8,1.1-3.8,3.8-3.7c6.5,0.1,13,0,19.5,0c1.5,0,3.1,0,3.5,1.9
	c0.4,2.2,0.7,4.5-0.1,6.7c-0.2,0.4-1.5,0.7-2.2,0.6c-1.1-0.2-0.8-1.3-0.7-2c0.8-4-1.3-4.5-4.6-4.3c-4.4,0.2-8.8,0.2-13.2,0
	c-2.4-0.1-3,0.8-3,3.1c0.1,6.5,0.1,13,0,19.5c0,2.3,0.5,3.1,3,3c4.5-0.2,9.1-0.3,13.7,0c3.5,0.2,4.5-0.9,4.2-4.3
	c-0.1-1-1.4-3.3,1.2-3.2c1.9,0,1.9,1.7,2,3.3c0.4,6.7,0,7.1-6.8,7.1c-5.4,0-10.7-0.1-16.1,0.1c-3.2,0.1-4.3-1.2-4.2-4.3
	C63.5,564,63.4,560.1,63.4,556.2z"/>
<path class="st2" d="M267.7,545.6c0,8.5,0.1,15.8-0.1,23.1c0,1.2,1.1,3.2-1.4,3.4c-2.6,0.2-1.6-2-1.6-3.1c-0.1-8.3-0.1-16.5,0-24.8
	c0-1.1-0.8-2.8,1-3.3c1.6-0.4,2.7,0.4,3.7,1.6c6,7.6,13.1,14.4,18.4,22.6c0.3,0.5,0.7,1.2,2,0.7c0-7,0-14.2,0-21.4
	c0-1.3-1-3.7,1.8-3.5c2.3,0.2,1.2,2.3,1.3,3.5c0.1,8.1,0.1,16.2,0,24.3c0,1.1,0.8,2.8-0.9,3.3c-1.8,0.6-3-0.3-4.1-1.8
	c-5.6-7.1-11.3-14.1-17-21.1C270.2,548.2,269.3,547.4,267.7,545.6z"/>
<path class="st1" d="M604.3,557c0-4.1,0.1-8.1,0-12.2c-0.1-2.3,0.3-3.6,3.1-3.5c6,0.2,12,0.1,18,0.1c1.3,0,2.8-0.3,2.7,1.7
	c-0.1,1.7-1.5,1.3-2.6,1.3c-4.9,0-9.8,0.2-14.6,0c-5.1-0.3-3,3.4-3.2,5.7c-0.3,2.3-0.9,5.1,3.3,4.5c2.6-0.3,5.2-0.1,7.8-0.1
	c1.1,0,2.4-0.3,2.3,1.6c-0.1,1.8-1.5,1.4-2.5,1.4c-2.8,0.1-5.5,0.1-8.3,0c-2.1-0.1-2.7,0.6-2.8,2.7c-0.5,9.7-0.6,9.7,8.9,9.7
	c3.3,0,6.5,0,9.8,0c1.2,0,2.4,0,2.3,1.7c-0.1,1.3-1.1,1.4-2.1,1.4c-6.7,0-13.3,0-20,0c-2.4,0-2-1.6-2-3
	C604.3,565.7,604.3,561.3,604.3,557z"/>
<path class="st1" d="M891.3,556.8c0-4.2,0.1-8.4,0-12.6c-0.1-2.1,0.7-2.8,2.8-2.8c6.2,0.1,12.3,0,18.5,0c1.1,0,2.5-0.3,2.5,1.4
	c0.1,2.1-1.6,1.6-2.8,1.7c-4.7,0-9.4,0.1-14.1,0c-2.5-0.1-3.7,0.3-3.7,3.3c0,6.8-0.2,6.6,6.9,6.9c2.2,0.1,6.4-1.9,6.4,1.5
	c0,3-4.2,0.9-6.5,1.4c-1.2,0.3-2.6,0.2-3.9,0c-2-0.2-2.7,0.4-2.8,2.6c-0.5,9.8-0.6,9.8,9.3,9.8c3.1,0,6.2,0,9.3,0
	c1.2,0,2.3,0,2.2,1.7c-0.1,1.4-1.1,1.3-2.1,1.3c-6.5,0-13-0.1-19.5,0c-2.6,0.1-2.4-1.5-2.4-3.2C891.3,565.6,891.3,561.2,891.3,556.8
	z"/>
<path class="st1" d="M662.9,556.9c0,4-0.1,8.1,0,12.1c0.1,2.9-1.3,4.1-4.1,4.1c-6.5-0.1-13-0.1-19.5,0c-2.9,0-4.1-1.4-4.1-4.1
	c0-8.3,0-16.5,0-24.8c0-1.3-0.1-2.7,1.8-2.7c2.1,0,1.6,1.6,1.6,2.8c0,7.4,0.1,14.9-0.1,22.3c-0.1,2.8,0.8,3.6,3.5,3.4
	c4.5-0.2,9.1-0.3,13.6,0c3.2,0.2,3.8-1.1,3.7-3.9c-0.2-7.1-0.1-14.2,0-21.4c0-1.3-0.6-3.3,1.7-3.3c2.3-0.1,1.8,1.9,1.8,3.2
	C663,548.8,662.9,552.8,662.9,556.9z"/>
<path class="st1" d="M780.5,572.5c4.5-9.5,9-18.9,13.5-28.4c0.6-1.3,1.1-2.7,3-2.7c2-0.1,2.4,1.3,3,2.6c4,8.8,8,17.6,12,26.4
	c0.4,0.8,1.3,1.8,0.1,2.4c-1,0.5-2.2,0.3-3-0.8c-0.2-0.3-0.3-0.6-0.5-0.9c-1.3-2.1-1.6-6-3.9-6.3c-5.1-0.7-10.4-0.5-15.5-0.1
	c-2.5,0.2-2.6,3.4-3.7,5.3C784.3,572,783.5,574,780.5,572.5z M789.4,560.6c5.2-0.1,9.8,0.5,14.7-0.4c-2.5-5.2-4.7-10-7.3-15.5
	C794.1,550.4,791.9,555.3,789.4,560.6z"/>
<path class="st1" d="M255.5,556.3c0,3.9-0.1,7.8,0,11.7c0.1,3-1,4.4-4.3,4.3c-6.3-0.2-12.7-0.2-19,0c-3.6,0.1-4.5-1.5-4.5-4.7
	c0.1-7.9,0-15.9,0-23.8c0-1.4-0.4-3.1,1.9-3c2.1,0.1,1.5,1.8,1.5,2.9c0,7.3,0.2,14.6-0.1,21.8c-0.1,3.1,0.9,3.8,3.8,3.7
	c4.5-0.2,9.1-0.2,13.6,0c2.7,0.1,3.6-0.7,3.5-3.5c-0.2-7.1-0.1-14.2,0-21.4c0-1.3-1.1-3.7,1.7-3.6c2.7,0.1,1.5,2.4,1.6,3.8
	C255.6,548.5,255.5,552.4,255.5,556.3z"/>
<path class="st1" d="M135.8,480.9c-3.9,6.2-7,11.1-10.5,16.7c-3.5-5.4-6.7-10.5-10.8-16.9c0,6.6,0.1,11.9-0.1,17.1
	c0,1.2,1.1,3.4-1.2,3.5c-2.3,0.1-1.5-2-1.6-3.3c-0.1-6.8-0.1-13.6,0-20.4c0-1.2-0.6-2.8,1.4-3.1c1.6-0.3,2.4,0.9,3,2
	c2.6,5.5,5.8,10.7,9.4,16.1c3.3-5.3,6.5-10.1,8.9-15.4c0.6-1.4,1.4-3.3,3.5-2.7c2.2,0.6,1,2.5,1,3.7c0.1,6.6,0.1,13.3,0,20
	c0,1.2,0.9,3.3-1.6,3.2c-2.1-0.1-1.3-1.9-1.3-3C135.8,493,135.8,487.7,135.8,480.9z"/>
<path class="st1" d="M776.1,501.5c-2.4,0-4.9-0.1-7.3,0c-3.2,0.2-3.9-1.6-3.7-4.2c0.1-0.8,0.1-1.7,1.1-1.9c1.4-0.4,1.7,0.5,1.6,1.6
	c0,1.8,1.2,2,2.6,2c4.1,0,8.1-0.1,12.2,0c4.2,0.1,2.5-3,2.5-4.8c0-1.8,1.7-4.9-2.5-4.8c-4.5,0.1-9.1,0-13.7,0.1
	c-2.5,0.1-3.4-0.9-3.5-3.4c-0.7-11.7-0.8-11.7,10.8-11.7c2.6,0,5.2,0.1,7.8,0c2.6-0.1,4,0.9,3.8,3.6c-0.1,1.3,0.6,3.3-1.5,3.5
	c-2.3,0.2-1.3-1.8-1.3-2.8c-0.1-2-1.3-1.9-2.6-1.9c-3.1,0-6.2,0.3-9.3-0.1c-4.3-0.5-4.9,1.2-5,5.1c-0.1,4.3,1.3,5.2,5.2,4.9
	c3.5-0.3,7.1,0,10.7-0.1c2.7,0,4.2,0.8,4.1,3.9C788,504,790.3,501.1,776.1,501.5z"/>
<path class="st1" d="M728.6,487.9c0,13.5,0,13.5-13.3,13.5c-11.4,0-11.5,0-11.3-11.6c0.1-5-2.2-11.3,1.1-14.5
	c3-2.9,9.3-0.8,14.2-0.9c9.4-0.1,9.4,0,9.4,9.6C728.6,485.3,728.6,486.6,728.6,487.9z M706.9,487.8c0,1.8,0.2,3.6,0,5.3
	c-0.7,4.6,0.9,6.4,5.7,5.8c4.1-0.5,9.7,1.3,12.2-0.8c2.9-2.5,0.9-8.2,0.9-12.5c0.2-8.8,0-8.8-8.3-8.8
	C706.9,476.9,706.9,476.9,706.9,487.8z"/>
<path class="st2" d="M339.6,556.2c0-4.1,0.1-8.1,0-12.2c-0.1-2.1,0.2-3.3,2.8-3.2c6.2,0.2,12.3,0,18.5,0.1c1,0,2.5-0.4,2.4,1.5
	c-0.1,1.7-1.4,1.4-2.5,1.5c-5,0-10.1,0.1-15.1,0c-2.4-0.1-2.9,0.7-3,3c-0.2,7.1-0.3,7,7.6,7.2c2,0,5.7-1.4,5.7,1.4
	c0,2.8-3.6,1.4-5.6,1.4c-7.9,0.2-7.8,0.1-7.7,9.1c0,2.7,0.6,3.7,3.4,3.5c5-0.2,10.1-0.1,15.1-0.1c1.1,0,2.4-0.3,2.4,1.5
	c-0.1,1.8-1.4,1.4-2.5,1.4c-6.3,0-12.7-0.1-19,0.1c-2.4,0.1-2.6-1.1-2.6-2.9C339.7,564.9,339.6,560.5,339.6,556.2z"/>
<path class="st1" d="M566.3,487.6c0-13.1,0-13.1,13.1-13.1c1.5,0,2.9,0,4.4,0c5.5,0,6.8,1.7,5.8,7c-0.2,1-0.4,2-1.6,2
	c-1.5,0-1.2-1.4-1.1-2.2c0.8-4.3-1.7-4.7-5-4.5c-4,0.3-9.4-1.3-11.8,0.8c-2.8,2.4-0.9,7.9-0.9,12c-0.1,9.3,0,9.3,9.4,9.3
	c1.3,0,2.6-0.1,3.9,0c2.7,0.2,5,0.1,4.4-3.7c-0.1-0.9-0.3-2.1,1.3-1.9c1,0.1,1.2,0.9,1.4,1.7c1.1,4.4-0.4,6.4-4.9,6.4
	c-4.9,0-9.8-0.1-14.6,0c-2.7,0.1-3.8-1-3.7-3.7C566.4,494.4,566.3,491,566.3,487.6z"/>
<path class="st1" d="M749.9,490.9c3,3.2,5.9,6.4,9.1,9.8c-1.9,1.3-3.2,0.5-4.5-0.9c-2.3-2.5-4.9-4.8-7-7.5c-2-2.6-4.6-2.5-7-1.9
	c-2.5,0.6-0.7,3.3-1.2,5c-0.7,2,1.5,5.7-1.4,5.7c-3.3,0-1.4-3.9-1.5-5.9c-0.3-6,0-12-0.2-18c0-2.1,0.5-2.9,2.7-2.8
	c5.2,0.1,10.4,0,15.6,0.1c0.8,0,1.9-0.1,2.4,0.4c3.5,3.7,1.4,8.3,1.6,12.5c0.1,2.7-2.4,3-4.7,3C752.7,490.3,751.4,489.8,749.9,490.9
	z M747.2,487.5c9.2,0,9.1,0,8.8-7.5c-0.1-2.2-0.7-3.3-3.1-3.2c-3.7,0.1-7.4,0-11.2,0c-1.1,0-2-0.1-2.5,1.5c-1.7,6.7,0.2,9.2,6.9,9.2
	C746.5,487.5,746.8,487.5,747.2,487.5z"/>
<path class="st1" d="M609.8,490.5c3.5,3.8,6.4,6.9,9.6,10.3c-1.9,1.2-3.2,0.6-4.5-0.9c-2.3-2.5-5-4.7-7-7.5c-2-2.7-4.6-2.6-6.9-2
	c-2.7,0.6-0.7,3.3-1.3,4.9c-0.7,2,1.5,5.8-1.3,5.7c-3.3,0-1.4-3.8-1.5-5.9c-0.3-5.8,0-11.7-0.2-17.5c-0.1-2.4,0.4-3.5,3.2-3.4
	c5,0.2,10.1,0.1,15.1,0c2.9,0,4.2,1.3,4.1,4.1c0,1,0,1.9,0,2.9C619,490,619,490,609.8,490.5z M607.7,487.5c9.7-0.2,8.1,1.5,8.5-6.8
	c0.1-2.9-0.8-4.1-3.8-3.9c-3.4,0.2-6.8,0-10.2,0.1c-1,0-2.1-0.3-2.6,1.3c-1.9,6,0.4,9.4,6.7,9.4
	C606.8,487.5,607.3,487.5,607.7,487.5z"/>
<path class="st1" d="M1346.3,559.4c-2.5,0-4.6,0.1-6.7,0c-1.2-0.1-2.8,0.7-3.3-1c-0.4-1.2,0.5-2.1,1.3-3
	c5.7-5.8,11.4-11.6,17.1-17.4c0.9-1,1.9-1.9,3.4-1.5c2.1,0.6,1.2,2.4,1.3,3.7c0.1,4.1,0.2,8.1,0,12.2c-0.1,2.8,0.4,4.4,3.7,3.9
	c1.2-0.2,2.9-0.5,2.8,1.6c0,2-1.8,1.7-2.9,1.5c-3.3-0.5-3.9,1.1-3.6,3.9c0.1,1.1,0,2.3,0,3.4c0,1-0.6,1.4-1.6,1.4
	c-1,0-1.8-0.5-1.6-1.4C1358,556.9,1350.8,559.8,1346.3,559.4z M1341.6,555.2c0.1,0.4,0.3,0.8,0.4,1.2c3.8,0,7.7,0,11.5,0
	c1.5,0,2.6-0.4,2.5-2.1c-0.1-4.2,0.5-8.5-0.2-11.9C1351.2,546.6,1346.4,550.9,1341.6,555.2z"/>
<path class="st1" d="M636.2,501.5c-10.4,0-10.4,0-10.4-10.2c0-4.5,0.1-9.1-0.1-13.6c-0.1-2.5,0.5-3.4,3.2-3.3
	c4.9,0.2,9.7,0,14.6,0.1c1,0,2.7-0.4,2.7,1.2c0.1,1.7-1.6,1.2-2.6,1.2c-4.1,0.1-8.1,0.1-12.2,0c-4.9-0.1-2.3,3.6-2.7,5.6
	c-0.4,1.8-0.9,4.5,2.7,4c2.1-0.2,4.2-0.1,6.3,0c0.9,0,2.2-0.2,2.2,1.2c0.1,1.3-0.9,1.5-2,1.5c-1.5,0-3,0.2-4.4,0
	c-4-0.6-5.2,0.7-5.2,4.9c0,4.1,1.1,5.4,5.2,5c3.5-0.4,7.1-0.1,10.7-0.1c0.9,0,2.1-0.2,2.1,1.3c0,1.4-1.2,1.3-2.1,1.3
	C641.7,501.5,638.9,501.4,636.2,501.5z"/>
<path class="st2" d="M163.1,555.6c0.4-4.2-2.2-11.1,1-14c2.8-2.5,9.6-0.7,14.6-0.8c1.9,0,3.9,0,5.8,0c0.9,0,2.1-0.2,2.2,1.2
	c0.1,1.6-1,1.7-2.2,1.7c-4.7,0-9.5,0.3-14.1-0.1c-4.2-0.4-4.5,1.6-4.2,4.8c0.2,2.7-1,6.2,4,5.4c2.2-0.3,4.5-0.1,6.8,0
	c1.2,0,2.9-0.5,2.8,1.6c-0.1,1.8-1.6,1.2-2.6,1.3c-2.4,0.1-4.9,0.2-7.3,0c-3.1-0.3-3.7,1-3.7,3.9c0,8.7-0.1,8.7,8.5,8.7
	c3.4,0,6.8,0,10.2,0c1.2,0,2.4-0.1,2.2,1.7c-0.1,1.4-1.2,1.2-2.2,1.2c-6.5,0-13-0.1-19.5,0.1c-2.1,0-2.4-0.9-2.3-2.6
	C163.1,565.2,163.1,560.8,163.1,555.6z"/>
<path class="st1" d="M1384,567.6c3.7-9.9,9.3-18.4,13.7-28.2c-6.2,0-11.9,0.1-17.5,0c-2.6-0.1-2.1,1.7-2.3,3.2
	c-0.2,1.2,1.1,3.3-1.4,3.3c-2.6,0-1.7-2.2-2-3.6c-0.9-4.9,1-6.5,6-6.1c6,0.5,12,0.2,18,0.1c3.3-0.1,3.7,1.5,2.5,3.9
	c-4.4,8.6-9.1,17.1-12.9,26C1387.4,568.1,1386,568.5,1384,567.6z"/>
<path class="st1" d="M107,500.9c-2.6,1.3-3.6-0.4-4-2.1c-1.1-4.2-4-5-7.7-4.5c-1.1,0.1-2.3,0.1-3.4,0c-4.1-0.5-7.3,0.3-8.4,4.9
	c-0.3,1.3-1.1,2.8-2.7,2c-1.8-0.9-0.2-2.2,0.2-3.2c3.1-7.2,7.3-14,10-21.4c0.5-1.3,1.1-2.3,2.7-2.3c1.3,0,2,0.7,2.5,1.9
	C99.7,484.5,103.3,492.7,107,500.9z M87.1,491.8c4.4,0,8.2,0,12.5,0c-2.2-4.9-4.2-9.5-6.2-14.2C91.3,482.3,89.3,486.8,87.1,491.8z"
	/>
<path class="st1" d="M677.1,500.1c0.4,1.6-0.9,1.3-1.8,1.2c-0.5-0.1-1.3-0.6-1.4-1.1c-2.8-9.8-10.8-4.8-16.6-5.6
	c-2.4-0.4-2.4,3-3.5,4.6c-0.7,1-1.1,2.8-2.7,2.1c-2-0.8-0.3-2.1,0.2-3.1c3.2-7,6.5-14,9.8-21c0.6-1.3,0.9-2.8,2.8-2.8
	c1.7,0,2.3,1.1,2.7,2.3c2.7,7.6,6.6,14.7,9.9,22C676.7,499.1,676.9,499.6,677.1,500.1z M657.5,491.7c4.4,0,8.3,0,12.4,0
	c-2.1-4.8-4.1-9.3-6.1-14C661.6,482.4,659.6,486.9,657.5,491.7z"/>
<path class="st1" d="M94.4,541.3c2.7-1,4.2-0.4,5.5,1.5c1.2,1.7,2.6,3.3,3.9,4.9c5.3,6.6,5.1,6.5,10.9,0c2.4-2.6,3.6-7.1,9.3-6.8
	c-2.8,3.4-4.8,6.6-7.5,9.1c-4.9,4.6-6.6,9.9-6,16.5c0.2,1.8,1.6,5.4-1.4,5.5c-3.3,0.1-1.7-3.6-1.5-5.3c0.8-6.8-1.2-12.2-6.1-16.9
	C98.9,547.3,96.9,544.4,94.4,541.3z"/>
<path class="st1" d="M1282.3,550.7c0,2.9,0.2,5.9,0,8.8c-0.2,3.4-0.1,6.2,4.6,5.3c1-0.2,2,0.3,2,1.5c0.1,1.2-0.7,1.7-1.8,1.7
	c-4.2,0-8.5,0-12.7,0c-1.1,0-1.9-0.4-1.9-1.6c0-1.3,0.8-1.8,1.9-1.6c5.3,1,4.7-2.6,4.7-5.8c-0.1-4.9-0.1-9.7,0-14.6
	c0.1-2.8-0.1-4.9-3.8-4.1c-0.9,0.2-2.5,0.9-2.7-1c-0.2-1.8,1.5-1.3,2.5-1.6c7.3-2.1,7.3-2.1,7.3,5.2
	C1282.3,545.5,1282.3,548.1,1282.3,550.7z"/>
<path class="st1" d="M685.4,489.1c0-0.6,0-1.3,0-1.9c0-3.1,0.9-6.7-0.4-9.1c-1.5-2.8-5.5-0.7-8.4-1.2c-0.7-0.1-1.7,0.2-1.9-0.9
	c-0.2-1.4,0.8-1.5,1.9-1.5c6.8,0,13.6,0,20.4,0c0.8,0,1.8,0.1,1.9,1.1c0.1,1.5-1.1,1.2-2,1.3c-2.8,0.3-6.9-1.4-8.2,0.8
	c-1.4,2.4-0.5,6.3-0.5,9.5c0,4,0,8.1,0,12.1c0,1-0.1,2-1.4,2c-1.4,0-1.3-1.1-1.3-2.1C685.4,495.9,685.4,492.5,685.4,489.1z"/>
<path class="st1" d="M62.6,487.4c0.4-3.7-2-9.6,0.9-12.2c2.5-2.2,8.3-0.9,12.7-0.7c2.3,0.1,6.1-1.8,6.5,1.3c0.2,1.9-4.1,0.7-6.3,1
	c-2.1,0.2-4.2,0.3-6.3,0c-3.9-0.6-4.7,1-4.8,4.7c-0.1,3.9,0.8,5.7,5,5c1.1-0.2,2.3-0.2,3.4,0c1.2,0.2,3.4-1,3.4,1.3
	c0,2.2-2.2,1.1-3.5,1.4c-0.2,0-0.3,0-0.5,0c-7.6,0.1-7.6,0.1-7.7,7.9c0,0.3,0.1,0.7,0,1c-0.3,1.2,0.9,3.4-1.6,3.2
	c-2.3-0.2-1.2-2.3-1.3-3.5C62.5,494.6,62.6,491.3,62.6,487.4z"/>
<path class="st1" d="M173.5,474.9c3.9-1.5,4.9,1.7,6.2,3.5c6.2,9.1,6.1,9.2,12.5,0.1c1.3-1.8,2.3-4.5,6-3.9c-1.6,2.5-2.7,5-4.5,6.8
	c-4.9,4.9-7.5,10.4-6.3,17.4c0.2,1.1,0.3,2.4-1.4,2.6c-1,0.1-1.7-0.5-1.5-1.4C187.1,489,178.4,482.8,173.5,474.9z"/>
<path class="st1" d="M160,487.7c0.3,3.2-1.7,8.2,0.8,10.5c2.4,2.3,7.4,0.5,11.2,0.7c0.6,0,1.3-0.1,1.9,0c1.1,0.2,3-0.8,2.9,1.4
	c-0.1,1.7-1.7,1-2.7,1.2c-0.3,0-0.6,0-1,0c-5.2-0.1-11.9,1.7-15-0.8c-3.2-2.7-0.7-9.7-1-14.8c-0.1-2.9-0.1-5.8,0-8.7
	c0-1-0.6-2.6,1.2-2.6c2-0.1,1.6,1.6,1.6,2.8C160,480.5,160,483.8,160,487.7z"/>
<path class="st2" d="M146.6,487.6c0-3.6,0-7.1,0-10.7c0-1-0.5-2.5,1.4-2.4c1.4,0.1,1.4,1,1.4,2.1c0,7.6,0,15.2,0,22.8
	c0,1.1-0.2,1.9-1.6,1.9c-1.5,0-1.3-1.1-1.3-2.1C146.6,495.4,146.6,491.5,146.6,487.6z"/>
<path class="st2" d="M81.3,322.9c0-8.9,0.1-17.8-0.1-26.8c-0.1-3,0.5-4.3,3.9-4.2c14.8,0.2,29.6,0,44.4,0.1c7.1,0,9.3,2.2,9.3,9.4
	c0,14.4,0.1,28.9,0,43.3c0,6.9-2.1,9.2-9,9.2c-15.1,0.1-30.2,0-45.4,0.1c-2.7,0-3.2-1-3.2-3.4C81.4,341.4,81.3,332.1,81.3,322.9z
	 M87.9,323c0,7.1,0.1,14.3-0.1,21.4c-0.1,2.9,0.6,3.8,3.7,3.8c11.9-0.2,23.7-0.2,35.6,0c3.7,0,5.3-1.1,5.3-5
	c-0.1-13.5-0.1-26.9,0-40.4c0-3.4-1.1-5-4.8-5c-12.2,0.1-24.4,0.1-36.6,0c-2.6,0-3.3,0.8-3.2,3.3C88,308.4,87.9,315.7,87.9,323z"/>
<path class="st2" d="M262.1,307.2c-1.1-2.9,1.2-7.3-1.1-8.6c-2.6-1.5-6.6-0.6-10-0.6c-8.3,0-16.6,0.1-24.9-0.1
	c-2.8-0.1-3.7,0.7-3.6,3.5c0.2,4.9,0.2,9.7,0,14.6c-0.2,3.1,0.7,4.2,4,4.1c11.7-0.2,23.4-0.1,35.1-0.1c6.2,0,7.4,1.2,7.4,7.4
	c0,6.5,0.1,13,0,19.5c-0.1,5.8-1.4,7.1-7.3,7.1c-13,0.1-26,0-39,0c-4,0-7-0.8-7.4-5.6c-0.6-8-0.7-8.1,5.8-9.5
	c0.2,0.2,0.5,0.4,0.5,0.6c0.5,8.6,0.5,8.6,9.1,8.6c9.4,0,18.9-0.1,28.3,0.1c3,0.1,4-0.8,3.8-3.8c-0.2-4.9-0.3-9.7,0-14.6
	c0.2-3.1-0.7-4.1-4-4.1c-11.7,0.2-23.4,0.1-35.1,0.1c-6.1,0-7.5-1.2-7.6-7.4c-0.1-6.6,0-13.3-0.1-20c0-4.4,2.2-6.5,6.6-6.5
	c12.9,0,25.7,0,38.6,0c4.5,0,6.9,1.8,7,6.6C268.4,306.2,268.6,306.2,262.1,307.2z"/>
<path class="st2" d="M583.1,302.1c0,16.6,0,32.3,0,48c0,2,0.6,4.1-3,4c-3.3,0-3.6-1.3-3.6-4c0.1-17.8,0-35.7,0.1-53.5
	c0-1.6-1.1-4,1.5-4.4c2.1-0.3,4.5-0.9,6.3,1.3c5.5,6.6,11.5,12.8,16.6,19.7c7.7,10.6,16.9,20,24.9,30.3c1.7-1,1-2.5,1-3.6
	c0.1-14.6,0-29.2,0-43.8c0-2-0.7-4.1,2.9-4.2c3.6-0.1,3.4,1.9,3.4,4.2c0,17.4,0,34.7-0.1,52.1c0,1.9,1.3,4.8-1.1,5.6
	c-2.7,0.8-5.4,0.3-7.7-2.5c-8.7-10.7-17.7-21.1-26.6-31.6C592.9,314,589.2,307.6,583.1,302.1z"/>
<path class="st2" d="M402.5,322.9c0,8.3-0.1,16.5,0,24.8c0.1,4.3-2,6.3-6.2,6.3c-15,0-29.9,0-44.9,0c-4.5,0-6.5-2.2-6.4-6.6
	c0.1-16.2,0-32.4,0-48.6c0-5.3,1.4-6.7,6.7-6.7c14.6-0.1,29.3-0.1,43.9,0c5.6,0,6.8,1.4,6.8,7C402.5,307,402.5,314.9,402.5,322.9z
	 M351.6,322.7c0,7.3,0.1,14.6-0.1,21.9c-0.1,2.7,0.6,3.6,3.5,3.6c12.5-0.1,25-0.1,37.5,0c2.6,0,3.8-0.6,3.8-3.5
	c-0.1-14.4-0.1-28.8,0-43.3c0-2.8-0.9-3.6-3.6-3.6c-12.5,0.1-25,0.1-37.5,0c-2.7,0-3.7,0.7-3.6,3.5
	C351.7,308.4,351.6,315.6,351.6,322.7z"/>
<path class="st2" d="M420.9,322.8c0-8.9,0.1-17.8-0.1-26.7c-0.1-3,0.5-4.2,3.9-4.2c12.5,0.2,25,0,37.5,0.1c7.4,0,9.4,2.2,9.5,9.7
	c0,6,0.1,12,0,18c-0.1,6.5-2.3,8.8-8.8,8.9c-10.6,0.1-21.1,0.2-31.7,0c-3.3-0.1-4.1,1-4,4.1c0.2,6.1-0.1,12.3,0.1,18.5
	c0.1,2.9-1.4,2.9-3.6,3c-2.4,0.1-3-0.8-3-3C421,341.6,420.9,332.2,420.9,322.8z M445.9,297.9c-5,0-10.1,0.1-15.1,0
	c-2.5-0.1-3.5,0.6-3.4,3.3c0.1,6.2,0.2,12.3,0,18.5c-0.1,2.7,1.1,3.2,3.5,3.2c9.9-0.1,19.9-0.2,29.8,0c3.7,0.1,4.8-1.4,4.7-4.9
	c-0.2-4.7-0.3-9.4,0-14.1c0.3-4.4-1.2-6.2-5.8-5.9C455,298.1,450.4,297.9,445.9,297.9z"/>
<path class="st2" d="M501.2,353.5c5.8-11.9,11.6-23.6,17.2-35.4c3.6-7.6,7.2-15.2,10.7-22.8c1.1-2.3,2.3-3.5,5.1-3.4
	c2.7,0,4,0.9,5.1,3.3c8.9,19.5,18,38.9,27.1,58.4c-4.9,1.2-8.3,0.3-9.7-5c-2.4-9.3-8.1-13-18-11.5c-6.2,1-12.7,0.3-19,0.1
	c-2.4-0.1-3.9,0.6-4.8,2.9c-1.2,2.8-2.9,5.5-3.9,8.3C509.3,353,506.7,355.2,501.2,353.5z M533.9,297.8
	c-5.3,11.8-10.2,22.7-15.1,33.8c10.1,0,19.9,0,30.1,0C543.9,320.4,539.1,309.6,533.9,297.8z"/>
<path class="st2" d="M301.8,325.8c0-7.5-0.4-14.9,0.1-22.4c0.3-5-1.4-6-5.9-5.6c-5.5,0.4-11.1,0-16.6,0.1c-2.4,0.1-3-0.8-3-3.1
	c0-2,0.6-2.9,2.8-2.8c17.1,0.1,34.2,0.1,51.2,0c2.7,0,2.7,1.3,2.8,3.3c0.1,2.3-0.9,2.7-2.9,2.6c-6-0.1-12,0.2-18.1-0.1
	c-3.4-0.1-4.4,0.9-4.4,4.4c0.2,15.6,0.1,31.1,0,46.7c0,2.1,1.6,5.3-3.2,5.2c-4.9-0.1-2.8-3.5-2.9-5.5
	C301.6,341,301.8,333.4,301.8,325.8z"/>
<path class="st1" d="M148.2,292.3c5.5-1.4,8.7,0.5,11.7,4.5c5.7,7.7,12,14.8,17.4,23.2c4.5-5.6,8.8-10.9,13.1-16.2
	c2.1-2.6,4.5-5.1,6.4-7.9c2.5-3.7,5.6-5,10.4-3.5c-2.3,2.9-4.5,5.6-6.7,8.3c-6.1,7.7-12.2,15.5-18.4,23.1c-1.3,1.6-1.4,3.2-1.4,4.9
	c0,7.3-0.1,14.6,0,21.9c0,2.2-0.2,3.5-3.1,3.5c-2.9,0-3.6-1-3.5-3.7c0.2-6.6-0.2-13.3,0.1-19.9c0.2-3.7-1.1-6.4-3.4-9.1
	c-7.4-9-14.6-18.1-21.8-27.2C148.8,293.7,148.6,293.1,148.2,292.3z"/>
<path class="st1" d="M491.1,323.4c0,9.1-0.1,18.2,0.1,27.2c0.1,2.8-0.9,3.5-3.6,3.5c-2.9,0.1-3.1-1.2-3.1-3.5
	c0.1-18.5,0.1-37,0-55.4c0-2.5,0.7-3.4,3.3-3.3c2.5,0,3.4,0.7,3.4,3.3C491,304.6,491.1,314,491.1,323.4z"/>
<path class="st5" d="M1749.9,278.9c5.2-11.1,10.4-22.3,11.1-34.9c0-0.6,0.3-1.3-0.5-1.9c-1.4,1-3,2.1-5,3.6
	c-0.7-6.5-2.3-12.3-4.6-18.2c-0.6,5.1-1.1,10.2-1.7,15.2c-0.2,2.1-0.5,4.2-0.8,6.3c-0.9,5.8-0.9,5.8,5.3,5.1
	c-2,8.2-6.3,15.2-11.2,21.7c-1.7,2.3-2.5,4.3-2.5,6.9c-0.2,14.8,0.6,29.5-0.3,44.3c-0.3,4.5-1.4,6.8-6.4,6.7c-4-0.1-8,0.9-12.5,1.5
	c5.9-23.3,3.2-46.6,4.4-69.7c0.4-7.2,0.5-7.2,6.1-11.4c-3-3.4-10.5-4.2-13.7-1.5c-1.2,1.1-0.6,2.4-0.6,3.6c-0.1,8.1,0,16.1,0,24.9
	c-3.8-2.1-7-3.9-10.3-5.5c-2-1-1.5-2.7-1.4-4.2c0.4-4.5,0.6-9.1,1.4-13.5c0.7-3.7-1.6-4-4-4.4c-3.6-0.7-2,2.2-2,3.5
	c-0.1,22.1,0,44.1-0.3,66.2c0,3.9,2.1,3.6,4.6,3.7c4,0.2,1.8-2.6,1.8-4c0-2.7,0-5.6-0.7-8.2c-2.4-8.6,2-12.8,9.8-15.4
	c0.5,7.5-0.6,15-1.2,22.5c-0.3,4.2,0.5,9.5-2.4,12.1c-2.6,2.3-7.7,1.8-11.6,2.6c-1.1,0.2-2.2,1-3.2,0.9c-4.1-0.3-8.6,0-9.8-5.6
	c-0.5-2.2-1.7-4.1-2.9-6.9c4.7,1.5,4.9-0.8,4.7-4.2c-1.3-20.1-2.4-40.2-3.7-60.2c-0.1-1.5,1.7-4.3-1.5-4.5c-3.9-0.3-7.3,2.5-7.3,5.6
	c0.2,10.1,0.7,20.1,0.8,30.2c0.1,15.6,0,31.1,0,47c-3.6-1.2-8-2.7-12.5-4c-2.7-0.7-1.8-2.7-1.9-4.3c-0.7-28.5-1.5-57.1-1.8-85.6
	c-0.1-5.9-1.3-9.5-7.2-10.8c-1.7-0.4-3.2-1.4-5.6-2.4c0,3.8,0,7,0,10.1c0,15.4,0,30.8-0.1,46.3c0,2.5,0.1,4.4,2.6,6.1
	c3.2,2.2,3,6.6,0.4,9.5c-2.3,2.5-6.6,2.7-9.3,0.5c-2.9-2.4-3.6-6.9-0.6-9.5c2.5-2.2,2.5-4.5,2.5-7.3c0.1-18.5,0.1-37,0.3-55.5
	c0-2.4-0.6-3.8-3-4.7c-4.5-1.7-8.9-3.9-13.4-5.8c-0.9-0.4-2.1-1.6-2.8,0.1c-0.4,1.1-0.1,2.3,1.1,2.9c0.6,0.3,1.2,0.7,1.8,0.8
	c7.3,1.3,8.9,5.6,8.5,12.7c-0.7,12.3-0.2,24.7-0.2,37c0,2.2,0.3,3.8,2.3,5.3c3.5,2.8,3.6,6.8,0.8,9.8c-2.4,2.5-6.8,2.7-9.3,0.4
	c-2.9-2.5-3.2-7.2-0.2-9.9c1.9-1.7,2-3.4,2-5.5c0-12.3-0.3-24.7,0.3-37c0.2-5.2-2.3-7.6-6.3-9.1c-3.7-1.4-5.8-3.2-4.9-7.3
	c0.7-3-1.1-4.2-3.5-4.7c-4.4-0.9-5.5-4-6.3-7.9c-3.3-16.2-6.9-32.3-8.2-48.9c-1.8-21,3-39.8,17.8-55.4c1-1.1,2.2-2,3.4-2.8
	c9.5-6.8,6.6-6.9,11.6,3.6c1.7,3.6,3.2,7.4,4.8,11.1c0.2,0.4,0.4,0.9,0.8,1.9c1.4-2.7,2.3-4.5,3.6-7.1c3.2,5.5,5.9,10.4,9.9,14.9
	c0.9-3.8-0.8-6.8-1.5-9.8c-0.9-4.3-2.1-8.5-2.7-12.8c-0.5-3.6-1.4-5.6-5.1-2.5c0-4.9,0-9.4,0-13.9c0-1.2,0.3-2.2,1.4-2.8
	c12.9-6.6,24.9-15.5,39.9-17.4c14.7-1.9,29.2,0.2,43.6,3.2c8.7,1.8,17.6,3.2,25.6,7.5c10.9,6,17.9,15.4,23.2,26.1
	c5.6,11.1,10.9,22.4,16.1,33.7c6.5,14.1,7.3,28.7,3.7,43.7c-3,12.6-5.8,25.2-8.7,37.9c0.2,0.1,0.4,0.5,0.7,0.5
	c6.1-0.2,6-0.2,3.7,5.6c-6.8,17.5-16.7,32.8-30.5,45.6c-4.2,4-8.6,7.2-14,8.9C1750.3,279.4,1750.1,279.1,1749.9,278.9z
	 M1707.9,201.6c4.5,2.2,8.5,4.1,12.3,6.2c2.3,1.3,3.5,1,5.1-1.2c3.9-5.5,8.1-10.9,12.5-16.6c6.1,6.2,11.8,12.1,17.8,18.3
	c3.3-4.5,6.2-8.7,9.4-12.8c1.4-1.8,0.6-2.6-0.8-3.9c-4.3-3.9-8.8-7.6-13.6-10.7c-2.9-1.9-2.7-3-0.4-5.3c5.7-5.4,11.2-11.2,17-17
	c-4.7-2.1-9-3.8-13.2-5.9c-2.4-1.2-3.6-0.6-5,1.5c-2.6,4.1-5.8,7.8-8.3,12c-1.8,3-3.3,2.5-5.6,0.9c-5.4-3.9-10.9-7.6-16.4-11.3
	c-0.9-0.6-1.9-2.2-3.3-0.9c-2.4,2.2-2,10.1,0.6,12.5c4.5,4.1,9,8.3,13.5,12.5C1722,187,1716.1,194.9,1707.9,201.6z M1715,226.6
	c0.3-3.3-8.4-18.7-10.8-20c-1.4-0.8-1.9,0.3-2.9,0.8c-4.9,2.6-5.3,8.4-8.4,12.1c-4.8,5.6-1.8,10.4,0.6,15.4c1.1,2.3,2.7,3.1,5,1.4
	c2.7-2,5.5-2.2,8.5-0.6c2.3,1.2,4.3,0.2,5.3-1.9C1713.4,231.3,1714.2,228.7,1715,226.6z M1643.9,191.2c-4.3-10.2-1.9-18.7,4-26.6
	c1.3-1.7,1.3-2.6-0.7-3.7c-4-2.1-7.9-4.5-11.8-6.7c-3-1.7-4-0.3-3.5,2.6c1.7,9.7,3.7,19.3,5.3,29
	C1637.8,189.2,1639.7,190.7,1643.9,191.2z M1670.1,178.5c0-4.2-5.6-10-9.9-10.2c-3.3-0.2-7,6-7,11.6c0,5.5,4.2,10.8,8.6,10.6
	C1666.3,190.4,1670.1,185,1670.1,178.5z M1683.1,194.4c3.8,0.2,7.9-1,12-1.9c2.4-0.5,3.7-0.8,1.1-3.5c-3.5-3.6-8.4-4.8-12.3-7.7
	c-1.6-1.2-2,0.2-2.5,1.6c-1,3.1-1.4,6.3-3.7,8.9c-1.6,1.8-0.5,2.5,1.4,2.5C1680.4,194.4,1681.5,194.4,1683.1,194.4z M1649.1,299.1
	c0.1-1.4-0.2-2.5-2.1-2.5c-2.2,0-2.8,1.1-2.8,3c0,1.4,0.3,2.7,2,2.7C1648.3,302.2,1649.1,300.9,1649.1,299.1z M1637.6,285.3
	c-0.2-1.6-1.1-2.5-2.8-2.6c-1.8,0-2.7,1.1-2.8,2.7c-0.1,1.7,1.1,2.6,2.7,2.6C1636.5,288,1637.4,287,1637.6,285.3z"/>
<path class="st5" d="M1750.5,279.6c-0.4,0-1,0.2-1.1,0.1c-0.4-0.4,0.1-0.7,0.5-0.8C1750.1,279.1,1750.3,279.4,1750.5,279.6z"/>
<path class="st2" d="M1726.6,508.7c0-6.5,0-13,0-19.4c0-0.8,0.1-1.6,0-2.4c-0.1-1.4,0.3-3.4,1.3-3.3c7.4,0.8,4.3-11.4,12.5-9.8
	c3.6,0.7,7.5,0.2,11.2,0.1c3.3-0.1,5.4,1.1,5.4,4.6c-0.1,2.7,1,3.6,3.7,3.8c2.5,0.2,3.9,2,3.9,4.7c0,14.6,0,29.2,0,43.7
	c0,1.4-0.5,3.4-1.5,3.3c-6.6-0.7-4.8,9-11.1,8.7c-4.4-0.2-8.8-0.1-13.2,0c-2.9,0-4.8-1.1-4.9-4.1c-0.1-2.2-0.7-3.2-3.1-3.2
	c-3.3,0-4.3-2.1-4.3-5.1C1726.6,522.9,1726.6,515.8,1726.6,508.7z M1755.3,497c0.5,0.3,0.9,0.6,1.4,0.9c0.5-0.9,0.1-1.4-0.7-1.7
	c-0.1-3.1-0.2-6.1-0.2-9.2c0-2.5-1-3.5-3.5-3.4c-4.4,0.1-8.7,0.2-13.1,0c-3-0.1-3.9,0.9-3.9,3.9c0.1,7.7-0.1,15.4-0.2,23.2
	c-0.7,0.3-1.5,0.8-0.8,1.6c0.8,0.9,1.1-0.4,1.6-0.8c4.3-4.2,8.7-8.4,12.9-12.8C1750.8,496.7,1752.7,495.9,1755.3,497z M1734.1,518.6
	c2.5,3.6,1.2,7.4,1.2,10.9c-0.1,3.5,1.2,4.6,4.5,4.4c3.6-0.2,7.1-0.3,10.7,0c3.9,0.3,5.4-1,5.3-5.1c-0.1-8.2-0.7-16.4,0.6-25.4
	c-4.7,4.7-9.1,8.9-13.2,13.4C1740.5,519.7,1737.9,521,1734.1,518.6z"/>
<path class="st2" d="M1620.4,513.3c0.1,8.3,0.2,16.5,0.2,24.8c0,2.7-1.5,4.2-4.2,4.3c-3,0.1-4.4-1.5-4.4-4.5c0-19.8,0-39.6,0-59.4
	c0-3.1,1.5-4.8,4.8-4.8c6.8,0,13.7,0,20.5,0c3.3,0,5.3,1.4,5.2,4.9c-0.1,2.5,0.8,3.4,3.3,3.5c2.6,0.1,4,1.9,3.9,4.6
	c0,4.5,0,9.1,0,13.6c0,2.9-1.2,4.7-4.2,4.9c-2.3,0.1-3.1,1-3.1,3.3c0,2.3,1.3,2.5,3.1,2.6c2.9,0.2,4.2,2,4.2,4.9
	c-0.1,7.1-0.1,14.3,0,21.4c0,3.2-1.2,5.1-4.5,5c-3.2-0.1-4.4-2.1-4.4-5.2c0.1-6.3-0.3-12.7,0.1-19c0.3-4.9-1.4-6.1-6-5.8
	c-4.5,0.4-9.1,0-13.7,0c-0.5-0.7-0.9-2-2-1C1618.8,512.1,1619.8,512.8,1620.4,513.3z M1620.6,504.8c5.2-1.8,10.6-0.6,15.9-0.7
	c3.3-0.1,4.8-0.9,4.5-4.4c-0.2-3.9-0.2-7.8,0-11.6c0.2-3.4-0.9-4.5-4.4-4.5c-5.7,0-11.4,0.9-16.7-0.7c1,7.1,1.2,14,0,21
	c-0.2,0.3-0.7,0.7-0.7,0.9C1619.6,505.4,1620.1,505.1,1620.6,504.8z"/>
<path class="st2" d="M1879,493.9c0,2.1-0.1,4.2,0,6.3c0.1,3.1-1.1,5-4.4,5.1c-2.1,0-2.8,0.9-2.8,3c0,2.1,0.9,2.7,2.9,2.8
	c3.2,0.2,4.4,2.2,4.3,5.2c-0.1,4.5,0,9.1,0,13.6c0,0.3,0,0.6,0,1c0.1,1.2-0.3,3-1.2,2.9c-6.6-0.6-4.7,9.1-11.1,8.8
	c-4.4-0.2-8.8-0.1-13.2,0c-2.8,0-4.8-1-5-4c-0.1-2.2-0.9-3.2-3.2-3.3c-3.2-0.1-4.4-2.2-4.4-5.2c0-4.5,0.1-9.1,0-13.6
	c0-3.3,1.2-5.4,4.7-5.4c2.2,0,2.8-1.1,2.8-3c0-1.9-1-2.6-2.7-2.7c-3.8,0-4.9-2.3-4.8-5.7c0.1-4,0.1-8.1,0-12.1c-0.1-3,1-5.2,4.2-5.3
	c2.6-0.1,3.4-1.2,3.3-3.6c-0.2-3.2,1.5-4.8,4.7-4.7c4.5,0,9.1,0,13.6,0c3.2,0,4.7,1.6,4.9,4.7c0.1,1.4-0.4,3.3,1.7,3.4
	c5.5,0.1,5.8,3.5,5.5,7.6C1878.9,491,1879,492.4,1879,493.9z M1870.2,523c0-10.4,0-10.4-9.4-10.4c-10.9,0-10.9,0-10.8,11.9
	c0.1,10.8-1.5,9.2,9.2,9.3C1870.2,533.9,1870.2,533.9,1870.2,523z M1860.1,483.6c-10.1,0-10.1,0-10.1,9.7c0,10.5,0,10.5,10.4,10.5
	c9.8,0,9.8,0,9.8-10C1870.2,483.6,1870.2,483.6,1860.1,483.6z"/>
<path class="st5" d="M1554.7,508.4c0-7,0-13.9,0-20.9c0-1.9,0.1-4.4,1.9-4.5c4.5-0.4,5.4-3.1,6-6.8c0.3-1.5,1.9-2.4,3.8-2.3
	c4.7,0.1,9.4,0.1,14.1,0c3,0,4.6,1.5,4.6,4.4c-0.1,2.6,0.7,3.8,3.5,4c2.5,0.1,4.1,1.9,4,4.6c-0.1,2.4-1.7,3.9-4.1,4
	c-2.6,0.2-4.5-1.2-4.5-3.9c0-3.1-1.7-3.3-4.1-3.3c-4.2,0.1-8.5,0.2-12.7,0c-3.1-0.2-3.8,1.1-3.8,3.9c0.1,14.1,0.1,28.2,0,42.3
	c0,3.3,1.2,4.3,4.3,4.1c3.2-0.2,6.5,0,9.8,0c3.3,0,7,1,6.8-4.7c-0.1-1.8,2.3-3,4.5-2.6c2.4,0.4,3.7,1.9,3.8,4.3
	c0.2,2.4-1.3,4.1-3.2,4.2c-3.5,0.1-4.4,1.4-4.5,4.7c0,1.9-2,2.8-4,2.8c-4.9,0-9.8,0-14.6,0c-1.4,0-3.3-0.6-3.3-1.5
	c0.6-6.4-9-4.6-8.5-11.2C1555.2,522.7,1554.7,515.5,1554.7,508.4z"/>
<path class="st2" d="M1812.5,483.5c-7.8,0-15.6,0.1-23.4,0.1c-3.4,0-5.2-1.5-5.2-4.9c0-3.3,1.6-5,5.1-5c9.3,0.1,18.5,0,27.8,0
	c0.9,0,2.1,0,2.8,0.5c4.2,3.6,1.9,8.5,2.1,12.8c0.2,2.6-2.1,3.7-4.7,3.7c-4.7,0.1-0.8,6.2-4.6,6.7c-3.3,0.5-5.6,1-5.1,5.4
	c0.5,5.6,0.1,11.3,0.1,17s-0.1,11.3,0,17c0.1,3.3-1.1,5.4-4.6,5.4c-3.7,0-4.4-2.4-4.4-5.5c0.1-11.5,0.1-23,0-34.5
	c0-3.3,0.8-5.9,4.7-5.9c2.2,0,2.8-1.1,2.6-3c-0.2-2.1,1.3-4.1,2.8-3.9c4.8,0.6,4.2-2.7,4.7-5.4c0.3-0.5,0.7-1,1-1.4
	C1813.3,482.1,1812.8,482.7,1812.5,483.5z"/>
<path class="st2" d="M1683,490.6c-3.2,0.2-6.4,0.1-6.4-4.2c0.1-4.1,2.9-4.8,6.3-4.1c0.5,0.6,1.2,1.7,1.8,1c1-1-0.3-1.5-0.9-2
	c0-1-0.2-1.9-0.1-2.9c0.2-2.8,1.5-4.6,4.5-4.6c3,0.1,4.2,1.8,4.2,4.7c0,7.8,0,15.5,0,23.3c0,9.1,0,18.1,0,27.2
	c0,1.6,0.4,3.3-0.8,4.7c0,0.4-0.2,1-0.1,1.2c0.5,0.3,0.8,0,1-0.5c3.2-0.9,6.5-1.3,7,3c0.6,4.5-2.5,5.2-6.2,5.1
	c-3.5-0.1-7.1-0.1-10.6,0c-3.1,0.1-6.1-0.1-6.2-4.2c-0.1-4.4,3.1-4.6,6.4-4.4c0.5,0.5,1.1,1.7,1.8,1c0.9-0.9-0.4-1.4-1-1.9
	c0-13.8,0.1-27.6,0.1-41.5c0.7-0.5,2-0.9,1-2C1684.2,489,1683.6,490,1683,490.6z"/>
<path class="st4" d="M398.8,127.9c-10.6,0-21.1-0.1-31.7,0.1c-3.1,0.1-3.8-0.9-3.8-3.8c0.2-12.6,0.2-25.3,0-37.9
	c0-3.2,1.1-3.7,3.9-3.7c21,0.1,41.9,0,62.9,0.1c6.9,0,8.3,1.4,8.4,8.2c0,9.7,0,19.4,0,29.2c0,6.6-1.2,7.8-8,7.9
	C419.9,128,409.4,127.9,398.8,127.9z"/>
<path class="st4" d="M137.8,127.9c-10.6,0-21.2-0.1-31.7,0.1c-3,0-3.9-0.7-3.9-3.8c0.2-12.7,0.2-25.3,0-38c0-3.1,1.1-3.7,3.9-3.7
	c21.1,0.1,42.3,0,63.5,0.1c6,0,7.6,1.3,7.7,7.4c0.3,10.2,0.2,20.4,0.1,30.7c-0.1,5.9-1.4,7.1-7.4,7.2
	C159.3,128,148.6,127.9,137.8,127.9z"/>
<path class="st4" d="M268.8,83.2c9.9,21.9,19.5,43.1,29.4,65.1c-3.9,0-7.1,0-10.2,0c-15,0-29.9,0-44.9,0c-3.1,0-4.7-0.4-3-4
	c9.1-19.4,18.1-38.9,27.1-58.4C267.6,85.2,268,84.6,268.8,83.2z"/>
<path class="st4" d="M141,569.2c-1,0-1.9,0-2.9,0c-6.3,0-6,0-6.4-6.4c-0.3-4.7,1-6.5,5.7-5.7c2.2,0.3,4.5,0,6.8,0.1
	c7.8,0.1,6.8-0.8,6.8,6.6C151.1,569.2,151.1,569.2,141,569.2z"/>
<path class="st3" d="M141.3,543.8c1.5,0,2.9,0.2,4.4,0c4.2-0.7,4.9,1.3,5.1,5.1c0.2,4.4-1.4,5.7-5.5,5.2c-2.6-0.3-5.2-0.4-7.7,0
	c-4.7,0.7-6.2-0.9-5.8-5.7C132.2,543.9,131.8,543.8,141.3,543.8z"/>
<path class="st4" d="M1423.1,565c-1.3,0-2.6-0.2-3.9,0c-4.8,0.7-6.6-0.9-6.3-6c0.5-7.3-0.5-6.1,6.3-6.2c3.2,0,6.5,0.2,9.7-0.1
	c3.6-0.3,5.2,0.5,5,4.6c-0.4,9,0.6,7.4-7.5,7.6C1425.3,565,1424.2,565,1423.1,565z"/>
<path class="st4" d="M1423.6,549.8c-1.3,0-2.6,0-3.9,0c-6.1,0-8.1-2.8-6.3-8.6c0.5-1.6,1.6-1.8,2.9-1.8c4.7,0,9.4,0.1,14,0
	c4.6-0.1,3,3.2,3.1,5.5c0.1,2.2,1.1,5.2-3.1,4.9C1428.1,549.7,1425.9,549.8,1423.6,549.8z"/>
<path class="st4" d="M383,555c-1.1,0-2.3-0.2-3.4,0c-4.6,0.8-6-0.8-5.9-5.6c0-4.6,1.1-6.3,5.8-5.7c3.2,0.4,6.5,0.3,9.7,0
	c3.3-0.3,4.2,1,4.1,4.2c-0.2,8.3,0.7,7-6.9,7.1C385.3,555,384.1,555,383,555z"/>
<path class="st3" d="M934.9,555.7c-1,0-2,0-2.9,0c-6.3,0-6.1,0-6.4-6.4c-0.2-3.7,0.7-5.4,4.7-4.8c2.7,0.3,5.5,0,8.3,0.1
	c7,0.1,6.2-0.8,6.2,6.3C944.8,555.7,944.8,555.7,934.9,555.7z"/>
<path class="st4" d="M731.1,557.6c0,4,1.6,9.6-0.4,11.7c-2,2.1-7.7,0.7-11.7,0.7c-9.8,0-9.8,0-9.8-9.8c0-4.2,0.1-8.4,0-12.7
	c-0.1-2.4,0.8-3.1,3.1-3.1c5.5,0.1,11.1,0.1,16.6,0c2.2,0,2.8,0.8,2.7,2.9c-0.1,3.4,0,6.8,0,10.2
	C731.3,557.6,731.2,557.6,731.1,557.6z"/>
<path class="st4" d="M684.7,555.7c-1.1,0-2.3-0.2-3.4,0c-5.2,1-6.4-1.4-6.2-6.2c0.1-4,1-5.6,5.1-5c2.4,0.3,4.8,0.1,7.3,0.1
	c6.7,0,9,3.2,7,9.7c-0.5,1.6-1.5,1.5-2.6,1.5C689.5,555.7,687.1,555.7,684.7,555.7z"/>
<path class="st4" d="M207,543.8c0.8,0,1.6,0,2.4,0c7.3,0,8.6,1.8,7.2,9.2c-0.4,2.2-1.8,2-3.2,2c-4.4,0-8.8-0.1-13.1,0.1
	c-2.2,0.1-3.1-0.5-3.1-2.9C196.9,543.8,196.8,543.8,207,543.8z"/>
<path class="st4" d="M789.4,560.6c2.5-5.4,4.7-10.2,7.4-15.9c2.6,5.5,4.8,10.3,7.3,15.5C799.2,561.2,794.6,560.6,789.4,560.6z"/>
<path class="st4" d="M706.9,487.8c0-11,0-11,10.6-11c8.3,0,8.4,0,8.3,8.8c-0.1,4.3,2,10-0.9,12.5c-2.5,2.1-8.1,0.3-12.2,0.8
	c-4.8,0.6-6.4-1.2-5.7-5.8C707.1,491.4,706.9,489.6,706.9,487.8z"/>
<path class="st4" d="M747.2,487.5c-0.3,0-0.6,0-1,0c-6.8,0-8.6-2.5-6.9-9.2c0.4-1.6,1.3-1.5,2.5-1.5c3.7,0,7.4,0.1,11.2,0
	c2.4-0.1,2.9,1,3.1,3.2C756.3,487.6,756.4,487.5,747.2,487.5z"/>
<path class="st4" d="M607.7,487.5c-0.5,0-1,0-1.5,0c-6.3,0-8.6-3.3-6.7-9.4c0.5-1.6,1.6-1.3,2.6-1.3c3.4,0,6.8,0.1,10.2-0.1
	c3-0.2,3.9,0.9,3.8,3.9C615.9,489.1,617.5,487.3,607.7,487.5z"/>
<path class="st4" d="M87.1,491.8c2.2-5,4.2-9.5,6.3-14.2c2.1,4.7,4.1,9.3,6.2,14.2C95.4,491.8,91.5,491.8,87.1,491.8z"/>
<path class="st4" d="M657.5,491.7c2.1-4.8,4.1-9.3,6.3-14c2.1,4.7,4,9.2,6.1,14C665.8,491.7,661.9,491.7,657.5,491.7z"/>
<path class="st4" d="M87.9,323c0-7.3,0.1-14.6-0.1-21.9c-0.1-2.5,0.7-3.3,3.2-3.3c12.2,0.1,24.4,0.1,36.6,0c3.7,0,4.8,1.5,4.8,5
	c-0.1,13.5-0.1,26.9,0,40.4c0,3.9-1.6,5-5.3,5c-11.9-0.2-23.7-0.2-35.6,0c-3.1,0.1-3.8-0.9-3.7-3.8C88.1,337.3,87.9,330.1,87.9,323z
	"/>
<path class="st4" d="M351.6,322.7c0-7.1,0.1-14.3-0.1-21.4c-0.1-2.8,0.9-3.5,3.6-3.5c12.5,0.1,25,0.1,37.5,0c2.8,0,3.7,0.9,3.6,3.6
	c-0.1,14.4-0.1,28.8,0,43.3c0,2.9-1.1,3.5-3.8,3.5c-12.5-0.1-25-0.1-37.5,0c-2.8,0-3.5-0.9-3.5-3.6
	C351.7,337.3,351.6,330,351.6,322.7z"/>
<path class="st4" d="M445.9,297.9c4.6,0,9.1,0.2,13.7-0.1c4.6-0.3,6.1,1.5,5.8,5.9c-0.3,4.7-0.2,9.4,0,14.1c0.1,3.5-1,5-4.7,4.9
	c-9.9-0.2-19.9-0.1-29.8,0c-2.4,0-3.6-0.4-3.5-3.2c0.2-6.2,0.2-12.3,0-18.5c-0.1-2.6,1-3.3,3.4-3.3
	C435.8,298,440.8,297.9,445.9,297.9z"/>
<path class="st4" d="M533.9,297.8c5.2,11.8,10,22.7,14.9,33.8c-10.1,0-19.9,0-30.1,0C523.7,320.4,528.6,309.6,533.9,297.8z"/>
<path class="st4" d="M1707.9,201.6c8.2-6.7,14.1-14.6,21.5-21.7c-4.5-4.2-9-8.4-13.5-12.5c-2.6-2.4-3-10.2-0.6-12.5
	c1.4-1.3,2.4,0.3,3.3,0.9c5.5,3.7,11,7.4,16.4,11.3c2.3,1.6,3.8,2.1,5.6-0.9c2.5-4.2,5.7-7.9,8.3-12c1.4-2.1,2.6-2.7,5-1.5
	c4.2,2.1,8.5,3.9,13.2,5.9c-5.8,5.8-11.2,11.5-17,17c-2.3,2.2-2.5,3.4,0.4,5.3c4.9,3.1,9.4,6.8,13.6,10.7c1.4,1.3,2.2,2,0.8,3.9
	c-3.2,4.1-6.1,8.3-9.4,12.8c-6-6.1-11.7-12-17.8-18.3c-4.4,5.8-8.6,11.1-12.5,16.6c-1.5,2.2-2.8,2.4-5.1,1.2
	C1716.4,205.7,1712.4,203.9,1707.9,201.6z"/>
<path class="st4" d="M1715,226.6c-0.8,2.1-1.6,4.7-2.8,7.2c-1.1,2.1-3,3.1-5.3,1.9c-3.1-1.6-5.8-1.5-8.5,0.6c-2.3,1.7-3.9,1-5-1.4
	c-2.4-5-5.3-9.8-0.6-15.4c3.1-3.7,3.5-9.4,8.4-12.1c1-0.5,1.5-1.6,2.9-0.8C1706.5,207.9,1715.3,223.3,1715,226.6z"/>
<path class="st6" d="M1643.9,191.2c-4.2-0.5-6.1-2-6.7-5.4c-1.6-9.7-3.6-19.3-5.3-29c-0.5-2.8,0.5-4.2,3.5-2.6
	c4,2.2,7.8,4.6,11.8,6.7c2,1.1,2,2,0.7,3.7C1642,172.5,1639.6,181,1643.9,191.2z"/>
<path class="st6" d="M1670.1,178.5c0,6.5-3.7,11.9-8.2,12c-4.3,0.1-8.5-5.1-8.6-10.6c0-5.6,3.7-11.7,7-11.6
	C1664.5,168.5,1670.1,174.3,1670.1,178.5z"/>
<path class="st6" d="M1683.1,194.4c-1.6,0-2.7,0-3.9,0c-2,0-3-0.7-1.4-2.5c2.2-2.6,2.7-5.8,3.7-8.9c0.5-1.4,0.8-2.8,2.5-1.6
	c3.9,2.8,8.8,4,12.3,7.7c2.6,2.7,1.3,2.9-1.1,3.5C1691,193.4,1687,194.6,1683.1,194.4z"/>
<path class="st0" d="M1649.1,299.1c0,1.9-0.9,3.1-2.9,3.1c-1.7,0-2-1.2-2-2.7c0-1.9,0.6-3.1,2.8-3
	C1648.9,296.6,1649.2,297.6,1649.1,299.1z"/>
<path class="st4" d="M1637.6,285.3c-0.2,1.7-1.1,2.7-2.8,2.7c-1.6,0-2.8-0.8-2.7-2.6c0.1-1.6,1-2.7,2.8-2.7
	C1636.5,282.8,1637.4,283.7,1637.6,285.3z"/>
<path class="st4" d="M1734.1,518.6c3.8,2.3,6.4,1,9.1-1.8c4.1-4.5,8.6-8.7,13.2-13.4c-1.2,8.9-0.7,17.2-0.6,25.4
	c0,4.2-1.4,5.4-5.3,5.1c-3.5-0.3-7.1-0.2-10.7,0c-3.3,0.2-4.6-0.9-4.5-4.4C1735.3,526,1736.6,522.2,1734.1,518.6z"/>
<path class="st4" d="M1735.2,510.6c0.1-7.7,0.3-15.4,0.2-23.2c0-3,0.9-4,3.9-3.9c4.4,0.2,8.7,0.1,13.1,0c2.5-0.1,3.5,0.9,3.5,3.4
	c0,3.1,0.1,6.1,0.2,9.2c-0.2,0.3-0.5,0.5-0.7,0.8c-2.6-1.1-4.5-0.3-6.4,1.7c-4.2,4.4-8.6,8.5-12.9,12.8
	C1735.7,511.2,1735.4,510.9,1735.2,510.6z"/>
<path class="st4" d="M1736,511.4c-0.5,0.4-0.8,1.6-1.6,0.8c-0.7-0.7,0.1-1.3,0.8-1.6C1735.4,510.9,1735.7,511.2,1736,511.4z"/>
<path class="st4" d="M1756,496.2c0.8,0.3,1.3,0.8,0.7,1.7c-0.5-0.3-0.9-0.6-1.4-0.9C1755.5,496.7,1755.7,496.4,1756,496.2z"/>
<path class="st4" d="M1619.9,503.8c1.2-7,1-13.9,0-21c5.3,1.7,11,0.7,16.7,0.7c3.4,0,4.6,1.1,4.4,4.5c-0.2,3.9-0.3,7.8,0,11.6
	c0.2,3.5-1.2,4.3-4.5,4.4c-5.3,0.1-10.7-1.1-15.9,0.7C1620.4,504.4,1620.2,504.1,1619.9,503.8z"/>
<path class="st3" d="M1620.4,513.3c-0.6-0.5-1.6-1.3-1-1.9c1-1,1.4,0.4,2,1C1621.1,512.8,1620.7,513.1,1620.4,513.3z"/>
<path class="st4" d="M1620.6,504.8c-0.5,0.3-1,0.7-1.3-0.1c-0.1-0.2,0.4-0.6,0.7-0.9C1620.2,504.1,1620.4,504.4,1620.6,504.8z"/>
<path class="st4" d="M1870.2,523c0,10.8,0,10.9-11.1,10.8c-10.7-0.1-9.1,1.5-9.2-9.3c-0.1-11.9,0-11.9,10.8-11.9
	C1870.2,512.6,1870.2,512.6,1870.2,523z"/>
<path class="st4" d="M1860.1,483.6c10.1,0,10.1,0,10.1,10.2c0,10,0,10-9.8,10c-10.4,0-10.4,0-10.4-10.5
	C1849.9,483.6,1849.9,483.6,1860.1,483.6z"/>
<path class="st3" d="M1812.5,483.5c0.3-0.8,0.8-1.4,1.7-0.7c-0.3,0.5-0.7,1-1,1.4C1813,484,1812.7,483.7,1812.5,483.5z"/>
<path class="st3" d="M1683.9,481.3c0.6,0.6,2,1,0.9,2c-0.7,0.6-1.3-0.4-1.8-1C1683.3,482,1683.6,481.6,1683.9,481.3z"/>
<path class="st3" d="M1683.8,533.1c0.7,0.5,1.9,1,1,1.9c-0.7,0.7-1.3-0.5-1.8-1C1683.3,533.6,1683.5,533.3,1683.8,533.1z"/>
<path class="st3" d="M1683,490.6c0.5-0.6,1.2-1.7,1.9-1c1,1-0.3,1.5-1,2C1683.6,491.3,1683.3,490.9,1683,490.6z"/>
<path class="st3" d="M1692.6,534.4c-0.2,0.5-0.6,0.8-1,0.5c-0.2-0.1,0-0.8,0.1-1.2C1692,533.9,1692.3,534.2,1692.6,534.4z"/>
</svg>
