<?xml version="1.0" encoding="utf-8"?>
<!-- Generator: Adobe Illustrator 25.0.1, SVG Export Plug-In . SVG Version: 6.00 Build 0)  -->
<svg version="1.1" id="Layer_1" xmlns="http://www.w3.org/2000/svg" xmlns:xlink="http://www.w3.org/1999/xlink" x="0px" y="0px"
	 viewBox="0 0 1070.8 1080" style="enable-background:new 0 0 1070.8 1080;" xml:space="preserve">
<style type="text/css">
	.st0{clip-path:url(#SVGID_2_);fill:#FEFEFE;}
	.st1{clip-path:url(#SVGID_2_);fill:#CF0826;}
	.st2{clip-path:url(#SVGID_2_);fill:#282425;}
	.st3{clip-path:url(#SVGID_2_);fill:none;}
</style>
<g>
	<defs>
		<ellipse id="SVGID_1_" cx="538.6" cy="543.1" rx="533.8" ry="536.9"/>
	</defs>
	<clipPath id="SVGID_2_">
		<use xlink:href="#SVGID_1_"  style="overflow:visible;"/>
	</clipPath>
	<path class="st0" d="M538.1,1073.7c-176.4,0-352.8,0-529.1,0.1c-3.4,0-4.2-0.8-4.2-4.2c0.1-353.1,0.1-706.1,0-1059.2
		C4.8,7,5.5,6.2,9,6.2c353.1,0.1,706.1,0.1,1059.2,0c3.4,0,4.2,0.8,4.2,4.2c-0.1,353.1-0.1,706.1,0,1059.2c0,3.4-0.8,4.2-4.2,4.2
		C891.5,1073.7,714.8,1073.7,538.1,1073.7z M144.1,518.4c-7.9-0.8-15.8-1.5-23.7-2.3c0.7-6.9,1.4-13.9,1.9-21
		c0.2-2.9-1.4-4.8-4.3-5.4c-3.2-0.6-5.8,0.9-6.1,3.9c-0.6,7-1.9,14.1-1.4,21.2c-0.4,0.3-0.8,0.6-1.2,0.9c-8.4-1.2-16.8-2.9-25.6-1.3
		c0.5-1.8,2.2-3,2.3-5.1c0.4-8,1.2-16,1.8-24.1c0.4-5-1.2-7.3-5-7.3c-4.4,0-5.4,2.9-5.7,6.6c-0.8,10.4-1.7,20.9-2.6,31.3
		c-0.5,5.4,1.2,7.3,6.8,7.7c5.7,0.4,11.5,1,17.2,1.5c16.8,1.4,33.6,2.8,50.3,4.2c3.5,0.3,5.5-1.3,5.8-4.8c1-11.6,2-23.3,2.9-34.9
		c0.3-3.3-1.2-5.2-4.5-5.5c-3.3-0.3-5.3,1.3-5.6,4.5c-0.8,9.7-1.5,19.3-2.2,29C144.8,517.8,144.4,518.1,144.1,518.4z M955,590.6
		c0.4,0.4,0.8,0.7,1.2,1.1c-3,7.1-2.9,14.7-4,22.2c-0.3,2.2,2.1,4.2,4.9,4.4c2.6,0.2,4.9-1.3,5.2-3.4c1-7.1,3-14.2,2.7-21.5
		c0.4-0.4,0.7-0.8,1.1-1.2c1,1.1,2.3,1.4,3.7,1.5c7.3,0.4,14.4,3.4,22.6,1.7c-1.5,1.9-2.9,2.8-3.1,4.6c-1.1,8.4-2.4,16.8-3.7,25.2
		c-0.5,3.5,0.4,6.1,4.2,6.8c3.9,0.7,5.8-1.4,6.4-5.2c1.6-11,3.3-21.9,5-32.9c0.6-4-0.8-6.4-5-7.1c-22.8-3.4-45.6-6.9-68.4-10.3
		c-3.3-0.5-5.6,0.8-6.1,4.4c-1.7,11.6-3.5,23.1-5.2,34.7c-0.5,3.1,0.8,5.2,4.2,5.8c3.3,0.5,5.6-0.8,6-3.9
		c1.3-10.5,4.5-20.8,3.8-30.7C938.2,589.2,946.5,590.6,955,590.6z M427.6,99.9c9.2-2.1,18.3-4.1,27.5-6.2c3.3-0.8,5.5-2.6,4.5-6.4
		c-1-3.9-3.6-4.8-7.2-4c-10.6,2.5-21.3,4.8-31.9,7.3c-4.7,1.1-6,3.1-5,7.8c4.9,22,9.8,44.1,14.8,66.1c1,4.3,3.3,5.8,7.6,4.8
		c10.6-2.4,21.3-4.8,31.9-7.2c4.7-1.1,6.4-3.1,5.5-6.5c-0.9-3.5-3.4-4.7-7.8-3.7c-9.2,2.1-18.5,4.2-27.5,6.2c-2.5-8.4-2.3-17.3-7-25
		c1.4-1.2,2.5,1,4.1,0.6c6.2-1.6,12.4-2.7,18.6-4.3c2.8-0.7,3.9-3.1,3.4-6c-0.5-2.9-2.6-4.6-5.1-4c-7.7,1.7-15.8,2.1-22.6,6.3
		c0.4-8.6-2.3-16.7-4.8-24.8C427,100.5,427.3,100.2,427.6,99.9z M84.9,587.7c-2.8-0.7-5.4-1-7.2,1.9c-1.1,1.7-1.1,3.6-0.3,5.2
		c1.5,2.7,4.1,3,7,2.8c22.4-1.8,44.7-3.5,67.1-5.3c3.7-0.3,5.5-2.5,5.3-5.9c-0.2-3.5-2.6-4.8-6-4.5c-17.2,1.3-34.5,2.6-51.7,3.8
		c-1.5,0.1-2.5,0.8-3.6,1.6c-0.3-0.4-0.6-0.7-0.8-1.1c4.3-5.1,8.5-10.3,12.9-15.3c3.3-3.6,5.9-7,1.7-12c2.3,1,4.1,1.4,6.2,1.3
		c10.9-0.8,21.8-1.5,32.7-2.3c4.5-0.3,6.5-2.3,6.1-6.1c-0.4-4.3-3.5-4.6-7-4.3c-22.4,1.8-44.8,3.5-67.3,5.1c-4.1,0.3-5.9,2.3-5.7,6
		c0.3,3.6,3.1,4.4,6.3,4.1c5.9-0.5,11.8-1,17.7-1.4c0.8-0.1,1.8-0.8,2.4,0.4c0.5,1-0.4,1.7-1,2.3c-4.3,4.9-8.5,9.9-12.8,14.8
		c-2.3,2.6-3,5.1-1,8.1C85.7,587.2,85.3,587.4,84.9,587.7z M537.6,779.3c57.3,0,114.6,0,171.9,0.1c4,0,5-1,5-5
		c-0.2-27.2-0.1-54.4-0.2-81.6c0-2.6,0.7-4.4,2.7-6.2c22.3-19.8,40.1-43.1,52.6-70.1c20.7-44.8,27.1-91.3,14.5-139.3
		c-18.9-71.7-65-121-131-152.1c-56.7-26.8-116.3-32.2-177.4-18.4c-59,13.4-108.4,42.9-145.6,91c-35.1,45.4-50.5,96.8-43.3,154
		c6.8,53.6,31,98.5,71.1,134.7c2.2,2,2.9,3.9,2.9,6.6c-0.1,27.1,0.1,54.1-0.2,81.2c0,4.4,1.4,5.1,5.4,5.1
		C423.3,779.3,480.5,779.3,537.6,779.3z M376.5,191.4c0.4-0.1,0.8-0.2,1.2-0.4c8.5-3.5,17.1-6.9,25.6-10.5c2.7-1.1,3.6-3.5,2.4-6.4
		c-0.8-2.1-0.8-3.7,1.8-4.6c3.5-1.3,4.3-3.9,2.8-7.3c-2.1-5.2-4.1-10.4-6.3-15.6c-1.2-2.9-3.4-4.3-6.5-3c-2.4,1-3.6,0.5-4.6-1.9
		c-0.9-2.3-0.5-3.5,1.8-4.6c3.1-1.4,3.9-3.9,2.6-7.1c-2.1-5.2-4.3-10.3-6.3-15.5c-1.3-3.5-3.8-4.5-7.1-3.2c-2.4,0.9-3.5,0.5-4.5-1.9
		c-1.3-3.4-3.9-4.2-7.4-2.8c-7.7,3.2-15.4,6.3-23.2,9.3c-3.6,1.4-4.8,3.9-3.4,7.5c8.7,21.5,17.4,42.9,26,64.4
		C372.5,190.2,374.5,190.7,376.5,191.4z M273.2,832.8c-1.6-0.2-2.9,0.5-4,2c-3.3,4.3-6.8,8.6-10.4,12.7c-2.6,3-2.7,5.7,0.4,8.2
		c2.2,1.8,1.5,3.2,0.1,5c-1.5,1.9-2.9,1.8-4.6,0.4c-3.1-2.7-5.8-1.8-8.2,1.2c-3.3,4.1-6.6,8.3-10.1,12.3c-2.3,2.7-2.3,5.3,0.3,7.5
		c2.2,1.9,2,3.3,0.4,5.3c-2.2,2.7-1.7,5.3,1,7.4c6.5,5.2,13,10.5,19.4,15.8c3.2,2.7,6,2.2,8.6-0.9c14.5-17.7,29-35.5,43.6-53.2
		c2.3-2.8,2.1-5.3-0.5-7.5c-6.8-5.6-13.7-11.1-20.5-16.6c-2.2-1.8-4.9-2-6.4,0.3c-2.1,3.2-3.9,3.3-6.3,0.8
		C275.2,832.7,274.3,832.7,273.2,832.8z M963.2,512.5c0,0.3,0,0.7,0,1c-11.4,0-22.8,0-34.2,0c-4.2,0-6.1,2-6,6.1
		c0.2,8.5,0.2,17,0.4,25.5c0.1,3.3,1.7,5.2,5.1,4.9c2.5-0.2,3.7,0.4,3.6,3.2c0,3.5,1.9,5.2,5.4,5.2c5.8,0,11.6,0,17.3,0
		c3.3,0,5.2-1.7,5.1-5c-0.1-2.9,1.1-3.7,3.8-3.7c2.7,0,3.4,1.2,3.4,3.6c0,3.6,2.3,5,5.6,4.9c5.5-0.1,10.9-0.1,16.4-0.2
		c3.6,0,5.8-1.7,5.9-5.4c0.1-2.4,0.8-3.6,3.4-3.6c3.7,0,5.3-2.3,5.2-5.9c-0.2-8.4-0.3-16.7-0.4-25.1c0-3.7-1.8-5.6-5.5-5.6
		C986.3,512.5,974.8,512.5,963.2,512.5z M671.1,940.5c-2.7-1.9-4.9-0.5-7.2,0.2c-4.6,1.4-9.3,2.7-13.9,4.3c-3.2,1.2-4.6,0.4-5.5-2.9
		c-2.2-8-4.7-16-7-24c-1-3.7-3.5-4.9-6.9-3.9c-3.1,1-4.3,3.3-3.3,6.8c2.5,8,4.7,16,7,24c1.1,3.7,3.4,5.4,7.1,4.2
		c2.8-0.9,3.4,0.7,4.1,2.7c0.9,2.3,0,3.5-2.1,4c-4,1.1-4.7,3.8-3.6,7.4c1.6,5.4,3.3,10.7,4.9,16.1c1,3.1,3.2,4.5,6.2,3.6
		c2.6-0.8,3.8-0.4,4.7,2.3c1.1,3.4,3.6,4.5,7.1,3.5c8-2.4,15.9-4.9,23.9-7.1c3.9-1.1,5.1-3.4,4-7.1c-6.5-22.1-13-44.1-19.5-66.2
		c-1-3.5-3.2-5.2-6.8-4c-3.5,1.2-4.3,3.7-3.3,7.2c2.1,6.8,4,13.7,5.9,20.5C668,934.9,668.5,937.9,671.1,940.5z M943.8,657
		c-2.8,1.4-3,4-3.8,6.2c-1.5,4.6-3.2,9.2-4.5,13.8c-0.8,3-2.1,3.8-5.3,2.7c-7.9-2.7-15.9-5-23.8-7.5c-3.5-1.1-5.9-0.1-7,3.5
		c-1.1,3.4,0.5,5.5,3.7,6.5c8.1,2.5,16.2,4.9,24.3,7.5c3.5,1.1,5.9,0.3,7.1-3.3c0.8-2.4,2.1-3.1,4.4-2.3c2.3,0.7,3.2,1.9,2.3,4.4
		c-1.2,3.5,0.4,5.7,3.8,6.9c5.2,1.7,10.4,3.4,15.5,5.1c3.4,1.1,6,0.4,7.2-3.2c0.7-2.3,1.7-3.2,4.2-2.4c3.7,1.2,6-0.4,7.1-4.1
		c2.4-7.8,4.9-15.6,7.5-23.3c1.3-3.8,0-6.1-3.6-7.3c-21.9-7.1-43.8-14.1-65.7-21.2c-3.4-1.1-6-0.5-7.2,3.1c-1.1,3.5,0.3,5.7,3.9,6.8
		c7.1,2.2,14.1,4.6,21.2,6.9C937.9,656.6,940.6,657.8,943.8,657z M919.9,720.7c-3.5,1.8-4.5,5.2-6.1,8.1c-1.7,3.2-3.5,6.4-5,9.7
		c-1.5,3.3-3.2,4.1-6.6,2.2c-7-3.9-14.3-7.3-21.4-11.1c-3.3-1.7-5.9-1.3-7.6,2c-1.7,3.3-0.6,5.7,2.7,7.3c7.5,3.7,14.9,7.4,22.3,11.4
		c3.4,1.8,5.8,1.1,7.5-2c1.2-2.3,2.5-2.5,4.7-1.5c2.4,1.2,2.6,2.5,1.4,4.7c-1.6,3.1-0.6,5.6,2.4,7.1c4.9,2.7,9.9,5.2,14.9,7.8
		c3,1.6,5.6,1.2,7.3-2c1.3-2.4,2.7-2.7,5.1-1.5c2.8,1.4,5.3,0.5,6.8-2.3c4.1-7.8,8.2-15.6,12.2-23.4c1.5-2.9,0.6-5.4-2.2-6.8
		c-20.7-10.7-41.5-21.3-62.3-31.9c-3.1-1.6-5.6-0.8-7.1,2.4c-1.4,3.1-0.6,5.4,2.6,7c6.5,3.2,13,6.6,19.4,9.9
		C913.7,719.3,916.2,721.4,919.9,720.7z M127.6,450.1c2.2-1.9,2.8-4.1,3.3-6.4c1.1-4.7,2.5-9.4,3.5-14.1c0.7-3.4,2.3-4,5.5-3.1
		c7.7,2.1,15.6,3.9,23.3,6c3.6,1,6.4,0.4,7.4-3.5c1-3.8-0.9-5.9-4.7-6.7c-7.7-1.8-15.3-3.8-22.9-5.8c-4-1.1-6.9-0.5-7.9,4.1
		c-0.5,2.5-2.4,2.3-4.3,1.9c-2.2-0.4-3.2-1.5-2.5-3.9c1.2-4-0.8-6-4.4-6.9c-5.1-1.3-10.3-2.5-15.4-3.9c-3.6-0.9-6.2-0.2-7.2,3.8
		c-0.5,2.1-1.6,3.2-3.9,2.5c-3.9-1.2-5.9,0.7-6.8,4.4c-2,7.9-4.1,15.8-6.1,23.8c-1.1,4.2,0.2,6.3,4.4,7.4
		c22,5.6,44.1,11.1,66.1,16.7c3.7,0.9,6.3,0.1,7.1-3.9c0.8-3.8-1.2-5.5-4.7-6.3c-7.2-1.7-14.4-3.6-21.6-5.5
		C133.3,449.8,130.7,448.8,127.6,450.1z M815.6,223c0.8,3.7,3.6,5.5,6,7.7c2.9,2.7,5.7,5.5,8.7,8c2.6,2.2,2.6,3.9,0.2,6.3
		c-6,6-11.8,12.3-17.6,18.5c-2.2,2.3-2.5,4.8,0,7.2c2.5,2.4,5.1,2.4,7.5-0.2c5.8-6.2,11.6-12.4,17.4-18.7c2.3-2.4,2.9-5.1,0.3-7.5
		c-2-1.9-1.9-3.4-0.1-5.4c1.9-2,3.1-1.5,4.9,0.1c2.5,2.3,5.1,2.3,7.5-0.4c3.8-4.2,7.6-8.3,11.5-12.4c2.5-2.7,2.8-5.3,0-7.9
		c-1.7-1.6-1.7-2.9,0-4.6c2.6-2.6,2.6-5.3-0.1-7.9c-6.3-5.9-12.6-11.8-19-17.6c-2.5-2.2-5.1-2.3-7.5,0.4c-3.2,3.5-6.4,6.9-9.6,10.4
		c-12.4,13.4-24.8,26.7-37.2,40.1c-2.4,2.5-3.2,5.2-0.5,7.9c2.5,2.5,5.4,2.1,8.2-0.9c4.7-5.1,9.5-10.3,14.2-15.4
		C812.5,228.5,815,226.6,815.6,223z M828.9,858.7c0.2-4-2.8-5.6-4.8-7.7c-6.9-7.3-13.9-14.4-20.9-21.6c-2.9-3-6.2-3.5-8.7-1.2
		c-2.5,2.3-2.3,5.4,0.8,8.6c15.6,16.1,31.3,32.2,47,48.3c2.9,3,5.7,3.4,8.1,0.9c2.8-2.9,2.4-5.7-0.5-8.2
		c-5.5-4.7-9.2-11.3-17.1-14.9c7.8,0,14.3,0,20.8,0c5.1,0,10.8,1.4,11.8-6.8c0.7,1.1,1,1.3,1,1.6c0.3,2.9,1.7,4.7,4.7,5.3
		c2.7,0.5,4.7-0.9,5.7-2.9c1.2-2.6,0.3-5-2-7.2c-15.8-16-31.5-32.1-47.1-48.3c-2.6-2.7-5.2-3.7-8.1-0.8c-3,2.9-2,5.6,0.6,8.2
		c11.8,12.1,23.5,24.1,35.3,36.2c0.9,0.9,1.6,2.2,3.3,2.2c0.8,0,2-0.3,1.8,1.2c-0.2,1.3-1.4,0.9-2.2,0.9c-6.4-0.1-12.8,0-19.1-0.3
		C834.2,851.8,830.1,852.3,828.9,858.7z M190.2,776.6c-1.6-1.9,0-4-1.5-5.5c-1.3-1.2-2-3-3-4.6c-1.7-2.7-3.4-5.4-5.1-8.1
		c-3.2-5.1-3.3-5.1,1.7-8.2c6.4-4,12.8-8.2,19.3-12.1c3.3-2,4-4.4,2.1-7.5c-1.9-3.2-4.6-3.4-7.7-1.3c-7,4.5-14.1,8.9-21.1,13.4
		c-3,1.9-4,4.4-2,7.6c1.4,2.2,0.8,3.5-1.2,4.8c-2.2,1.5-3.5,0.8-4.8-1.3c-1.9-2.9-4.5-3.2-7.4-1.4c-4.9,3-9.8,6.1-14.7,9.2
		c-2.9,1.8-3.2,4.4-1.7,7c1.3,2.3,1.5,3.6-1,5.1c-3,1.8-3.3,4.5-1.4,7.4c4.6,7.2,9.2,14.3,13.7,21.4c1.9,3,4.5,3.4,7.3,1.6
		c19.7-12.3,39.3-24.7,58.9-37c2.9-1.8,3.6-4.3,1.8-7.3c-1.8-3-4.4-3.5-7.3-1.6c-5.9,3.7-11.7,7.5-17.6,11.3
		C194.7,771.3,191.5,772.7,190.2,776.6z M729.9,154.3c-2.4,2.3-4,3.3-4.8,5.1c-4.5,10.3-9.2,20.4-13.8,30.6
		c-1.7,3.7-0.7,6.6,2.5,7.8c3.5,1.2,5.7-0.3,7.1-3.6c5.6-12.6,11.3-25.1,17-37.7c3.8-8.3,7.5-16.5,11.3-24.8c1.2-2.8,1-5.3-1.9-7
		c-2.6-1.6-5.8-1.2-6.9,1.1c-3.2,7.2-7.7,13.9-8.8,22.2c-1.8-0.6-1.8-2.4-2.3-3.7c-2.4-6.4-4.9-12.7-7.1-19.2
		c-1.1-3.1-3-4.3-6.1-4.1c-0.8,0.1-1.8,0.7-2.3-1c2.9-1.1,4.5-3.2,4-6.5c-0.4-2.6-2.3-4-4.6-4.3c-3.3-0.3-4.9,1.9-6.2,4.8
		c-9.2,20.5-18.5,40.9-27.9,61.3c-1.5,3.2-1,5.9,2.2,7.6c3.1,1.6,5.9,0.4,7.6-3.2c5.7-12.6,11.5-25.1,17-37.7c2-4.6,5.6-8.8,5-14.5
		c0.9,0.8,1.4,1.6,1.8,2.5c2.4,6.2,5,12.4,7,18.7C721.2,153.3,723.5,155.8,729.9,154.3z M117.8,628.1c2.2-0.6,3.6,0.7,5.3,0.2
		c11.5-2.9,23-5.5,34.4-8.4c3.1-0.8,4.3-3,3.5-6.3c-0.8-3.1-2.7-4.5-6-3.8c-1.8,0.4-3.5,0.8-5.3,1.2c-20.6,4.9-41.3,9.9-61.9,14.8
		c-3.3,0.8-5.6,2.5-4.7,6.3c0.8,3.8,3.4,4.9,7.1,3.9c4.1-1.1,8.3-1.8,12.4-2.8c2.2-0.5,4.5-0.5,6.4-2c0.6-0.5,0.6-2.1,1.8-1.2
		c1.4,1-0.1,1.9-0.5,2.6c-3.3,5.6-6.7,11.2-10.2,16.6c-2.6,3.9-3.8,7.5,0.7,10.7c-0.9,1-1.6,0.4-2.3,0.2c-2.5-0.7-4.5-0.2-6.3,2
		c-1.6,2-1.4,4.1-0.3,5.9c1.3,2.2,3.6,2.9,6.3,2.2c22.5-5.5,45-10.9,67.6-16.5c3.1-0.8,4.4-2.9,3.7-6.1c-0.8-3.3-2.7-4.9-6.2-4.1
		c-4.3,1-8.6,1.9-12.8,3.1c-14.2,4-29,5.9-43.5,11.7c4.1-6.6,7.7-13,11.8-19C121.4,635.4,122.9,631.8,117.8,628.1z M502,138.5
		c0.1,0,0.1,0,0.2,0c-0.4-4.7-0.6-9.4-1.2-14.1c-0.2-1.4-0.5-2.1,1.5-2.1c6.2-0.1,12.4-0.4,18.6-0.9c3.4-0.3,4.6,0.8,4.7,4.2
		c0.3,8,1,16.1,1.4,24.1c0.2,3.8,1.9,6.1,5.8,6c4.2-0.2,4.9-3.2,4.6-6.7c-0.6-7.9-1.3-15.7-1.8-23.6c-0.2-3.8-1.8-6-5.8-5.9
		c-2.6,0.1-3.5-1-3.5-3.5c0-2.4,0.7-3.7,3.3-3.7c3.6,0,5.1-2.2,4.9-5.6c-0.3-5.3-0.7-10.6-0.9-15.9c-0.1-4-1.9-6.3-6-6.3
		c-2.2,0-3.2-0.8-3.3-3.2c-0.1-3.9-2.3-5.5-6.3-5.1c-7.6,0.6-15.2,1-22.7,1.4c-6.3,0.3-7.5,1.7-7.1,8.2c0.6,9.7,1.1,19.4,1.7,29.1
		c0.7,12.1,1.4,24.3,2.2,36.4c0.3,5.1,2.1,7,6,6.6c4.6-0.5,4.7-3.9,4.4-7.4C502.6,146.4,502.3,142.5,502,138.5z M644.6,98.6
		c0-0.7-0.1-1.2,0-1.3c2.5-1.9,3.7-4.1,2.3-7.3c-1.1-2.6-3.4-3.3-5.5-3c-3.2,0.3-4.5,2.8-5.3,5.9c-5.7,21.7-11.5,43.4-17.4,65
		c-1,3.7,0.1,6,3.6,6.9c3.5,0.9,5.7-0.6,6.6-4.3c1.7-6.8,3.8-13.4,5.4-20.2c2.7-11.6,7.3-22.7,8.4-35.6c3.8,6.4,7.4,12.2,10.7,18.2
		c2.4,4.4,4.6,8.7,11,5.8c-0.2,2.3-2.2,2.4-2.7,4.1c-3.1,11.9-6.3,23.7-9.3,35.6c-0.7,3,1.1,4.9,3.9,5.6c2.9,0.8,5.4-0.4,6.1-3.2
		c6.2-22.7,12.2-45.4,18.2-68.1c0.8-3-0.5-5.2-3.7-6.2c-3.3-1-5.5,0.4-6.2,3.4c-1.8,7.4-5.3,14.4-4.8,23.6
		c-4.2-7.4-8.1-13.7-11.5-20.3C652.2,98.8,649.7,96.2,644.6,98.6z M773.9,900.5c-0.5-2.1-0.6-3.7-1.7-5.3
		c-6.6-9.2-13.1-18.6-19.6-28c-0.8-1.1-1.4-2.2-3-2.5c-2.6-0.5-4.7,0.3-6,2.3c-1.5,2.2-0.8,4.5,0.7,6.7c13,18.5,26,37,38.9,55.6
		c2.2,3.1,4.7,4.4,8,2.1c3.4-2.4,2.8-5.4,0.5-8.2c-4.5-5.6-7.5-12.5-13.4-17.1c7.6,0.9,15.1,1.9,22.4,3.6c4.9,1.1,8.2,0.5,9.5-5.3
		c0.6,0.9,1.1,1.2,1.1,1.5c-0.2,3,0.6,5.3,3.9,6.2c2.6,0.7,4.7-0.2,6-2.1c1.6-2.5,0.6-5-1.2-7.4c-13-18.3-25.8-36.7-38.6-55.2
		c-2.1-3.1-4.6-3.9-7.6-1.9c-3.4,2.2-3.1,5-0.9,8.2c10,14.3,20,28.6,30,42.9c0.5,0.7,1.9,1.2,1,2.6c-6.4-1.1-12.8-2-19.1-3.5
		C779.7,894.6,775.9,894.9,773.9,900.5z M746.2,205.9c6.4-7.2,11.9-14.5,15.4-24.3c0.5,2.9,1.6,4.4,3.5,5.5
		c4.2,2.6,8.3,5.6,12.5,8.4c3.3,2.2,6.3,1.8,8.1-1.2c2-3.3,0.7-5.8-2.3-7.5c-6.2-3.6-11.3-9.1-17.9-10.6c6.1-6.8,11.5-14,15-23.1
		c0.7,3.8,3.9,5.1,6.5,6.9c5.8,3.9,11.7,7.7,17.4,11.7c3.1,2.2,5.9,2.4,8.1-1c2.1-3.4,0.9-5.8-2.3-7.9c-9.1-6-18.2-12.1-27.3-18.2
		c-3.9-2.6-6.1-2.1-8.7,1.7c-12.6,18.9-25.2,37.9-37.9,56.8c-2.4,3.6-1.6,6.1,1.8,8.3c9.4,6.1,18.8,12.3,28.1,18.5
		c3,2,5.7,2,7.7-1.2c2-3.1,1.1-5.6-2.1-7.6c-6.1-3.9-12.1-8.1-18.2-12.1C751.3,207.4,749.1,205.2,746.2,205.9z M226.5,833.7
		c-7.7,4.9-14.8,10.6-20.8,19c0.6-3.4-1.3-5-2.8-6.8c-5-5.7-10-11.4-15.1-17.1c-2.7-3.1-6-3.5-8.5-0.9c-2.5,2.6-2.1,5.2,0.3,7.9
		c7.3,8.1,14.5,16.4,21.7,24.6c3.1,3.5,5.4,3.6,8.8,0.5c16.9-15.2,33.8-30.5,50.8-45.7c2-1.8,2.4-3.9,1.8-6.1
		c-0.4-1.3-1.8-2.4-2.8-3.5c-7.2-8.2-14.4-16.4-21.7-24.6c-2-2.2-4.3-2.6-6.8-0.8c-2.6,1.8-3.3,4.6-1.4,6.7
		c7.4,8,13.2,17.4,21.8,23.3c-7.2,4.9-14.4,10.5-19.8,18.1c-0.4-1.1-0.5-2.4-1.2-3.2c-4.3-5.1-8.6-10.2-13.3-15
		c-1.7-1.7-4.1-1.4-6.1,0.3c-2.3,1.8-3.2,4.5-1.5,6.4C215.4,822.6,219.4,829.9,226.5,833.7z M748.5,945.5c-1.5,0.4-3.4-0.4-5.2,0.6
		c-7.4,3.8-15,7.3-22.5,10.9c-3.1,1.5-4.7,3.8-3.1,7.3c1.4,3.3,4.3,4,7.8,2.3c9.8-4.7,19.6-9.5,29.5-14.2c4.7-2.2,5.4-4.1,3.1-8.9
		c-9.8-20.5-19.8-40.9-29.5-61.4c-1.9-3.9-4.5-4-7.8-2.5c-10.1,4.8-20.2,9.7-30.3,14.6c-3.1,1.5-4.8,3.8-3.1,7.2
		c1.7,3.6,4.4,3.8,7.9,2.1c6.3-3.2,12.8-6.2,19.2-9.2c2.8-1.3,5.8-2.4,7.1-5.5c2.5,9.3,6.2,17.7,11.9,24.8c-8,1.4-14.8,5.8-21.9,9.6
		c-2.1,1.1-2.3,4.1-0.7,6.5c1.6,2.3,3.8,3.3,6.2,2c6.7-3.7,14.5-5.6,19.8-10.6C739.2,929.7,743,937.9,748.5,945.5z M898,832.9
		c2.8,0.4,4.3-1.6,5-3.7c0.7-2.4-0.3-4.6-2.6-6.2c-15.8-11.6-31.4-23.3-47.3-34.8c-3-2.2-3.7-3.8-1.2-6.8c3.2-3.9,6.2-7.9,8.8-12.1
		c2-3.2,3.6-3,6.4-0.9c15.9,11.9,31.9,23.7,47.9,35.5c2.9,2.1,5.5,2.2,7.8-0.8c2.2-2.9,1.3-5.4-1.3-7.4
		c-16.3-12.1-32.6-24.2-48.9-36.4c-2.5-1.9-5-1.6-6.8,0.6c-1.8,2.3-3.2,2.6-5.6,0.9c-2.8-2-5.3-1.6-7.3,1.3
		c-3.1,4.5-6.3,8.9-9.6,13.3c-2.2,3-2,5.6,0.8,7.8c1.8,1.4,2.1,2.8,0.6,4.5c-2.6,3.1-1.9,5.7,1.3,8c16.1,11.9,32.2,23.8,48.2,35.7
		C895.4,832.4,896.5,833.3,898,832.9z M607.8,87.7c0.6-4.6-0.2-7.4-4.4-7.9c-4.1-0.4-5.6,2.1-5.9,5.7c-0.1,1.5-0.3,3-0.5,4.5
		c-1.8,18.4-3.7,36.9-5.4,55.3c-0.2,2.6-1.4,3.4-3.8,3.1c-5.7-0.6-11.5-1.2-17.2-1.7c-2.4-0.2-3.5-1.1-3.2-3.8
		c0.7-6.2,1.3-12.4,1.9-18.6c1.4-13.9,2.7-27.8,4.1-41.7c0.4-3.8-1.1-6.2-5.1-6.4c-3.6-0.2-4.9,2.1-5.3,5.4c-2,19.9-4,39.9-6,59.8
		c-0.3,3.5,1.2,5.7,4.6,6c2.8,0.3,3.7,1.4,3.4,4.1c-0.4,3,1,5,4.1,5.4c5.9,0.7,11.8,1.3,17.7,1.8c3.3,0.3,5.6-1,5.8-4.7
		c0.2-2.5,1.4-3.3,3.9-3.1c3.8,0.4,5.5-1.8,5.8-5.4C604.1,126,606,106.3,607.8,87.7z M122.3,740.7c0.5-0.2,1.2-0.5,1.9-0.8
		c18.8-7.9,37.7-15.9,56.5-23.8c3-1.3,3.9-3.7,2.7-6.6c-1-2.2-0.8-3.7,1.6-4.7c3.6-1.5,4.3-4.1,2.7-7.7c-2.2-4.8-4-9.8-6.1-14.7
		c-1.4-3.3-3.7-4.8-7.2-3.3c-2.4,1-3.6,0.4-4.6-1.9c-1.5-3.4-4-4.1-7.4-2.6c-18.2,7.8-36.5,15.5-54.8,23.2c-3.4,1.4-5.3,3.5-3.8,7.3
		c1.6,3.7,4.3,3.9,7.8,2.4c18.1-7.7,36.3-15.3,54.4-23c3-1.3,4.6-1.1,5.8,2.2c1.8,5,3.9,9.9,6.2,14.6c1.5,3.2,0.6,4.6-2.5,5.8
		c-4.4,1.6-8.7,3.6-13,5.4c-14.1,6-28.2,12-42.3,17.9c-2.9,1.2-3.8,3.2-3.4,6C117.4,739.2,119.7,740.1,122.3,740.7z M587.4,1002.9
		c6.6-0.8,11.7-1.6,16.8-2.1c3.9-0.4,6-2.1,5.5-6.1c-0.3-2.5,0.7-3.6,3.1-3.9c3.9-0.4,4.9-2.8,4.5-6.4c-0.8-5.6-1.3-11.1-2.1-16.7
		c-0.4-3.2-2.3-4.9-5.6-4.5c-2.7,0.3-3.9-0.4-4.3-3.2c-0.5-3.7-2.8-5-6.4-4.4c-5.2,0.8-10.6,1.2-15.8,2.1c-3.1,0.5-4.4-0.4-4.7-3.6
		c-0.5-5.6-1.3-11.1-2.2-16.7c-0.4-2.5,0.5-3.7,3-4c5.7-0.6,11.5-1.3,17.2-2c2.5-0.3,4,0.1,4.3,3.1c0.3,3.6,2.6,4.8,6,4.3
		c3.2-0.4,4.3-2.5,4.2-5.4c-0.1-3.5-2-5.3-5.6-4.8c-2.7,0.4-3.8-0.7-4.2-3.3c-0.5-3.4-2.6-4.8-6.1-4.3c-5.5,0.8-11.1,1.5-16.7,2.1
		c-3.5,0.4-5.2,2.3-4.8,5.7c0.2,2.4-0.3,3.8-2.9,4.1c-3.9,0.4-5,2.8-4.6,6.4c0.7,5.4,1.3,10.8,2,16.3c0.4,3.6,2.4,5.4,6.2,5
		c2.1-0.2,3.6,0.3,3.7,2.7c0.3,4.2,3,5.2,6.6,4.7c5.4-0.7,10.9-1.2,16.3-2c2.6-0.4,4,0.3,4.2,3.1c0.6,5.6,1.2,11.2,2.1,16.7
		c0.4,2.9-0.6,4.1-3.5,4.4c-5.7,0.6-11.4,1.4-17.1,2.2c-2.4,0.3-3.3-0.8-3.6-2.9c-0.5-3.7-2.6-5.3-6.3-4.7c-3,0.5-4.3,2.6-4.1,5.5
		c0.3,3.7,2.6,5.3,6.2,4.8c2.3-0.3,3.4,0.6,3.7,2.8C582.6,1002.1,585.1,1003.3,587.4,1002.9z M865.1,316.2c1.5,0.1,2.4-1,3.3-1.7
		c4.3-3.3,8.6-6.7,12.9-10.1c3-2.3,4-4.9,1.4-8c-1.5-1.7-1.6-3.1,0.4-4.6c3.3-2.5,2.8-5.2,0.6-8.2c-3.4-4.3-6.7-8.7-10-13
		c-1.4-1.7-2.2-3.2,0.1-4.9c4.9-3.6,9.7-7.3,14.4-11.1c2-1.6,3.1-0.9,4.5,0.8c3.5,4.6,7,9.2,10.6,13.7c1.6,2,1.7,3.6-0.5,5.3
		c-2.8,2.2-2.7,4.8-0.6,7.5c2.1,2.6,4.6,2.6,7.1,0.7c2.6-2.1,3.3-4.6,1-7.4c-1.6-1.9-1.7-3.3,0.5-4.9c2.9-2.1,2.8-4.8,0.8-7.5
		c-3.5-4.6-7.1-9.1-10.6-13.7c-2-2.6-4.4-2.8-6.7-1.1c-2.3,1.7-3.8,1.9-5.7-0.5c-2.1-2.7-4.7-2.7-7.5-0.4c-4.2,3.4-8.6,6.7-13,10
		c-3,2.3-4,4.9-1.3,8.1c1.3,1.5,1.6,2.9-0.2,4.2c-3.8,2.7-3.1,5.7-0.5,8.8c3.3,4.1,6.5,8.4,9.8,12.6c1.4,1.8,1.9,3.3-0.3,5
		c-4.8,3.5-9.4,7.2-14,10.9c-2,1.6-3.4,1.3-4.9-0.8c-3.4-4.6-7-9.2-10.6-13.7c-1.3-1.7-1.6-3.2,0.3-4.7c3-2.3,3.3-4.9,0.9-7.8
		c-2-2.4-4.5-2.4-6.8-0.7c-3,2.1-3.5,4.8-0.9,7.7c1.5,1.7,1.5,3.2-0.4,4.6c-3.1,2.3-2.9,5-0.7,7.8c3.3,4.3,6.7,8.6,10.1,12.9
		c0.8,1.1,1.7,2.6,3.2,2.3C856.2,313.4,861,311,865.1,316.2z M186.4,365.4c-0.8-2-1.2-4-3.7-4.9c-5.2-2-10.3-4.4-15.4-6.6
		c-3.3-1.4-5.9-0.9-7.3,2.7c-0.9,2.2-2.3,2.7-4.3,1.8c-4-1.7-6.2,0-7.6,3.7c-2,4.9-4.2,9.7-6.3,14.6c-1,2.3-2.2,3.4-4.9,2.1
		c-5.2-2.5-10.5-4.8-15.8-6.9c-2.3-0.9-3-2.2-2-4.5c2.4-5.4,4.8-10.8,7.1-16.2c0.9-2.2,2.1-3.1,4.5-1.9c3,1.5,5.7,0.8,7-2.6
		c1.1-2.8,0.2-5-2.5-6.4c-3.1-1.6-5.7-1-7.2,2.2c-1.1,2.4-2.4,3.2-4.9,2.1c-3.2-1.4-5.5-0.2-6.9,2.9c-2.3,5.3-4.7,10.5-6.9,15.8
		c-1.2,2.8-0.5,5.2,2.4,6.3c2.9,1.1,3,2.5,2,5.2c-1.1,2.9,0.1,5.3,3.1,6.5c5.2,2.2,10.3,4.3,15.5,6.5c3.3,1.4,5.9,0.8,7.4-2.7
		c0.9-2.1,2.1-2.8,4.2-1.8c4,1.8,6.2-0.1,7.7-3.7c2.1-4.9,4.3-9.7,6.3-14.6c1-2.5,2.2-3.3,4.8-2.1c5.2,2.5,10.5,4.8,15.8,6.9
		c2.7,1.1,2.9,2.5,1.8,4.9c-2.3,4.9-4.4,9.9-6.5,15c-1.1,2.6-2.2,4-5.4,2.5c-2.8-1.3-5.3-0.2-6.5,2.9c-1.3,3.2-0.1,5.5,2.9,7
		c3,1.5,5.2,0.6,6.6-2.4c1-2.3,2.2-3.4,4.9-2.1c3.4,1.6,5.7,0,7.1-3.3c2.1-4.9,4.2-9.7,6.4-14.6c1.5-3.4,1.1-6.2-2.6-7.7
		c-2.3-1-2.8-2.5-1.6-4.7C185.9,366.7,186.1,366,186.4,365.4z M292.4,221.6c-2.4-0.3-3.9,1-4.7,2.5c-1.1,1.9-1,4.1,0.7,5.9
		c1.6,1.6,2.5,3.1,0.3,4.9c-4.6,3.9-9.2,7.9-13.8,11.9c-1.7,1.5-3,1.5-4.6-0.3c-11.3-13.5-22.6-27-34-40.4c-1.5-1.7-1.5-3.1,0.3-4.6
		c4.5-3.8,9-7.7,13.5-11.5c1.8-1.5,3.3-1.8,5,0.3c2.2,2.6,4.8,3.2,7.5,0.7c2.4-2.3,2.2-4.9,0.2-7.3c-2.2-2.6-4.8-3-7.5-0.6
		c-1.8,1.6-3.2,1.8-4.9-0.3c-2.4-2.8-5.1-2.7-7.9-0.3c-4,3.5-8,7-12.1,10.4c-3,2.5-3.5,5.3-1,8.2c1.8,2,1.3,3.3-0.5,4.9
		c-2.6,2.4-2.4,5-0.2,7.6c11.1,13.3,22.3,26.5,33.4,39.8c2.4,2.9,5,3.1,7.8,0.8c1.8-1.5,3.3-2.1,5,0.1c2.3,2.9,4.9,2.5,7.4,0.3
		c4.2-3.6,8.2-7.3,12.5-10.7c3.2-2.5,2.9-5.2,0.7-7.7c-1.9-2.3-2-3.8,0.5-5.5c2-1.4,2.2-3.7,1.2-5.7
		C296.3,222.8,294.7,221.3,292.4,221.6z M362.9,950.5c-2.5,0.5-4.4,1.5-4.9,4.2c-0.5,2.6,0.1,4.8,2.7,6c2.1,0.9,3.9,1.6,2.7,4.6
		c-1.5,3.7,0.1,6,3.7,7.3c5,1.8,10,3.6,14.9,5.6c3.6,1.4,6.2,0.7,7.6-3c0.7-1.8,1.5-2.9,3.7-2c4.4,1.8,6.7-0.3,8.2-4.4
		c5.8-15.6,11.7-31.2,17.6-46.7c1.4-3.6,0.7-6.2-3-7.6c-2.2-0.8-2.9-1.9-2-4.1c1.5-3.7,0-6-3.6-7.3c-5.1-1.9-10.2-3.8-15.3-5.8
		c-3.2-1.2-5.8-0.6-7,2.7c-1,2.7-2.5,3-4.9,2.2c-3.4-1.2-5.5,0.2-6.6,3.4c-1,2.9,0.2,5,2.9,6.2c3.1,1.3,5.7,0.7,6.9-2.8
		c0.9-2.6,2.3-3.2,4.8-2.1c5.3,2.2,10.7,4.2,16.1,6.1c2.7,1,2.9,2.4,2,4.8c-6.2,16.1-12.4,32.2-18.4,48.4c-1,2.7-2.2,3.3-4.7,2.3
		c-5.4-2.1-10.7-4.2-16.1-6.1c-2.6-0.9-3.1-2.2-2.1-4.8C369.3,953.8,366.5,950.3,362.9,950.5z M898.6,404.3c2.3,6.4,4.4,13,7,19.5
		c0.7,1.7,3.2,2.9,5.5,1.8c2.4-1.1,3.9-0.6,4.9,2c1.2,3.2,3.5,4.4,6.8,3.1c3.1-1.2,4.1-3.5,3.1-6.5c-1.1-3.2-3.5-4.5-6.8-3.1
		c-2.1,0.8-3.5,0.4-4.2-1.9c-1.9-5.7-3.9-11.4-5.9-17.2c-0.6-1.8-0.5-3.3,1.6-4c16.8-5.9,33.7-11.8,50.5-17.7
		c1.9-0.7,3.1-0.3,3.8,1.8c1.9,5.7,4,11.4,6,17.1c0.8,2.2,0.4,3.7-2.1,4.5c-3.2,1-4.6,3.3-3.3,6.6c1.1,2.9,3.2,4.2,6.4,3.3
		c3.5-1,4.5-3.6,3.5-6.6c-0.8-2.5-0.3-3.7,2-4.5c3.7-1.4,4.5-4,3.1-7.6c-1.8-5-3.6-10-5.2-15c-1.2-3.6-3.6-4.9-7-3.8
		c-2.2,0.7-3.5,0.6-4.2-1.7c-1.4-4.4-4.3-4.7-8.2-3.3c-15.8,5.6-31.7,11.1-47.6,16.6c-3.6,1.2-4.9,3.5-3.7,6.9
		c0.8,2.4,0.3,3.7-2.1,4.4C899.8,399.7,898.9,401.7,898.6,404.3z M966.3,468.8c-2.6,1.2-3.4-0.5-4-3c-0.7-2.8,1-3.3,3.1-3.8
		c3-0.7,4.9-2.6,4.1-5.9c-0.7-2.9,0.7-3.8,3.2-4.2c5.2-0.9,10.5-1.8,15.7-2.8c4.4-0.8,6.3-3.1,5.4-6.6c-0.9-3.8-3.8-4.2-7.1-3.6
		c-5.4,0.9-10.8,1.8-16.1,2.8c-3,0.6-4.8,2.5-4.2,5.8c0.5,2.5,0.1,4-2.9,4.4c-3,0.4-4.7,2.7-4.1,5.5c0.7,3.8-1.3,4.3-4.1,4.8
		c-10.9,1.9-21.8,3.8-32.7,5.7c-3.8,0.6-5.2,2.9-4.5,6.4c0.7,3.3,2.9,4.5,6.4,3.9c11-2,22.1-3.8,33.2-5.8c2.5-0.4,4-0.3,4.5,2.7
		c0.5,3.3,2.8,5,6.2,4.1c2.7-0.7,3.4,0.6,3.9,2.9c0.7,3.5,2.8,5,6.6,4.2c5.5-1.1,11.1-1.9,16.6-2.9c3.4-0.6,5-2.7,4.4-6.1
		c-0.6-3.3-2.7-4.9-6.2-4.3c-5.5,1-11.1,1.9-16.6,2.8c-2.4,0.4-4,0.3-4.4-2.8C972.1,470,969.8,468.7,966.3,468.8z M318.6,947.2
		c0,2.6,1.3,4.5,3.7,5.2c2.5,0.7,4.8,0.1,6.2-2.4c2.9-5.2,5.8-10.3,8.7-15.5c1.6-2.8,1.1-5.4-1.7-7c-2.4-1.4-2.8-2.8-1.3-5.1
		c1.6-2.6,0.9-5.2-1.6-6.6c-2.9-1.6-2.8-3.1-1.3-5.7c5.7-9.5,11.1-19.2,16.7-28.7c1.9-3.3,1.9-6.1-1.6-8.1c-3.5-2-5.8-0.3-7.7,3
		c-5.5,9.6-11.1,19.2-16.6,28.7c-1.2,2.1-2.3,3.5-4.9,1.8c-2.9-1.9-5.6-1-7.2,1.9c-1.3,2.3-2.7,2.4-4.8,1.2c-3.3-2-5.7-0.8-7.5,2.3
		c-2.7,4.6-5.3,9.2-8,13.8c-1.9,3.2-2,6.2,1.5,8.2c3.5,2,5.9,0.5,7.7-2.8c2.7-4.8,5.6-9.4,8.3-14.1c1.2-2.2,2.4-2.7,4.7-1.3
		c3,1.8,5.5,0.9,7.2-2.1c1.3-2.3,2.8-2.3,4.8-1c1.9,1.2,2.6,2.3,1.3,4.4c-1.9,2.9-1.4,5.7,1.6,7.4c2.9,1.6,2.4,3.3,1,5.6
		c-2.6,4.3-5,8.7-7.5,13C319.6,944.4,318.6,945.6,318.6,947.2z M285.3,151.8c-1.9-0.3-3.7,0.7-4.6,2.1c-1,1.5-1.7,3.5-0.4,5.5
		c3.2,5.1,6.3,10.3,9.5,15.5c1.6,2.6,4.1,3.3,6.6,1.8c2.5-1.5,4-1.2,5.6,1.3c1.6,2.3,4,3.3,6.6,1.6c3-2,4.2-0.4,5.6,1.9
		c5.5,9.2,11.1,18.4,16.7,27.6c2.5,4,4.9,5,8,3.1c3.2-1.9,3.5-4.5,1-8.5c-5.5-9.1-10.9-18.2-16.5-27.2c-1.6-2.6-2.6-4.6,1-6.5
		c2.4-1.3,2.8-4,1.4-6.3c-1.6-2.5-1.3-3.9,1.3-5.5c2.6-1.7,3.2-4.2,1.5-7c-3-4.9-6-9.9-9-14.8c-1.9-3.1-4.6-3.9-7.7-1.9
		c-2.9,1.9-3,4.6-1.3,7.5c2.9,4.8,5.7,9.6,8.7,14.4c1.2,2,1.5,3.5-0.8,4.9c-3.3,1.9-3.7,4.6-1.8,7.7c1.3,2.1,0.6,3.3-1.3,4.4
		c-1.9,1.2-3.5,1.6-4.9-0.8c-1.7-3-4.2-3.9-7.2-2c-2.4,1.5-3.7,0.9-5.1-1.4c-2.7-4.7-5.7-9.3-8.4-14
		C288.9,153.1,287.6,151.9,285.3,151.8z"/>
	<path class="st1" d="M537.6,779.3c-57.2,0-114.3,0-171.5,0.1c-4,0-5.4-0.8-5.4-5.1c0.2-27.1,0.1-54.1,0.2-81.2
		c0-2.8-0.7-4.7-2.9-6.6c-40.1-36.2-64.2-81.2-71.1-134.7c-7.3-57.2,8.2-108.7,43.3-154c37.2-48.2,86.7-77.7,145.6-91
		c61-13.8,120.7-8.4,177.4,18.4c65.9,31.1,112.1,80.3,131,152.1c12.6,48,6.3,94.6-14.5,139.3c-12.6,27.1-30.3,50.4-52.6,70.1
		c-2.1,1.8-2.7,3.6-2.7,6.2c0.1,27.2,0,54.4,0.2,81.6c0,4-1,5-5,5C652.3,779.3,595,779.3,537.6,779.3z M435.5,728.9
		c7.1,0,14.3-0.2,21.4,0.1c3.6,0.2,4.2-1.1,4.1-4.3c-0.2-14,0-28-0.1-42c0-3.4,0.6-4.7,4.4-4.6c14,0.2,28,0.3,42,0
		c4-0.1,4.7,1.3,4.6,4.9c-0.2,14,0,28-0.2,42c0,3.2,0.9,4,4,4c14.1-0.2,28.3-0.2,42.4,0c3.3,0,4.4-0.7,4.3-4.2
		c-0.2-14.1,0-28.3-0.1-42.4c0-3,0.4-4.3,3.9-4.3c14.4,0.2,28.9,0.2,43.3,0c3,0,3.8,0.8,3.8,3.8c-0.2,14.3,0.1,28.6-0.2,42.9
		c-0.1,3.5,1,4.2,4.3,4.2c14-0.2,28-0.2,42,0c3.4,0,4.6-0.7,4.6-4.4c-0.2-18.4,0-36.8-0.1-55.2c0-3,0.7-5,3.2-6.9
		c11-8.4,21.5-17.4,30.5-28c37.5-44.1,51.6-94.1,35.9-150.5c-12.8-45.9-42.2-79.6-82.7-103.3c-51.5-30.1-107-37.8-164.8-24.6
		c-52.3,11.9-95.6,39-124.9,84.7c-34,53.1-36,108.2-5.7,163.9c12.5,23,30.3,41.7,51.2,57.3c2.6,1.9,3.5,4,3.5,7.2
		c-0.2,18.4,0,36.8-0.2,55.2c0,3.7,1,4.6,4.6,4.5C421.5,728.7,428.5,728.9,435.5,728.9z"/>
	<path class="st2" d="M376.5,191.4c-2.1-0.7-4-1.3-4.9-3.6c-8.6-21.5-17.3-42.9-26-64.4c-1.5-3.6-0.2-6.1,3.4-7.5
		c7.7-3.1,15.5-6.1,23.2-9.3c3.5-1.4,6-0.6,7.4,2.8c1,2.4,2.1,2.9,4.5,1.9c3.3-1.3,5.8-0.3,7.1,3.2c2,5.2,4.1,10.4,6.3,15.5
		c1.3,3.2,0.5,5.7-2.6,7.1c-2.4,1.1-2.8,2.3-1.8,4.6c1,2.3,2.2,2.9,4.6,1.9c3.1-1.3,5.3,0.1,6.5,3c2.2,5.2,4.2,10.4,6.3,15.6
		c1.4,3.4,0.6,6-2.8,7.3c-2.6,1-2.6,2.6-1.8,4.6c1.2,2.9,0.3,5.2-2.4,6.4c-8.5,3.6-17.1,7-25.6,10.5
		C377.3,191.2,376.9,191.3,376.5,191.4z M379.1,181.1c1.4-2.5,4.1-3.6,6.8-4.6c4.4-1.6,8.6-3.6,13-5.2c2.6-1,3.1-2.4,1.9-4.9
		c-1.8-3.8-3.2-7.8-4.8-11.8c-3-7.4-2.9-7.1-10.4-4.5c-5.7,2-10.7,6-17,5.3C373.7,163.1,377.1,171.5,379.1,181.1z M366.1,150
		c0.8-4.9,4.1-5,6.7-6.1c4.2-1.7,8.3-3.6,12.6-5.1c2.6-0.9,3.2-2.2,2.1-4.8c-2.1-4.9-4.1-9.7-5.7-14.8c-1.2-3.8-3.1-3.9-6.4-2.6
		c-6.6,2.5-12.6,6.7-19.2,6.7C360.4,131.2,364.2,139.3,366.1,150z"/>
	<path class="st2" d="M273.2,832.8c1.1,0,2-0.1,2.8,0.6c2.5,2.5,4.3,2.4,6.3-0.8c1.5-2.3,4.1-2.1,6.4-0.3c6.8,5.5,13.7,11,20.5,16.6
		c2.6,2.2,2.8,4.7,0.5,7.5c-14.6,17.7-29.1,35.4-43.6,53.2c-2.6,3.2-5.3,3.6-8.6,0.9c-6.4-5.3-13-10.5-19.4-15.8
		c-2.7-2.2-3.3-4.7-1-7.4c1.7-2,1.9-3.5-0.4-5.3c-2.7-2.2-2.6-4.8-0.3-7.5c3.4-4,6.7-8.2,10.1-12.3c2.4-2.9,5.1-3.8,8.2-1.2
		c1.7,1.5,3.1,1.5,4.6-0.4c1.4-1.8,2.1-3.2-0.1-5c-3-2.5-3-5.2-0.4-8.2c3.6-4.1,7-8.4,10.4-12.7
		C270.3,833.2,271.6,832.6,273.2,832.8z M278.2,880.8c-2.8,0.3-4.7-1.6-6.7-3.4c-3.5-3.1-7.3-5.9-10.7-9.1c-2.8-2.7-4.5-2-6.5,0.8
		c-2.6,3.5-5.5,6.8-8.3,10.2c-4.2,5.2-4,5,1,9.5c4.8,4.3,11.1,7.2,14,13.2C265.1,893.9,270.8,886.9,278.2,880.8z M282.5,874.7
		c5-7.8,10-15.4,18.4-21.1c-3.5,0.4-5.3-1.4-7.3-3c-3.6-3-7.4-5.8-10.9-8.9c-2.5-2.2-4.3-2.3-6.3,0.6c-2,2.8-4.4,5.4-6.6,8.1
		c-6,7.4-5.9,7.2,1.4,13.5C275.3,867.2,280.5,869.6,282.5,874.7z"/>
	<path class="st2" d="M963.2,512.5c11.5,0,23.1,0,34.6,0c3.7,0,5.5,1.9,5.5,5.6c0.1,8.4,0.3,16.7,0.4,25.1c0.1,3.6-1.5,5.9-5.2,5.9
		c-2.6,0-3.4,1.2-3.4,3.6c-0.1,3.7-2.3,5.4-5.9,5.4c-5.5,0-10.9,0.1-16.4,0.2c-3.4,0-5.6-1.3-5.6-4.9c0-2.4-0.7-3.6-3.4-3.6
		c-2.7,0-3.9,0.8-3.8,3.7c0.1,3.3-1.8,5-5.1,5c-5.8,0-11.6,0-17.3,0c-3.5,0-5.4-1.8-5.4-5.2c0-2.7-1.1-3.4-3.6-3.2
		c-3.4,0.3-5-1.6-5.1-4.9c-0.2-8.5-0.3-17-0.4-25.5c-0.1-4.1,1.8-6.1,6-6.1c11.4,0,22.8,0,34.2,0
		C963.2,513.2,963.2,512.9,963.2,512.5z M932.2,523.8c1.7,1.2,1.5,3.5,1.5,5.8c0.1,5.2,0.2,10.3,0.2,15.5c0,2.7,1.1,3.8,3.9,3.6
		c5-0.3,10-0.6,15-0.3c4.3,0.2,5.7-1.1,5.7-5.6c-0.1-6.8-1.5-13.7,0.9-20.2C950.4,524.6,941.3,523.7,932.2,523.8z M966.5,522.1
		c2.5,1.5,1.9,3.8,2,5.9c0.2,5.2,0.5,10.3,0.4,15.5c-0.1,3.3,1.3,4.2,4.3,4.1c4.9-0.2,9.8-0.4,14.6,0c4.7,0.4,5.5-1.6,5.5-5.7
		c-0.1-6.8-1.6-13.6,1-20.3C990.4,523.9,972.2,523.7,966.5,522.1z"/>
	<path class="st2" d="M671.1,940.5c-2.6-2.6-3.1-5.6-3.9-8.4c-1.9-6.8-3.8-13.7-5.9-20.5c-1.1-3.5-0.2-6.1,3.3-7.2
		c3.6-1.2,5.8,0.5,6.8,4c6.5,22.1,13,44.1,19.5,66.2c1.1,3.7-0.2,6-4,7.1c-8,2.3-16,4.7-23.9,7.1c-3.5,1.1-6-0.1-7.1-3.5
		c-0.9-2.7-2.1-3.1-4.7-2.3c-3,0.9-5.2-0.5-6.2-3.6c-1.7-5.3-3.3-10.7-4.9-16.1c-1.1-3.5-0.4-6.3,3.6-7.4c2.1-0.6,3-1.8,2.1-4
		c-0.8-2-1.3-3.6-4.1-2.7c-3.7,1.2-6-0.5-7.1-4.2c-2.3-8-4.6-16-7-24c-1.1-3.5,0.1-5.8,3.3-6.8c3.3-1.1,5.8,0.2,6.9,3.9
		c2.3,8,4.8,15.9,7,24c0.9,3.3,2.3,4.1,5.5,2.9c4.5-1.7,9.2-3,13.9-4.3C666.2,940.1,668.4,938.6,671.1,940.5z M672.4,947.3
		c-1.4,2.7-4.3,3.1-6.9,3.9c-4,1.3-8.1,2.7-12.2,3.6c-4.1,0.9-4.7,2.8-3.3,6.4c1.8,5,3.2,10.1,4.7,15.2c0.6,2.1,1.6,3,4,2.5
		c7.5-1.7,14.4-6,21.9-5.4C676.3,965.3,673.9,956.8,672.4,947.3z"/>
	<path class="st2" d="M943.8,657c-3.3,0.8-5.9-0.4-8.5-1.3c-7.1-2.3-14.1-4.7-21.2-6.9c-3.6-1.1-5-3.3-3.9-6.8
		c1.2-3.6,3.8-4.2,7.2-3.1c21.9,7.1,43.8,14.1,65.7,21.2c3.7,1.2,4.9,3.5,3.6,7.3c-2.6,7.7-5.2,15.5-7.5,23.3
		c-1.1,3.8-3.4,5.3-7.1,4.1c-2.5-0.8-3.5,0.1-4.2,2.4c-1.1,3.6-3.8,4.3-7.2,3.2c-5.2-1.7-10.4-3.4-15.5-5.1c-3.5-1.1-5-3.3-3.8-6.9
		c0.9-2.5-0.1-3.7-2.3-4.4c-2.3-0.8-3.7-0.1-4.4,2.3c-1.1,3.6-3.6,4.4-7.1,3.3c-8.1-2.6-16.2-5-24.3-7.5c-3.2-1-4.8-3.1-3.7-6.5
		c1.1-3.5,3.5-4.6,7-3.5c7.9,2.5,15.9,4.8,23.8,7.5c3.1,1.1,4.4,0.3,5.3-2.7c1.3-4.7,2.9-9.2,4.5-13.8
		C940.8,661,941,658.4,943.8,657z M949.4,659.1c2.7,3.3,1.2,5.8,0.5,8.4c-1.3,4.4-2.5,8.7-4.1,13c-1.2,3.3-0.1,4.7,3.1,5.5
		c4.4,1.1,8.7,2.6,13,4c5.6,1.7,5.4,1.7,7.5-3.9c2.3-6.2,3-13.1,7.2-18.2C967.6,666.8,958.9,664.3,949.4,659.1z"/>
	<path class="st2" d="M919.9,720.7c-3.7,0.7-6.2-1.3-8.9-2.8c-6.5-3.4-12.9-6.7-19.4-9.9c-3.3-1.6-4-3.9-2.6-7
		c1.5-3.2,3.9-4,7.1-2.4c20.8,10.6,41.6,21.2,62.3,31.9c2.8,1.5,3.7,3.9,2.2,6.8c-4,7.8-8.1,15.6-12.2,23.4c-1.5,2.9-4,3.8-6.8,2.3
		c-2.4-1.2-3.8-1-5.1,1.5c-1.6,3.2-4.2,3.6-7.3,2c-5-2.6-10-5.1-14.9-7.8c-3-1.6-4-4.1-2.4-7.1c1.2-2.2,1-3.5-1.4-4.7
		c-2.2-1.1-3.5-0.8-4.7,1.5c-1.7,3.2-4.2,3.8-7.5,2c-7.3-3.9-14.8-7.7-22.3-11.4c-3.3-1.7-4.4-4.1-2.7-7.3c1.7-3.3,4.3-3.7,7.6-2
		c7.1,3.8,14.4,7.2,21.4,11.1c3.4,1.9,5.1,1.1,6.6-2.2c1.5-3.3,3.2-6.5,5-9.7C915.4,725.9,916.3,722.5,919.9,720.7z M925.7,723.9
		c1.3,3.1,0.1,5-1,7c-2.4,4.6-4.7,9.2-7.1,13.7c-1.2,2.2-0.8,3.5,1.5,4.7c5,2.5,10,5,14.9,7.8c2.7,1.5,3.8,0.7,5.3-1.8
		c3.7-6.3,5.6-13.8,10.7-18.1C941.7,734.1,933.5,730.6,925.7,723.9z"/>
	<path class="st2" d="M127.6,450.1c3.1-1.2,5.6-0.3,8.2,0.4c7.2,1.9,14.4,3.8,21.6,5.5c3.5,0.8,5.5,2.5,4.7,6.3
		c-0.9,4-3.4,4.8-7.1,3.9c-22-5.6-44.1-11.1-66.1-16.7c-4.2-1.1-5.5-3.2-4.4-7.4c2-7.9,4.1-15.8,6.1-23.8c0.9-3.7,2.9-5.6,6.8-4.4
		c2.4,0.7,3.4-0.4,3.9-2.5c1-4,3.6-4.7,7.2-3.8c5.1,1.3,10.3,2.6,15.4,3.9c3.6,0.9,5.6,2.9,4.4,6.9c-0.7,2.3,0.3,3.4,2.5,3.9
		c1.9,0.4,3.8,0.6,4.3-1.9c1-4.6,3.9-5.2,7.9-4.1c7.6,2,15.2,4,22.9,5.8c3.8,0.9,5.7,2.9,4.7,6.7c-1,3.9-3.8,4.4-7.4,3.5
		c-7.8-2.1-15.6-3.8-23.3-6c-3.2-0.9-4.8-0.3-5.5,3.1c-1,4.7-2.4,9.4-3.5,14.1C130.4,446,129.9,448.2,127.6,450.1z M121.4,448.4
		c-2.3-2.8-1.5-5.1-0.8-7.4c1.3-4.7,2.3-9.4,3.8-14c1.2-3.4-0.1-4.7-3.2-5.3c-4-0.9-7.9-1.9-11.9-2.9c-9.1-2.3-7-2.3-9.5,5.5
		c-1.8,5.8-1.6,12.3-5.6,16.8C103.1,441.8,111.9,443.9,121.4,448.4z"/>
	<path class="st2" d="M815.6,223c-0.6,3.6-3.1,5.5-5.2,7.8c-4.8,5.1-9.5,10.2-14.2,15.4c-2.8,3-5.7,3.4-8.2,0.9
		c-2.7-2.7-1.9-5.4,0.5-7.9c12.4-13.3,24.8-26.7,37.2-40.1c3.2-3.5,6.4-6.9,9.6-10.4c2.4-2.6,5-2.6,7.5-0.4
		c6.4,5.8,12.7,11.7,19,17.6c2.7,2.5,2.7,5.3,0.1,7.9c-1.7,1.7-1.7,3,0,4.6c2.8,2.6,2.5,5.2,0,7.9c-3.9,4.1-7.7,8.2-11.5,12.4
		c-2.4,2.7-5,2.7-7.5,0.4c-1.8-1.6-3-2.1-4.9-0.1c-1.8,2-1.9,3.4,0.1,5.4c2.6,2.5,1.9,5.1-0.3,7.5c-5.8,6.2-11.6,12.4-17.4,18.7
		c-2.4,2.6-5,2.5-7.5,0.2c-2.5-2.3-2.2-4.8,0-7.2c5.8-6.2,11.6-12.5,17.6-18.5c2.4-2.4,2.4-4.1-0.2-6.3c-3-2.5-5.8-5.4-8.7-8
		C819.3,228.5,816.4,226.7,815.6,223z M840,198c-5.8,7.4-11.3,14.6-19.2,19.8c3.6,0.3,5.7,3.1,8.2,5.4c3,2.8,6.1,5.4,9,8.3
		c2.2,2.2,3.7,1.8,5.5-0.4c2.7-3.2,5.7-6.3,8.6-9.4c5.3-5.6,5.3-5.6-0.4-10.7c-1.9-1.7-3.8-3.5-5.6-5.3
		C843.7,203.3,840.1,201.7,840,198z"/>
	<path class="st2" d="M828.9,858.7c1.2-6.4,5.3-6.9,10.3-6.6c6.4,0.4,12.7,0.3,19.1,0.3c0.8,0,2,0.4,2.2-0.9c0.2-1.5-1-1.2-1.8-1.2
		c-1.7,0.1-2.4-1.2-3.3-2.2c-11.8-12-23.5-24.1-35.3-36.2c-2.6-2.6-3.6-5.3-0.6-8.2c3-2.9,5.5-1.9,8.1,0.8
		c15.6,16.2,31.3,32.3,47.1,48.3c2.2,2.3,3.2,4.6,2,7.2c-0.9,2-2.9,3.4-5.7,2.9c-3-0.6-4.4-2.4-4.7-5.3c0-0.3-0.3-0.5-1-1.6
		c-0.9,8.3-6.7,6.9-11.8,6.8c-6.5,0-13,0-20.8,0c7.9,3.7,11.6,10.2,17.1,14.9c2.9,2.5,3.3,5.3,0.5,8.2c-2.4,2.5-5.2,2.1-8.1-0.9
		c-15.6-16.1-31.3-32.2-47-48.3c-3.1-3.2-3.3-6.3-0.8-8.6c2.5-2.3,5.8-1.8,8.7,1.2c7,7.2,14,14.4,20.9,21.6
		C826.1,853.2,829.1,854.7,828.9,858.7z"/>
	<path class="st2" d="M190.2,776.6c1.3-3.9,4.5-5.3,7.3-7.1c5.9-3.8,11.7-7.5,17.6-11.3c2.9-1.9,5.5-1.3,7.3,1.6
		c1.8,3,1.1,5.4-1.8,7.3c-19.6,12.4-39.2,24.7-58.9,37c-2.8,1.8-5.4,1.3-7.3-1.6c-4.6-7.2-9.2-14.3-13.7-21.4
		c-1.9-2.9-1.5-5.6,1.4-7.4c2.5-1.5,2.3-2.9,1-5.1c-1.5-2.6-1.2-5.2,1.7-7c4.9-3,9.8-6.1,14.7-9.2c2.9-1.8,5.5-1.5,7.4,1.4
		c1.3,2,2.5,2.7,4.8,1.3c2-1.3,2.6-2.7,1.2-4.8c-2-3.2-1-5.7,2-7.6c7.1-4.4,14.1-8.8,21.1-13.4c3.1-2,5.8-1.9,7.7,1.3
		c1.9,3.1,1.1,5.6-2.1,7.5c-6.5,3.9-12.8,8.1-19.3,12.1c-5,3.1-5,3.1-1.7,8.2c1.7,2.7,3.4,5.4,5.1,8.1c1,1.5,1.7,3.3,3,4.6
		C190.3,772.6,188.7,774.7,190.2,776.6z M183.9,779.5c-3.1-0.8-4.4-3.3-5.9-5.8c-2.4-3.9-4.9-7.7-7.2-11.6c-1.5-2.5-3-2.9-5.5-1.3
		c-4.1,2.8-8.3,5.6-12.7,8c-4,2.1-4,4.2-1.7,7.7c3.6,5.7,8.4,10.8,9.6,17.4C167.2,787.9,174.7,783.1,183.9,779.5z"/>
	<path class="st2" d="M729.9,154.3c-6.4,1.5-8.7-1-10.1-5.5c-2-6.3-4.6-12.5-7-18.7c-0.3-0.9-0.9-1.7-1.8-2.5c0.6,5.7-3,9.9-5,14.5
		c-5.5,12.6-11.3,25.1-17,37.7c-1.6,3.6-4.5,4.9-7.6,3.2c-3.2-1.7-3.7-4.4-2.2-7.6c9.3-20.4,18.7-40.8,27.9-61.3
		c1.3-2.9,2.9-5.1,6.2-4.8c2.3,0.2,4.2,1.7,4.6,4.3c0.6,3.3-1.1,5.4-4,6.5c0.5,1.7,1.4,1,2.3,1c3.1-0.2,5,1,6.1,4.1
		c2.2,6.5,4.6,12.8,7.1,19.2c0.5,1.3,0.6,3,2.3,3.7c1-8.3,5.6-15,8.8-22.2c1-2.3,4.2-2.7,6.9-1.1c2.8,1.7,3.1,4.3,1.9,7
		c-3.7,8.3-7.5,16.5-11.3,24.8c-5.7,12.6-11.4,25.1-17,37.7c-1.5,3.3-3.6,4.8-7.1,3.6c-3.3-1.1-4.2-4.1-2.5-7.8
		c4.6-10.2,9.3-20.4,13.8-30.6C725.9,157.6,727.5,156.5,729.9,154.3z"/>
	<path class="st2" d="M117.8,628.1c5,3.7,3.6,7.3,0.9,11.3c-4.1,6.1-7.8,12.4-11.8,19c14.4-5.8,29.2-7.7,43.5-11.7
		c4.2-1.2,8.5-2,12.8-3.1c3.5-0.8,5.4,0.8,6.2,4.1c0.7,3.2-0.6,5.4-3.7,6.1c-22.5,5.5-45,11-67.6,16.5c-2.7,0.7-5,0-6.3-2.2
		c-1.1-1.8-1.3-3.9,0.3-5.9c1.8-2.2,3.8-2.7,6.3-2c0.7,0.2,1.3,0.8,2.3-0.2c-4.4-3.3-3.2-6.9-0.7-10.7c3.6-5.4,6.9-11.1,10.2-16.6
		c0.4-0.7,1.9-1.6,0.5-2.6c-1.2-0.9-1.3,0.8-1.8,1.2c-1.9,1.5-4.2,1.5-6.4,2c-4.1,1-8.3,1.8-12.4,2.8c-3.8,1-6.3-0.1-7.1-3.9
		c-0.8-3.7,1.4-5.5,4.7-6.3c20.6-4.9,41.3-9.9,61.9-14.8c1.8-0.4,3.5-0.9,5.3-1.2c3.2-0.7,5.2,0.7,6,3.8c0.9,3.2-0.4,5.5-3.5,6.3
		c-11.5,2.9-23,5.5-34.4,8.4C121.4,628.8,120.1,627.5,117.8,628.1z"/>
	<path class="st2" d="M502,138.5c0.3,3.9,0.6,7.9,0.9,11.8c0.3,3.5,0.2,6.9-4.4,7.4c-3.9,0.4-5.7-1.5-6-6.6
		c-0.8-12.1-1.5-24.3-2.2-36.4c-0.6-9.7-1.1-19.4-1.7-29.1c-0.4-6.5,0.7-7.9,7.1-8.2c7.6-0.4,15.2-0.8,22.7-1.4
		c4-0.3,6.1,1.3,6.3,5.1c0.1,2.4,1.1,3.2,3.3,3.2c4.1,0,5.9,2.2,6,6.3c0.2,5.3,0.6,10.6,0.9,15.9c0.2,3.4-1.3,5.6-4.9,5.6
		c-2.7,0-3.3,1.3-3.3,3.7c0,2.5,0.9,3.6,3.5,3.5c4-0.1,5.5,2.1,5.8,5.9c0.5,7.9,1.1,15.8,1.8,23.6c0.3,3.6-0.4,6.6-4.6,6.7
		c-3.9,0.2-5.6-2.1-5.8-6c-0.4-8-1.1-16.1-1.4-24.1c-0.1-3.4-1.3-4.5-4.7-4.2c-6.2,0.5-12.4,0.8-18.6,0.9c-2,0-1.6,0.7-1.5,2.1
		c0.5,4.7,0.8,9.4,1.2,14.1C502.2,138.5,502.1,138.5,502,138.5z M500.8,113.1c1.1-1,2.5-0.9,3.9-1c5.3-0.3,10.6-0.8,15.9-0.9
		c3.4-0.1,4.6-1.4,4.2-4.8c-0.4-4.4-0.6-8.8-0.9-13.1c-0.4-7-0.3-7-7.4-6.4c-2.9,0.2-5.7,0.5-8.6,0.6c-3.4,0.1-7,1.1-10.1-1.1
		c2.2,8.6,2.5,17,2.1,25.5c-0.6,0.5-1.7,0.9-0.8,1.8C499.9,114.4,500.4,113.7,500.8,113.1z M500.1,121.6c-0.1-0.1-0.2-0.2-0.3-0.3
		c-0.1,0.2-0.2,0.4-0.3,0.6c0,0.1,0.2,0.2,0.3,0.3C499.9,122,500,121.8,500.1,121.6z"/>
	<path class="st2" d="M644.6,98.6c5.1-2.3,7.7,0.2,9.9,4.5c3.4,6.5,7.3,12.8,11.5,20.3c-0.5-9.1,3-16.2,4.8-23.6
		c0.7-3,2.9-4.4,6.2-3.4c3.2,1,4.5,3.2,3.7,6.2c-6,22.7-12,45.4-18.2,68.1c-0.8,2.8-3.2,4-6.1,3.2c-2.8-0.7-4.7-2.7-3.9-5.6
		c3-11.9,6.3-23.7,9.3-35.6c0.4-1.6,2.5-1.8,2.7-4.1c-6.3,2.9-8.6-1.4-11-5.8c-3.3-6-6.9-11.8-10.7-18.2c-1.1,12.8-5.7,24-8.4,35.6
		c-1.6,6.8-3.7,13.4-5.4,20.2c-0.9,3.7-3.2,5.2-6.6,4.3c-3.5-0.9-4.6-3.3-3.6-6.9c5.9-21.6,11.7-43.3,17.4-65
		c0.8-3.1,2.1-5.6,5.3-5.9c2.1-0.2,4.4,0.4,5.5,3c1.4,3.2,0.2,5.4-2.3,7.3C644.5,97.4,644.6,97.8,644.6,98.6z"/>
	<path class="st2" d="M773.9,900.5c2-5.6,5.8-5.9,10.6-4.8c6.3,1.5,12.7,2.4,19.1,3.5c0.9-1.3-0.5-1.9-1-2.6
		c-10-14.3-19.9-28.7-30-42.9c-2.2-3.1-2.5-5.9,0.9-8.2c3.1-2,5.5-1.2,7.6,1.9c12.8,18.5,25.7,36.9,38.6,55.2
		c1.7,2.5,2.8,4.9,1.2,7.4c-1.2,2-3.4,2.9-6,2.1c-3.2-0.9-4.1-3.2-3.9-6.2c0-0.3-0.4-0.6-1.1-1.5c-1.3,5.8-4.6,6.4-9.5,5.3
		c-7.3-1.7-14.8-2.7-22.4-3.6c6,4.7,8.9,11.5,13.4,17.1c2.3,2.8,2.9,5.8-0.5,8.2c-3.3,2.3-5.8,1-8-2.1
		c-12.9-18.6-25.8-37.1-38.9-55.6c-1.6-2.2-2.2-4.5-0.7-6.7c1.3-2,3.4-2.8,6-2.3c1.6,0.3,2.2,1.4,3,2.5c6.5,9.3,13,18.7,19.6,28
		C773.3,896.8,773.4,898.4,773.9,900.5z"/>
	<path class="st2" d="M95.6,587.2c1.1-0.9,2.1-1.5,3.6-1.6c17.2-1.2,34.5-2.5,51.7-3.8c3.4-0.3,5.8,1,6,4.5c0.2,3.5-1.6,5.7-5.3,5.9
		c-22.4,1.7-44.7,3.5-67.1,5.3c-2.9,0.2-5.6-0.1-7-2.8c-0.8-1.5-0.9-3.4,0.3-5.2c1.9-2.9,4.5-2.6,7.2-1.9c0.5,0.6,1,1.7,1.9,0.8
		c0.7-0.7-0.1-1.2-0.7-1.6c-2-3-1.4-5.6,1-8.1c4.4-4.8,8.6-9.8,12.8-14.8c0.6-0.7,1.5-1.3,1-2.3c-0.5-1.2-1.6-0.4-2.4-0.4
		c-5.9,0.5-11.8,0.9-17.7,1.4c-3.2,0.3-6-0.5-6.3-4.1c-0.3-3.7,1.6-5.7,5.7-6c22.4-1.6,44.9-3.4,67.3-5.1c3.5-0.3,6.5,0,7,4.3
		c0.4,3.8-1.5,5.8-6.1,6.1c-10.9,0.8-21.8,1.4-32.7,2.3c-2.1,0.2-4-0.3-6.2-1.3c4.3,5,1.6,8.4-1.7,12c-4.5,4.9-8.6,10.2-12.9,15.3
		c-0.2,0.3-0.6,0.8-0.5,1C94.6,587.9,95.1,587.6,95.6,587.2z M102.7,560.4c-0.5-0.3-0.8-0.6-1.2-0.6c-0.4,0-0.9,0.4-1,0.7
		c-0.1,0.6,0.3,1.1,1,0.8C102,561.2,102.3,560.8,102.7,560.4z"/>
	<path class="st2" d="M426.6,100.8c2.5,8.1,5.2,16.2,4.8,24.8c6.9-4.2,15-4.6,22.6-6.3c2.4-0.6,4.6,1.1,5.1,4c0.5,3-0.6,5.3-3.4,6
		c-6.2,1.6-12.4,2.7-18.6,4.3c-1.6,0.4-2.6-1.8-4.1-0.6c4.7,7.7,4.5,16.6,7,25c9-2,18.2-4.1,27.5-6.2c4.5-1,7,0.2,7.8,3.7
		c0.8,3.4-0.9,5.5-5.5,6.5c-10.6,2.4-21.3,4.9-31.9,7.2c-4.3,1-6.6-0.5-7.6-4.8c-5-22-9.9-44.1-14.8-66.1c-1-4.7,0.2-6.7,5-7.8
		c10.6-2.5,21.3-4.8,31.9-7.3c3.7-0.9,6.3,0.1,7.2,4c0.9,3.8-1.2,5.6-4.5,6.4c-9.2,2.1-18.3,4.2-27.5,6.2c-0.7-0.5-1.3-2-2.3-0.7
		C424.6,100.1,426.1,100.3,426.6,100.8z M440.1,159.4c0.5-0.9,0-1.2-0.3-1.2c-0.3,0-0.9,0.2-1.1,0.5c-0.3,0.6,0.1,1.1,0.8,1.2
		C439.7,159.9,440,159.5,440.1,159.4z"/>
	<path class="st2" d="M746.2,205.9c2.9-0.7,5.1,1.5,7.5,3.1c6.1,4,12.1,8.2,18.2,12.1c3.1,2,4.1,4.5,2.1,7.6c-2,3.1-4.7,3.2-7.7,1.2
		c-9.3-6.2-18.7-12.3-28.1-18.5c-3.4-2.2-4.2-4.7-1.8-8.3c12.7-18.9,25.3-37.9,37.9-56.8c2.6-3.9,4.8-4.3,8.7-1.7
		c9.1,6,18.1,12.2,27.3,18.2c3.2,2.1,4.5,4.6,2.3,7.9c-2.2,3.4-5,3.2-8.1,1c-5.7-4-11.6-7.8-17.4-11.7c-2.7-1.8-5.9-3-6.5-6.9
		c-3.5,9-8.9,16.3-15,23.1c6.6,1.4,11.6,7,17.9,10.6c3,1.7,4.3,4.2,2.3,7.5c-1.8,3-4.8,3.5-8.1,1.2c-4.2-2.8-8.2-5.7-12.5-8.4
		c-1.9-1.2-3-2.6-3.5-5.5C758.1,191.4,752.6,198.7,746.2,205.9z"/>
	<path class="st2" d="M965,593.3c0.3,7.3-1.7,14.4-2.7,21.5c-0.3,2.2-2.6,3.6-5.2,3.4c-2.8-0.2-5.3-2.2-4.9-4.4
		c1.1-7.4,1-15.1,4-22.2c0.6-0.4,1.5-0.8,0.7-1.6c-0.7-0.7-1.3,0-1.9,0.5c-8.6,0-16.9-1.4-24.7-3.8c0.8,9.9-2.5,20.2-3.8,30.7
		c-0.4,3.1-2.7,4.5-6,3.9c-3.4-0.6-4.7-2.7-4.2-5.8c1.7-11.6,3.5-23.1,5.2-34.7c0.5-3.6,2.8-4.9,6.1-4.4
		c22.8,3.4,45.6,6.9,68.4,10.3c4.1,0.6,5.6,3,5,7.1c-1.7,10.9-3.4,21.9-5,32.9c-0.6,3.8-2.5,5.8-6.4,5.2c-3.7-0.6-4.7-3.3-4.2-6.8
		c1.3-8.4,2.6-16.8,3.7-25.2c0.2-1.9,1.7-2.8,3.1-4.6c-8.2,1.7-15.3-1.2-22.6-1.7c-1.4-0.1-2.7-0.4-3.7-1.5
		c-0.4-0.7-0.8-1.5-1.6-0.7C963.8,592.2,964.6,592.8,965,593.3z"/>
	<path class="st2" d="M110.6,514.8c-0.5-7.1,0.8-14.2,1.4-21.2c0.3-2.9,2.8-4.5,6.1-3.9c2.9,0.6,4.5,2.5,4.3,5.4
		c-0.5,7-1.3,14.1-1.9,21c7.9,0.8,15.8,1.5,23.7,2.3c0.3,0.9,1.1,2,1.8,1.5c1.4-0.9-0.1-1.7-0.7-2.4c0.7-9.7,1.3-19.4,2.2-29
		c0.3-3.2,2.3-4.8,5.6-4.5c3.4,0.3,4.8,2.2,4.5,5.5c-1,11.6-1.9,23.3-2.9,34.9c-0.3,3.5-2.3,5-5.8,4.8c-16.8-1.4-33.6-2.8-50.3-4.2
		c-5.7-0.5-11.5-1-17.2-1.5c-5.6-0.4-7.3-2.3-6.8-7.7c0.9-10.4,1.8-20.9,2.6-31.3c0.3-3.7,1.3-6.6,5.7-6.6c3.8,0,5.4,2.3,5,7.3
		c-0.6,8-1.4,16-1.8,24.1c-0.1,2.1-1.7,3.3-2.3,5.1c8.8-1.6,17.2,0.1,25.6,1.3c0.4,0.8,0.8,1.9,1.9,1.2
		C112.2,516.1,111.2,515.4,110.6,514.8z M120.5,516.9c-0.4-0.3-0.7-0.5-1-0.8c-0.2,0.3-0.6,0.6-0.6,0.9c0,0.3,0.4,0.6,0.7,0.9
		C119.9,517.6,120.1,517.3,120.5,516.9z"/>
	<path class="st2" d="M226.5,833.7c-7.2-3.7-11.2-11-16.5-16.9c-1.7-1.8-0.8-4.6,1.5-6.4c2.1-1.6,4.5-2,6.1-0.3
		c4.6,4.8,8.9,9.9,13.3,15c0.7,0.8,0.8,2.2,1.2,3.2c5.5-7.7,12.6-13.2,19.8-18.1c-8.6-5.9-14.4-15.3-21.8-23.3
		c-1.9-2-1.2-4.9,1.4-6.7c2.5-1.8,4.8-1.4,6.8,0.8c7.3,8.2,14.5,16.4,21.7,24.6c1,1.1,2.4,2.2,2.8,3.5c0.6,2.2,0.2,4.2-1.8,6.1
		c-17,15.2-33.9,30.5-50.8,45.7c-3.5,3.1-5.8,2.9-8.8-0.5c-7.2-8.2-14.4-16.5-21.7-24.6c-2.4-2.7-2.9-5.3-0.3-7.9
		c2.5-2.6,5.8-2.2,8.5,0.9c5,5.7,10,11.4,15.1,17.1c1.6,1.8,3.4,3.4,2.8,6.8C211.7,844.3,218.9,838.6,226.5,833.7z"/>
	<path class="st2" d="M748.5,945.5c-5.5-7.6-9.3-15.8-11.6-24.5c-5.3,5.1-13.1,6.9-19.8,10.6c-2.4,1.3-4.6,0.3-6.2-2
		c-1.7-2.4-1.4-5.4,0.7-6.5c7-3.9,13.9-8.3,21.9-9.6c-5.6-7.1-9.4-15.5-11.9-24.8c-1.3,3.2-4.3,4.2-7.1,5.5c-6.4,3-12.9,6-19.2,9.2
		c-3.4,1.7-6.1,1.5-7.9-2.1c-1.7-3.5,0-5.7,3.1-7.2c10.1-4.9,20.2-9.7,30.3-14.6c3.3-1.6,5.9-1.4,7.8,2.5
		c9.8,20.5,19.7,40.9,29.5,61.4c2.3,4.8,1.6,6.7-3.1,8.9c-9.8,4.7-19.7,9.4-29.5,14.2c-3.6,1.7-6.4,0.9-7.8-2.3
		c-1.5-3.5,0-5.7,3.1-7.3c7.5-3.6,15.1-7.1,22.5-10.9C745.1,945.2,746.9,945.9,748.5,945.5z"/>
	<path class="st2" d="M898,832.9c-1.6,0.4-2.6-0.5-3.7-1.3c-16.1-11.9-32.1-23.9-48.2-35.7c-3.1-2.3-3.9-4.9-1.3-8
		c1.5-1.8,1.2-3.1-0.6-4.5c-2.9-2.2-3.1-4.9-0.8-7.8c3.3-4.4,6.5-8.8,9.6-13.3c2.1-2.9,4.6-3.4,7.3-1.3c2.4,1.7,3.8,1.4,5.6-0.9
		c1.8-2.3,4.3-2.5,6.8-0.6c16.3,12.1,32.6,24.2,48.9,36.4c2.6,2,3.6,4.4,1.3,7.4c-2.3,3-4.9,2.9-7.8,0.8c-16-11.8-32-23.6-47.9-35.5
		c-2.8-2.1-4.4-2.4-6.4,0.9c-2.7,4.2-5.6,8.3-8.8,12.1c-2.5,3-1.8,4.7,1.2,6.8c15.8,11.5,31.5,23.2,47.3,34.8
		c2.3,1.7,3.3,3.8,2.6,6.2C902.4,831.2,900.8,833.2,898,832.9z"/>
	<path class="st2" d="M607.8,87.7c-1.8,18.7-3.7,38.3-5.6,58c-0.3,3.5-2,5.8-5.8,5.4c-2.5-0.3-3.8,0.5-3.9,3.1
		c-0.2,3.7-2.5,5-5.8,4.7c-5.9-0.5-11.8-1.1-17.7-1.8c-3.1-0.4-4.5-2.3-4.1-5.4c0.4-2.7-0.6-3.8-3.4-4.1c-3.4-0.3-5-2.5-4.6-6
		c2-19.9,4-39.9,6-59.8c0.3-3.3,1.7-5.6,5.3-5.4c4,0.2,5.5,2.6,5.1,6.4c-1.4,13.9-2.7,27.8-4.1,41.7c-0.6,6.2-1.1,12.4-1.9,18.6
		c-0.3,2.6,0.8,3.6,3.2,3.8c5.7,0.5,11.5,1.1,17.2,1.7c2.4,0.3,3.6-0.5,3.8-3.1c1.7-18.4,3.6-36.9,5.4-55.3c0.1-1.5,0.4-3,0.5-4.5
		c0.3-3.7,1.8-6.1,5.9-5.7C607.6,80.2,608.3,83.1,607.8,87.7z"/>
	<path class="st2" d="M122.3,740.7c-2.7-0.7-4.9-1.5-5.4-4.4c-0.4-2.8,0.6-4.9,3.4-6c14.1-5.9,28.2-11.9,42.3-17.9
		c4.3-1.8,8.6-3.8,13-5.4c3.1-1.1,4-2.6,2.5-5.8c-2.3-4.8-4.4-9.7-6.2-14.6c-1.2-3.3-2.8-3.5-5.8-2.2c-18.1,7.7-36.3,15.3-54.4,23
		c-3.5,1.5-6.2,1.2-7.8-2.4c-1.6-3.7,0.3-5.8,3.8-7.3c18.3-7.7,36.6-15.4,54.8-23.2c3.4-1.5,5.9-0.8,7.4,2.6c1,2.3,2.2,2.9,4.6,1.9
		c3.5-1.5,5.8,0.1,7.2,3.3c2,4.9,3.9,9.9,6.1,14.7c1.6,3.6,1,6.2-2.7,7.7c-2.4,1-2.6,2.5-1.6,4.7c1.3,3,0.4,5.3-2.7,6.6
		c-18.8,8-37.7,15.9-56.5,23.8C123.5,740.2,122.8,740.5,122.3,740.7z"/>
	<path class="st2" d="M587.4,1002.9c-2.3,0.4-4.8-0.8-5.2-4.9c-0.3-2.3-1.4-3.1-3.7-2.8c-3.6,0.4-5.9-1.1-6.2-4.8
		c-0.2-3,1-5,4.1-5.5c3.7-0.7,5.8,1,6.3,4.7c0.3,2.2,1.2,3.3,3.6,2.9c5.7-0.8,11.4-1.6,17.1-2.2c2.9-0.3,3.9-1.4,3.5-4.4
		c-0.8-5.5-1.5-11.1-2.1-16.7c-0.3-2.8-1.6-3.5-4.2-3.1c-5.4,0.8-10.8,1.3-16.3,2c-3.7,0.4-6.3-0.5-6.6-4.7c-0.2-2.5-1.6-3-3.7-2.7
		c-3.7,0.4-5.7-1.4-6.2-5c-0.7-5.4-1.3-10.8-2-16.3c-0.4-3.6,0.7-6,4.6-6.4c2.6-0.3,3.1-1.7,2.9-4.1c-0.3-3.4,1.4-5.3,4.8-5.7
		c5.6-0.6,11.2-1.3,16.7-2.1c3.6-0.5,5.6,0.9,6.1,4.3c0.4,2.7,1.5,3.7,4.2,3.3c3.5-0.5,5.5,1.3,5.6,4.8c0.1,2.9-1,5-4.2,5.4
		c-3.4,0.4-5.7-0.8-6-4.3c-0.2-3-1.7-3.4-4.3-3.1c-5.7,0.7-11.4,1.4-17.2,2c-2.5,0.3-3.4,1.5-3,4c0.8,5.5,1.6,11.1,2.2,16.7
		c0.3,3.2,1.6,4.1,4.7,3.6c5.2-0.8,10.5-1.3,15.8-2.1c3.7-0.6,5.9,0.7,6.4,4.4c0.4,2.7,1.7,3.5,4.3,3.2c3.2-0.4,5.1,1.3,5.6,4.5
		c0.7,5.6,1.3,11.1,2.1,16.7c0.5,3.6-0.6,6-4.5,6.4c-2.4,0.3-3.4,1.4-3.1,3.9c0.5,4-1.6,5.7-5.5,6.1
		C599.1,1001.3,594,1002.1,587.4,1002.9z"/>
	<path class="st2" d="M865.1,316.2c-4.1-5.2-8.9-2.8-13.6-1.9c-1.5,0.3-2.3-1.2-3.2-2.3c-3.3-4.3-6.7-8.6-10.1-12.9
		c-2.2-2.8-2.4-5.5,0.7-7.8c1.9-1.4,1.9-2.9,0.4-4.6c-2.5-2.9-2.1-5.6,0.9-7.7c2.3-1.7,4.8-1.6,6.8,0.7c2.4,2.9,2.1,5.5-0.9,7.8
		c-1.9,1.5-1.7,2.9-0.3,4.7c3.6,4.5,7.2,9,10.6,13.7c1.5,2,2.9,2.3,4.9,0.8c4.6-3.7,9.3-7.3,14-10.9c2.3-1.7,1.7-3.2,0.3-5
		c-3.3-4.2-6.5-8.4-9.8-12.6c-2.5-3.2-3.3-6.1,0.5-8.8c1.8-1.3,1.5-2.8,0.2-4.2c-2.7-3.2-1.7-5.8,1.3-8.1c4.3-3.3,8.7-6.6,13-10
		c2.8-2.2,5.3-2.3,7.5,0.4c1.9,2.4,3.4,2.2,5.7,0.5c2.3-1.6,4.8-1.5,6.7,1.1c3.5,4.6,7.1,9.1,10.6,13.7c2,2.6,2.1,5.4-0.8,7.5
		c-2.2,1.6-2.1,3-0.5,4.9c2.3,2.8,1.7,5.3-1,7.4c-2.5,2-5,2-7.1-0.7c-2.1-2.6-2.2-5.3,0.6-7.5c2.3-1.7,2.2-3.3,0.5-5.3
		c-3.6-4.5-7.1-9.1-10.6-13.7c-1.3-1.8-2.5-2.4-4.5-0.8c-4.7,3.8-9.5,7.5-14.4,11.1c-2.3,1.7-1.5,3.2-0.1,4.9c3.4,4.3,6.7,8.7,10,13
		c2.3,2.9,2.8,5.7-0.6,8.2c-1.9,1.4-1.8,2.9-0.4,4.6c2.7,3.2,1.6,5.8-1.4,8c-4.3,3.3-8.6,6.7-12.9,10.1
		C867.5,315.2,866.6,316.3,865.1,316.2z"/>
	<path class="st2" d="M186.4,365.4c-0.3,0.6-0.5,1.3-0.9,2c-1.2,2.2-0.7,3.7,1.6,4.7c3.8,1.6,4.2,4.3,2.6,7.7
		c-2.2,4.8-4.3,9.7-6.4,14.6c-1.4,3.3-3.7,4.9-7.1,3.3c-2.7-1.3-3.8-0.2-4.9,2.1c-1.3,3-3.6,3.8-6.6,2.4c-3-1.5-4.1-3.8-2.9-7
		c1.2-3,3.7-4.2,6.5-2.9c3.2,1.5,4.3,0.1,5.4-2.5c2-5,4.2-10.1,6.5-15c1.1-2.4,0.9-3.8-1.8-4.9c-5.3-2.2-10.6-4.5-15.8-6.9
		c-2.6-1.2-3.8-0.4-4.8,2.1c-2,4.9-4.2,9.7-6.3,14.6c-1.5,3.5-3.7,5.5-7.7,3.7c-2.1-1-3.3-0.3-4.2,1.8c-1.4,3.5-4,4.1-7.4,2.7
		c-5.1-2.2-10.3-4.4-15.5-6.5c-3-1.3-4.2-3.6-3.1-6.5c1-2.7,0.9-4.1-2-5.2c-2.9-1.1-3.6-3.5-2.4-6.3c2.2-5.3,4.6-10.5,6.9-15.8
		c1.4-3.2,3.7-4.3,6.9-2.9c2.5,1.1,3.8,0.3,4.9-2.1c1.5-3.2,4.1-3.8,7.2-2.2c2.6,1.4,3.6,3.7,2.5,6.4c-1.3,3.3-3.9,4-7,2.6
		c-2.4-1.2-3.6-0.3-4.5,1.9c-2.3,5.4-4.7,10.8-7.1,16.2c-1,2.3-0.3,3.6,2,4.5c5.3,2.2,10.6,4.4,15.8,6.9c2.7,1.3,3.9,0.2,4.9-2.1
		c2.1-4.9,4.3-9.7,6.3-14.6c1.5-3.7,3.6-5.4,7.6-3.7c2,0.9,3.4,0.4,4.3-1.8c1.4-3.6,4.1-4.1,7.3-2.7c5.1,2.2,10.2,4.6,15.4,6.6
		C185.1,361.4,185.5,363.3,186.4,365.4z"/>
	<path class="st2" d="M292.4,221.6c2.3-0.4,3.9,1.2,4.8,3.1c1,2,0.7,4.3-1.2,5.7c-2.4,1.8-2.4,3.3-0.5,5.5c2.2,2.6,2.5,5.2-0.7,7.7
		c-4.3,3.4-8.3,7.1-12.5,10.7c-2.6,2.2-5.1,2.6-7.4-0.3c-1.7-2.2-3.2-1.6-5-0.1c-2.8,2.3-5.3,2.2-7.8-0.8
		c-11.1-13.3-22.3-26.5-33.4-39.8c-2.1-2.6-2.4-5.2,0.2-7.6c1.8-1.6,2.2-2.8,0.5-4.9c-2.5-2.9-2-5.7,1-8.2
		c4.1-3.4,8.1-6.9,12.1-10.4c2.8-2.5,5.5-2.6,7.9,0.3c1.7,2.1,3.2,1.9,4.9,0.3c2.7-2.4,5.3-2,7.5,0.6c1.9,2.4,2.2,5-0.2,7.3
		c-2.7,2.5-5.3,1.9-7.5-0.7c-1.7-2-3.2-1.8-5-0.3c-4.5,3.9-9,7.7-13.5,11.5c-1.8,1.5-1.8,2.9-0.3,4.6c11.4,13.4,22.7,26.9,34,40.4
		c1.6,1.9,2.9,1.8,4.6,0.3c4.6-4,9.2-8,13.8-11.9c2.2-1.8,1.3-3.3-0.3-4.9c-1.7-1.7-1.8-4-0.7-5.9
		C288.6,222.7,290.1,221.4,292.4,221.6z"/>
	<path class="st2" d="M362.9,950.5c3.6-0.2,6.4,3.3,5.1,7c-0.9,2.6-0.4,3.9,2.1,4.8c5.4,1.9,10.8,4,16.1,6.1c2.5,1,3.7,0.4,4.7-2.3
		c6-16.2,12.2-32.3,18.4-48.4c1-2.5,0.8-3.9-2-4.8c-5.4-1.9-10.8-3.9-16.1-6.1c-2.5-1-3.9-0.4-4.8,2.1c-1.2,3.4-3.8,4.1-6.9,2.8
		c-2.7-1.1-3.9-3.2-2.9-6.2c1.1-3.2,3.3-4.6,6.6-3.4c2.4,0.8,3.9,0.6,4.9-2.2c1.2-3.4,3.8-3.9,7-2.7c5.1,1.9,10.2,3.9,15.3,5.8
		c3.6,1.3,5.1,3.6,3.6,7.3c-0.9,2.2-0.2,3.3,2,4.1c3.7,1.4,4.4,3.9,3,7.6c-5.9,15.6-11.8,31.1-17.6,46.7c-1.5,4-3.8,6.1-8.2,4.4
		c-2.1-0.9-3,0.2-3.7,2c-1.4,3.7-4,4.5-7.6,3c-4.9-2-9.9-3.8-14.9-5.6c-3.5-1.3-5.2-3.6-3.7-7.3c1.2-3-0.6-3.7-2.7-4.6
		c-2.6-1.2-3.2-3.4-2.7-6C358.5,952,360.5,951,362.9,950.5z"/>
	<path class="st2" d="M898.6,404.3c0.3-2.6,1.2-4.6,3.8-5.3c2.4-0.7,3-2,2.1-4.4c-1.2-3.4,0.1-5.7,3.7-6.9
		c15.9-5.4,31.8-11,47.6-16.6c3.9-1.4,6.8-1.1,8.2,3.3c0.7,2.2,2,2.4,4.2,1.7c3.4-1.1,5.8,0.2,7,3.8c1.6,5,3.3,10.1,5.2,15
		c1.3,3.6,0.6,6.2-3.1,7.6c-2.3,0.9-2.8,2.1-2,4.5c1,3.1,0,5.6-3.5,6.6c-3.2,0.9-5.3-0.4-6.4-3.3c-1.3-3.3,0.1-5.6,3.3-6.6
		c2.5-0.8,2.9-2.4,2.1-4.5c-2-5.7-4.1-11.4-6-17.1c-0.7-2.1-1.9-2.5-3.8-1.8c-16.8,5.9-33.7,11.8-50.5,17.7c-2,0.7-2.2,2.2-1.6,4
		c2,5.7,4,11.4,5.9,17.2c0.8,2.2,2.1,2.7,4.2,1.9c3.3-1.3,5.7-0.1,6.8,3.1c1,3,0.1,5.3-3.1,6.5c-3.3,1.3-5.6,0-6.8-3.1
		c-1-2.6-2.5-3.2-4.9-2c-2.3,1.1-4.8-0.1-5.5-1.8C903,417.3,900.9,410.7,898.6,404.3z"/>
	<path class="st2" d="M966.3,468.8c3.5-0.1,5.8,1.2,6.2,4.4c0.4,3.1,2,3.2,4.4,2.8c5.5-1,11.1-1.8,16.6-2.8c3.5-0.6,5.6,1,6.2,4.3
		c0.6,3.4-0.9,5.5-4.4,6.1c-5.5,1-11.1,1.8-16.6,2.9c-3.8,0.8-5.9-0.8-6.6-4.2c-0.5-2.3-1.2-3.6-3.9-2.9c-3.4,0.9-5.7-0.8-6.2-4.1
		c-0.5-3-2-3.2-4.5-2.7c-11,2-22.1,3.8-33.2,5.8c-3.5,0.6-5.6-0.6-6.4-3.9c-0.8-3.5,0.7-5.8,4.5-6.4c10.9-1.8,21.8-3.8,32.7-5.7
		c2.8-0.5,4.8-1,4.1-4.8c-0.6-2.8,1.1-5.1,4.1-5.5c3-0.4,3.4-1.9,2.9-4.4c-0.7-3.3,1.1-5.2,4.2-5.8c5.4-1.1,10.8-1.9,16.1-2.8
		c3.3-0.6,6.2-0.1,7.1,3.6c0.9,3.6-1,5.8-5.4,6.6c-5.2,1-10.4,1.9-15.7,2.8c-2.5,0.4-3.9,1.3-3.2,4.2c0.8,3.3-1.1,5.2-4.1,5.9
		c-2.1,0.5-3.8,1-3.1,3.8C962.9,468.3,963.7,469.9,966.3,468.8z"/>
	<path class="st2" d="M318.6,947.2c-0.1-1.6,1-2.8,1.7-4.1c2.4-4.4,4.9-8.7,7.5-13c1.4-2.3,1.9-3.9-1-5.6c-3-1.7-3.5-4.4-1.6-7.4
		c1.3-2.1,0.6-3.2-1.3-4.4c-2.1-1.3-3.5-1.3-4.8,1c-1.7,3-4.2,3.9-7.2,2.1c-2.3-1.4-3.5-0.9-4.7,1.3c-2.7,4.8-5.6,9.4-8.3,14.1
		c-1.8,3.3-4.3,4.8-7.7,2.8c-3.5-2-3.4-5-1.5-8.2c2.7-4.6,5.3-9.2,8-13.8c1.8-3,4.2-4.2,7.5-2.3c2.1,1.2,3.5,1.1,4.8-1.2
		c1.7-2.9,4.3-3.9,7.2-1.9c2.6,1.7,3.7,0.3,4.9-1.8c5.5-9.6,11.1-19.1,16.6-28.7c1.8-3.2,4.1-4.9,7.7-3c3.4,1.9,3.5,4.8,1.6,8.1
		c-5.6,9.5-11,19.2-16.7,28.7c-1.6,2.6-1.6,4.1,1.3,5.7c2.5,1.4,3.2,4,1.6,6.6c-1.5,2.3-1,3.7,1.3,5.1c2.8,1.6,3.3,4.2,1.7,7
		c-2.9,5.2-5.8,10.3-8.7,15.5c-1.4,2.5-3.7,3.2-6.2,2.4C319.9,951.7,318.6,949.8,318.6,947.2z"/>
	<path class="st2" d="M285.3,151.8c2.2,0.2,3.5,1.4,4.6,3.2c2.7,4.7,5.7,9.3,8.4,14c1.3,2.4,2.7,2.9,5.1,1.4c3-1.9,5.6-1,7.2,2
		c1.4,2.4,2.9,2,4.9,0.8c1.8-1.1,2.6-2.3,1.3-4.4c-1.9-3-1.6-5.8,1.8-7.7c2.4-1.3,2.1-2.9,0.8-4.9c-3-4.7-5.8-9.6-8.7-14.4
		c-1.7-2.9-1.7-5.6,1.3-7.5c3.1-2,5.8-1.2,7.7,1.9c3,4.9,6,9.8,9,14.8c1.7,2.8,1.1,5.3-1.5,7c-2.5,1.6-2.9,3-1.3,5.5
		c1.5,2.3,1,5-1.4,6.3c-3.6,1.9-2.6,3.9-1,6.5c5.6,9,11,18.1,16.5,27.2c2.5,4,2.1,6.6-1,8.5c-3.1,1.8-5.6,0.9-8-3.1
		c-5.6-9.2-11.2-18.3-16.7-27.6c-1.4-2.4-2.6-4-5.6-1.9c-2.6,1.8-5.1,0.8-6.6-1.6c-1.6-2.4-3-2.7-5.6-1.3c-2.5,1.5-5,0.8-6.6-1.8
		c-3.2-5.2-6.3-10.4-9.5-15.5c-1.3-2.1-0.5-4,0.4-5.5C281.6,152.5,283.4,151.4,285.3,151.8z"/>
	<path class="st0" d="M435.5,728.9c-7,0-14-0.2-21,0.1c-3.5,0.1-4.6-0.8-4.6-4.5c0.2-18.4,0-36.8,0.2-55.2c0-3.2-1-5.3-3.5-7.2
		c-20.9-15.7-38.7-34.3-51.2-57.3c-30.3-55.7-28.3-110.8,5.7-163.9c29.3-45.8,72.5-72.8,124.9-84.7c57.9-13.2,113.4-5.5,164.8,24.6
		c40.5,23.7,70,57.4,82.7,103.3c15.7,56.4,1.5,106.4-35.9,150.5c-9,10.6-19.5,19.6-30.5,28c-2.5,1.9-3.2,3.9-3.2,6.9
		c0.1,18.4-0.1,36.8,0.1,55.2c0,3.7-1.1,4.5-4.6,4.4c-14-0.2-28-0.2-42,0c-3.3,0-4.4-0.6-4.3-4.2c0.2-14.3,0-28.6,0.2-42.9
		c0-3-0.8-3.9-3.8-3.8c-14.4,0.1-28.9,0.2-43.3,0c-3.4,0-3.9,1.3-3.9,4.3c0.1,14.1-0.1,28.3,0.1,42.4c0.1,3.5-1,4.2-4.3,4.2
		c-14.1-0.2-28.3-0.2-42.4,0c-3.2,0-4.1-0.8-4-4c0.2-14,0-28,0.2-42c0.1-3.6-0.7-5-4.6-4.9c-14,0.2-28,0.2-42,0
		c-3.8-0.1-4.4,1.2-4.4,4.6c0.2,14,0,28,0.1,42c0,3.2-0.5,4.5-4.1,4.3C449.8,728.7,442.7,728.9,435.5,728.9z M487.1,526.8
		c-0.6-0.6-1.2-1.3-1.8-1.9c-15.5-15.5-31-30.9-46.4-46.5c-1.9-2-3-1.5-4.7,0.2c-15.3,15.4-30.7,30.8-46.1,46.1
		c-1.8,1.8-2,2.8-0.1,4.6c7.1,6.9,14.1,13.8,20.9,21c2.1,2.2,3.2,1.6,5-0.3c6.7-6.9,13.6-13.5,20.2-20.4c2.1-2.2,3.2-2,5.2,0.1
		c6.6,6.9,13.6,13.5,20.2,20.4c1.9,2,3,2.1,5,0c6.7-7,13.7-13.8,20.6-20.7C485.9,528.7,486.9,528.2,487.1,526.8z M689.5,525
		c-1-0.8-1.8-1.5-2.5-2.2c-15.4-14.4-31-28.7-46.2-43.3c-3.1-3-4.5-2.4-7,0.4c-14.1,15.5-28.3,30.9-42.7,46.2
		c-2.2,2.3-1.7,3.4,0.3,5.2c7.1,6.4,14.1,12.9,21,19.6c2.1,2.1,3.2,1.6,5-0.4c6.3-7,12.8-13.8,19.1-20.9c2.1-2.4,3.4-2.5,5.7-0.2
		c7,6.8,14.2,13.3,21.2,20c1.5,1.5,2.4,1.7,3.9,0c6.7-7.4,13.6-14.8,20.4-22.1C688.2,526.7,688.8,525.9,689.5,525z M537.7,577.5
		c-8.4,16.7-16.2,32.5-24.2,48.3c-1.3,2.5,0.3,2.4,2,2.4c14.7,0,29.4,0,44.1,0c2.8,0,3-0.8,1.8-3.1
		C553.7,609.6,545.9,594,537.7,577.5z"/>
	<path class="st0" d="M379.1,181.1c-2-9.6-5.3-18.1-10.4-25.7c6.2,0.7,11.3-3.3,17-5.3c7.5-2.6,7.4-2.9,10.4,4.5
		c1.6,3.9,3,7.9,4.8,11.8c1.1,2.5,0.7,3.9-1.9,4.9c-4.4,1.7-8.6,3.6-13,5.2C383.1,177.6,380.5,178.7,379.1,181.1z"/>
	<path class="st0" d="M366.1,150c-1.9-10.7-5.6-18.8-10-26.7c6.7,0,12.7-4.2,19.2-6.7c3.3-1.3,5.2-1.2,6.4,2.6
		c1.6,5,3.7,9.9,5.7,14.8c1.1,2.5,0.5,3.8-2.1,4.8c-4.2,1.5-8.4,3.4-12.6,5.1C370.2,145,366.9,145.1,366.1,150z"/>
	<path class="st0" d="M278.2,880.8c-7.3,6.2-13,13.1-17.3,21.1c-2.9-6.1-9.2-8.9-14-13.2c-5-4.5-5.2-4.3-1-9.5
		c2.8-3.4,5.7-6.7,8.3-10.2c2-2.8,3.7-3.4,6.5-0.8c3.4,3.3,7.2,6,10.7,9.1C273.5,879.1,275.4,881,278.2,880.8z"/>
	<path class="st0" d="M282.5,874.7c-2-5.1-7.2-7.5-11.2-10.9c-7.3-6.3-7.4-6.2-1.4-13.5c2.2-2.7,4.6-5.3,6.6-8.1
		c2-2.8,3.8-2.7,6.3-0.6c3.5,3.1,7.3,5.9,10.9,8.9c2,1.6,3.8,3.5,7.3,3C292.5,859.4,287.6,866.9,282.5,874.7z"/>
	<path class="st0" d="M932.2,523.8c9.1-0.2,18.2,0.8,27.2-1.3c-2.4,6.6-1,13.5-0.9,20.2c0,4.5-1.4,5.8-5.7,5.6c-5-0.2-10,0.1-15,0.3
		c-2.8,0.2-3.9-1-3.9-3.6c0-5.2-0.1-10.3-0.2-15.5C933.6,527.3,933.9,525,932.2,523.8z"/>
	<path class="st0" d="M966.5,522.1c5.7,1.6,23.9,1.8,27.7-0.5c-2.6,6.6-1.1,13.5-1,20.3c0,4.2-0.8,6.1-5.5,5.7
		c-4.8-0.4-9.7-0.2-14.6,0c-3.1,0.1-4.4-0.8-4.3-4.1c0.1-5.2-0.2-10.3-0.4-15.5C968.4,525.9,969,523.6,966.5,522.1z"/>
	<path class="st0" d="M672.4,947.3c1.5,9.5,3.9,18,8.1,26.2c-7.5-0.6-14.3,3.6-21.9,5.4c-2.3,0.5-3.4-0.4-4-2.5
		c-1.5-5.1-2.9-10.2-4.7-15.2c-1.3-3.7-0.7-5.6,3.3-6.4c4.1-0.9,8.2-2.3,12.2-3.6C668.2,950.4,671.1,950,672.4,947.3z"/>
	<path class="st0" d="M949.4,659.1c9.5,5.2,18.2,7.7,27.2,8.8c-4.3,5-4.9,11.9-7.2,18.2c-2,5.5-1.9,5.6-7.5,3.9
		c-4.3-1.3-8.6-2.9-13-4c-3.2-0.8-4.3-2.2-3.1-5.5c1.6-4.3,2.8-8.6,4.1-13C950.6,664.9,952.1,662.4,949.4,659.1z"/>
	<path class="st0" d="M925.7,723.9c7.9,6.7,16,10.2,24.3,13.4c-5.1,4.3-7,11.7-10.7,18.1c-1.5,2.5-2.6,3.3-5.3,1.8
		c-4.9-2.8-9.9-5.4-14.9-7.8c-2.3-1.2-2.6-2.5-1.5-4.7c2.4-4.5,4.7-9.2,7.1-13.7C925.7,728.9,926.9,727,925.7,723.9z"/>
	<path class="st0" d="M121.4,448.4c-9.5-4.5-18.3-6.5-27.2-7.3c4.1-4.5,3.8-11,5.6-16.8c2.5-7.9,0.4-7.9,9.5-5.5
		c4,1,7.9,2.1,11.9,2.9c3.1,0.7,4.4,1.9,3.2,5.3c-1.5,4.6-2.5,9.3-3.8,14C120,443.3,119.1,445.5,121.4,448.4z"/>
	<path class="st0" d="M840,198c0.1,3.7,3.6,5.3,6.1,7.8c1.8,1.8,3.7,3.6,5.6,5.3c5.7,5.1,5.7,5.1,0.4,10.7c-2.9,3.1-5.8,6.2-8.6,9.4
		c-1.8,2.2-3.4,2.6-5.5,0.4c-2.9-2.9-6-5.5-9-8.3c-2.5-2.3-4.6-5.2-8.2-5.4C828.7,212.6,834.2,205.4,840,198z"/>
	<path class="st0" d="M183.9,779.5c-9.2,3.6-16.7,8.4-23.5,14.5c-1.2-6.6-6-11.7-9.6-17.4c-2.2-3.6-2.3-5.6,1.7-7.7
		c4.4-2.3,8.6-5.2,12.7-8c2.5-1.7,4-1.3,5.5,1.3c2.3,3.9,4.8,7.7,7.2,11.6C179.5,776.2,180.8,778.7,183.9,779.5z"/>
	<path class="st0" d="M499.9,111.8c0.3-8.5,0.1-17-2.1-25.5c3.1,2.3,6.6,1.2,10.1,1.1c2.9-0.1,5.7-0.4,8.6-0.6c7-0.5,7-0.5,7.4,6.4
		c0.2,4.4,0.4,8.8,0.9,13.1c0.3,3.3-0.9,4.7-4.2,4.8c-5.3,0.1-10.6,0.6-15.9,0.9c-1.4,0.1-2.7,0-3.9,1
		C500.5,112.7,500.2,112.3,499.9,111.8z"/>
	<path class="st0" d="M500.8,113.1c-0.4,0.6-0.9,1.3-1.6,0.6c-0.9-1,0.1-1.4,0.8-1.8C500.2,112.3,500.5,112.7,500.8,113.1z"/>
	<path class="st0" d="M500.1,121.6c-0.1,0.2-0.2,0.4-0.3,0.6c-0.1-0.1-0.3-0.2-0.3-0.3c0-0.2,0.2-0.4,0.3-0.6
		C499.9,121.3,500,121.4,500.1,121.6z"/>
	<path class="st0" d="M102.7,560.4c-0.5,0.4-0.7,0.8-1.1,0.9c-0.7,0.3-1.1-0.2-1-0.8c0-0.3,0.6-0.7,1-0.7
		C101.9,559.8,102.2,560.2,102.7,560.4z"/>
	<path class="st0" d="M86.1,586.9c0.6,0.4,1.5,0.9,0.7,1.6c-0.9,0.9-1.4-0.2-1.9-0.8C85.3,587.4,85.7,587.2,86.1,586.9z"/>
	<path class="st0" d="M95.6,587.2c-0.5,0.3-1,0.7-1.4-0.1c-0.1-0.2,0.3-0.7,0.5-1C95.1,586.5,95.3,586.9,95.6,587.2z"/>
	<path class="st0" d="M440.1,159.4c0,0-0.3,0.4-0.6,0.4c-0.7,0-1-0.5-0.8-1.2c0.1-0.3,0.7-0.5,1.1-0.5
		C440.1,158.2,440.6,158.6,440.1,159.4z"/>
	<path class="st0" d="M426.6,100.8c-0.5-0.5-2-0.7-1.3-1.7c0.9-1.3,1.6,0.2,2.3,0.7C427.3,100.2,427,100.5,426.6,100.8z"/>
	<path class="st0" d="M965,593.3c-0.4-0.6-1.2-1.2-0.6-1.9c0.8-0.8,1.3,0,1.6,0.7C965.7,592.6,965.4,593,965,593.3z"/>
	<path class="st0" d="M955,590.6c0.5-0.5,1.2-1.2,1.9-0.5c0.8,0.8,0,1.2-0.7,1.6C955.8,591.3,955.4,591,955,590.6z"/>
	<path class="st0" d="M145.2,517.6c0.6,0.7,2.1,1.4,0.7,2.4c-0.7,0.5-1.4-0.7-1.8-1.5C144.4,518.1,144.8,517.8,145.2,517.6z"/>
	<path class="st0" d="M110.6,514.8c0.7,0.6,1.6,1.3,0.6,2.1c-1,0.8-1.4-0.4-1.9-1.2C109.8,515.4,110.2,515.1,110.6,514.8z"/>
	<path class="st0" d="M120.5,516.9c-0.4,0.4-0.7,0.7-0.9,1c-0.2-0.3-0.7-0.6-0.7-0.9c0-0.3,0.4-0.6,0.6-0.9
		C119.8,516.3,120.1,516.5,120.5,516.9z"/>
	<path class="st1" d="M487.1,526.8c-0.2,1.4-1.1,1.9-1.9,2.7c-6.9,6.9-13.8,13.7-20.6,20.7c-2,2.1-3.1,2-5,0
		c-6.6-6.9-13.6-13.5-20.2-20.4c-2-2.1-3.1-2.3-5.2-0.1c-6.6,6.9-13.5,13.5-20.2,20.4c-1.8,1.8-2.8,2.5-5,0.3
		c-6.8-7.1-13.8-14.1-20.9-21c-1.9-1.9-1.7-2.8,0.1-4.6c15.4-15.3,30.8-30.7,46.1-46.1c1.7-1.7,2.7-2.2,4.7-0.2
		c15.4,15.6,30.9,31,46.4,46.5C485.9,525.6,486.5,526.2,487.1,526.8z"/>
	<path class="st1" d="M689.5,525c-0.8,0.9-1.3,1.6-1.9,2.3c-6.8,7.4-13.7,14.7-20.4,22.1c-1.5,1.7-2.4,1.5-3.9,0
		c-7-6.7-14.3-13.2-21.2-20c-2.3-2.2-3.6-2.2-5.7,0.2c-6.2,7.1-12.8,13.8-19.1,20.9c-1.8,2-2.9,2.4-5,0.4
		c-6.9-6.7-13.9-13.2-21-19.6c-2-1.8-2.5-2.9-0.3-5.2c14.4-15.3,28.6-30.7,42.7-46.2c2.5-2.8,3.9-3.4,7-0.4
		c15.2,14.6,30.8,28.9,46.2,43.3C687.8,523.5,688.6,524.2,689.5,525z"/>
	<path class="st1" d="M537.7,577.5c8.2,16.5,16,32.1,23.8,47.6c1.2,2.4,1,3.1-1.8,3.1c-14.7-0.1-29.4,0-44.1,0c-1.6,0-3.3,0.1-2-2.4
		C521.5,610,529.4,594.2,537.7,577.5z"/>
	<circle class="st3" cx="538.6" cy="540" r="533.8"/>
</g>
</svg>
