<?xml version="1.0" encoding="utf-8"?>
<!-- Generator: Adobe Illustrator 25.0.1, SVG Export Plug-In . SVG Version: 6.00 Build 0)  -->
<svg version="1.1" id="Layer_1" xmlns="http://www.w3.org/2000/svg" xmlns:xlink="http://www.w3.org/1999/xlink" x="0px" y="0px"
	 viewBox="0 0 1751 863" style="enable-background:new 0 0 1751 863;" xml:space="preserve">
<style type="text/css">
	.st0{fill:#333435;}
	.st1{fill:#1CD1F8;}
</style>
<path class="st0" d="M1,316c1.8,0,3.7,0,5.5,0c579.5,0,1159,0,1738.5,0c2.3,0,4.7,0,7,0c0,181.2,0,362.3,0.1,543.5
	c0,3.7-0.8,4.6-4.6,4.6c-580.7-0.1-1161.3-0.1-1742,0c-3.7,0-4.6-0.8-4.6-4.6C1,678.3,1,497.2,1,316z M345.8,857.1
	c110.8,0,221.6,0,332.5,0.1c4.6,0,5.7-1.2,5.7-5.8c-0.1-132.3-0.1-264.6,0-397c0-4.8-1.1-6.1-6-6.1c-221.3,0.1-442.6,0.1-663.9,0
	c-5.2,0-6.2,1.5-6.2,6.3C8,586.9,8,719.1,7.9,851.2c0,4.8,1.1,6,5.9,6C124.5,857.1,235.1,857.1,345.8,857.1z M876.3,323
	c-287.5,0-575,0-862.4-0.1c-4.7,0-6.1,0.9-6.1,5.9c0.2,36.7,0.1,73.3,0.1,110c0,7,0,7,6.7,7c84.7,0,169.3,0,254,0
	c490,0,979.9,0,1469.9,0.1c4.9,0,6.4-1,6.3-6.2c-0.3-36.7-0.1-73.3-0.1-110c0-6.7,0-6.7-6.5-6.7C1451,323,1163.7,323,876.3,323z
	 M1491.7,857.1c82.5,0,165,0,247.5,0.1c4.6,0,5.7-1.2,5.7-5.7c-0.1-132.3-0.1-264.6,0-397c0-4.7-1-6.1-5.9-6.1
	c-164.6,0.1-329.3,0.1-493.9,0c-4.9,0-6,1.3-6,6.1c0.1,132.3,0.1,264.6,0,397c0,4.5,1.1,5.8,5.7,5.8
	C1327.1,857.1,1409.4,857.1,1491.7,857.1z M961.6,857.1c89.7,0,179.3,0,269,0.1c4.6,0,5.7-1.2,5.7-5.7c-0.1-132.3-0.1-264.6,0-396.9
	c0-4.7-1-6.1-5.9-6.1c-179.1,0.1-358.3,0.1-537.4,0c-5.1,0-6.2,1.4-6.2,6.3c0.1,132.1,0.1,264.3,0,396.4c0,4.8,1.1,6,6,6
	C782.3,857.1,871.9,857.1,961.6,857.1z"/>
<path class="st0" d="M1752,256c-2.2,0.1-4.3,0.3-6.5,0.3c-579.5,0-1159,0-1738.6,0c-2,0-4-0.2-6-0.3C1,172.3,1,88.7,0.9,5
	c0-3.4,0.7-4.1,4.1-4.1C586,1,1167,1,1748,0.9c3.4,0,4.1,0.7,4.1,4.1C1752,88.7,1752,172.3,1752,256z M876.6,154.8
	c287,0,574,0,860.9,0c1.3,0,2.7-0.1,4,0c2.7,0.3,3.4-0.9,3.4-3.4c-0.1-46.7-0.1-93.3,0-140c0-3-1-3.8-3.8-3.6c-1.5,0.2-3,0-4.5,0
	c-523.6,0-1047.2,0-1570.9,0c-50.8,0-101.7,0.1-152.5-0.1c-4.5,0-5.4,1.3-5.4,5.5c0.2,45,0.1,90,0.1,135c0,6.5,0,6.5,6.7,6.5
	C302,154.8,589.3,154.8,876.6,154.8z M876,157.7c-239.3,0-478.7,0-718,0c-48,0-96,0.1-144-0.1c-5.2,0-6.2,1.5-6.1,6.4
	C8.1,189.8,8,215.6,8,241.5c0,8,0,8,7.8,8c573.8,0,1147.7,0,1721.5,0c1,0,2-0.1,3,0c3.9,0.6,4.7-1.2,4.6-4.8
	c-0.1-26.7,0-53.3-0.1-80c0-7.9,1.2-6.9-6.8-6.9C1450.7,157.7,1163.3,157.7,876,157.7z"/>
<path class="st1" d="M345.8,857.1c-110.7,0-221.3,0-332,0.1c-4.9,0-5.9-1.2-5.9-6C8,719.1,8,586.9,7.9,454.8c0-4.9,1-6.4,6.2-6.3
	c221.3,0.1,442.6,0.1,663.9,0c4.9,0,6,1.3,6,6.1c-0.1,132.3-0.1,264.6,0,397c0,4.5-1.1,5.8-5.7,5.8
	C567.4,857.1,456.6,857.1,345.8,857.1z M215,639.8c0-31.8,0-63.7,0-95.5c0-1.9,0.4-3.9-1.2-5.7c-4-4.5-7.9-8-14.8-7.1
	c-5.6,0.8-12,6.6-12,12.2c0,15.7,0,31.3,0,47c0,4.5-0.4,9,4.1,12c1.7,1.1,1.1,2.4-0.1,3.7c-1.4,1.5-2.5,1.1-3.7-0.2
	c-0.8-0.9-1.7-1.6-2.5-2.5c-14.6-14.7-29.1-29.3-43.7-44c-6.6-6.6-13.4-6.8-20.5-0.5c-1.2,1.1-2.1,2.1-3.6,0.3
	c-1.1-1.4-1.7-2.5-0.1-3.8c0.5-0.4,1-0.9,1.5-1.3c3.6-3.6,3.5-12.8,0.5-16.8c-3.7-4.8-8.1-6.7-14.2-6c-5.3,0.6-11.9,6.5-11.9,11.8
	c0,64.3,0,128.6,0,193c0,1.7,0,3.1,1.3,4.6c4.1,4.4,8.2,7.8,14.9,6.9c5.5-0.8,12-6.6,12-12.2c0-48.3,0-96.6,0.1-145
	c0-2.7-0.6-4.7-2.6-6.6c-1.1-1.1-4.1-2-1.6-4.6c2.8-2.9,3.8,0.5,4.9,1.7c15.1,14.9,30,29.9,45,44.8c6,6,13.8,6.3,20,0.7
	c1.4-1.3,2.4-2,4.1-0.4c2.1,1.9,0.6,3-0.7,4c-3,2.3-3.4,5.3-3.4,8.8c0.1,31,0.2,62-0.1,93c0,5.4,1.1,9.6,5.5,12.9
	c2.9,2.2,11.7,4.6,14.4,2.3c3.7-3.1,8.5-5.5,8.4-11.9C214.9,703.5,215,671.6,215,639.8z M277.9,639.5c0,24,0,48-0.1,72
	c0,3.2,0.9,5.5,3.1,7.9c3.5,3.8,7.2,5.1,12.3,4.8c6.7-0.4,8.4,1.6,8.5,8.5c0,0.8,0,1.7,0,2.5c0,6.7,5.8,12.6,12.4,12.6
	c16.5,0,33,0,49.5,0c7.1,0,12.9-6,13-13.2c0-9.6,0.9-10.4,10.6-10.4c6.9,0,12.8-5.8,12.8-12.6c0-47-0.1-94,0.1-141
	c0-5.1-1.4-8.5-4.9-12.2c-3.7-3.9-7.7-3.2-11.9-3.2c-4.5,0-6.8-2.1-6.7-6.7c0-1.2,0-2.3,0-3.5c0-7-6-13.2-13-13.2
	c-15.7,0-31.3,0.2-47-0.1c-4.9-0.1-8.2,1.3-11.8,4.7c-3.8,3.7-3.1,7.8-3.1,12c0,4.6-2.2,6.7-6.6,6.8c-1.2,0-2.3,0-3.5,0
	c-7.8,0-13.7,6-13.7,13.9C277.9,592.5,277.9,616,277.9,639.5z M462.9,616c0,23.5,0,47,0,70.5c0,8.8,5.5,14.4,14.2,14.4
	c7.9,0,9.1,1.1,9.1,8.7c0,9.5,5,14.5,14.5,14.5c7.7,0,9.4,1.5,9,9.5c-0.2,4.5,1,7.9,4.5,10.9c3.3,2.7,12.1,5.2,15.2,2.8
	c4.1-3.2,9.5-5.8,8.6-12.8c-1-8.3,1.5-10.9,10-10.5c7.7,0.4,13.2-5.4,13.2-13.1c0-9.1,0.9-10,9.9-10c8,0,13.8-5.8,13.8-13.9
	c0-47-0.1-94,0.1-140.9c0-4.4-1.7-7.3-4.3-10.5c-4.5-5.6-10.3-3.9-15.6-3.3c-3.9,0.4-8.3,8.3-8.3,12.8c0,47.5,0,95,0,142.4
	c0,6.9-1.7,8.7-8.3,8.7c-10.1,0-15.2,5.2-15.3,15.4c0,2.2,0.6,4.6-1.7,6.4c-4.2,3.3-9.1,2.2-13.4,1.3c-3.7-0.8-3.9-4.7-3.8-8.3
	c0.1-9.7-5-14.9-14.6-14.9c-7.3,0-8.6-1.4-8.6-8.7c0-46.8-0.1-93.6,0.1-140.4c0-5.1-1.5-8.6-5-12.2c-4.6-4.8-9.9-3-15-2.6
	c-3.6,0.3-8.2,8.2-8.2,12.4C462.9,568.4,462.9,592.2,462.9,616z"/>
<path class="st1" d="M876.3,323c287.3,0,574.6,0,861.9,0c6.5,0,6.5,0,6.5,6.7c0,36.7-0.1,73.3,0.1,110c0,5.2-1.4,6.2-6.3,6.2
	c-490-0.1-979.9-0.1-1469.9-0.1c-84.7,0-169.3,0-254,0c-6.7,0-6.7,0-6.7-7c0-36.7,0.1-73.3-0.1-110c0-5,1.4-5.9,6.1-5.9
	C301.4,323,588.9,323,876.3,323z M1062.5,400.6c-0.2-0.3-0.5-0.5-0.7-0.8c-0.5-9.4-0.5-9.5,8-10.1c1.8-0.1,3.6-0.4,3.7-2.4
	c0.1-2.6-2.1-2.5-4-2.6c-0.8,0-1.7-0.1-2.5,0c-4.4,0.7-5.5-1.1-5.6-5.5c-0.1-5,1.5-6.6,6.2-5.9c2.1,0.3,4.3,0,6.5,0
	c1.8,0,3.6-0.3,3.5-2.5c-0.1-2.1-1.8-2.5-3.6-2.5c-4.5,0-9,0.1-13.5,0c-2.7,0-4,1.1-4,3.9c0,10,0,20,0,30c0,2.5,1.2,3.7,3.7,3.7
	c4.7,0,9.3,0,14,0c1.8,0,3.6-0.4,3.4-2.6c-0.1-2.2-1.9-2.4-3.7-2.4C1070.1,400.7,1066.3,400.6,1062.5,400.6z M705.3,386.7
	c0,4.5-0.1,9,0,13.5c0,2.2-0.9,5.4,2.6,5.4c3.2,0,2.3-3.1,2.3-5.1c0.1-4.5-0.1-9,0.1-13.5c0.1-2.7-1.5-6.6,1-7.8
	c2.2-1,3.6,3.5,5.9,4.4c4.9,2.1,4.6,6,4.4,10.2c-0.1,2.8,0,5.7,0,8.5c0,1.6,0.5,3.2,2.3,3.3c2.1,0.1,2.7-1.5,2.7-3.4c0-10,0-20,0-30
	c0-1.8-0.4-3.7-2.4-3.7c-2.5-0.1-2.6,2.1-2.6,4c0,1.7,0,3.3-0.1,5c-0.1,1.3-0.6,2.6-2.1,1.3c-3.1-2.7-5.9-5.6-9-8.1
	c-1-0.8-1.4-2.7-3.2-2.1c-1.8,0.5-1.9,2.1-1.9,3.7C705.3,377,705.3,381.8,705.3,386.7z M865.1,386.5c0,5,0,10,0,15
	c0,1.3-0.2,2.7,1.1,3.6c1.3,1,14.1,1,15.1-0.1c3.3-3.5,5.6-7.1,5.1-12.6c-0.3-3.3-4-3.2-4-5.4c0-2.2,3.8-1.9,3.9-5.4
	c0.2-5.1-1.1-8.9-4.7-12.2c-1.5-1.5-14.5-1.7-15.8-0.1c-1,1.1-0.7,2.5-0.7,3.8C865,377.5,865.1,382,865.1,386.5z M641.4,387
	c0,2.2,0,4.3,0,6.5c0.2,14.2-2.2,12.1,13,12.2c3.4,0,8.3-4.9,8.3-8.3c0.1-7,0.1-13.9,0-20.9c0-3-4.9-8.1-7.8-8.2
	c-3.1-0.1-6.3,0-9.5,0c-3.1-0.1-4.1,1.5-4,4.3C641.5,377.4,641.4,382.2,641.4,387z M215.7,388.1c-1.8-4.9,2.9-11.7-3.7-17.5
	c-3.9-3.5-7.7-2.7-10.8-1.9c-2.6,0.7-6.6,3.3-6.7,7.2c-0.3,8.8-0.1,17.7-0.1,26.5c0,1.7,0.7,3.1,2.5,3.1c1.9,0,2.4-1.5,2.4-3.1
	c0-3.2,0-6.3,0-9.5c0-1.5-0.1-2.9,2.1-3.3c7-1.6,9.3,0.1,9.3,7.2c0,1.8,0,3.7,0,5.5c0,1.6,0.3,3.2,2.2,3.3c2.2,0.2,2.8-1.4,2.8-3.3
	C215.7,397.9,215.7,393.6,215.7,388.1z M737.3,387c0,3.3,0,6.7,0,10c0.1,3.9,4.6,8.7,8.4,8.7c3.6,0,6.7,0.5,9.9-3.3
	c2.3-2.7,2.8-4.8,2.8-7.6c0-3-0.1-6-0.4-8.9c-0.1-0.9-1.1-1.2-2-1.2c-2.7,0-5.3-0.1-8,0c-1.3,0-2.3,0.7-2.4,2
	c-0.2,1.6,0.9,2.9,2.2,2.7c7.1-1,5.7,3.8,5.8,7.8c0.1,4.9-3.5,3.3-6,3.5c-2.6,0.2-5.5,0.7-5.4-3.6c0.2-6.8,0-13.6,0.1-20.5
	c0-1.2-0.1-2.3,1.2-3c2.4-1.4,8.6-0.1,10.3,2.3c1,1.4,2.1,1.5,3.4,1c1-0.4,1.5-2,0.9-2.5c-2.7-1.8-3.5-5.8-7.5-6.1
	c-9.4-0.8-13.4,2.8-13.4,12.3C737.3,382.7,737.3,384.8,737.3,387z M1173.6,388.4c-2-4.9,3.1-11.7-3.6-17.7
	c-3.9-3.5-7.6-2.8-10.8-2.1c-2.9,0.6-6.6,3.5-6.8,7.1c-0.5,9-0.2,18-0.1,26.9c0,1.7,0.9,2.9,2.7,2.8c1.5-0.1,2.3-1.3,2.3-2.8
	c0.1-3,0.3-6,0-9c-0.5-5,2.7-4.2,5.7-4.3c3.1,0,6.2-0.5,5.6,4.4c-0.3,2.6,0,5.3-0.1,8c0,1.8,0.4,3.6,2.5,3.6
	c2.2,0.1,2.5-1.7,2.5-3.5C1173.6,397.9,1173.6,393.7,1173.6,388.4z M370.4,380.7c-4.4-3.7-7.2-7.3-11.2-9.6c-1-0.6-1.1-3.1-3.3-2.5
	c-2.1,0.6-1.8,2.5-1.8,4.1c0,9.5,0,19,0,28.4c0,2-0.2,4.5,2.6,4.4c2.9-0.1,2.3-2.7,2.3-4.6c0-7.7,0-15.5,0-23.4
	c7.9,5.2,13.7,10.9,11.4,21.1c-0.3,1.3,0,2.7,0,4c0,1.7,0.6,3.1,2.5,3c1.6,0,2.3-1.2,2.3-2.7c0-10.6,0-21.3,0-31.9
	c0-1.5-0.9-2.6-2.4-2.6c-1.6,0-2.3,1.2-2.3,2.7C370.4,373.9,370.4,376.7,370.4,380.7z M1088.6,386.6c0,4.7-0.1,9.3,0,14
	c0,2-0.7,5.1,2.5,4.9c3.1-0.1,2.1-3.2,2.3-5.2c0.1-1.2,0-2.3,0-3.5c0-7.6,0-7.5,7.7-7.3c2.7,0.1,3.9,0.9,3.8,3.7
	c-0.2,3.1,0,6.3,0,9.5c0,1.5,0.5,2.7,2.1,2.8c1.9,0.1,2.7-1.1,2.7-2.8c0.1-3.3-0.3-6.7,0.1-10c0.5-3.4-3.5-3.5-3.8-5.6
	c-0.4-2.5,3.6-2.5,4-6c0.6-5.7-2.5-8.9-5.7-12.4c-0.9-1-13.7-0.8-14.7,0.1c-1.2,1-1.1,2.4-1.1,3.7
	C1088.6,377.2,1088.6,381.9,1088.6,386.6z M625.9,389.5c0,3.3-0.2,6.6,0.1,9.9c0.2,2.2-1.6,6,2.2,6c4.1,0,2.5-4,2.6-6.3
	c0.2-5.7,0.2-11.3,0-17c-0.1-4,0.3-7.4-3.6-11.3c-4-4-8.1-3-11.1-2.1c-2.8,0.8-6.7,3.6-6.6,8.3c0.2,8,0,16,0.1,24
	c0,2-0.2,4.5,2.6,4.4c2.8-0.1,2.3-2.7,2.4-4.6C614.8,389.9,614.8,389.9,625.9,389.5z M928.9,387c0,5.2,0,10.3,0,15.5
	c0,1.7,0.5,3.1,2.4,3.1c1.8,0,2.5-1.3,2.5-3c0-1.8,0-3.7,0-5.5c0-7.9,0-7.8,7.8-7.5c2.5,0.1,3.6,0.8,3.5,3.4c-0.2,3.2,0,6.3,0,9.5
	c0,1.8,0.7,3.1,2.4,3.1c1.8,0,2.5-1.3,2.5-3.1c0-3-0.5-6.1,0.1-9c0.8-3.8-3.6-4.3-3.8-6.5c-0.2-2.1,3.7-2.7,4-6.3
	c0.4-5.4-2.7-8.2-5.3-11.6c-1-1.3-13.8-1.3-15.1-0.3c-1.3,1-1,2.4-1,3.7C928.9,377.4,928.9,382.2,928.9,387z M1041,380.7
	c-4.4-3.9-8-6.9-11.3-10.3c-1-1-1.5-2.3-3-2c-1.9,0.4-1.9,2-1.9,3.6c0,6,0,12,0,18c0,4.2,0,8.3,0,12.5c0,1.7,0.5,3.1,2.4,3.1
	c1.8,0,2.4-1.5,2.5-3.1c0-1.5,0-3,0-4.5c0-6.6,0-13.1,0-20.5c3.5,3.1,5.9,6,9,7.6c2,1,2.2,1.9,2.2,3.6c0,4.7,0,9.3,0,14
	c0,1.8,0.6,3,2.5,3c1.5-0.1,2.3-1.2,2.3-2.7c0-10.5,0-21,0-31.5c0-1.7-0.7-3.1-2.6-2.9c-1.9,0.2-2.3,1.7-2.2,3.3
	C1041,374.4,1041,377,1041,380.7z M1009,379.6c-0.4,0.2-0.8,0.4-1.3,0.6c-2.6-4.7-8-6.5-10.7-11c-0.6-0.9-1.6-1.1-2.7-0.7
	c-1.3,0.5-1.5,1.6-1.5,2.9c0,10.3,0,20.6,0,30.9c0,1.6,0.3,3.2,2.2,3.3c2.2,0.1,2.7-1.5,2.7-3.4c0-1.5,0-3,0-4.5c0-6.5,0-13,0-20.6
	c3.5,3.3,5.7,6.3,8.7,7.7c2.4,1.2,2.6,2.4,2.6,4.4c-0.1,4.3,0,8.6,0,13c0,1.7,0.4,3.1,2.2,3.3c1.8,0.2,2.7-1.1,2.7-2.8
	c0-10.5,0-20.9,0-31.4c0-1.7-0.9-3-2.7-2.8c-1.6,0.1-2.2,1.3-2.2,2.8C1009,374.1,1009,376.9,1009,379.6z M115,379.6
	c-0.4,0.2-0.8,0.4-1.1,0.6c-2.8-4.3-7.8-6.2-10.6-10.6c-0.6-0.9-1.5-1.4-2.5-1.2c-1.3,0.3-1.9,1.3-1.9,2.6c0,10.7,0,21.3,0,32
	c0,1.5,0.8,2.6,2.4,2.6c1.5,0,2.4-1,2.5-2.6c0-1.3,0-2.7,0-4c0-6.9,0-13.8,0-21.5c6.9,5.5,13.7,9.8,11.3,19.6
	c-0.4,1.7,0,3.7-0.1,5.5c0,1.8,0.7,3,2.5,3c1.5,0,2.4-1.2,2.4-2.7c0-10.5,0-21,0-31.5c0-1.7-0.8-3-2.7-2.9c-1.8,0.1-2.3,1.6-2.3,3.3
	C115,374.4,115,377,115,379.6z M1248.2,386.7c0,5,0,10,0,15c0,2.3,0.6,4,3.3,4c5,0,10,0,15,0c1.5,0,2.7-0.6,2.7-2.3
	c0-1.9-1.1-2.6-2.9-2.6c-2.5,0-5-0.3-7.5,0.1c-4.9,0.8-5.8-1.1-5.9-5.7c-0.1-4.8,1.1-6.5,5.8-5.5c1.3,0.3,2.7,0.1,4,0
	c1.5-0.1,2.5-0.9,2.5-2.5c0-1.7-1.2-2.3-2.6-2.4c-1.3-0.1-2.7-0.2-4,0c-4.3,0.7-5.6-0.6-5.7-5.3c-0.1-5.4,1.6-6.9,6.6-6.1
	c2.1,0.3,4.3,0.1,6.5,0.1c1.6,0,3.2-0.2,3.2-2.2c0.1-2.2-1.4-2.8-3.3-2.8c-4.5,0-9,0.1-13.5,0c-3.3-0.1-4.4,1.4-4.3,4.5
	C1248.3,377.4,1248.2,382.1,1248.2,386.7z M386.1,387.4c1,4.9-2.6,11.6,4,16.2c2.1,1.5,10.5,3.4,12.3,1.4c3-3.4,5.5-6.7,5.1-12.1
	c-0.8-8.7-0.2-8.8-9-8.3c-1.8,0.1-4.1-0.2-4,2.5c0,2.5,2.2,2.7,4.1,2.5c3.1-0.3,4,0.8,4,3.9c0,7.6-0.2,7.9-8.1,7.4
	c-2.3-0.1-3.3-0.8-3.2-3.2c0.1-7.2,0-14.3,0-21.5c0-1.1,0-2.9,1.4-2.7c3.5,0.5,8-3,10.4,2.4c0.7,1.5,2.1,1.5,3.4,0.8
	c1-0.6,1.4-1.8,0.8-2.6c-1.9-2-3.7-4.7-6.1-5.6c-6.4-2.3-15.9,2.3-14.8,10.6C386.3,381.6,386.1,384.1,386.1,387.4z M1205.4,394.8
	c-0.5-1.9,0-3.9-2.1-6.5c-3.3-4-6.9-3.6-10.8-3.7c-1.9-0.1-3.5-0.6-3.1-2.8c0.4-2.8-1.8-7,1.6-8c3-0.9,7.6-2.8,9.9,2.1
	c0.7,1.5,2.1,1.6,3.4,1c1.3-0.6,1.6-2.5,0.8-2.9c-3.2-1.5-3.9-6.6-8.8-5.8c-3.5,0.5-6.4-0.1-9.2,3.8c-3.1,4.3-3.3,9.7-0.3,13.7
	c3.1,4.3,6.7,3.9,10.7,3.9c2.1,0,3.3,0.8,2.9,2.9c-0.5,2.7,1.9,7-1.7,7.8c-3,0.7-7.7,2.8-9.9-2.4c-0.6-1.5-2.2-1.5-3.4-0.6
	c-1,0.7-1.6,2.3-0.6,3c2.3,1.3,3.3,4.3,5.5,5.1C1196.4,407.7,1206.3,403.9,1205.4,394.8z M577.8,388.3c1.6,4.2-2.4,10,3.6,15.2
	c4.1,3.5,8.1,2.7,11.2,1.7c2.1-0.7,6.3-3.1,6.2-7.4c-0.1-7.1,0.1-14.3-0.1-21.4c-0.1-4.2-3.8-6.7-6.6-7.7
	c-8.1-2.8-14.4,2.5-14.4,11.1C577.8,382.2,577.8,384.7,577.8,388.3z M907.1,405.7c2.7,0,5.3,0,8,0c1.7,0,2.9-0.8,2.8-2.7
	c-0.1-1.7-1.3-2.2-2.8-2.2c-2.8,0-5.7-0.3-8.5,0c-3.9,0.5-5.3-0.9-4.8-4.8c0.4-3.2-1.4-7.3,4.8-6.6c2.4,0.3,7.2,1.9,7-2.7
	c-0.2-3.9-4.6-2.1-7.1-2.1c-3.7,0.1-5.3-0.9-4.7-4.7c0.2-1.1,0.1-2.3,0-3.5c-0.3-2.6,0.6-3.6,3.3-3.4c3.1,0.2,6.3,0.1,9.5,0
	c1.5,0,3.2,0,3.3-2.1c0.1-2.3-1.5-2.7-3.3-2.8c-4.3,0-8.7,0.1-13-0.1c-3.8-0.2-4.9,1.5-4.8,5.1c0.2,7.5,0,15,0.1,22.4
	C897.1,406.8,895.3,405.7,907.1,405.7z M1227.5,368.3c-3,0-3,0-8.9,4c-2.7,1.9-3.7,10.3-1.3,12.4c3.3,2.9,6.4,6.4,11.8,5
	c1.6-0.4,3.6-0.1,3.3,2.4c-0.3,2.8,1.7,7.2-1.3,8.1c-3,0.9-7.9,3.3-10.3-2.1c-0.6-1.3-1.8-1.5-3-1c-1.2,0.5-2.3,2.2-1.4,2.7
	c2.8,1.6,3.6,5.4,7.4,6.2c5.5,1,9.2-1.6,12.7-5c1.3-1.3,1.4-10.3,0-11.5c-3.4-2.9-6.5-6.2-11.8-4.8c-1.5,0.4-3.8,0.3-3.6-2.2
	c0.2-3-1.8-7.5,1.4-8.5c3-0.9,7.9-3.1,10.3,2.3c0.7,1.5,2.2,1.4,3.4,0.6c1.1-0.7,1.6-2.5,0.6-3
	C1233.5,372.1,1232.3,366.3,1227.5,368.3z M300.5,405.7C300.5,405.7,300.5,405.7,300.5,405.7c2.7,0,5.3,0,8,0c1.7,0,2.9-0.9,2.8-2.7
	c-0.1-1.6-1.3-2.2-2.8-2.2c-3.3,0-6.7,0.1-10-0.1c-1.1-0.1-3.4,1.4-3.3-1.3c0.1-1.9-1.4-4.4,1.5-5.7c4-1.7,6.3-5.3,9.2-8.2
	c3.5-3.6,7.1-7.4,5.7-13.4c-0.5-2.2-0.9-3.8-3.5-3.8c-4.8,0-9.6,0-14.5,0c-1.7,0-3,0.7-3.1,2.5c-0.1,1.9,1.3,2.5,3,2.5
	c3.2,0,6.3,0,9.5,0c1.4,0,3.3-0.3,3.4,1.9c0,1.8,1.1,4-1.4,5.3c-3.6,1.9-5.9,5.3-8.8,8c-2.1,2.1-4.8,4.2-5.6,6.8
	c-2.4,7.8-0.1,10.4,8,10.4C299.1,405.7,299.8,405.7,300.5,405.7z M1322.5,405.5c4.3,2,5.9-1.7,8.4-3.7c2.3-1.9,3.3-10.6,1.1-12.5
	c-3.2-2.8-6.3-5.9-11.2-4.7c-1.4,0.3-3.8,0.6-3.7-1.9c0.1-3-1.8-7.5,1.1-8.6c2.9-1.1,7.7-3.1,10.4,1.9c0.7,1.4,2.1,1.7,3.4,0.9
	c1-0.5,1.5-2.2,0.9-2.5c-2.9-1.5-3.4-5.5-7.4-6.1c-5.5-0.9-9.1,1.8-12.6,5.1c-1.3,1.2-1.3,10.4,0,11.5c3.5,2.9,6.7,6.4,12.1,5
	c1.4-0.4,3.3-0.2,3.1,2c-0.3,3,1.7,7.5-1.4,8.5c-2.9,0.9-7.8,3.1-10.3-2.2c-0.6-1.4-2.2-1.6-3.4-0.6c-1,0.8-1.4,2.5-0.3,3
	C1316.1,401.9,1317.1,408,1322.5,405.5z M965.8,385.2c0-4.3,0-8.7,0-13c0-1.8-0.2-3.6-2.4-3.7c-2.7-0.2-2.6,2-2.6,3.9
	c0,6.8-0.1,13.7,0,20.5c0.1,3.7,0.1,6.7,3.4,10.3c4,4.3,8,3,11,2.2c2.8-0.8,6.7-3.5,6.6-8.2c-0.1-8,0-16,0-24c0-2,0.3-4.6-2.4-4.6
	c-2.8,0-2.5,2.5-2.5,4.5c0,8,0,16,0,24c0,1.4,0.6,3-1.5,3.7c-5.8,2.2-9.6-0.4-9.6-6.6C965.8,391.2,965.9,388.2,965.8,385.2z
	 M801.2,386.7c0,3.5-0.1,7,0,10.5c0.1,3.9,4.8,7.9,8.5,8.7c5.3,1.2,8.3-2.2,11.7-4.9c1.2-1,1.1-2.4,0-3.5c-1-1-2.8-0.9-3.1,0
	c-1.6,5.3-5.9,2.8-9.1,3.3c-2.4,0.4-3.1-1-3.1-3.3c0.1-7,0-14,0-20.9c0-1.3-0.2-3.4,1.5-3.1c3.5,0.4,8.1-3,10.3,2.6
	c0.5,1.3,1.8,1.3,3,0.8c1.3-0.6,1.7-2,1-2.9c-1.7-2-3.4-4.6-5.7-5.4c-6.2-2.3-15.9,1.7-15.1,10.1C801.4,381.3,801.2,384,801.2,386.7
	z M226.4,387.1c0,5,0,10,0,14.9c0,2.4,0.9,3.8,3.5,3.7c4.8,0,9.6,0,14.4,0c1.7,0,3.1-0.5,3.1-2.4c0.1-2.2-1.6-2.6-3.4-2.6
	c-2.8,0-5.7-0.2-8.5,0c-3.4,0.3-4.3-1.2-4.2-4.3c0.2-8,0.1-15.9,0-23.9c0-1.9,0-4.1-2.5-4c-2.4,0.1-2.5,2.2-2.5,4.1
	C226.4,377.4,226.4,382.2,226.4,387.1z M545.7,387c0,5,0,10,0,15c0,2.4,0.8,3.8,3.4,3.8c4.8,0,9.7,0,14.5,0c1.6,0,3.1-0.6,3.1-2.5
	c0-1.8-1.4-2.5-3.1-2.5c-2.8,0-5.7-0.2-8.5,0c-3.4,0.3-4.6-0.8-4.5-4.4c0.2-8,0.1-16,0.1-24c0-1.9-0.1-4-2.6-4
	c-2.6,0-2.4,2.2-2.4,4.1C545.7,377.3,545.7,382.2,545.7,387z M138.7,389.1c0,4.2,0,8.3,0,12.5c0,1.9-0.1,4.1,2.5,4
	c2.5,0,2.5-2.2,2.5-4.1c0-7.5,0.1-15-0.1-22.5c-0.1-3.7,0-6.7,5.1-5.9c1.4,0.2,2.7-0.6,2.9-2.1c0.2-1.5-0.8-2.7-2.2-2.7
	c-5.5-0.1-11-0.1-16.5,0c-1.5,0-2.4,1.2-2.3,2.8c0.1,1.3,1.1,2.2,2.4,2c6-1,5.8,2.9,5.6,6.9C138.6,383.1,138.7,386.1,138.7,389.1z
	 M268.8,368.3C268.8,368.3,268.8,368.3,268.8,368.3c-1.3,0-2.7,0-4,0c-1.1,0.1-1.8,0.8-2.1,1.8c-0.4,1.1-0.1,2.4,0.8,2.6
	c3.7,0.7,2.9,3.4,2.9,5.8c0,6.1,0.1,12.3,0,18.4c0,1.3,0.7,3.2-1.4,3.7c-1.7,0.4-2.8,1.3-2.3,3.2c0.5,2.1,2.4,1.9,4.1,1.9
	c2,0,4,0.2,6-0.1c2.5-0.4,4-2.9,1.8-4c-4.2-2-2.9-5-3-7.9c-0.2-5.1-0.1-10.3,0-15.4c0-2.2-0.8-4.8,2.6-5.5c1-0.2,1.3-1.4,1.1-2.5
	c-0.2-1.3-1.2-2-2.4-2.1C271.4,368.2,270.1,368.3,268.8,368.3z M332.2,405.7c1.5,0,3,0.2,4.5-0.1c2.7-0.5,3.6-3.1,1.4-4.1
	c-3.6-1.7-2.8-4.4-2.8-7c-0.1-5.8-0.1-11.6,0-17.5c0-1.3-0.5-2.9,1.1-3.5c1.7-0.7,3.3-1.2,2.6-3.4c-0.7-2.4-2.9-1.8-4.6-1.8
	c-1.7-0.1-3.3,0-5,0c-1.5,0-2.6,0.5-3,2.1c-0.3,1.3,0.4,2.5,1.6,2.6c2.5,0.3,2.2,2,2.2,3.6c0,6.8,0,13.6,0,20.5c0,2-0.1,3.5-2.5,4.1
	c-1.2,0.3-1.7,1.5-1.3,2.9c0.3,1.1,1.1,1.6,2.2,1.7C329.9,405.7,331,405.7,332.2,405.7z M170.7,387.1c0,3.5,0.1,7,0,10.5
	c0,1.2,0.8,2.8-1.3,3.2c-1.6,0.3-3,1-2.6,2.9c0.5,2.1,2.3,2.1,4,2.1c2.2,0,4.3,0,6.5-0.1c1.3-0.1,2.2-1,2.3-2.2c0-0.7-0.6-2-1-2
	c-4.3-0.1-2.9-3.2-3-5.5c0-6.1-0.1-12.3,0-18.4c0-1.4-0.7-3.2,1.1-4c1.6-0.7,3.4-1.1,2.7-3.3c-0.7-2.3-2.8-1.9-4.6-1.9
	c-1.8,0-3.7,0-5.5,0c-1.3,0.1-2.2,0.7-2.5,2c-0.4,1.3,0.2,2.5,1.5,2.7c2.9,0.5,2.4,2.7,2.4,4.6C170.8,380.8,170.7,383.9,170.7,387.1
	z M683.8,368.4c0,0,0-0.1,0-0.1c-0.7,0-1.3,0-2,0c-1.7,0-3.5-0.1-4.1,2c-0.6,2.3,0.9,2.8,2.8,3c2.1,0.1,1,1.7,1,2.6
	c0.1,7.5,0,15,0.1,22.4c0,1.6,0.2,2.9-2.1,2.8c-1.3,0-2.1,1.1-1.9,2.4c0.2,1.3,1.1,2.1,2.4,2.2c2.7,0.1,5.3,0.1,8,0
	c1.3,0,2.2-0.9,2.4-2.1c0.2-1.3-0.4-2.5-1.8-2.5c-2.6,0.1-2.2-1.5-2.2-3.1c0.1-7.1,0.1-14.3,0-21.4c0-1.8-0.6-3.7,2.4-3.5
	c1.1,0.1,1.7-1,1.6-2.1c0-1.3-0.9-2.2-2.1-2.4C686.8,368.2,685.3,368.4,683.8,368.4z M841.2,394.3c0,3.4,0,5.7,0,8
	c0,1.9,0.6,3.4,2.8,3.3c1.9-0.1,2.1-1.7,2.1-3.3c0-4.2,0-8.3,0-12.5c0-1.9-0.1-3.3,2.3-4.7c4.7-2.9,6.9-7.6,5.8-13.4
	c-0.3-1.6-0.4-3.1-2.3-3.2c-2.1-0.1-2.8,1.4-2.7,3.3c0,1-0.3,2.1,0,3c1.7,4.8-3.6,5.9-4.7,9.2c-0.1,0.2-1.7,0.2-1.7,0.1
	c-0.9-3.4-6.5-4.3-4.8-9.1c0.5-1.3,0.1-3,0-4.5c-0.1-1.1-0.9-1.7-1.9-2c-0.9-0.2-1.6,0.2-2.2,0.8c-1.4,1.6-1,10.6,0.7,11.7
	C839.9,384.4,842.6,388.8,841.2,394.3z M1291,368.3C1291,368.3,1291,368.3,1291,368.3c-2.3,0-4.7,0-7,0c-1.8,0-3.7,0.3-3.8,2.3
	c-0.2,2.6,2.1,2.8,3.9,2.5c3.3-0.4,4.2,0.9,4.1,4.2c-0.2,8.1-0.1,16.3-0.1,24.5c0,2,0.2,4,2.7,3.9c2.3-0.1,2.2-2.1,2.2-3.8
	c0-7.3,0.1-14.6,0-22c0-3.8-0.9-8,5.4-6.8c1.4,0.3,2.6-0.6,2.6-2.3c0-1.6-1.1-2.4-2.6-2.4C1296,368.3,1293.5,368.3,1291,368.3z
	 M77.5,405.7c0,0,0,0.1,0,0.1c1.5-0.1,3.1,0.1,4.5-0.3c2-0.6,2.8-3,1-3.7c-4.3-1.6-3-4.8-3-7.7c-0.1-5.5-0.1-11,0-16.5
	c0-2-0.8-4.4,2.6-4.8c1-0.1,1.5-1.3,1.3-2.4c-0.2-1.1-0.9-2-2-2c-3-0.1-6.1-0.4-8.9,0.2c-2.3,0.4-2.7,3.5-0.8,4
	c3.8,0.9,2.9,3.2,2.9,5.5c0,6.5,0,13,0,19.5c0,1.6,0.4,3.4-2.2,3.5c-1.3,0.1-1.9,1.2-1.7,2.6c0.2,1.4,1.2,2,2.4,2.1
	C74.8,405.8,76.1,405.7,77.5,405.7z M428.5,405.1c3.9,1.3,4.1-0.5,4.3-4c0.3-4.3-1.5-4.1-4.6-4.1c-2.9,0-4.4,0-3.9,3.7
	C424.7,403.5,423.7,406.8,428.5,405.1z M460.3,405.1c4.8,1.6,4.2-1.5,4.4-4.6c0.3-3.6-1.3-3.2-4-3.5c-4.7-0.6-4.6,1.6-4.6,5
	C456.1,405.4,457.3,406.1,460.3,405.1z M492.4,405.1c4,1.2,4-0.7,4.2-4c0.4-4.5-1.8-3.8-4.6-4.1c-4.4-0.5-3.7,1.9-3.9,4.8
	C487.9,405.6,489.4,406.2,492.4,405.1z"/>
<path class="st1" d="M1491.7,857.1c-82.3,0-164.6,0-247,0.1c-4.6,0-5.7-1.2-5.7-5.8c0.1-132.3,0.1-264.6,0-397c0-4.8,1.1-6.1,6-6.1
	c164.6,0.1,329.3,0.1,493.9,0c4.9,0,5.9,1.4,5.9,6.1c-0.1,132.3-0.1,264.6,0,397c0,4.6-1.1,5.7-5.7,5.7
	C1656.7,857.1,1574.2,857.1,1491.7,857.1z M1438.5,747.7c15.3,0,30.7,0,46,0c10,0,15.3-5.4,15.2-15.5c0-6.7-6.5-13.1-13.2-13.1
	c-23.5,0-47,0.1-70.5-0.1c-4.2,0-8,0-10.6,3.9c-1.2,1.8-2.5,1.6-4.1,0.2c-1.8-1.6-0.7-2.7,0.6-3.5c3.8-2.6,4.1-6.3,4-10.5
	c-0.2-7.5-0.1-15-0.1-22.5c0-8.6,0.9-9.7,9.4-9.4c4.2,0.2,7.1-1.2,10-4.1c14.4-14.8,29-29.5,43.8-43.9c4.8-4.6,8.3-9.1,7.2-16.3
	c-0.6-3.9,2.1-6,6.2-6c1.8,0,3.7,0,5.5,0c5-0.1,11.8-6.8,11.9-11.9c0-9.3,0-18.7,0.1-28c0-2.3-0.7-4-2.2-5.8
	c-3.9-4.7-8.3-7.1-14.6-6.3c-4.9,0.6-6.8-1.8-6.9-6.8c0-1.2,0-2.3,0-3.5c0-6.9-6.2-13.1-13.2-13.1c-16.5,0-33,0.1-49.5-0.1
	c-2.9,0-4.9,0.8-7.1,2.8c-4.2,3.7-6.1,7.8-5.5,13.5c0.5,5.3-1.8,7.8-6.9,7.1c-6.4-0.8-10.8,1.8-14.6,6.5c-2.1,2.5-3.2,11.4-1.4,14.1
	c5.7,8.8,17.2,11.7,24.6,3.1c3.4-3.9,3.2-7.7,3.2-11.9c-0.1-4.6,2.1-6.7,6.6-6.6c17.3,0,34.7,0,52,0c4.5,0,6.7,2.1,6.6,6.7
	c-0.1,9,0,18,0,27c0,7.3-1,8.6-8.4,8.2c-4.9-0.3-8.3,1.5-11.7,4.9c-14.1,14.5-28.3,28.8-42.7,42.8c-4.9,4.7-8.7,9.3-7.5,16.7
	c0.6,3.8-1.9,5.7-5.7,5.8c-1.7,0-3.3,0-5,0c-6.1,0-12.8,6.5-12.8,12.6c0,16.8,0,33.7,0,50.5c0,6.1,6.6,12.5,12.7,12.5
	C1406.2,747.8,1422.3,747.7,1438.5,747.7z M1637.6,628.3c0-28,0.2-56-0.1-83.9c-0.1-10.6-11.9-16.1-20.2-11.9
	c-7.6,3.9-12.7,13.6-4.4,22.7c1,1.1,2.7,2,0.6,4c-2,2-3,0.8-4.4-0.5c-5.9-5.5-13.9-5.1-19.4,0.8c-4.8,5.1-5.4,14-1.2,18.2
	c6.7,6.9,14.4,7.7,20.7,2.2c1.2-1,2.1-2.7,4.1-0.8c2.1,2,0.9,3.3-0.6,4.4c-3,2.2-3.5,5.2-3.5,8.7c0.1,38.6,0.1,77.3,0,115.9
	c0,4.6-0.2,9,4.3,11.9c1.4,0.9,1.6,1.9,0.1,3.1c-1.3,1.1-2.3,1.9-3.7,0.2c-0.7-0.9-1.6-1.7-2.5-2.5c-2.6-2.3-12-2.6-14.5-0.5
	c-4.6,4-8.2,8.3-7.1,15.3c0.8,5.4,6.7,12,12.2,12c15.7,0,31.3-0.3,47,0.2c6.2,0.2,10.4-1.8,13.9-6.5c2-2.7,3-11.9,1.1-14.6
	c-5.6-7.8-12.9-11.6-23-3.7c-1.3,1-2.2,1.8-3.8,0.3c-1.7-1.6-0.8-2.7,0.5-3.6c3.9-2.6,4-6.4,4-10.6
	C1637.5,682.2,1637.6,655.2,1637.6,628.3z"/>
<path class="st1" d="M961.6,857.1c-89.7,0-179.3,0-269,0.1c-4.9,0-6-1.2-6-6c0.1-132.1,0.1-264.3,0-396.4c0-5,1.1-6.3,6.2-6.3
	c179.1,0.1,358.3,0.1,537.4,0c5,0,5.9,1.4,5.9,6.1c-0.1,132.3-0.1,264.6,0,396.9c0,4.5-1.1,5.8-5.7,5.7
	C1140.9,857.1,1051.2,857.1,961.6,857.1z M829.7,639.5c0,23,0.2,46-0.1,69c-0.1,5.4,1.6,9.2,5.4,13c3.7,3.7,7.7,2.4,11.6,2.5
	c4.3,0.2,6.5,2.1,6.4,6.4c0,1.5,0,3,0,4.5c0,6.4,6.5,12.8,12.9,12.8c16.2,0,32.3,0,48.5,0c7.6,0,14-6,13.6-13.5
	c-0.4-8.3,1.7-10.7,10.3-10.3c7.5,0.4,13.5-6,13.5-13.6c0-46.5-0.1-92.9,0.1-139.4c0-5.4-1.5-9.2-5.3-13.1
	c-3.6-3.7-7.6-2.6-11.5-2.8c-5.1-0.2-6.9-1.9-7-6.8c0-1.3,0-2.7,0-4c0-6.5-5.9-12.5-12.4-12.5c-16.2,0-32.3,0.1-48.5-0.1
	c-4.3-0.1-7.4,1.2-10.5,4.3c-2.8,2.9-4,5.7-3.8,9.6c0.3,8.9-0.5,9.5-9.6,9.5c-0.3,0-0.7,0-1,0c-6.4,0-12.6,6.1-12.6,12.5
	C829.7,591.5,829.7,615.5,829.7,639.5z M1014.7,639.4c0,23,0.2,46-0.1,69c-0.1,5.4,1.5,9.2,5.3,13.1c3.7,3.7,7.7,2.4,11.6,2.6
	c4.3,0.2,6.5,2.1,6.5,6.4c0,1.8,0,3.7,0,5.5c0.1,5,6.9,11.8,11.9,11.8c17.2,0,34.3,0,51.5,0.1c2.3,0,3.9-0.9,5.8-2.3
	c4.8-3.7,6.6-8.2,6-14.2c-0.5-5,2.1-7.1,7.2-7.2c1.3,0,2.7,0,4,0c5.9,0,12.4-6.4,12.4-12.2c0-16.8,0-33.7,0.1-50.5
	c0-2.7-0.8-4.6-2.5-6.6c-3.7-4.4-7.9-6.4-13.8-5.8c-5.4,0.5-7.3-1.9-7.4-7.5c0-1.2,0-2.3,0-3.5c0-6.3-6.3-12.5-12.6-12.5
	c-16.3,0-32.7,0.1-49-0.1c-3.6,0-6.5,0.7-8.7,3.6c-0.9,1.2-1.9,2.9-3.9,0.9c-2.1-2.1-0.6-3.3,0.8-4.4c2.8-2.2,3.3-4.9,3.3-8.3
	c-0.1-16.3-0.1-32.7-0.1-49c0-6.5,1.5-8,7.8-8c15.8,0,31.7,0,47.5,0c9.7,0,10.1,0.3,9.9,9.7c-0.3,11.1,12.1,16.3,20.6,12.9
	c3.5-1.4,7.4-4.7,8.1-9.4c0.8-6.2-0.3-11.4-5.6-15.9c-3.8-3.1-7.5-2-11.3-2.2c-4.5-0.2-6.8-2.1-6.7-6.7c0-1.5,0-3,0-4.5
	c0-6.1-6.1-12.3-12.2-12.3c-16.8,0-33.7,0-50.5-0.1c-2.8,0-4.8,0.9-7.1,2.7c-4.8,3.7-5.9,8.4-5.4,14c0.5,4.6-2,6.8-6.5,6.7
	c-1.3,0-2.7,0-4,0c-6.7,0-12.7,6.1-12.8,12.8C1014.7,591.7,1014.7,615.5,1014.7,639.4z"/>
<path class="st1" d="M876.6,154.8c-287.3,0-574.6,0-861.9,0c-6.7,0-6.7,0-6.7-6.5c0-45,0.1-90-0.1-135c0-4.3,0.8-5.6,5.4-5.5
	c50.8,0.2,101.7,0.1,152.5,0.1c523.6,0,1047.2,0,1570.9,0c1.5,0,3,0.1,4.5,0c2.7-0.3,3.8,0.6,3.8,3.6c-0.1,46.7-0.1,93.3,0,140
	c0,2.5-0.7,3.7-3.4,3.4c-1.3-0.2-2.7,0-4,0C1450.5,154.8,1163.5,154.8,876.6,154.8z M518.6,65.6c3.7,0.1,7.3,0.3,11,0.2
	c2.9-0.1,4.5-1.9,4.5-4.8c0-3.1-1.4-5.1-4.7-5.1c-10.8,0-21.6,0-32.4,0c-3,0-4.6,1.9-4.8,4.7c-0.2,3.1,1.6,5,4.6,5.3
	c2,0.2,4,0.3,6,0c4.6-0.7,5.5,1.3,5.4,5.5c-0.2,17.5-0.1,34.9-0.1,52.4c0,3.5,1.3,6,5,6c3.7,0,5.1-2.3,5.1-5.9
	C518,104.6,518,85.3,518,66C518.2,65.9,518.4,65.7,518.6,65.6z M250.5,97.4c6.1,1,12.3,0.3,18.4,0.4c2.9,0,4.7-1.8,4.9-4.6
	c0.2-2.2,0.5-3.3,3.1-3.4c3.6-0.2,5.2-2.4,5.1-6c-0.1-4.8,0-9.6,0-14.5c0-3.3-1.4-5.5-4.9-5.5c-2.4,0-3.1-1.1-3.2-3.4
	c-0.2-3.5-2.4-4.7-5.7-4.7c-7.5,0.1-15,0.1-22.5,0c-3.9,0-5.8,1.8-5.8,5.7c0,21,0,41.9,0,62.9c0,3.4,1.6,5.5,5,5.4
	c3.4-0.1,5-2.2,5-5.5c-0.1-8.6-0.1-17.3-0.2-25.9C250,98,250.2,97.7,250.5,97.4z M566.2,97.8c5.8,0,11.6,0.1,17.4,0.1
	c3.6,0,5.8-1.6,5.7-5.3c-0.1-3.5-2.3-4.8-5.6-4.7c-5.1,0.1-10.3-0.1-15.4,0.1c-2.4,0.1-3-0.7-2.9-3c0.2-6.1,0-12.3,0-18.4
	c0.3-0.2,0.6-0.5,0.9-0.7c8.3,0,16.6,0,25,0.1c3.5,0,6-1.1,6.1-4.9c0.1-4.1-2.4-5.3-6.2-5.2c-9.5,0.1-19,0-28.5,0
	c-6.1,0-7.4,1.3-7.4,7.2c0,20,0,39.9,0,59.9c0,5.4,1.4,6.9,6.7,6.9c9.7,0,19.3,0,29,0c3.6,0,6.4-1,6.4-5.1c0-4.2-2.9-5-6.5-4.9
	c-8.5,0.1-16.9,0-25.5,0c0-7.3,0-14.3,0-21.3C565.6,98.3,565.9,98.1,566.2,97.8z M124.3,97.7c5.8,0,11.7,0.2,17.5,0.1
	c3.1-0.1,4.1,1.1,4,4.1c-0.1,7.3,0,14.6-0.1,22c0,3.5,1.3,6,5.1,5.9c3.4-0.1,4.9-2.3,4.8-5.7c-0.1-7.5,0-15,0-22.5
	c0-3.3-1.3-5.5-4.8-5.7c-2-0.1-3.1-0.6-3.2-2.8c-0.1-2.2,0.7-3.3,3.1-3.4c3.4-0.2,4.9-2.4,4.9-5.7c0-4.8-0.3-9.7,0.1-14.5
	c0.5-7-10.1-5-9.5-12.1c0.1-1-1.7-1.9-3.2-1.7c-0.3,0-0.7,0-1,0c-7.5,0-15,0.1-22.5,0c-4,0-5.7,1.8-5.7,5.7
	c0.1,20.8,0.1,41.6,0,62.4c0,3.3,1,5.7,4.5,5.9c3.7,0.1,5.3-2.3,5.2-5.8c-0.1-8.5-0.1-17-0.2-25.5C123.7,98.3,124,98,124.3,97.7z
	 M461.5,96.5c0.2,0.3,0.5,0.5,0.7,0.8c-2.2,9.5-0.7,19.2-0.8,28.8c0,2.4,2.3,4,5,3.8c3.2-0.3,4.6-2.1,4.6-5.3c0-18.5,0-37,0-55.4
	c0-3.5-1.6-5.3-5.1-5.3c-2.1,0-3-0.8-3-3c-0.1-3.8-2.3-5.1-5.9-5.1c-4.7,0.1-9.3,0.1-14,0c-3.6-0.1-5.9,1.2-6,4.9
	c-0.1,2.4-1.2,3.1-3.4,3.2c-3.3,0.1-4.6,2.2-4.6,5.3c0,18.5,0,37,0,55.4c0,3.4,1.9,5.3,5.3,5.2c3.2-0.1,4.7-2.1,4.7-5.2
	c-0.1-8.8-0.2-17.6-0.2-26.5c0.2-0.2,0.5-0.5,0.7-0.7c3.8,1,7.6,0.5,11.4,0.4C454.5,97.7,458.3,99.1,461.5,96.5z M366,92.5
	c0,10.3,0.1,20.6,0,30.9c0,4.3,1.8,6.5,6.2,6.5c7.3,0,14.6-0.1,22,0c6.8,0.1,5.6-9.7,12.4-9.8c1.1,0,1.7-1.9,1.5-3.4
	c0-0.2,0-0.3,0-0.5c0-15.6,0-31.3,0-46.9c0-3.4-1.5-5.4-4.9-5.5c-2.4,0-3-1.1-3.1-3.4c-0.2-3.4-2.4-4.8-5.7-4.7
	c-7.3,0.1-14.6,0.1-22,0c-4.4-0.1-6.3,1.8-6.3,6.3C366.1,72.2,366,82.3,366,92.5z M50.7,92.6c0,10.5,0,21,0,31.5
	c0,4,1.9,5.8,5.7,5.8c7.5,0,15,0,22.5,0c3.1,0,5.2-1.4,5.5-4.5c0.3-2.4,0.8-3.5,3.5-3.6c3.1-0.1,4.6-2.3,4.6-5.4
	c0-15.8,0-31.6,0-47.4c0-2.9-1.6-4.8-4.4-5c-2.4-0.2-3.5-0.7-3.7-3.4c-0.2-3.3-2.3-4.8-5.7-4.7c-7,0.1-14,0-21,0c-6.1,0-7,0.9-7,6.9
	C50.7,72.7,50.7,82.6,50.7,92.6z M176.8,92.5c0,7.8,0.1,15.7,0,23.5c-0.1,3.4,1.3,5.6,4.7,5.8c2.5,0.2,3.5,1,3.5,3.6
	c0,3,2.1,4.4,4.9,4.5c5.3,0.1,10.7,0.1,16,0c2.9-0.1,4.8-1.7,4.9-4.6c0.1-2.6,1.1-3.3,3.6-3.5c3-0.3,4.5-2.3,4.5-5.5
	c0-15.7,0-31.3,0-47c0-3.4-1.6-5.3-5-5.5c-2.1-0.1-2.9-0.9-3-3c-0.2-3.7-2.5-5.1-6-5c-4.7,0.1-9.3,0.1-14,0c-3.6-0.1-5.8,1.2-5.9,5
	c0,2.1-0.8,3.1-3,3c-4.3-0.1-5.2,2.6-5.2,6.2C176.9,77.5,176.8,85,176.8,92.5z"/>
<path class="st1" d="M876,157.7c287.3,0,574.7,0,862,0c8,0,6.8-1,6.8,6.9c0.1,26.7,0,53.3,0.1,80c0,3.6-0.7,5.4-4.6,4.8
	c-1-0.2-2,0-3,0c-573.8,0-1147.7,0-1721.5,0c-7.8,0-7.8,0-7.8-8c0-25.8,0.1-51.7-0.1-77.5c0-4.9,0.9-6.4,6.1-6.4
	c48,0.2,96,0.1,144,0.1C397.3,157.7,636.7,157.7,876,157.7z M436.8,196c-4.1-4.2-9.5-6.5-12.6-11.3c-0.6-0.9-1.7-1.1-2.7-0.8
	c-1.5,0.4-2.2,1.5-2.2,3c0,11.2,0,22.3,0,33.5c0,1.9,1,3.3,3,3.2c2.1-0.1,2.7-1.6,2.7-3.5c0-1.3,0-2.7,0-4c0-7.2,0-14.5,0-22.4
	c4,2.7,5.8,6.9,9.6,8.1c2.3,0.7,2.3,1.7,2.3,3.4c0,5,0,10,0,15c0,1.9,0.6,3.5,2.7,3.4c2.1-0.1,2.6-1.6,2.6-3.5c0-11,0-22,0-33
	c0-2-0.8-3.3-2.9-3.2c-1.9,0.1-2.4,1.6-2.4,3.2C436.8,190.1,436.8,193.1,436.8,196z M289,193.7c4.5,3.5,8.8,6.5,11.2,9.7
	c2.4,3.3,0.6,9.6,0.6,14.6c0,0.7,0,1.3,0,2c-0.1,1.9,0.4,3.5,2.5,3.6c2.4,0.1,2.9-1.6,2.9-3.7c0-10.6,0-21.3,0-31.9
	c0-1.9-0.1-4-2.6-4c-2.9-0.1-2.8,2.2-2.8,4.3c0,2.6,0,5.2,0,8.5c-4.3-3.6-7.6-7.4-11.6-10.2c-1.1-0.7-1.4-2.9-3.4-2.6
	c-2.5,0.4-2.3,2.5-2.3,4.3c0,10.3,0,20.6,0,30.9c0,2-0.1,4.4,2.7,4.5c3.2,0.1,2.9-2.5,2.9-4.7C289,210.8,289,202.7,289,193.7z
	 M238.2,203.8c0-5.5,0-11,0-16.5c0-1.9-0.6-3.4-2.7-3.4c-2.2,0-2.6,1.6-2.6,3.5c0,2.3,0,4.7,0,7c0,6.6,0,6.2-6.4,6.7
	c-4.8,0.4-6-1.5-5.5-5.8c0.3-2.1,0.1-4.3,0-6.5c0-2.1,0.5-4.8-2.7-4.9c-3.3-0.1-2.9,2.6-2.9,4.7c0,9.2-0.2,18.3,0.1,27.5
	c0.1,2.6-1.8,7.2,2.6,7.3c5,0.1,2.8-4.8,2.8-7.5c0.3-9.9,0.1-9.8,9.8-9.5c1.8,0.1,2.2,0.5,2.2,2.1c-0.1,3.2-0.1,6.3,0,9.5
	c0.1,2.1-1.1,5.4,2.5,5.5c3.9,0,2.7-3.5,2.8-5.7C238.3,213.1,238.2,208.5,238.2,203.8z M334.7,206.4c-0.1,14,1.9,11.3-8.4,11.7
	c-2.6,0.1-3.5-0.8-3.4-3.4c0.1-7.5,0-15,0.1-22.5c0-1.1-0.3-2.3,1.1-3c2.5-1.2,9.2,0.5,11.1,2.9c1.1,1.4,2.5,1.8,3.9,0.7
	c1.4-1.1,1.6-2.9,0.3-3.9c-3.7-3-7-6.6-12.8-5.4c-3.9,0.9-9.1,5.1-9.2,9.1c-0.1,7.3,0,14.6,0,22c0,1.1-0.1,2.6,0.6,3.3
	c4,4.5,9,7.7,15,5.4c3.1-1.2,6.5-3.9,7-7.9c0.4-3.6,0.1-7.3,0.1-11c0-1.8-0.3-3.5-2.5-3.6c-3-0.1-6-0.1-9,0
	c-1.5,0.1-2.5,1.1-2.5,2.6c0,1.5,0.9,2.6,2.4,2.7C330.5,206.5,332.5,206.4,334.7,206.4z M164.9,196.2c-4.1-4.3-9.5-6.7-12.6-11.4
	c-0.6-0.9-1.7-1-2.7-0.8c-1.4,0.3-1.8,1.3-1.8,2.6c0,11.5,0,23,0,34.4c0,1.8,1,2.8,2.9,2.6c1.8-0.2,2.5-1.4,2.4-3.2c0-4,0-8,0-12
	c0-4.7,0-9.4,0-14.5c4.1,2.6,5.8,6.9,9.8,8c2.1,0.6,2.1,1.4,2.1,3c0,5.2,0,10.3,0,15.5c0,2,0.8,3.3,2.9,3.2c1.8-0.1,2.4-1.5,2.4-3.2
	c0-11,0-22,0-33c0-1.8-0.5-3.5-2.6-3.5c-2.1,0-2.7,1.5-2.7,3.4C164.9,190.3,164.9,193.2,164.9,196.2z M102.2,205.9c0-3.7,0-7.3,0-11
	c0-8.4-8.5-14.5-16.1-10.7c-2.3,1.1-6.3,3.3-6.4,7.3c-0.1,9.6,0,19.3,0,28.9c0,1.7,0.5,3.1,2.4,3.1c2,0,3-1.1,3-3.2
	c0-2.8,0.3-5.7-0.1-8.5c-0.5-4.4,0.7-6,5.4-5.6c6.4,0.5,6.4,0.1,6.4,6.6c0,2.3,0,4.7,0,7c-0.1,2.1,0.6,3.7,3,3.6
	c2.2-0.1,2.3-1.9,2.3-3.7C102.2,215.2,102.2,210.6,102.2,205.9z M136.2,201.6c0-4.2,0.1-8.3,0-12.5c0-2.2,0.8-5.3-2.9-5.1
	c-3.1,0.1-2.5,3-2.5,5.1c0,7.1,0.1,14.3,0,21.4c-0.1,8.6,1.7,7.4-7.6,7.7c-3.2,0.1-4.3-0.7-4.2-4.1c0.2-8.6,0.1-17.3,0.1-25.9
	c0-2.1,0-4.3-2.8-4.3c-2.7,0-2.5,2.2-2.5,4c0,9.1-0.2,18.3,0.1,27.4c0.1,4.4,3.9,7.3,7.2,8.2c9.5,2.5,15.2-2.6,15.2-12.4
	C136.2,207.9,136.2,204.7,136.2,201.6z M187.1,203.6c0-3.8,0-7.6,0-11.5c0-1.1-0.2-3,1.2-2.7c3.7,0.7,8.6-3.3,11,2.8
	c0.7,1.6,2.4,1.7,3.8,0.6c1.4-1.1,1.6-2.9,0.3-3.9c-3.6-2.7-6.6-6.4-12.3-5.3c-4.9,0.9-9.7,5-9.7,10.1c0,6.7,0,13.3,0,20
	c0,5.2,4.8,9.2,9.7,10.2c5.8,1.2,8.6-2.8,12.3-5.5c1.4-1,1.1-2.8-0.3-3.9c-1.4-1.2-2.9-0.9-3.8,0.6c-0.7,1.1-0.4,2.6-2.6,2.9
	c-8.5,1.2-9.7,0.4-9.7-8.1C187,208,187,205.8,187.1,203.6z M260.9,223.7c0,0.1,0,0.1,0,0.2c1.7-0.1,3.4,0.2,4.9-0.3
	c2.4-0.8,3.2-3.5,1-4.4c-4.1-1.5-3.2-4.4-3.2-7.1c0-6.5,0-13,0-19.4c0-1.7-0.7-3.6,2.4-3.6c1.5,0,2.2-1.4,1.9-2.9
	c-0.2-1.3-1.1-2.1-2.3-2.2c-3.2-0.1-6.4-0.4-9.4,0.1c-2.5,0.4-3.2,3.5-1.1,4.3c3.9,1.4,3,4,3,6.6c0,6.3,0,12.6,0,18.9
	c0,2,0.7,4.4-2.6,4.9c-1.1,0.2-1.7,1.5-1.5,2.8c0.3,1.3,1.2,2,2.4,2.1C257.9,223.7,259.4,223.7,260.9,223.7z M399.6,203.4
	c0-3.2,0-6.3,0-9.5c0-2.2-1.1-5,2.9-5.2c1,0,1.5-1.7,1.1-2.9c-0.4-1.2-1.2-2-2.5-1.9c-2.8,0-5.7,0-8.5,0c-1.3,0-2.2,0.7-2.6,1.9
	c-0.3,1-0.2,2.4,0.8,2.6c4.6,1,3.1,4.6,3.2,7.3c0.1,6.2,0,12.3,0,18.5c0,1.9,0.6,4-2.4,4.4c-1.2,0.2-1.8,1.4-1.7,2.7
	c0.1,1.3,1,2.3,2.2,2.3c3.1,0.1,6.4,0.4,9.4-0.1c2.4-0.4,3.5-3.2,1.1-4.3c-3.8-1.7-3-4.5-3-7.3C399.5,209,399.6,206.2,399.6,203.4z
	 M45.7,203.3c0,5.5,0.1,11,0,16.5c0,2.7,0.9,4,3.7,4c5.2-0.1,10.3,0,15.5,0c1.8,0,3.4-0.5,3.3-2.8c-0.1-2.2-1.6-2.8-3.4-2.8
	c-3.5,0-7-0.2-10.5,0c-2.7,0.2-3.3-0.9-3.3-3.4c0.1-9,0-18,0.1-27c0-2-0.3-3.9-2.7-3.9c-2.6,0-2.7,2-2.7,3.9
	C45.7,192.9,45.7,198.1,45.7,203.3z M460.4,218.8c-1.9,5.9,2.5,4.4,5.5,4.8c5.5,0.6,3.2-3.7,3.5-6c0.9-5.7-3.7-2.9-5.9-3.4
	C459.6,213.4,459.6,216,460.4,218.8z M532.6,223.1c2.6,0.8,5.2,0.8,4.6-2.6c-0.4-2.2,2.4-6.9-3.2-6.4c-2.2,0.2-6.6-2-6.1,3.4
	C528.3,220.5,526.7,225.1,532.6,223.1z M498.6,214.4c-3.6-1-4.3,0-4.7,3.7c-0.5,5.3,1.8,5.4,5.9,5.4c5.2,0.1,3-3.4,3.4-5.7
	C503.8,213.7,501.6,213.5,498.6,214.4z"/>
<path class="st0" d="M215,639.8c0,31.8-0.1,63.7,0.1,95.5c0.1,6.5-4.8,8.8-8.4,11.9c-2.6,2.3-11.5-0.1-14.4-2.3
	c-4.4-3.4-5.5-7.5-5.5-12.9c0.3-31,0.2-62,0.1-93c0-3.5,0.3-6.5,3.4-8.8c1.3-0.9,2.7-2.1,0.7-4c-1.7-1.6-2.7-0.9-4.1,0.4
	c-6.2,5.6-14,5.3-20-0.7c-15-15-29.9-30-45-44.8c-1.2-1.1-2.1-4.6-4.9-1.7c-2.6,2.6,0.4,3.5,1.6,4.6c2,1.9,2.6,3.9,2.6,6.6
	c-0.1,48.3,0,96.6-0.1,145c0,5.6-6.5,11.5-12,12.2c-6.8,0.9-10.9-2.5-14.9-6.9c-1.3-1.4-1.3-2.9-1.3-4.6c0-64.3,0-128.6,0-193
	c0-5.3,6.5-11.2,11.9-11.8c6.1-0.6,10.5,1.3,14.2,6c3.1,4,3.2,13.2-0.5,16.8c-0.5,0.5-1,0.9-1.5,1.3c-1.7,1.3-1,2.4,0.1,3.8
	c1.5,1.8,2.4,0.8,3.6-0.3c7.1-6.3,13.9-6.1,20.5,0.5c14.6,14.7,29.1,29.3,43.7,44c0.8,0.8,1.7,1.6,2.5,2.5c1.2,1.3,2.3,1.7,3.7,0.2
	c1.2-1.3,1.8-2.6,0.1-3.7c-4.5-3-4.1-7.4-4.1-12c0.1-15.7,0-31.3,0-47c0-5.7,6.5-11.4,12-12.2c6.8-0.9,10.8,2.6,14.8,7.1
	c1.6,1.8,1.2,3.7,1.2,5.7C215,576.2,215,608,215,639.8z"/>
<path class="st0" d="M277.9,639.5c0-23.5,0-47,0-70.5c0-8,5.9-13.9,13.7-13.9c1.2,0,2.3,0,3.5,0c4.5,0,6.6-2.2,6.6-6.8
	c0-4.2-0.8-8.3,3.1-12c3.5-3.4,6.9-4.8,11.8-4.7c15.7,0.3,31.3,0.1,47,0.1c6.9,0,13,6.1,13,13.2c0,1.2,0,2.3,0,3.5
	c-0.1,4.6,2.2,6.6,6.7,6.7c4.2,0,8.2-0.7,11.9,3.2c3.5,3.7,4.9,7.2,4.9,12.2c-0.2,47-0.1,94-0.1,141c0,6.8-5.9,12.6-12.8,12.6
	c-9.7,0-10.6,0.8-10.6,10.4c0,7.2-5.9,13.2-13,13.2c-16.5,0-33,0-49.5,0c-6.6,0-12.4-5.9-12.4-12.6c0-0.8,0-1.7,0-2.5
	c0-6.8-1.7-8.9-8.5-8.5c-5.1,0.3-8.8-1-12.3-4.8c-2.2-2.4-3.1-4.7-3.1-7.9C278,687.5,277.9,663.5,277.9,639.5z M372,640.1
	c0-24.3,0-48.6,0-72.9c0-5-1.9-7-6.8-7c-17.5,0-35,0-52.4,0c-4.5,0-6.7,2-6.7,6.6c0,48.6,0,97.2,0,145.8c0,5.3,1.9,7.2,7.2,7.2
	c17,0,34,0,50.9,0c5.9,0,7.7-1.8,7.7-7.7C372,688,372,664,372,640.1z"/>
<path class="st0" d="M462.9,616c0-23.8,0-47.6,0-71.5c0-4.2,4.6-12.2,8.2-12.4c5-0.4,10.3-2.1,15,2.6c3.5,3.6,5,7.1,5,12.2
	c-0.2,46.8-0.1,93.6-0.1,140.4c0,7.3,1.4,8.7,8.6,8.7c9.6,0,14.8,5.2,14.6,14.9c0,3.5,0.1,7.5,3.8,8.3c4.3,0.9,9.2,2,13.4-1.3
	c2.3-1.8,1.7-4.2,1.7-6.4c0.1-10.2,5.2-15.4,15.3-15.4c6.6,0,8.3-1.8,8.3-8.7c0-47.5,0-95,0-142.4c0-4.5,4.5-12.4,8.3-12.8
	c5.3-0.5,11.1-2.3,15.6,3.3c2.6,3.2,4.3,6.1,4.3,10.5c-0.2,47-0.1,94-0.1,140.9c0,8.1-5.8,13.9-13.8,13.9c-9.1,0-9.9,0.9-9.9,10
	c0,7.7-5.5,13.5-13.2,13.1c-8.5-0.4-11,2.2-10,10.5c0.9,7-4.5,9.6-8.6,12.8c-3.1,2.4-11.9-0.1-15.2-2.8c-3.5-2.9-4.7-6.3-4.5-10.9
	c0.4-8-1.3-9.5-9-9.5c-9.5,0-14.5-5-14.5-14.5c0-7.6-1.2-8.7-9.1-8.7c-8.7,0-14.2-5.5-14.2-14.4C462.9,663,462.9,639.5,462.9,616z"
	/>
<path class="st0" d="M705.3,386.7c0-4.8,0-9.7,0-14.5c0-1.6,0.1-3.2,1.9-3.7c1.8-0.5,2.2,1.3,3.2,2.1c3.2,2.5,6,5.4,9,8.1
	c1.5,1.3,2,0,2.1-1.3c0.1-1.7,0.1-3.3,0.1-5c0-1.9,0.1-4,2.6-4c2.1,0,2.4,1.9,2.4,3.7c0,10,0,20,0,30c0,1.9-0.6,3.5-2.7,3.4
	c-1.8-0.1-2.3-1.6-2.3-3.3c0-2.8-0.1-5.7,0-8.5c0.2-4.1,0.5-8.1-4.4-10.2c-2.3-1-3.7-5.4-5.9-4.4c-2.5,1.1-0.9,5.1-1,7.8
	c-0.2,4.5,0,9-0.1,13.5c0,2,0.8,5.1-2.3,5.1c-3.5,0-2.6-3.2-2.6-5.4C705.2,395.6,705.3,391.1,705.3,386.7z"/>
<path class="st0" d="M865.1,386.5c0-4.5,0-9,0-13.5c0-1.3-0.3-2.7,0.7-3.8c1.4-1.6,14.3-1.3,15.8,0.1c3.5,3.4,4.9,7.2,4.7,12.2
	c-0.1,3.5-3.9,3.2-3.9,5.4c0,2.2,3.6,2.1,4,5.4c0.6,5.5-1.8,9.1-5.1,12.6c-1,1.1-13.8,1.1-15.1,0.1c-1.3-1-1-2.3-1.1-3.6
	C865.1,396.5,865.1,391.5,865.1,386.5z M875.6,373.3c-4.2-0.8-6.4,0-5.7,4.9c0.5,3.4-1.2,7.3,5.1,6.7c4.2-0.4,6.8-0.3,6.4-5.8
	C881.1,374.8,880.9,371.7,875.6,373.3z M875.2,400.7c4.7,1.2,6.2-0.6,6.3-5.5c0.1-5.3-2.1-5.6-6.4-5.9c-4.9-0.3-5.3,1.8-5.1,5.7
	C870,398.6,869.4,402.3,875.2,400.7z"/>
<path class="st0" d="M641.4,387c0-4.8,0-9.6,0-14.4c0-2.8,1-4.4,4-4.3c3.2,0.1,6.3-0.1,9.5,0c3,0.1,7.8,5.2,7.8,8.2
	c0.1,7,0.1,13.9,0,20.9c0,3.4-4.9,8.3-8.3,8.3c-15.2-0.1-12.8,2-13-12.2C641.4,391.3,641.4,389.2,641.4,387z M646.6,400.8
	c2.2,0,4.6-0.2,6.9,0c3.6,0.4,4.6-1.2,4.5-4.6c-0.2-5,0-10-0.1-15c-0.1-9.2,1.5-8-8.2-8.2c-2.3,0-3.3,0.1-3.1,3
	C646.8,384.3,646.6,392.4,646.6,400.8z"/>
<path class="st0" d="M215.7,388.1c0,5.5,0,9.8,0,14.1c0,1.9-0.6,3.5-2.8,3.3c-1.9-0.1-2.2-1.7-2.2-3.3c0-1.8,0-3.7,0-5.5
	c0-7.1-2.3-8.8-9.3-7.2c-2.1,0.5-2,1.8-2.1,3.3c0,3.2,0,6.3,0,9.5c0,1.6-0.5,3.2-2.4,3.1c-1.8,0-2.5-1.5-2.5-3.1
	c0-8.8-0.2-17.7,0.1-26.5c0.1-3.9,4.1-6.5,6.7-7.2c3.1-0.8,6.9-1.6,10.8,1.9C218.6,376.4,214,383.2,215.7,388.1z M204.7,384.5
	c3.7,0.6,6.9,1.1,6.3-4.7c-0.4-4.1,0.1-7.2-5.9-6.9c-5,0.2-6.1,1.8-6,6.4C199.2,383.6,199.8,386.1,204.7,384.5z"/>
<path class="st0" d="M737.3,387c0-2.2,0-4.3,0-6.5c0-9.4,4-13,13.4-12.3c4,0.3,4.7,4.4,7.5,6.1c0.6,0.4,0.2,2-0.9,2.5
	c-1.3,0.6-2.4,0.4-3.4-1c-1.8-2.5-8-3.7-10.3-2.3c-1.3,0.7-1.2,1.9-1.2,3c0,6.8,0.1,13.6-0.1,20.5c-0.1,4.4,2.8,3.8,5.4,3.6
	c2.5-0.1,6.1,1.5,6-3.5c-0.1-4,1.3-8.9-5.8-7.8c-1.4,0.2-2.4-1.2-2.2-2.7c0.1-1.3,1.1-2,2.4-2c2.7,0,5.3,0,8,0c0.9,0,1.9,0.3,2,1.2
	c0.3,3,0.4,6,0.4,8.9c0,2.8-0.5,4.9-2.8,7.6c-3.2,3.8-6.4,3.3-9.9,3.3c-3.8,0-8.3-4.8-8.4-8.7C737.2,393.7,737.3,390.3,737.3,387z"
	/>
<path class="st0" d="M1173.6,388.4c0,5.3,0,9.5,0,13.6c0,1.8-0.4,3.6-2.5,3.5c-2.1-0.1-2.5-1.8-2.5-3.6c0-2.7-0.3-5.4,0.1-8
	c0.6-4.9-2.5-4.4-5.6-4.4c-3,0-6.3-0.7-5.7,4.3c0.3,3,0.1,6,0,9c0,1.5-0.8,2.7-2.3,2.8c-1.8,0.1-2.7-1.1-2.7-2.8
	c0-9-0.3-18,0.1-26.9c0.2-3.6,3.9-6.6,6.8-7.1c3.2-0.7,6.8-1.4,10.8,2.1C1176.7,376.7,1171.6,383.6,1173.6,388.4z M1162.7,384.6
	c3.9,0.7,6.7,0.6,6.2-4.8c-0.4-4.2-0.1-7-6-6.8c-5.2,0.1-5.8,2.1-5.8,6.5C1157.1,383.8,1158,386,1162.7,384.6z"/>
<path class="st0" d="M370.4,380.7c0-4,0-6.8,0-9.6c0-1.5,0.7-2.7,2.3-2.7c1.6,0,2.4,1,2.4,2.6c0,10.6,0,21.3,0,31.9
	c0,1.5-0.7,2.7-2.3,2.7c-1.9,0.1-2.5-1.3-2.5-3c0-1.3-0.3-2.7,0-4c2.4-10.2-3.5-15.9-11.4-21.1c0,7.9,0,15.7,0,23.4
	c0,1.9,0.6,4.5-2.3,4.6c-2.8,0.1-2.6-2.4-2.6-4.4c0-9.5,0-19,0-28.4c0-1.7-0.3-3.6,1.8-4.1c2.1-0.6,2.3,1.9,3.3,2.5
	C363.2,373.4,366,377,370.4,380.7z"/>
<path class="st0" d="M1088.6,386.6c0-4.7,0-9.3,0-14c0-1.3-0.1-2.7,1.1-3.7c1-0.9,13.8-1.1,14.7-0.1c3.2,3.5,6.2,6.7,5.7,12.4
	c-0.3,3.5-4.4,3.5-4,6c0.3,2,4.3,2.1,3.8,5.6c-0.4,3.3-0.1,6.6-0.1,10c0,1.7-0.8,3-2.7,2.8c-1.6-0.1-2.1-1.3-2.1-2.8
	c0-3.2-0.2-6.3,0-9.5c0.2-2.9-1-3.7-3.8-3.7c-7.7-0.2-7.7-0.3-7.7,7.3c0,1.2,0.1,2.3,0,3.5c-0.2,2,0.8,5.1-2.3,5.2
	c-3.2,0.1-2.5-2.9-2.5-4.9C1088.5,395.9,1088.6,391.2,1088.6,386.6z M1093.3,378.3c0,6.5,0,6.3,4.7,6.5c4.1,0.1,7.1,0.3,7.1-5.7
	c0-5.6-2.2-5.9-6.7-6.1C1093.1,372.7,1092.6,375,1093.3,378.3z"/>
<path class="st0" d="M1062.5,400.6c3.8,0.1,7.7,0.1,11.5,0.2c1.8,0,3.6,0.2,3.7,2.4c0.1,2.2-1.6,2.6-3.4,2.6c-4.7,0-9.3,0-14,0
	c-2.5,0-3.7-1.2-3.7-3.7c0-10,0-20,0-30c0-2.7,1.3-3.9,4-3.9c4.5,0.1,9,0,13.5,0c1.8,0,3.6,0.3,3.6,2.5c0.1,2.2-1.8,2.5-3.5,2.5
	c-2.2,0-4.4,0.3-6.5,0c-4.7-0.6-6.4,1-6.2,5.9c0.1,4.4,1.2,6.2,5.6,5.5c0.8-0.1,1.7,0,2.5,0c1.9,0,4.1,0,4,2.6
	c-0.1,2.1-1.9,2.3-3.7,2.4c-8.5,0.7-8.5,0.7-8,10.1c-0.2,0.3-0.5,0.6-0.5,0.8C1061.6,401.2,1062.1,400.8,1062.5,400.6z"/>
<path class="st0" d="M625.9,389.5c-11.1,0.4-11.1,0.4-11.3,11.4c0,1.9,0.5,4.5-2.4,4.6c-2.8,0.1-2.6-2.4-2.6-4.4c0-8,0.1-16-0.1-24
	c-0.1-4.8,3.8-7.5,6.6-8.3c3-0.9,7.1-1.9,11.1,2.1c3.8,3.8,3.5,7.2,3.6,11.3c0.1,5.7,0.2,11.3,0,17c-0.1,2.3,1.6,6.3-2.6,6.3
	c-3.8,0-2-3.8-2.2-6C625.7,396.2,625.9,392.8,625.9,389.5z M619.2,384.7c3.9-0.1,7.8,1.3,6.9-4.7c-0.5-3.7,0.8-7.6-5.5-7
	c-6.1,0.6-5.7,0.2-6.3,6.8C613.8,384.9,616,385.4,619.2,384.7z"/>
<path class="st0" d="M928.9,387c0-4.8,0-9.7,0-14.5c0-1.3-0.3-2.7,1-3.7c1.3-1,14.1-1,15.1,0.3c2.6,3.4,5.7,6.2,5.3,11.6
	c-0.3,3.6-4.2,4.2-4,6.3c0.2,2.1,4.5,2.7,3.8,6.5c-0.6,2.9-0.1,6-0.1,9c0,1.7-0.7,3.1-2.5,3.1c-1.8,0-2.5-1.3-2.4-3.1
	c0.1-3.2-0.1-6.3,0-9.5c0.1-2.7-1-3.3-3.5-3.4c-7.8-0.3-7.8-0.4-7.8,7.5c0,1.8,0,3.7,0,5.5c0,1.7-0.7,3.1-2.5,3
	c-1.9,0-2.4-1.4-2.4-3.1C929,397.3,928.9,392.2,928.9,387z M933.9,384.7c2.7,0,5.6,0,8.4,0c1.4,0,2.4-0.3,2.8-2
	c1.8-7.4,0.1-9.5-7.3-9.6c-2.9,0-4.3,0.6-3.9,3.8C934.1,379.4,933.9,381.9,933.9,384.7z"/>
<path class="st0" d="M1041,380.7c0-3.7,0-6.3,0-8.9c0-1.7,0.4-3.2,2.2-3.3c1.9-0.2,2.6,1.2,2.6,2.9c0,10.5,0,21,0,31.5
	c0,1.5-0.8,2.7-2.3,2.7c-1.9,0.1-2.5-1.2-2.5-3c0-4.7,0-9.3,0-14c0-1.7-0.2-2.6-2.2-3.6c-3.1-1.6-5.5-4.5-9-7.6c0,7.4,0,14,0,20.5
	c0,1.5,0,3,0,4.5c0,1.7-0.6,3.1-2.5,3.1c-1.9,0-2.4-1.4-2.4-3.1c0-4.2,0-8.3,0-12.5c0-6,0-12,0-18c0-1.5,0-3.2,1.9-3.6
	c1.5-0.3,2.1,1,3,2C1033,373.7,1036.6,376.8,1041,380.7z"/>
<path class="st0" d="M1009,379.6c0-2.8,0-5.5,0-8.3c0-1.5,0.6-2.7,2.2-2.8c1.8-0.2,2.7,1.1,2.7,2.8c0,10.5,0,20.9,0,31.4
	c0,1.7-0.9,3-2.7,2.8c-1.8-0.2-2.2-1.6-2.2-3.3c0-4.3,0-8.6,0-13c0-2-0.2-3.3-2.6-4.4c-3-1.4-5.2-4.5-8.7-7.7c0,7.6,0,14.1,0,20.6
	c0,1.5,0,3,0,4.5c0,1.8-0.4,3.5-2.7,3.4c-1.9-0.1-2.2-1.7-2.2-3.3c0-10.3,0-20.6,0-30.9c0-1.2,0.3-2.4,1.5-2.9
	c1-0.4,2.1-0.2,2.7,0.7c2.8,4.5,8.1,6.4,10.7,11C1008.2,380,1008.6,379.8,1009,379.6z"/>
<path class="st0" d="M115,379.6c0-2.6,0-5.2,0-7.9c0-1.7,0.4-3.1,2.3-3.3c1.8-0.1,2.6,1.2,2.7,2.9c0,10.5,0,21,0,31.5
	c0,1.5-0.9,2.7-2.4,2.7c-1.8,0-2.6-1.2-2.5-3c0-1.8-0.4-3.8,0.1-5.5c2.4-9.8-4.4-14.1-11.3-19.6c0,7.7,0,14.6,0,21.5
	c0,1.3,0,2.7,0,4c0,1.6-0.9,2.6-2.5,2.6c-1.6,0-2.4-1.1-2.4-2.6c0-10.7,0-21.3,0-32c0-1.3,0.6-2.3,1.9-2.6c1.1-0.2,2,0.3,2.5,1.2
	c2.8,4.4,7.8,6.3,10.6,10.6C114.2,380,114.6,379.8,115,379.6z"/>
<path class="st0" d="M1248.2,386.7c0-4.7,0.1-9.3,0-14c-0.1-3.1,0.9-4.7,4.3-4.5c4.5,0.1,9,0,13.5,0c1.9,0,3.4,0.6,3.3,2.8
	c-0.1,2-1.7,2.2-3.2,2.2c-2.2,0-4.4,0.3-6.5-0.1c-5-0.8-6.7,0.8-6.6,6.1c0.1,4.7,1.4,6,5.7,5.3c1.3-0.2,2.7-0.1,4,0
	c1.5,0.1,2.6,0.7,2.6,2.4c0,1.6-1,2.4-2.5,2.5c-1.3,0.1-2.7,0.3-4,0c-4.7-1-5.9,0.7-5.8,5.5c0.1,4.7,1,6.6,5.9,5.7
	c2.4-0.4,5-0.1,7.5-0.1c1.8,0,2.9,0.8,2.9,2.6c0,1.7-1.2,2.3-2.7,2.3c-5,0-10,0-15,0c-2.7,0-3.3-1.7-3.3-4
	C1248.2,396.7,1248.2,391.7,1248.2,386.7z"/>
<path class="st0" d="M386.1,387.4c0-3.3,0.3-5.8-0.1-8.3c-1.1-8.3,8.4-12.9,14.8-10.6c2.4,0.8,4.2,3.5,6.1,5.6
	c0.7,0.7,0.2,2-0.8,2.6c-1.3,0.8-2.8,0.7-3.4-0.8c-2.4-5.5-6.9-1.9-10.4-2.4c-1.4-0.2-1.4,1.6-1.4,2.7c0,7.2,0.1,14.3,0,21.5
	c0,2.4,1,3.1,3.2,3.2c7.9,0.5,8.1,0.2,8.1-7.4c0-3.1-0.9-4.2-4-3.9c-1.9,0.2-4,0-4.1-2.5c0-2.7,2.2-2.4,4-2.5c8.8-0.5,8.3-0.4,9,8.3
	c0.5,5.4-2.1,8.7-5.1,12.1c-1.8,2-10.1,0.1-12.3-1.4C383.5,398.9,387.1,392.3,386.1,387.4z"/>
<path class="st0" d="M1205.4,394.8c0.9,9.2-9,12.9-15.1,10.6c-2.2-0.8-3.2-3.7-5.5-5.1c-1.1-0.6-0.5-2.2,0.6-3
	c1.2-0.9,2.8-0.8,3.4,0.6c2.3,5.2,6.9,3.1,9.9,2.4c3.6-0.9,1.2-5.1,1.7-7.8c0.4-2.1-0.9-2.9-2.9-2.9c-4,0-7.6,0.4-10.7-3.9
	c-2.9-4.1-2.8-9.4,0.3-13.7c2.7-3.8,5.7-3.3,9.2-3.8c4.9-0.7,5.6,4.3,8.8,5.8c0.8,0.4,0.5,2.3-0.8,2.9c-1.3,0.6-2.7,0.5-3.4-1
	c-2.4-4.9-7-3-9.9-2.1c-3.4,1-1.1,5.2-1.6,8c-0.3,2.2,1.2,2.7,3.1,2.8c3.9,0.1,7.5-0.4,10.8,3.7
	C1205.4,390.8,1204.9,392.9,1205.4,394.8z"/>
<path class="st0" d="M577.8,388.3c0-3.6,0-6.1,0-8.6c0-8.7,6.3-14,14.4-11.1c2.8,1,6.5,3.5,6.6,7.7c0.1,7.1,0,14.3,0.1,21.4
	c0,4.3-4.1,6.7-6.2,7.4c-3.1,1-7,1.8-11.2-1.7C575.4,398.3,579.4,392.4,577.8,388.3z M594,386.9c0-3.3-0.2-6.7,0-10
	c0.4-4.9-3.1-3.8-5.7-3.7c-2.6,0-6-1.2-5.7,3.7c0.3,5.5,0.1,11,0.1,16.5c0,8,0,7.9,7.8,7.6c2.5-0.1,3.6-0.9,3.5-3.5
	C593.9,393.9,594,390.4,594,386.9z"/>
<path class="st0" d="M907.1,405.7c-11.9-0.1-10,1.1-10.1-10c-0.1-7.5,0.1-15-0.1-22.4c-0.1-3.6,1-5.3,4.8-5.1c4.3,0.2,8.6,0,13,0.1
	c1.8,0,3.4,0.5,3.3,2.8c-0.1,2.1-1.8,2.1-3.3,2.1c-3.2,0-6.3,0.2-9.5,0c-2.7-0.2-3.6,0.9-3.3,3.4c0.1,1.1,0.2,2.3,0,3.5
	c-0.6,3.8,1,4.8,4.7,4.7c2.5-0.1,6.9-1.8,7.1,2.1c0.2,4.6-4.6,2.9-7,2.7c-6.1-0.6-4.4,3.5-4.8,6.6c-0.5,3.9,0.9,5.3,4.8,4.8
	c2.8-0.3,5.6-0.1,8.5,0c1.5,0,2.7,0.5,2.8,2.2c0.1,1.9-1.1,2.6-2.8,2.7C912.5,405.7,909.8,405.7,907.1,405.7z"/>
<path class="st0" d="M1227.5,368.3c4.8-2,6,3.8,9.4,5.5c1,0.5,0.5,2.3-0.6,3c-1.2,0.8-2.7,0.9-3.4-0.6c-2.4-5.4-7.4-3.2-10.3-2.3
	c-3.3,1-1.2,5.6-1.4,8.5c-0.2,2.5,2.1,2.6,3.6,2.2c5.2-1.4,8.4,2,11.8,4.8c1.4,1.2,1.4,10.2,0,11.5c-3.5,3.4-7.2,6-12.7,5
	c-3.9-0.7-4.6-4.5-7.4-6.2c-0.9-0.5,0.2-2.1,1.4-2.7c1.2-0.5,2.4-0.3,3,1c2.4,5.4,7.3,3,10.3,2.1c3-0.9,1-5.3,1.3-8.1
	c0.3-2.5-1.7-2.8-3.3-2.4c-5.3,1.4-8.4-2-11.8-5c-2.4-2.1-1.4-10.6,1.3-12.4C1224.5,368.3,1224.5,368.3,1227.5,368.3z"/>
<path class="st0" d="M300.5,405.7c-0.7,0-1.3,0-2,0c-8.1,0-10.4-2.6-8-10.4c0.8-2.6,3.5-4.8,5.6-6.8c2.8-2.8,5.1-6.2,8.8-8
	c2.5-1.3,1.4-3.5,1.4-5.3c0-2.2-1.9-1.9-3.4-1.9c-3.2,0-6.3,0-9.5,0c-1.7,0-3.1-0.6-3-2.5c0.1-1.8,1.4-2.5,3.1-2.5
	c4.8,0,9.6,0,14.5,0c2.6,0,3,1.6,3.5,3.8c1.5,6-2.1,9.7-5.7,13.4c-2.9,2.9-5.2,6.5-9.2,8.2c-2.9,1.3-1.4,3.8-1.5,5.7
	c-0.1,2.7,2.2,1.2,3.3,1.3c3.3,0.2,6.6,0.1,10,0.1c1.5,0,2.7,0.6,2.8,2.2c0.1,1.9-1.1,2.7-2.8,2.7
	C305.8,405.8,303.1,405.7,300.5,405.7C300.5,405.7,300.5,405.7,300.5,405.7z"/>
<path class="st0" d="M1322.5,405.5c-5.4,2.5-6.4-3.5-9.9-5c-1.1-0.5-0.7-2.2,0.3-3c1.3-1,2.8-0.8,3.4,0.6c2.5,5.3,7.4,3.1,10.3,2.2
	c3.1-1,1.1-5.5,1.4-8.5c0.2-2.2-1.7-2.4-3.1-2c-5.4,1.4-8.6-2-12.1-5c-1.3-1.1-1.3-10.3,0-11.5c3.5-3.3,7.1-6,12.6-5.1
	c4,0.7,4.5,4.6,7.4,6.1c0.6,0.3,0.1,2-0.9,2.5c-1.4,0.7-2.7,0.5-3.4-0.9c-2.6-5-7.5-3-10.4-1.9c-2.9,1.1-1,5.6-1.1,8.6
	c-0.1,2.5,2.3,2.3,3.7,1.9c5-1.2,8.1,1.9,11.2,4.7c2.2,1.9,1.2,10.7-1.1,12.5C1328.4,403.8,1326.8,407.5,1322.5,405.5z"/>
<path class="st0" d="M965.8,385.2c0,3,0,6,0,9c0,6.2,3.8,8.7,9.6,6.6c2.1-0.8,1.5-2.4,1.5-3.7c0.1-8,0-16,0-24c0-2-0.3-4.6,2.5-4.5
	c2.8,0,2.4,2.6,2.4,4.6c0,8-0.1,16,0,24c0.1,4.7-3.8,7.4-6.6,8.2c-3,0.8-7,2.2-11-2.2c-3.3-3.6-3.3-6.6-3.4-10.3
	c-0.1-6.8,0-13.7,0-20.5c0-1.9-0.1-4,2.6-3.9c2.1,0.1,2.4,2,2.4,3.7C965.8,376.5,965.8,380.8,965.8,385.2z"/>
<path class="st0" d="M801.2,386.7c0-2.7,0.2-5.3,0-8c-0.8-8.4,8.9-12.4,15.1-10.1c2.3,0.8,4,3.4,5.7,5.4c0.7,0.8,0.3,2.3-1,2.9
	c-1.2,0.5-2.5,0.5-3-0.8c-2.3-5.6-6.8-2.1-10.3-2.6c-1.7-0.2-1.5,1.9-1.5,3.1c0,7,0,14,0,20.9c0,2.3,0.7,3.6,3.1,3.3
	c3.2-0.5,7.5,2,9.1-3.3c0.3-1,2.1-1,3.1,0c1.1,1.1,1.2,2.5,0,3.5c-3.4,2.7-6.3,6-11.7,4.9c-3.7-0.8-8.4-4.8-8.5-8.7
	C801.1,393.7,801.2,390.2,801.2,386.7z"/>
<path class="st0" d="M226.4,387.1c0-4.8,0-9.6,0-14.4c0-1.9,0.1-4.1,2.5-4.1c2.5-0.1,2.5,2.2,2.5,4c0,8,0.1,15.9,0,23.9
	c-0.1,3.1,0.9,4.6,4.2,4.3c2.8-0.2,5.6,0,8.5,0c1.8,0,3.5,0.4,3.4,2.6c0,1.9-1.5,2.4-3.1,2.4c-4.8,0-9.6,0-14.4,0
	c-2.6,0-3.5-1.3-3.5-3.7C226.4,397,226.4,392,226.4,387.1z"/>
<path class="st0" d="M545.7,387c0-4.8,0-9.7,0-14.5c0-1.8-0.2-4.1,2.4-4.1c2.5,0,2.6,2.1,2.6,4c0,8,0.2,16-0.1,24
	c-0.1,3.5,1.1,4.7,4.5,4.4c2.8-0.3,5.7-0.1,8.5,0c1.7,0,3.1,0.7,3.1,2.5c0,1.8-1.5,2.4-3.1,2.5c-4.8,0-9.7,0-14.5,0
	c-2.6,0-3.5-1.4-3.4-3.8C545.8,397,545.7,392,545.7,387z"/>
<path class="st0" d="M138.7,389.1c0-3-0.1-6,0-9c0.2-4,0.4-7.9-5.6-6.9c-1.2,0.2-2.3-0.7-2.4-2c-0.2-1.6,0.8-2.7,2.3-2.8
	c5.5-0.1,11-0.1,16.5,0c1.5,0,2.5,1.2,2.2,2.7c-0.2,1.5-1.5,2.3-2.9,2.1c-5.1-0.9-5.2,2.2-5.1,5.9c0.2,7.5,0,15,0.1,22.5
	c0,1.9,0,4-2.5,4.1c-2.6,0-2.5-2.2-2.5-4C138.7,397.4,138.7,393.2,138.7,389.1z"/>
<path class="st0" d="M268.8,368.3c1.3,0,2.7-0.1,4,0c1.3,0.1,2.2,0.8,2.4,2.1c0.2,1.1-0.1,2.3-1.1,2.5c-3.4,0.7-2.6,3.3-2.6,5.5
	c-0.1,5.1-0.1,10.3,0,15.4c0.1,2.9-1.2,6,3,7.9c2.2,1,0.7,3.6-1.8,4c-1.9,0.3-4,0.1-6,0.1c-1.7,0-3.5,0.2-4.1-1.9
	c-0.5-1.8,0.7-2.7,2.3-3.2c2.1-0.6,1.4-2.4,1.4-3.7c0.1-6.1,0.1-12.3,0-18.4c0-2.4,0.8-5.1-2.9-5.8c-0.9-0.2-1.2-1.5-0.8-2.6
	c0.4-1,1-1.8,2.1-1.8C266.1,368.3,267.5,368.3,268.8,368.3C268.8,368.3,268.8,368.3,268.8,368.3z"/>
<path class="st0" d="M332.2,405.7c-1.2,0-2.3,0-3.5,0c-1.1-0.1-1.9-0.6-2.2-1.7c-0.4-1.3,0.1-2.6,1.3-2.9c2.4-0.5,2.5-2.1,2.5-4.1
	c-0.1-6.8,0-13.6,0-20.5c0-1.6,0.3-3.4-2.2-3.6c-1.2-0.1-1.9-1.3-1.6-2.6c0.3-1.5,1.5-2.1,3-2.1c1.7,0,3.3,0,5,0
	c1.8,0.1,3.9-0.6,4.6,1.8c0.7,2.2-1,2.8-2.6,3.4c-1.6,0.6-1.1,2.3-1.1,3.5c0,5.8-0.1,11.6,0,17.5c0,2.6-0.8,5.3,2.8,7
	c2.2,1,1.3,3.6-1.4,4.1C335.2,405.9,333.7,405.7,332.2,405.7z"/>
<path class="st0" d="M170.7,387.1c0-3.2,0-6.3,0-9.5c0-1.9,0.5-4.1-2.4-4.6c-1.2-0.2-1.8-1.4-1.5-2.7c0.3-1.3,1.3-1.9,2.5-2
	c1.8-0.1,3.7-0.1,5.5,0c1.8,0,3.9-0.4,4.6,1.9c0.7,2.2-1.1,2.7-2.7,3.3c-1.8,0.7-1.1,2.6-1.1,4c-0.1,6.1-0.1,12.3,0,18.4
	c0,2.3-1.3,5.4,3,5.5c0.4,0,1,1.3,1,2c-0.1,1.2-0.9,2.2-2.3,2.2c-2.2,0.1-4.3,0.1-6.5,0.1c-1.7,0-3.5,0.1-4-2.1
	c-0.4-1.9,0.9-2.6,2.6-2.9c2.1-0.4,1.3-2.1,1.3-3.2C170.8,394.1,170.7,390.6,170.7,387.1z"/>
<path class="st0" d="M683.8,368.4c1.5,0,3-0.2,4.5,0c1.2,0.2,2.1,1.1,2.1,2.4c0,1.1-0.5,2.2-1.6,2.1c-3-0.2-2.4,1.7-2.4,3.5
	c0,7.1,0.1,14.3,0,21.4c0,1.7-0.4,3.2,2.2,3.1c1.4,0,2,1.2,1.8,2.5c-0.2,1.3-1.1,2.1-2.4,2.1c-2.7,0.1-5.3,0.1-8,0
	c-1.3,0-2.2-0.9-2.4-2.2c-0.2-1.3,0.7-2.5,1.9-2.4c2.3,0.1,2.1-1.2,2.1-2.8c-0.1-7.5,0-15-0.1-22.4c0-0.9,1.1-2.5-1-2.6
	c-1.9-0.1-3.4-0.7-2.8-3c0.6-2,2.4-2,4.1-2c0.7,0,1.3,0,2,0C683.8,368.3,683.8,368.3,683.8,368.4z"/>
<path class="st0" d="M841.2,394.3c1.5-5.4-1.3-9.9-6.7-13.2c-1.7-1.1-2.1-10.1-0.7-11.7c0.6-0.6,1.3-1.1,2.2-0.8
	c1,0.3,1.8,0.9,1.9,2c0.1,1.5,0.5,3.1,0,4.5c-1.7,4.8,3.9,5.7,4.8,9.1c0,0.1,1.6,0.1,1.7-0.1c1.1-3.3,6.4-4.4,4.7-9.2
	c-0.3-0.9,0-2,0-3c0-1.9,0.6-3.4,2.7-3.3c1.9,0.1,2,1.6,2.3,3.2c1.1,5.9-1.1,10.5-5.8,13.4c-2.3,1.4-2.3,2.8-2.3,4.7
	c0,4.2,0,8.3,0,12.5c0,1.6-0.2,3.2-2.1,3.3c-2.1,0.2-2.8-1.4-2.8-3.3C841.2,400,841.2,397.7,841.2,394.3z"/>
<path class="st0" d="M1291,368.3c2.5,0,5-0.1,7.5,0c1.5,0,2.6,0.8,2.6,2.4c0,1.7-1.2,2.6-2.6,2.3c-6.4-1.3-5.5,2.9-5.4,6.8
	c0.1,7.3,0,14.6,0,22c0,1.7,0.1,3.7-2.2,3.8c-2.5,0.1-2.7-1.9-2.7-3.9c0-8.2-0.1-16.3,0.1-24.5c0.1-3.2-0.8-4.6-4.1-4.2
	c-1.8,0.2-4,0.1-3.9-2.5c0.1-2.1,2-2.3,3.8-2.3C1286.3,368.3,1288.7,368.3,1291,368.3C1291,368.3,1291,368.3,1291,368.3z"/>
<path class="st0" d="M77.5,405.7c-1.3,0-2.7,0.1-4,0c-1.2-0.1-2.2-0.7-2.4-2.1c-0.2-1.4,0.4-2.5,1.7-2.6c2.6-0.1,2.2-1.9,2.2-3.5
	c0-6.5,0-13,0-19.5c0-2.3,0.9-4.6-2.9-5.5c-2-0.5-1.5-3.5,0.8-4c2.9-0.6,6-0.3,8.9-0.2c1.1,0,1.8,0.9,2,2c0.2,1.1-0.3,2.3-1.3,2.4
	c-3.4,0.4-2.6,2.8-2.6,4.8c0,5.5-0.1,11,0,16.5c0.1,2.8-1.2,6,3,7.7c1.8,0.7,1,3-1,3.7c-1.4,0.4-3,0.2-4.5,0.3
	C77.5,405.8,77.5,405.7,77.5,405.7z"/>
<path class="st0" d="M428.5,405.1c-4.8,1.7-3.8-1.6-4.2-4.4c-0.5-3.6,1-3.7,3.9-3.7c3.1,0,4.9-0.1,4.6,4.1
	C432.6,404.6,432.5,406.4,428.5,405.1z"/>
<path class="st0" d="M460.3,405.1c-3,1-4.2,0.2-4.2-3.1c0-3.4-0.1-5.6,4.6-5c2.7,0.3,4.3-0.1,4,3.5
	C464.5,403.7,465.1,406.8,460.3,405.1z"/>
<path class="st0" d="M492.4,405.1c-3,1-4.6,0.5-4.3-3.4c0.2-2.8-0.5-5.3,3.9-4.8c2.8,0.3,5-0.4,4.6,4.1
	C496.4,404.5,496.5,406.3,492.4,405.1z"/>
<path class="st0" d="M1438.5,747.7c-16.2,0-32.3,0-48.5,0c-6.2,0-12.7-6.4-12.7-12.5c0-16.8,0-33.7,0-50.5c0-6,6.7-12.6,12.8-12.6
	c1.7,0,3.3,0,5,0c3.8-0.1,6.4-2,5.7-5.8c-1.2-7.4,2.6-11.9,7.5-16.7c14.4-14.1,28.7-28.4,42.7-42.8c3.4-3.5,6.7-5.2,11.7-4.9
	c7.4,0.4,8.4-0.9,8.4-8.2c0-9-0.1-18,0-27c0-4.6-2.1-6.7-6.6-6.7c-17.3,0-34.7,0-52,0c-4.6,0-6.7,2-6.6,6.6c0,4.2,0.3,8-3.2,11.9
	c-7.4,8.5-18.9,5.6-24.6-3.1c-1.8-2.7-0.7-11.6,1.4-14.1c3.8-4.6,8.1-7.2,14.6-6.5c5.1,0.6,7.4-1.8,6.9-7.1
	c-0.5-5.7,1.3-9.8,5.5-13.5c2.2-1.9,4.2-2.8,7.1-2.8c16.5,0.1,33,0,49.5,0.1c7,0,13.1,6.1,13.2,13.1c0,1.2,0,2.3,0,3.5
	c0.1,5,2,7.3,6.9,6.8c6.4-0.7,10.8,1.7,14.6,6.3c1.5,1.8,2.2,3.5,2.2,5.8c-0.1,9.3,0,18.7-0.1,28c0,5-6.9,11.8-11.9,11.9
	c-1.8,0-3.7,0-5.5,0c-4.1,0-6.7,2.1-6.2,6c1.1,7.2-2.4,11.6-7.2,16.3c-14.8,14.4-29.3,29.1-43.8,43.9c-2.9,3-5.8,4.3-10,4.1
	c-8.5-0.3-9.4,0.8-9.4,9.4c0,7.5-0.2,15,0.1,22.5c0.1,4.2-0.2,7.9-4,10.5c-1.2,0.8-2.3,1.9-0.6,3.5c1.6,1.4,2.9,1.6,4.1-0.2
	c2.6-3.9,6.4-3.9,10.6-3.9c23.5,0.1,47,0.1,70.5,0.1c6.8,0,13.2,6.4,13.2,13.1c0,10.2-5.2,15.5-15.2,15.5
	C1469.2,747.7,1453.8,747.7,1438.5,747.7z"/>
<path class="st0" d="M1637.6,628.3c0,27-0.1,54,0.1,80.9c0,4.2-0.1,7.9-4,10.6c-1.3,0.9-2.1,2-0.5,3.6c1.5,1.5,2.5,0.7,3.8-0.3
	c10-7.9,17.4-4.1,23,3.7c1.9,2.7,0.9,11.9-1.1,14.6c-3.5,4.8-7.7,6.7-13.9,6.5c-15.6-0.5-31.3-0.2-47-0.2c-5.5,0-11.4-6.6-12.2-12
	c-1-7,2.5-11.3,7.1-15.3c2.4-2.1,11.9-1.8,14.5,0.5c0.9,0.8,1.7,1.6,2.5,2.5c1.4,1.6,2.4,0.8,3.7-0.2c1.5-1.2,1.2-2.3-0.1-3.1
	c-4.6-2.9-4.4-7.3-4.3-11.9c0.1-38.6,0.1-77.3,0-115.9c0-3.6,0.5-6.5,3.5-8.7c1.5-1.1,2.7-2.4,0.6-4.4c-2-1.9-2.9-0.3-4.1,0.8
	c-6.3,5.5-14,4.7-20.7-2.2c-4.2-4.3-3.6-13.1,1.2-18.2c5.6-5.9,13.5-6.3,19.4-0.8c1.4,1.3,2.4,2.5,4.4,0.5c2-2,0.4-2.9-0.6-4
	c-8.3-9.2-3.2-18.9,4.4-22.7c8.3-4.2,20.1,1.2,20.2,11.9C1637.8,572.3,1637.6,600.3,1637.6,628.3z"/>
<path class="st0" d="M829.7,639.5c0-24,0-48,0-72c0-6.4,6.2-12.4,12.6-12.5c0.3,0,0.7,0,1,0c9.1,0,9.9-0.6,9.6-9.5
	c-0.1-4,1-6.8,3.8-9.6c3.1-3.1,6.1-4.3,10.5-4.3c16.2,0.2,32.3,0.1,48.5,0.1c6.5,0,12.4,6,12.4,12.5c0,1.3,0,2.7,0,4
	c0.1,5,1.9,6.6,7,6.8c4,0.2,7.9-0.9,11.5,2.8c3.8,3.9,5.3,7.7,5.3,13.1c-0.2,46.5-0.1,92.9-0.1,139.4c0,7.6-6,14-13.5,13.6
	c-8.6-0.4-10.7,1.9-10.3,10.3c0.3,7.5-6,13.5-13.6,13.5c-16.2,0-32.3,0-48.5,0c-6.5,0-12.9-6.4-12.9-12.8c0-1.5,0-3,0-4.5
	c0-4.3-2.1-6.2-6.4-6.4c-4-0.2-8,1.1-11.6-2.5c-3.8-3.8-5.5-7.6-5.4-13C829.9,685.4,829.7,662.5,829.7,639.5z M890.7,560.1
	c-8.5,0-17,0-25.5,0c-5.6,0-7.3,1.7-7.3,7.5c0,23.8-0.1,47.6,0.1,71.4c0,4.1,0,7.9-3.9,10.5c-1.4,0.9-1.9,2.1-0.4,3.7
	c1.4,1.4,2.5,1.2,3.7-0.2c0.7-0.7,1.4-1.4,2.1-2.1c14.7-14.7,29.3-29.5,44-44.2c6.3-6.3,13.5-6.6,20.2-0.8c1.3,1.1,2.1,1.8,3.7,0.3
	c1.7-1.5,1-2.6-0.3-3.5c-3.8-2.6-4.2-6.2-4.1-10.5c0.3-8.5,0-17,0.1-25.5c0.1-4.6-1.9-6.7-6.5-6.7
	C908,560.2,899.3,560.1,890.7,560.1z M890.7,719.2c8.3,0,16.6,0,25,0c6.4,0,7.4-1.1,7.4-7.6c0-23.5,0.1-46.9-0.1-70.4
	c0-4.5-0.1-8.6,4.1-11.5c1.4-1,1.8-2.2,0.2-3.6c-1.4-1.3-2.3-0.8-3.3,0.3c-0.7,0.7-1.4,1.4-2.1,2.1c-15.1,15.1-30.1,30.1-45.2,45.2
	c-4.9,4.9-13.7,5.1-19,0.3c-1.1-1-2-2.8-4-0.8c-2.1,2.1-0.5,3.3,0.9,4.4c2.8,2.2,3.3,5,3.2,8.3c-0.2,8.8-0.1,17.6-0.1,26.5
	c0,5.2,1.7,6.8,6.8,6.8C873.4,719.2,882.1,719.2,890.7,719.2z"/>
<path class="st0" d="M1014.7,639.4c0-23.8,0-47.7,0-71.5c0-6.8,6-12.8,12.8-12.8c1.3,0,2.7,0,4,0c4.6,0.1,7-2.1,6.5-6.7
	c-0.6-5.7,0.5-10.3,5.4-14c2.3-1.8,4.3-2.7,7.1-2.7c16.8,0.1,33.7,0,50.5,0.1c6.1,0,12.2,6.1,12.2,12.3c0,1.5,0,3,0,4.5
	c-0.1,4.6,2.2,6.5,6.7,6.7c3.8,0.1,7.5-0.9,11.3,2.2c5.4,4.4,6.5,9.7,5.6,15.9c-0.6,4.7-4.6,8-8.1,9.4c-8.5,3.4-20.9-1.8-20.6-12.9
	c0.3-9.4-0.2-9.7-9.9-9.7c-15.8,0-31.7,0-47.5,0c-6.3,0-7.8,1.5-7.8,8c0,16.3-0.1,32.7,0.1,49c0,3.4-0.5,6.2-3.3,8.3
	c-1.4,1.1-2.9,2.3-0.8,4.4c2,2,3,0.3,3.9-0.9c2.3-2.9,5.1-3.6,8.7-3.6c16.3,0.2,32.7,0.1,49,0.1c6.3,0,12.6,6.2,12.6,12.5
	c0,1.2,0,2.3,0,3.5c0.1,5.6,2,8,7.4,7.5c5.9-0.6,10.1,1.4,13.8,5.8c1.7,2.1,2.6,4,2.5,6.6c-0.1,16.8,0,33.7-0.1,50.5
	c0,5.8-6.5,12.2-12.4,12.2c-1.3,0-2.7,0-4,0c-5.1,0.1-7.6,2.2-7.2,7.2c0.5,6-1.3,10.5-6,14.2c-1.8,1.4-3.4,2.3-5.8,2.3
	c-17.2-0.1-34.3,0-51.5-0.1c-5,0-11.8-6.8-11.9-11.8c0-1.8,0-3.7,0-5.5c0-4.3-2.2-6.2-6.5-6.4c-4-0.2-8,1.1-11.6-2.6
	c-3.8-3.8-5.4-7.6-5.3-13.1C1014.9,685.4,1014.7,662.4,1014.7,639.4z M1108.2,686.4c0-8.5,0-17,0-25.5c0-5.6-1.5-7.1-7.1-7.1
	c-16.3,0-32.7-0.1-49,0.1c-3.7,0-6.9-0.2-9.2-3.5c-0.9-1.3-2.1-2.6-4-0.8c-2.2,2.1-0.5,3.3,0.8,4.4c2.8,2.2,3.4,4.9,3.3,8.3
	c-0.1,16.7-0.1,33.3-0.1,50c0,5.2,1.7,6.8,6.8,6.8c17.2,0,34.3,0,51.5,0c5.4,0,6.8-1.4,6.9-6.7
	C1108.2,703.8,1108.2,695.1,1108.2,686.4z"/>
<path class="st0" d="M366,92.5c0-10.1,0.1-20.3,0-30.4c0-4.4,1.9-6.3,6.3-6.3c7.3,0.1,14.6,0.1,22,0c3.4,0,5.5,1.3,5.7,4.7
	c0.1,2.2,0.7,3.3,3.1,3.4c3.5,0,4.9,2.1,4.9,5.5c0,15.6,0,31.3,0,46.9c0,0.2,0,0.3,0,0.5c0.2,1.5-0.4,3.4-1.5,3.4
	c-6.8,0.1-5.6,9.9-12.4,9.8c-7.3-0.1-14.6-0.1-22,0c-4.4,0-6.2-2.1-6.2-6.5C366.1,113.1,366,102.8,366,92.5z M376.6,65.4
	c-0.6-0.5-1.1-1.8-1.9-0.9c-0.6,0.6,0.4,1.3,1.2,1.6c0.1,13.1,0.2,26.3,0.1,39.4c0,4.6,0.7,9.3-0.5,13.9c-0.3,0.5-1.4,0.8-0.7,1.4
	c0.6,0.6,1.1,0,1.4-0.7c5.8-0.1,11.6-0.4,17.4-0.2c3.5,0.1,4.6-1,4.6-4.5c-0.2-15.1-0.1-30.2,0-45.3c0-3.2-0.9-4.3-4.2-4.3
	C388.2,65.8,382.4,66.4,376.6,65.4z"/>
<path class="st0" d="M438.9,98.1c0.1,8.8,0.2,17.6,0.2,26.5c0,3.2-1.5,5.1-4.7,5.2c-3.4,0.1-5.3-1.9-5.3-5.2c0-18.5,0-37,0-55.4
	c0-3.1,1.4-5.2,4.6-5.3c2.2-0.1,3.3-0.7,3.4-3.2c0.1-3.8,2.5-5,6-4.9c4.7,0.1,9.3,0.1,14,0c3.6-0.1,5.8,1.3,5.9,5.1c0,2.1,0.9,3,3,3
	c3.5,0,5.1,1.8,5.1,5.3c0,18.5,0,37,0,55.4c0,3.2-1.5,5-4.6,5.3c-2.7,0.2-5-1.4-5-3.8c0.1-9.6-1.4-19.2,0.8-28.8
	c0.2-0.2,0.3-0.5,0.5-0.7c-0.4,0-0.8,0-1.2-0.1c-3.2,2.6-7,1.2-10.6,1.3c-3.8,0.1-7.6,0.6-11.4-0.4c-0.6-0.5-1.1-1.8-1.9-0.9
	C437.1,97.1,438.1,97.8,438.9,98.1z M460.9,88.1c0.4,0.7,0.8,1.4,1.7,0.6c0.1-0.1-0.6-0.9-0.9-1.4c-0.9-5.8-0.3-11.6-0.4-17.4
	c0-2.9-0.8-4.3-4-4.1c-4.7,0.2-9.3,0.2-14,0c-3.3-0.2-4.3,1-4.3,4.3c0,5.8,0.8,11.6-0.5,17.4c-0.3,0.5-1.3,0.8-0.7,1.5
	c0.6,0.6,1.1,0,1.5-0.6C446.5,87.5,453.7,87.8,460.9,88.1z"/>
<path class="st0" d="M123.4,98.5c0.1,8.5,0.1,17,0.2,25.5c0,3.5-1.5,5.9-5.2,5.8c-3.5-0.1-4.6-2.6-4.5-5.9c0.1-20.8,0.1-41.6,0-62.4
	c0-4,1.6-5.8,5.7-5.7c7.5,0.1,15,0,22.5,0c0.3,0,0.7,0,1,0c1.5-0.1,3.3,0.8,3.2,1.7c-0.6,7.1,10,5.1,9.5,12.1
	c-0.3,4.8-0.1,9.6-0.1,14.5c0,3.3-1.5,5.5-4.9,5.7c-2.4,0.1-3.2,1.1-3.1,3.4c0.1,2.2,1.2,2.7,3.2,2.8c3.5,0.1,4.8,2.4,4.8,5.7
	c0,7.5,0,15,0,22.5c0,3.4-1.5,5.6-4.8,5.7c-3.8,0.1-5.1-2.4-5.1-5.9c0.1-7.3-0.1-14.6,0.1-22c0.1-3-0.9-4.2-4-4.1
	c-5.8,0.1-11.6,0-17.5-0.1c-0.4-0.3-0.7-0.6-1.1-1c-0.3-0.1-0.6-0.3-0.9-0.4c0,0.4,0.1,0.8,0.1,1.1C122.7,97.8,123,98.2,123.4,98.5z
	 M122.4,90.1c1.5-2.6,3.6-2.2,5.6-2.2c4.3,0,8.7-0.2,13,0.1c3.9,0.3,5-1.3,4.8-4.9c-0.2-4-0.3-8,0-12c0.4-4.3-1.4-5.3-5.4-5.3
	c-6,0-12.1,1.3-17.4-1C123.6,72.7,124,80.8,122.4,90.1z"/>
<path class="st0" d="M50.7,92.6c0-10,0-20,0-30c0-6,0.9-6.8,7-6.9c7,0,14,0.1,21,0c3.4-0.1,5.5,1.4,5.7,4.7c0.2,2.7,1.3,3.2,3.7,3.4
	c2.8,0.2,4.4,2.1,4.4,5c0,15.8,0,31.6,0,47.4c0,3.1-1.5,5.3-4.6,5.4c-2.7,0.1-3.2,1.3-3.5,3.6c-0.3,3.1-2.4,4.5-5.5,4.5
	c-7.5,0-15,0-22.5,0c-3.9,0-5.8-1.8-5.7-5.8C50.7,113.6,50.7,103.1,50.7,92.6z M60.6,120.6c5.5-1.5,11.2-0.7,16.8-0.5
	c4.5,0.1,5.6-1.5,5.5-5.7c-0.2-14.1-0.3-28.2,0-42.4c0.1-4.8-1.2-6.3-6-6.2c-5.8,0.1-11.8,1.5-18.7-1.9c2.9,3,2.3,5.7,2.3,8.2
	c0,10.5,0.1,20.9,0,31.4c-0.1,5.5,0.7,11-0.5,16.4c-0.7,0.2-1.1,0.8-0.6,1.3C59.9,121.7,60.2,120.8,60.6,120.6z"/>
<path class="st0" d="M176.8,92.5c0-7.5,0.1-15,0-22.5c0-3.7,0.9-6.3,5.2-6.2c2.1,0,2.9-0.9,3-3c0.1-3.8,2.3-5.1,5.9-5
	c4.7,0.1,9.3,0.1,14,0c3.5-0.1,5.8,1.3,6,5c0.1,2.1,0.9,3,3,3c3.4,0.1,5,2.1,5,5.5c0,15.7,0,31.3,0,47c0,3.2-1.5,5.2-4.5,5.5
	c-2.5,0.2-3.5,0.9-3.6,3.5c-0.1,2.8-2,4.5-4.9,4.6c-5.3,0.1-10.7,0.1-16,0c-2.9,0-4.9-1.5-4.9-4.5c0-2.6-1-3.4-3.5-3.6
	c-3.4-0.2-4.7-2.4-4.7-5.8C176.9,108.2,176.8,100.3,176.8,92.5z M186.9,92.6c0,7.7,0.2,15.3-0.1,23c-0.1,3.6,1.1,4.6,4.6,4.4
	c4.6-0.3,9.3-0.2,14,0c2.5,0.1,3.6-0.8,3.6-3.4c-0.1-15.7-0.1-31.3,0-47c0-3-1.2-3.7-3.9-3.7c-4.8,0.1-9.7,0.2-14.5,0
	c-2.8-0.1-3.8,0.9-3.7,3.7C187,77.2,186.9,84.9,186.9,92.6z"/>
<path class="st0" d="M565.3,66.5c0,6.1,0.2,12.3,0,18.4c-0.1,2.4,0.5,3.1,2.9,3c5.1-0.2,10.3,0,15.4-0.1c3.3-0.1,5.5,1.2,5.6,4.7
	c0.1,3.7-2.1,5.3-5.7,5.3c-5.8,0-11.6-0.1-17.4-0.1c-0.6-0.5-1.2-1-1.8-1.5c-0.9,1.2,0.3,1.7,0.9,2.3c0,7,0,14,0,21.3
	c8.6,0,17.1,0.1,25.5,0c3.6,0,6.5,0.7,6.5,4.9c0,4.1-2.7,5.1-6.4,5.1c-9.7-0.1-19.3,0-29,0c-5.3,0-6.7-1.5-6.7-6.9
	c0-20,0-39.9,0-59.9c0-5.9,1.4-7.2,7.4-7.2c9.5,0,19,0.1,28.5,0c3.7,0,6.3,1.1,6.2,5.2c-0.1,3.8-2.7,4.9-6.1,4.9
	c-8.3-0.1-16.6-0.1-25-0.1c-0.4-0.3-0.7-0.6-1.1-0.9c-0.3-0.2-0.6-0.3-0.9-0.5c0.1,0.4,0.1,0.7,0.2,1.1
	C564.7,65.8,565,66.2,565.3,66.5z M564.8,121.3c0.1-0.3,0.3-0.6,0.4-0.9c0-0.1-0.4-0.2-0.7-0.3c-0.1,0.3-0.4,0.5-0.3,0.8
	C564.2,121,564.6,121.1,564.8,121.3z M564.7,87.9c-0.2,0.2-0.5,0.4-0.5,0.6c0,0.2,0.2,0.5,0.3,0.8c0.3-0.2,0.6-0.5,0.7-0.8
	C565.2,88.5,564.9,88.2,564.7,87.9z"/>
<path class="st0" d="M249.7,98.3c0.1,8.6,0.1,17.3,0.2,25.9c0,3.4-1.6,5.5-5,5.5c-3.4,0.1-5-2-5-5.4c0-21,0-41.9,0-62.9
	c0-3.9,1.9-5.8,5.8-5.7c7.5,0,15,0.1,22.5,0c3.3,0,5.5,1.2,5.7,4.7c0.1,2.2,0.8,3.3,3.2,3.4c3.5,0.1,4.9,2.2,4.9,5.5
	c0,4.8-0.1,9.6,0,14.5c0.1,3.6-1.6,5.8-5.1,6c-2.5,0.1-2.9,1.3-3.1,3.4c-0.2,2.8-2,4.6-4.9,4.6c-6.1-0.1-12.3,0.6-18.4-0.4
	c-0.4-0.3-0.7-0.6-1.1-0.9c-0.4,0-0.8,0-1.2,0c0.2,0.2,0.3,0.4,0.5,0.7C249.1,97.6,249.4,97.9,249.7,98.3z M250.2,88.2
	c5.8-0.1,11.6-0.4,17.4-0.3c3.1,0.1,4.6-0.7,4.4-4.1c-0.2-4.6-0.2-9.3,0-13.9c0.1-3-0.8-4.2-3.9-4.1c-5,0.2-10,0.2-14.9,0
	c-2.6-0.1-3.3,0.6-3.3,3.2c0,6.1,0.7,12.3-0.4,18.4c-0.3,0.5-1.6,0.8-0.5,1.6C249.4,89.4,249.9,88.8,250.2,88.2z"/>
<path class="st0" d="M518,66c0,19.3,0,38.6,0.2,57.9c0,3.6-1.4,5.9-5.1,5.9c-3.7,0-5-2.5-5-6c0-17.5-0.1-34.9,0.1-52.4
	c0.1-4.3-0.9-6.2-5.4-5.5c-1.9,0.3-4,0.2-6,0c-3.1-0.3-4.9-2.2-4.6-5.3c0.2-2.8,1.7-4.6,4.8-4.7c10.8,0,21.6,0,32.4,0
	c3.3,0,4.7,2,4.7,5.1c0,2.9-1.6,4.7-4.5,4.8c-3.6,0.1-7.3-0.1-11-0.2c-0.5-0.3-0.6-1.7-1.5-0.8C516.8,65.1,517.3,65.8,518,66z"/>
<path class="st0" d="M436.8,196c0-3,0-6,0-8.9c0-1.6,0.5-3.1,2.4-3.2c2.1-0.1,2.9,1.2,2.9,3.2c0,11,0,22,0,33c0,1.9-0.6,3.5-2.6,3.5
	c-2.1,0.1-2.7-1.5-2.7-3.4c0-5,0-10,0-15c0-1.7,0-2.6-2.3-3.4c-3.8-1.2-5.6-5.4-9.6-8.1c0,7.9,0,15.1,0,22.4c0,1.3,0,2.7,0,4
	c0,1.9-0.6,3.4-2.7,3.5c-2,0.1-3-1.3-3-3.2c0-11.2,0-22.3,0-33.5c0-1.5,0.7-2.6,2.2-3c1-0.3,2.1-0.1,2.7,0.8
	C427.3,189.5,432.7,191.9,436.8,196z"/>
<path class="st0" d="M289,193.7c0,9,0,17.2,0,25.3c0,2.2,0.3,4.8-2.9,4.7c-2.8-0.1-2.7-2.4-2.7-4.5c0-10.3,0-20.6,0-30.9
	c0-1.8-0.1-3.9,2.3-4.3c2-0.3,2.3,1.9,3.4,2.6c4,2.9,7.3,6.6,11.6,10.2c0-3.3,0-5.9,0-8.5c0-2.1-0.1-4.3,2.8-4.3
	c2.5,0,2.6,2.1,2.6,4c0,10.6,0,21.3,0,31.9c0,2.1-0.5,3.8-2.9,3.7c-2.1-0.1-2.6-1.8-2.5-3.6c0-0.7,0-1.3,0-2c0-5,1.8-11.3-0.6-14.6
	C297.9,200.1,293.5,197.2,289,193.7z"/>
<path class="st0" d="M238.2,203.8c0,4.7,0.1,9.3,0,14c-0.1,2.3,1.1,5.8-2.8,5.7c-3.5,0-2.4-3.3-2.5-5.5c-0.1-3.2-0.1-6.3,0-9.5
	c0.1-1.6-0.3-2.1-2.2-2.1c-9.7-0.3-9.6-0.4-9.8,9.5c-0.1,2.7,2.2,7.5-2.8,7.5c-4.4-0.1-2.5-4.7-2.6-7.3c-0.2-9.2-0.1-18.3-0.1-27.5
	c0-2.1-0.4-4.8,2.9-4.7c3.2,0.1,2.6,2.8,2.7,4.9c0,2.2,0.2,4.4,0,6.5c-0.5,4.3,0.7,6.1,5.5,5.8c6.4-0.5,6.4-0.1,6.4-6.7
	c0-2.3,0-4.7,0-7c0-1.8,0.4-3.5,2.6-3.5c2.1,0,2.7,1.5,2.7,3.4C238.2,192.8,238.2,198.3,238.2,203.8z"/>
<path class="st0" d="M334.7,206.4c-2.2,0-4.2,0.1-6.2,0c-1.5-0.1-2.4-1.2-2.4-2.7c0-1.5,1-2.5,2.5-2.6c3-0.1,6-0.2,9,0
	c2.2,0.1,2.5,1.8,2.5,3.6c0,3.7,0.3,7.4-0.1,11c-0.5,4-3.9,6.7-7,7.9c-6,2.3-11-0.9-15-5.4c-0.6-0.7-0.6-2.2-0.6-3.3
	c0-7.3-0.1-14.6,0-22c0-4.1,5.2-8.3,9.2-9.1c5.8-1.3,9.1,2.3,12.8,5.4c1.3,1,1.1,2.8-0.3,3.9c-1.4,1-2.8,0.7-3.9-0.7
	c-1.9-2.4-8.6-4.1-11.1-2.9c-1.4,0.7-1.1,1.9-1.1,3c0,7.5,0.1,15-0.1,22.5c-0.1,2.6,0.8,3.5,3.4,3.4
	C336.7,217.7,334.7,220.4,334.7,206.4z"/>
<path class="st0" d="M164.9,196.2c0-2.9,0-5.9,0-8.8c0-1.9,0.6-3.4,2.7-3.4c2.1,0,2.6,1.7,2.6,3.5c0,11,0,22,0,33
	c0,1.7-0.6,3.1-2.4,3.2c-2.1,0.1-2.9-1.2-2.9-3.2c0-5.2,0-10.3,0-15.5c0-1.5,0-2.4-2.1-3c-4-1.1-5.6-5.4-9.8-8c0,5.1,0,9.8,0,14.5
	c0,4,0,8,0,12c0,1.7-0.6,3-2.4,3.2c-1.8,0.2-2.9-0.8-2.9-2.6c0-11.5,0-23,0-34.4c0-1.3,0.5-2.3,1.8-2.6c1-0.2,2.1-0.1,2.7,0.8
	C155.4,189.5,160.8,191.9,164.9,196.2z"/>
<path class="st0" d="M102.2,205.9c0,4.7,0,9.3,0,14c0,1.8-0.1,3.6-2.3,3.7c-2.4,0.1-3-1.5-3-3.6c0.1-2.3,0-4.7,0-7
	c0-6.5,0-6.1-6.4-6.6c-4.7-0.3-6,1.3-5.4,5.6c0.3,2.8,0,5.6,0.1,8.5c0,2-1,3.2-3,3.2c-1.9,0-2.4-1.4-2.4-3.1c0-9.6-0.1-19.3,0-28.9
	c0-4.1,4.1-6.2,6.4-7.3c7.6-3.8,16.1,2.3,16.1,10.7C102.2,198.6,102.2,202.3,102.2,205.9z M90.7,200.8c4.4,1,6.7,0.1,6.3-5.2
	c-0.3-4.2,0-6.9-5.9-6.6c-4.9,0.2-6.4,1.2-6.3,6.3C85,199.8,85.7,202.3,90.7,200.8z"/>
<path class="st0" d="M136.2,201.6c0,3.2,0,6.3,0,9.5c0,9.8-5.8,14.9-15.2,12.4c-3.3-0.9-7.1-3.8-7.2-8.2c-0.2-9.1-0.1-18.3-0.1-27.4
	c0-1.8-0.2-4,2.5-4c2.9,0,2.8,2.2,2.8,4.3c0,8.6,0.2,17.3-0.1,25.9c-0.1,3.4,1.1,4.2,4.2,4.1c9.3-0.3,7.5,0.9,7.6-7.7
	c0.1-7.1,0-14.3,0-21.4c0-2-0.7-4.9,2.5-5.1c3.6-0.2,2.8,2.9,2.9,5.1C136.3,193.2,136.2,197.4,136.2,201.6z"/>
<path class="st0" d="M187.1,203.6c0,2.2,0,4.3,0,6.5c0,8.5,1.1,9.3,9.7,8.1c2.2-0.3,1.9-1.8,2.6-2.9c0.9-1.5,2.4-1.8,3.8-0.6
	c1.4,1.1,1.7,2.9,0.3,3.9c-3.7,2.6-6.4,6.7-12.3,5.5c-4.9-1-9.7-5.1-9.7-10.2c0-6.7,0-13.3,0-20c0-5.2,4.8-9.2,9.7-10.1
	c5.7-1.1,8.7,2.7,12.3,5.3c1.3,1,1.1,2.8-0.3,3.9c-1.4,1.1-3.2,1-3.8-0.6c-2.4-6.1-7.3-2.1-11-2.8c-1.4-0.3-1.2,1.7-1.2,2.7
	C187,196,187.1,199.8,187.1,203.6z"/>
<path class="st0" d="M260.9,223.7c-1.5,0-3,0.1-4.5,0c-1.3-0.1-2.2-0.9-2.4-2.1c-0.3-1.3,0.3-2.7,1.5-2.8c3.3-0.5,2.6-2.8,2.6-4.9
	c0-6.3,0-12.6,0-18.9c0-2.6,0.9-5.2-3-6.6c-2.1-0.8-1.4-3.8,1.1-4.3c3.1-0.5,6.3-0.2,9.4-0.1c1.3,0,2.2,0.9,2.3,2.2
	c0.2,1.5-0.5,3-1.9,2.9c-3-0.1-2.4,1.8-2.4,3.6c0,6.5,0,13,0,19.4c0,2.8-0.9,5.6,3.2,7.1c2.3,0.8,1.5,3.5-1,4.4
	c-1.5,0.5-3.3,0.2-4.9,0.3C260.9,223.8,260.9,223.7,260.9,223.7z"/>
<path class="st0" d="M399.6,203.4c0,2.8,0,5.7,0,8.5c0.1,2.8-0.8,5.6,3,7.3c2.4,1.1,1.3,3.9-1.1,4.3c-3.1,0.6-6.3,0.3-9.4,0.1
	c-1.2,0-2.1-1-2.2-2.3c-0.1-1.3,0.5-2.6,1.7-2.7c3-0.4,2.4-2.5,2.4-4.4c0-6.2,0.1-12.3,0-18.5c-0.1-2.8,1.4-6.3-3.2-7.3
	c-1-0.2-1.1-1.6-0.8-2.6c0.4-1.2,1.3-1.9,2.6-1.9c2.8,0,5.7,0,8.5,0c1.4,0,2.2,0.7,2.5,1.9c0.4,1.3-0.1,2.9-1.1,2.9
	c-4,0.2-2.9,3-2.9,5.2C399.5,197,399.6,200.2,399.6,203.4z"/>
<path class="st0" d="M45.7,203.3c0-5.2,0-10.3,0-15.5c0-1.9,0.1-3.9,2.7-3.9c2.5,0,2.7,1.9,2.7,3.9c0,9,0.1,18-0.1,27
	c0,2.5,0.5,3.6,3.3,3.4c3.5-0.2,7-0.1,10.5,0c1.8,0,3.3,0.6,3.4,2.8c0.1,2.3-1.5,2.8-3.3,2.8c-5.2,0.1-10.3,0-15.5,0
	c-2.8,0-3.8-1.3-3.7-4C45.8,214.3,45.7,208.8,45.7,203.3z"/>
<path class="st0" d="M460.4,218.8c-0.8-2.8-0.7-5.3,3.1-4.6c2.2,0.4,6.8-2.3,5.9,3.4c-0.4,2.3,2,6.6-3.5,6
	C462.9,223.2,458.4,224.6,460.4,218.8z"/>
<path class="st0" d="M532.6,223.1c-5.9,1.9-4.4-2.7-4.6-5.6c-0.5-5.5,3.9-3.2,6.1-3.4c5.5-0.6,2.8,4.2,3.2,6.4
	C537.9,223.9,535.3,224,532.6,223.1z"/>
<path class="st0" d="M498.6,214.4c3-1,5.2-0.7,4.6,3.4c-0.3,2.3,1.8,5.8-3.4,5.7c-4-0.1-6.4-0.2-5.9-5.4
	C494.3,214.5,495,213.4,498.6,214.4z"/>
<path class="st1" d="M372,640.1c0,24,0,48,0,71.9c0,5.9-1.8,7.7-7.7,7.7c-17,0-34,0-50.9,0c-5.3,0-7.2-1.9-7.2-7.2
	c0-48.6,0-97.2,0-145.8c0-4.6,2.1-6.6,6.7-6.6c17.5,0,35,0,52.4,0c4.9,0,6.8,2,6.8,7C372,591.4,372,615.7,372,640.1z"/>
<path class="st1" d="M875.6,373.3c5.3-1.6,5.5,1.5,5.8,5.8c0.4,5.4-2.2,5.4-6.4,5.8c-6.3,0.6-4.6-3.3-5.1-6.7
	C869.2,373.4,871.4,372.5,875.6,373.3z"/>
<path class="st1" d="M875.2,400.7c-5.8,1.7-5.1-2-5.3-5.7c-0.1-3.9,0.2-6,5.1-5.7c4.3,0.3,6.5,0.6,6.4,5.9
	C881.3,400.1,879.9,401.9,875.2,400.7z"/>
<path class="st1" d="M646.6,400.8c0-8.4,0.2-16.6-0.1-24.7c-0.1-2.9,0.8-3.1,3.1-3c9.8,0.2,8.1-1,8.2,8.2c0.1,5-0.2,10,0.1,15
	c0.2,3.4-0.9,5-4.5,4.6C651.2,400.6,648.8,400.8,646.6,400.8z"/>
<path class="st1" d="M204.7,384.5c-4.9,1.6-5.6-0.9-5.6-5.2c0-4.6,1-6.1,6-6.4c6-0.2,5.4,2.8,5.9,6.9
	C211.6,385.6,208.4,385.1,204.7,384.5z"/>
<path class="st1" d="M1162.7,384.6c-4.7,1.5-5.6-0.7-5.5-5.2c0-4.4,0.6-6.3,5.8-6.5c5.8-0.2,5.6,2.6,6,6.8
	C1169.4,385.2,1166.6,385.2,1162.7,384.6z"/>
<path class="st1" d="M1093.3,378.3c-0.7-3.3-0.1-5.6,5.1-5.3c4.5,0.3,6.7,0.6,6.7,6.1c0,6-3,5.8-7.1,5.7
	C1093.3,384.6,1093.3,384.7,1093.3,378.3z"/>
<path class="st1" d="M1062.5,400.6c-0.4,0.3-0.9,0.7-1.2,0c-0.1-0.2,0.3-0.5,0.5-0.8C1062,400,1062.2,400.3,1062.5,400.6z"/>
<path class="st1" d="M619.2,384.7c-3.1,0.6-5.3,0.1-4.9-4.9c0.6-6.7,0.2-6.3,6.3-6.8c6.3-0.6,5,3.2,5.5,7
	C626.9,386.1,623,384.6,619.2,384.7z"/>
<path class="st1" d="M933.9,384.7c0-2.8,0.2-5.3-0.1-7.8c-0.4-3.2,1-3.9,3.9-3.8c7.5,0,9.1,2.1,7.3,9.6c-0.4,1.7-1.5,2-2.8,2
	C939.4,384.7,936.6,384.7,933.9,384.7z"/>
<path class="st1" d="M594,386.9c0,3.5-0.1,7,0,10.5c0.1,2.6-0.9,3.4-3.5,3.5c-7.8,0.4-7.8,0.5-7.8-7.6c0-5.5,0.2-11-0.1-16.5
	c-0.2-4.9,3.1-3.7,5.7-3.7c2.6,0,6-1.1,5.7,3.7C593.8,380.2,594,383.6,594,386.9z"/>
<path class="st1" d="M890.7,560.1c8.7,0,17.3,0.1,26,0c4.7-0.1,6.6,2.1,6.5,6.7c-0.1,8.5,0.1,17-0.1,25.5c-0.1,4.2,0.3,7.9,4.1,10.5
	c1.4,0.9,2,2,0.3,3.5c-1.6,1.5-2.4,0.8-3.7-0.3c-6.7-5.8-14-5.5-20.2,0.8c-14.7,14.7-29.3,29.5-44,44.2c-0.7,0.7-1.5,1.4-2.1,2.1
	c-1.2,1.4-2.3,1.6-3.7,0.2c-1.5-1.5-1-2.7,0.4-3.7c3.9-2.6,3.9-6.4,3.9-10.5c-0.1-23.8-0.1-47.6-0.1-71.4c0-5.8,1.6-7.5,7.3-7.5
	C873.7,560.1,882.2,560.1,890.7,560.1z"/>
<path class="st1" d="M890.7,719.2c-8.7,0-17.3,0-26,0c-5.2,0-6.8-1.7-6.8-6.8c0-8.8-0.1-17.6,0.1-26.5c0.1-3.4-0.4-6.2-3.2-8.3
	c-1.4-1.1-3-2.3-0.9-4.4c2-2,2.8-0.2,4,0.8c5.2,4.8,14,4.7,19-0.3c15.1-15.1,30.1-30.1,45.2-45.2c0.7-0.7,1.4-1.4,2.1-2.1
	c1-1.1,1.9-1.6,3.3-0.3c1.5,1.5,1.2,2.7-0.2,3.6c-4.2,2.8-4.2,7-4.1,11.5c0.1,23.5,0.1,46.9,0.1,70.4c0,6.6-1,7.6-7.4,7.6
	C907.4,719.2,899.1,719.2,890.7,719.2z"/>
<path class="st1" d="M1108.2,686.4c0,8.7,0,17.3,0,26c0,5.3-1.5,6.7-6.9,6.7c-17.2,0-34.3,0-51.5,0c-5.2,0-6.8-1.7-6.8-6.8
	c0-16.7-0.1-33.3,0.1-50c0-3.4-0.5-6.1-3.3-8.3c-1.4-1.1-3-2.3-0.8-4.4c1.9-1.9,3.1-0.5,4,0.8c2.3,3.3,5.6,3.5,9.2,3.5
	c16.3-0.1,32.7-0.1,49-0.1c5.6,0,7.1,1.5,7.1,7.1C1108.2,669.5,1108.2,678,1108.2,686.4z"/>
<path class="st1" d="M376.6,65.4c5.8,1,11.6,0.4,17.4,0.4c3.3,0,4.3,1.1,4.2,4.3c-0.1,15.1-0.1,30.2,0,45.3c0,3.5-1.1,4.6-4.6,4.5
	c-5.8-0.2-11.6,0.1-17.4,0.2c-0.2-0.3-0.5-0.5-0.7-0.8c1.2-4.6,0.5-9.3,0.5-13.9c0.1-13.1-0.1-26.3-0.1-39.4
	C376.1,65.9,376.4,65.7,376.6,65.4z"/>
<path class="st1" d="M375.9,66.1c-0.7-0.3-1.7-1-1.2-1.6c0.8-0.8,1.3,0.4,1.9,0.9C376.4,65.7,376.1,65.9,375.9,66.1z"/>
<path class="st1" d="M376.2,120.2c-0.3,0.7-0.8,1.3-1.4,0.7c-0.6-0.7,0.4-1,0.7-1.4C375.7,119.7,376,120,376.2,120.2z"/>
<path class="st1" d="M438.5,87.4c1.4-5.7,0.5-11.6,0.5-17.4c0-3.3,1.1-4.4,4.3-4.3c4.7,0.2,9.3,0.2,14,0c3.1-0.1,4,1.2,4,4.1
	c0,5.8-0.5,11.6,0.4,17.4c-0.3,0.3-0.5,0.5-0.8,0.8c-7.2-0.3-14.4-0.6-21.6,0.2C439,88,438.8,87.7,438.5,87.4z"/>
<path class="st1" d="M438.9,98.1c-0.7-0.3-1.7-1-1.2-1.6c0.8-0.8,1.3,0.4,1.9,0.9C439.4,97.7,439.1,97.9,438.9,98.1z"/>
<path class="st1" d="M461.7,87.4c0.3,0.5,0.9,1.3,0.9,1.4c-0.9,0.8-1.3,0.1-1.7-0.6C461.1,87.9,461.4,87.6,461.7,87.4z"/>
<path class="st1" d="M439.3,88.3c-0.3,0.6-0.9,1.2-1.5,0.6c-0.7-0.7,0.3-1,0.7-1.5C438.8,87.7,439,88,439.3,88.3z"/>
<path class="st1" d="M461.5,96.5c0.4,0,0.8,0,1.2,0.1c-0.2,0.2-0.3,0.5-0.5,0.7C462,97,461.8,96.7,461.5,96.5z"/>
<path class="st1" d="M122.4,90.1c1.6-9.3,1.2-17.4,0.5-25.4c5.3,2.3,11.5,1,17.4,1c4,0,5.8,1,5.4,5.3c-0.3,4-0.3,8,0,12
	c0.2,3.6-0.9,5.2-4.8,4.9c-4.3-0.3-8.7-0.1-13-0.1C126.1,87.9,124,87.5,122.4,90.1z"/>
<path class="st1" d="M123.4,98.5c-0.3-0.4-0.7-0.7-1-1.1c0.3-0.2,0.6-0.5,0.8-0.7c0.4,0.3,0.7,0.6,1.1,1
	C124,98,123.7,98.3,123.4,98.5z"/>
<path class="st1" d="M122.4,97.5c0-0.4-0.1-0.8-0.1-1.1c0.3,0.1,0.6,0.3,0.9,0.4C122.9,97,122.7,97.2,122.4,97.5z"/>
<path class="st1" d="M59.9,119.9c1.2-5.4,0.5-10.9,0.5-16.4c0.1-10.5,0.1-20.9,0-31.4c0-2.6,0.6-5.2-2.3-8.2c7,3.3,13,2,18.7,1.9
	c4.9-0.1,6.1,1.4,6,6.2c-0.3,14.1-0.3,28.2,0,42.4c0.1,4.3-1,5.9-5.5,5.7c-5.6-0.2-11.2-0.9-16.8,0.5
	C60.4,120.3,60.1,120.1,59.9,119.9z"/>
<path class="st1" d="M60.6,120.6c-0.4,0.3-0.7,1.2-1.3,0.6c-0.5-0.5-0.1-1.1,0.6-1.3C60.1,120.1,60.4,120.3,60.6,120.6z"/>
<path class="st1" d="M186.9,92.6c0-7.7,0.1-15.3,0-23c-0.1-2.8,0.9-3.8,3.7-3.7c4.8,0.2,9.7,0.1,14.5,0c2.7-0.1,3.9,0.7,3.9,3.7
	c-0.1,15.7-0.1,31.3,0,47c0,2.6-1,3.5-3.6,3.4c-4.7-0.1-9.3-0.2-14,0c-3.4,0.2-4.7-0.8-4.6-4.4C187.1,107.9,186.9,100.2,186.9,92.6z
	"/>
<path class="st1" d="M565.3,98.6c-0.6-0.7-1.8-1.1-0.9-2.3c0.6,0.5,1.2,1,1.8,1.5C565.9,98.1,565.6,98.3,565.3,98.6z"/>
<path class="st1" d="M564.8,121.3c-0.2-0.2-0.6-0.3-0.6-0.5c0-0.2,0.2-0.5,0.3-0.8c0.2,0.1,0.7,0.3,0.7,0.3
	C565.1,120.7,564.9,121,564.8,121.3z"/>
<path class="st1" d="M564.7,87.9c0.2,0.2,0.5,0.6,0.5,0.6c-0.2,0.3-0.5,0.5-0.7,0.8c-0.1-0.3-0.3-0.5-0.3-0.8
	C564.2,88.3,564.5,88.1,564.7,87.9z"/>
<path class="st1" d="M565.1,64.9c0.4,0.3,0.7,0.6,1.1,0.9c-0.3,0.2-0.6,0.5-0.9,0.7c-0.3-0.3-0.6-0.7-0.9-1
	C564.7,65.3,564.9,65.1,565.1,64.9z"/>
<path class="st1" d="M564.4,65.5c-0.1-0.4-0.1-0.7-0.2-1.1c0.3,0.2,0.6,0.3,0.9,0.5C564.9,65.1,564.7,65.3,564.4,65.5z"/>
<path class="st1" d="M249.4,87.4c1.1-6.1,0.4-12.2,0.4-18.4c0-2.6,0.7-3.4,3.3-3.2c5,0.2,10,0.2,14.9,0c3.1-0.1,4.1,1.1,3.9,4.1
	c-0.2,4.6-0.2,9.3,0,13.9c0.2,3.4-1.3,4.2-4.4,4.1c-5.8-0.1-11.6,0.2-17.4,0.3C249.9,87.9,249.7,87.7,249.4,87.4z"/>
<path class="st1" d="M250.2,88.2c-0.3,0.6-0.8,1.2-1.3,0.8c-1.1-0.8,0.2-1.1,0.5-1.6C249.7,87.7,249.9,87.9,250.2,88.2z"/>
<path class="st1" d="M249.7,98.3c-0.3-0.4-0.6-0.7-0.9-1.1c0.2-0.2,0.5-0.5,0.7-0.7c0.4,0.3,0.7,0.6,1.1,0.9
	C250.2,97.7,250,98,249.7,98.3z"/>
<path class="st1" d="M248.8,97.2c-0.2-0.2-0.3-0.4-0.5-0.7c0.4,0,0.8,0,1.2,0C249.3,96.7,249,97,248.8,97.2z"/>
<path class="st1" d="M518,66c-0.7-0.2-1.2-0.9-0.9-1.3c0.9-0.8,1,0.5,1.5,0.8C518.4,65.7,518.2,65.9,518,66z"/>
<path class="st1" d="M90.7,200.8c-5.1,1.5-5.7-1-5.8-5.5c-0.2-5.1,1.4-6,6.3-6.3c5.8-0.3,5.6,2.5,5.9,6.6
	C97.4,200.9,95.1,201.7,90.7,200.8z"/>
</svg>
